M48
INCH,TZ
T1C0.0118
T2C0.0157
T3C0.0276
T4C0.0315
T5C0.0374
T6C0.0394
T7C0.0551
T8C0.1260
%
G90
G05
T1
X50350Y-43720
X52630Y-37082
X52630Y-37898
X52730Y-35100
X53558Y-35100
X54492Y-38100
X54940Y-37240
X55050Y-36530
X55080Y-36960
X55308Y-38100
X55600Y-36098
X55744Y-35426
X55880Y-38240
X57090Y-35282
X57090Y-36098
X67139Y-40211
X68124Y-39824
X75200Y-36070
X75630Y-36040
X77460Y-37716
X77970Y-37490
T2
X42840Y-34453
X42840Y-35949
X42840Y-37445
X42840Y-41186
X42840Y-42682
X42840Y-44178
X43588Y-41934
X43588Y-43430
X43962Y-44552
X45084Y-44178
X45450Y-40564
X46206Y-44552
X46550Y-36100
X47720Y-41310
X47850Y-36690
X48450Y-37819
X49060Y-39770
X49198Y-42308
X49198Y-44552
X51068Y-37445
X51068Y-41560
X51442Y-38567
X51442Y-40438
X51442Y-42682
X52190Y-41934
X52938Y-42682
X53686Y-41934
X54434Y-42682
X55182Y-41934
X55930Y-42682
X56304Y-38941
X56678Y-40064
X56678Y-41934
X56678Y-43430
X57426Y-42682
X57800Y-37819
X58174Y-41560
X58922Y-42308
X59340Y-43680
X59350Y-40520
X60418Y-34827
X60418Y-36323
X61166Y-35575
X61166Y-38941
X62130Y-35040
X62580Y-38500
X62662Y-35949
X62662Y-37819
X62662Y-42308
X63411Y-44552
X64159Y-38941
X64159Y-43430
X64533Y-34827
X64820Y-42620
X64880Y-37940
X64907Y-44178
X66403Y-43056
X67151Y-34453
X67525Y-35575
X67525Y-43430
X68273Y-34827
X68647Y-43056
X69021Y-35575
X69395Y-34453
X69769Y-37819
X69769Y-39316
X69769Y-40812
X70143Y-35201
X70517Y-44552
X70590Y-36670
X70891Y-34453
X71080Y-42630
X71265Y-39316
X71265Y-40812
X71265Y-43430
X72013Y-38567
X72013Y-40064
X72013Y-44178
X72387Y-43056
X72900Y-37560
X72910Y-36070
X73135Y-43804
X73509Y-35201
X73509Y-38567
X73509Y-40064
X73883Y-43056
X73883Y-44552
X74257Y-35949
X74257Y-37819
X74257Y-39316
X74257Y-40812
X74631Y-43804
X75005Y-34453
X75005Y-38567
X75005Y-40064
X75379Y-43056
X75379Y-44552
X75753Y-37819
X75753Y-39316
X75753Y-40812
X76501Y-38567
X76501Y-40064
X77249Y-39316
X77249Y-40812
X77997Y-38567
X77997Y-40064
T3
X48290Y-42430
X48290Y-44430
X49290Y-43430
T4
X50330Y-38600
X50330Y-40521
T5
X45040Y-34800
X45040Y-35784
X45040Y-36769
X58740Y-35747
X58740Y-36731
X58740Y-37716
X58740Y-38700
X66150Y-42015
X66155Y-36720
X67134Y-42015
X67139Y-36720
X68119Y-42015
X68124Y-36720
X69103Y-42015
X69108Y-36720
T6
X45075Y-42265
X45075Y-43249
T7
X47660Y-35140
X50250Y-35110
T8
X43680Y-39370
X77330Y-34870
X77330Y-43860
T0
M30
