G04 #@! TF.GenerationSoftware,KiCad,Pcbnew,5.1.9*
G04 #@! TF.CreationDate,2021-01-29T13:56:36+08:00*
G04 #@! TF.ProjectId,LaserSwitch-Slave,4c617365-7253-4776-9974-63682d536c61,rev?*
G04 #@! TF.SameCoordinates,Original*
G04 #@! TF.FileFunction,Paste,Bot*
G04 #@! TF.FilePolarity,Positive*
%FSLAX46Y46*%
G04 Gerber Fmt 4.6, Leading zero omitted, Abs format (unit mm)*
G04 Created by KiCad (PCBNEW 5.1.9) date 2021-01-29 13:56:36*
%MOMM*%
%LPD*%
G01*
G04 APERTURE LIST*
%ADD10R,1.000000X1.000000*%
G04 APERTURE END LIST*
G04 #@! TO.C,U2*
G36*
G01*
X119388200Y-100516400D02*
X119188200Y-100516400D01*
G75*
G02*
X119088200Y-100416400I0J100000D01*
G01*
X119088200Y-99141400D01*
G75*
G02*
X119188200Y-99041400I100000J0D01*
G01*
X119388200Y-99041400D01*
G75*
G02*
X119488200Y-99141400I0J-100000D01*
G01*
X119488200Y-100416400D01*
G75*
G02*
X119388200Y-100516400I-100000J0D01*
G01*
G37*
G36*
G01*
X118738200Y-100516400D02*
X118538200Y-100516400D01*
G75*
G02*
X118438200Y-100416400I0J100000D01*
G01*
X118438200Y-99141400D01*
G75*
G02*
X118538200Y-99041400I100000J0D01*
G01*
X118738200Y-99041400D01*
G75*
G02*
X118838200Y-99141400I0J-100000D01*
G01*
X118838200Y-100416400D01*
G75*
G02*
X118738200Y-100516400I-100000J0D01*
G01*
G37*
G36*
G01*
X118088200Y-100516400D02*
X117888200Y-100516400D01*
G75*
G02*
X117788200Y-100416400I0J100000D01*
G01*
X117788200Y-99141400D01*
G75*
G02*
X117888200Y-99041400I100000J0D01*
G01*
X118088200Y-99041400D01*
G75*
G02*
X118188200Y-99141400I0J-100000D01*
G01*
X118188200Y-100416400D01*
G75*
G02*
X118088200Y-100516400I-100000J0D01*
G01*
G37*
G36*
G01*
X117438200Y-100516400D02*
X117238200Y-100516400D01*
G75*
G02*
X117138200Y-100416400I0J100000D01*
G01*
X117138200Y-99141400D01*
G75*
G02*
X117238200Y-99041400I100000J0D01*
G01*
X117438200Y-99041400D01*
G75*
G02*
X117538200Y-99141400I0J-100000D01*
G01*
X117538200Y-100416400D01*
G75*
G02*
X117438200Y-100516400I-100000J0D01*
G01*
G37*
G36*
G01*
X117438200Y-106241400D02*
X117238200Y-106241400D01*
G75*
G02*
X117138200Y-106141400I0J100000D01*
G01*
X117138200Y-104866400D01*
G75*
G02*
X117238200Y-104766400I100000J0D01*
G01*
X117438200Y-104766400D01*
G75*
G02*
X117538200Y-104866400I0J-100000D01*
G01*
X117538200Y-106141400D01*
G75*
G02*
X117438200Y-106241400I-100000J0D01*
G01*
G37*
G36*
G01*
X118088200Y-106241400D02*
X117888200Y-106241400D01*
G75*
G02*
X117788200Y-106141400I0J100000D01*
G01*
X117788200Y-104866400D01*
G75*
G02*
X117888200Y-104766400I100000J0D01*
G01*
X118088200Y-104766400D01*
G75*
G02*
X118188200Y-104866400I0J-100000D01*
G01*
X118188200Y-106141400D01*
G75*
G02*
X118088200Y-106241400I-100000J0D01*
G01*
G37*
G36*
G01*
X118738200Y-106241400D02*
X118538200Y-106241400D01*
G75*
G02*
X118438200Y-106141400I0J100000D01*
G01*
X118438200Y-104866400D01*
G75*
G02*
X118538200Y-104766400I100000J0D01*
G01*
X118738200Y-104766400D01*
G75*
G02*
X118838200Y-104866400I0J-100000D01*
G01*
X118838200Y-106141400D01*
G75*
G02*
X118738200Y-106241400I-100000J0D01*
G01*
G37*
G36*
G01*
X119388200Y-106241400D02*
X119188200Y-106241400D01*
G75*
G02*
X119088200Y-106141400I0J100000D01*
G01*
X119088200Y-104866400D01*
G75*
G02*
X119188200Y-104766400I100000J0D01*
G01*
X119388200Y-104766400D01*
G75*
G02*
X119488200Y-104866400I0J-100000D01*
G01*
X119488200Y-106141400D01*
G75*
G02*
X119388200Y-106241400I-100000J0D01*
G01*
G37*
G04 #@! TD*
G04 #@! TO.C,R7*
G36*
G01*
X114992999Y-102431800D02*
X115893001Y-102431800D01*
G75*
G02*
X116143000Y-102681799I0J-249999D01*
G01*
X116143000Y-103381801D01*
G75*
G02*
X115893001Y-103631800I-249999J0D01*
G01*
X114992999Y-103631800D01*
G75*
G02*
X114743000Y-103381801I0J249999D01*
G01*
X114743000Y-102681799D01*
G75*
G02*
X114992999Y-102431800I249999J0D01*
G01*
G37*
G36*
G01*
X114992999Y-100431800D02*
X115893001Y-100431800D01*
G75*
G02*
X116143000Y-100681799I0J-249999D01*
G01*
X116143000Y-101381801D01*
G75*
G02*
X115893001Y-101631800I-249999J0D01*
G01*
X114992999Y-101631800D01*
G75*
G02*
X114743000Y-101381801I0J249999D01*
G01*
X114743000Y-100681799D01*
G75*
G02*
X114992999Y-100431800I249999J0D01*
G01*
G37*
G04 #@! TD*
G04 #@! TO.C,R6*
G36*
G01*
X114204800Y-104655199D02*
X114204800Y-105555201D01*
G75*
G02*
X113954801Y-105805200I-249999J0D01*
G01*
X113254799Y-105805200D01*
G75*
G02*
X113004800Y-105555201I0J249999D01*
G01*
X113004800Y-104655199D01*
G75*
G02*
X113254799Y-104405200I249999J0D01*
G01*
X113954801Y-104405200D01*
G75*
G02*
X114204800Y-104655199I0J-249999D01*
G01*
G37*
G36*
G01*
X116204800Y-104655199D02*
X116204800Y-105555201D01*
G75*
G02*
X115954801Y-105805200I-249999J0D01*
G01*
X115254799Y-105805200D01*
G75*
G02*
X115004800Y-105555201I0J249999D01*
G01*
X115004800Y-104655199D01*
G75*
G02*
X115254799Y-104405200I249999J0D01*
G01*
X115954801Y-104405200D01*
G75*
G02*
X116204800Y-104655199I0J-249999D01*
G01*
G37*
G04 #@! TD*
G04 #@! TO.C,R4*
G36*
G01*
X116084400Y-97289199D02*
X116084400Y-98189201D01*
G75*
G02*
X115834401Y-98439200I-249999J0D01*
G01*
X115134399Y-98439200D01*
G75*
G02*
X114884400Y-98189201I0J249999D01*
G01*
X114884400Y-97289199D01*
G75*
G02*
X115134399Y-97039200I249999J0D01*
G01*
X115834401Y-97039200D01*
G75*
G02*
X116084400Y-97289199I0J-249999D01*
G01*
G37*
G36*
G01*
X118084400Y-97289199D02*
X118084400Y-98189201D01*
G75*
G02*
X117834401Y-98439200I-249999J0D01*
G01*
X117134399Y-98439200D01*
G75*
G02*
X116884400Y-98189201I0J249999D01*
G01*
X116884400Y-97289199D01*
G75*
G02*
X117134399Y-97039200I249999J0D01*
G01*
X117834401Y-97039200D01*
G75*
G02*
X118084400Y-97289199I0J-249999D01*
G01*
G37*
G04 #@! TD*
G04 #@! TO.C,R3*
G36*
G01*
X118954600Y-110497199D02*
X118954600Y-111397201D01*
G75*
G02*
X118704601Y-111647200I-249999J0D01*
G01*
X118004599Y-111647200D01*
G75*
G02*
X117754600Y-111397201I0J249999D01*
G01*
X117754600Y-110497199D01*
G75*
G02*
X118004599Y-110247200I249999J0D01*
G01*
X118704601Y-110247200D01*
G75*
G02*
X118954600Y-110497199I0J-249999D01*
G01*
G37*
G36*
G01*
X120954600Y-110497199D02*
X120954600Y-111397201D01*
G75*
G02*
X120704601Y-111647200I-249999J0D01*
G01*
X120004599Y-111647200D01*
G75*
G02*
X119754600Y-111397201I0J249999D01*
G01*
X119754600Y-110497199D01*
G75*
G02*
X120004599Y-110247200I249999J0D01*
G01*
X120704601Y-110247200D01*
G75*
G02*
X120954600Y-110497199I0J-249999D01*
G01*
G37*
G04 #@! TD*
G04 #@! TO.C,U4*
G36*
G01*
X124451400Y-95674400D02*
X124451400Y-95474400D01*
G75*
G02*
X124551400Y-95374400I100000J0D01*
G01*
X125826400Y-95374400D01*
G75*
G02*
X125926400Y-95474400I0J-100000D01*
G01*
X125926400Y-95674400D01*
G75*
G02*
X125826400Y-95774400I-100000J0D01*
G01*
X124551400Y-95774400D01*
G75*
G02*
X124451400Y-95674400I0J100000D01*
G01*
G37*
G36*
G01*
X124451400Y-95024400D02*
X124451400Y-94824400D01*
G75*
G02*
X124551400Y-94724400I100000J0D01*
G01*
X125826400Y-94724400D01*
G75*
G02*
X125926400Y-94824400I0J-100000D01*
G01*
X125926400Y-95024400D01*
G75*
G02*
X125826400Y-95124400I-100000J0D01*
G01*
X124551400Y-95124400D01*
G75*
G02*
X124451400Y-95024400I0J100000D01*
G01*
G37*
G36*
G01*
X124451400Y-94374400D02*
X124451400Y-94174400D01*
G75*
G02*
X124551400Y-94074400I100000J0D01*
G01*
X125826400Y-94074400D01*
G75*
G02*
X125926400Y-94174400I0J-100000D01*
G01*
X125926400Y-94374400D01*
G75*
G02*
X125826400Y-94474400I-100000J0D01*
G01*
X124551400Y-94474400D01*
G75*
G02*
X124451400Y-94374400I0J100000D01*
G01*
G37*
G36*
G01*
X124451400Y-93724400D02*
X124451400Y-93524400D01*
G75*
G02*
X124551400Y-93424400I100000J0D01*
G01*
X125826400Y-93424400D01*
G75*
G02*
X125926400Y-93524400I0J-100000D01*
G01*
X125926400Y-93724400D01*
G75*
G02*
X125826400Y-93824400I-100000J0D01*
G01*
X124551400Y-93824400D01*
G75*
G02*
X124451400Y-93724400I0J100000D01*
G01*
G37*
G36*
G01*
X124451400Y-93074400D02*
X124451400Y-92874400D01*
G75*
G02*
X124551400Y-92774400I100000J0D01*
G01*
X125826400Y-92774400D01*
G75*
G02*
X125926400Y-92874400I0J-100000D01*
G01*
X125926400Y-93074400D01*
G75*
G02*
X125826400Y-93174400I-100000J0D01*
G01*
X124551400Y-93174400D01*
G75*
G02*
X124451400Y-93074400I0J100000D01*
G01*
G37*
G36*
G01*
X124451400Y-92424400D02*
X124451400Y-92224400D01*
G75*
G02*
X124551400Y-92124400I100000J0D01*
G01*
X125826400Y-92124400D01*
G75*
G02*
X125926400Y-92224400I0J-100000D01*
G01*
X125926400Y-92424400D01*
G75*
G02*
X125826400Y-92524400I-100000J0D01*
G01*
X124551400Y-92524400D01*
G75*
G02*
X124451400Y-92424400I0J100000D01*
G01*
G37*
G36*
G01*
X124451400Y-91774400D02*
X124451400Y-91574400D01*
G75*
G02*
X124551400Y-91474400I100000J0D01*
G01*
X125826400Y-91474400D01*
G75*
G02*
X125926400Y-91574400I0J-100000D01*
G01*
X125926400Y-91774400D01*
G75*
G02*
X125826400Y-91874400I-100000J0D01*
G01*
X124551400Y-91874400D01*
G75*
G02*
X124451400Y-91774400I0J100000D01*
G01*
G37*
G36*
G01*
X118726400Y-91774400D02*
X118726400Y-91574400D01*
G75*
G02*
X118826400Y-91474400I100000J0D01*
G01*
X120101400Y-91474400D01*
G75*
G02*
X120201400Y-91574400I0J-100000D01*
G01*
X120201400Y-91774400D01*
G75*
G02*
X120101400Y-91874400I-100000J0D01*
G01*
X118826400Y-91874400D01*
G75*
G02*
X118726400Y-91774400I0J100000D01*
G01*
G37*
G36*
G01*
X118726400Y-92424400D02*
X118726400Y-92224400D01*
G75*
G02*
X118826400Y-92124400I100000J0D01*
G01*
X120101400Y-92124400D01*
G75*
G02*
X120201400Y-92224400I0J-100000D01*
G01*
X120201400Y-92424400D01*
G75*
G02*
X120101400Y-92524400I-100000J0D01*
G01*
X118826400Y-92524400D01*
G75*
G02*
X118726400Y-92424400I0J100000D01*
G01*
G37*
G36*
G01*
X118726400Y-93074400D02*
X118726400Y-92874400D01*
G75*
G02*
X118826400Y-92774400I100000J0D01*
G01*
X120101400Y-92774400D01*
G75*
G02*
X120201400Y-92874400I0J-100000D01*
G01*
X120201400Y-93074400D01*
G75*
G02*
X120101400Y-93174400I-100000J0D01*
G01*
X118826400Y-93174400D01*
G75*
G02*
X118726400Y-93074400I0J100000D01*
G01*
G37*
G36*
G01*
X118726400Y-93724400D02*
X118726400Y-93524400D01*
G75*
G02*
X118826400Y-93424400I100000J0D01*
G01*
X120101400Y-93424400D01*
G75*
G02*
X120201400Y-93524400I0J-100000D01*
G01*
X120201400Y-93724400D01*
G75*
G02*
X120101400Y-93824400I-100000J0D01*
G01*
X118826400Y-93824400D01*
G75*
G02*
X118726400Y-93724400I0J100000D01*
G01*
G37*
G36*
G01*
X118726400Y-94374400D02*
X118726400Y-94174400D01*
G75*
G02*
X118826400Y-94074400I100000J0D01*
G01*
X120101400Y-94074400D01*
G75*
G02*
X120201400Y-94174400I0J-100000D01*
G01*
X120201400Y-94374400D01*
G75*
G02*
X120101400Y-94474400I-100000J0D01*
G01*
X118826400Y-94474400D01*
G75*
G02*
X118726400Y-94374400I0J100000D01*
G01*
G37*
G36*
G01*
X118726400Y-95024400D02*
X118726400Y-94824400D01*
G75*
G02*
X118826400Y-94724400I100000J0D01*
G01*
X120101400Y-94724400D01*
G75*
G02*
X120201400Y-94824400I0J-100000D01*
G01*
X120201400Y-95024400D01*
G75*
G02*
X120101400Y-95124400I-100000J0D01*
G01*
X118826400Y-95124400D01*
G75*
G02*
X118726400Y-95024400I0J100000D01*
G01*
G37*
G36*
G01*
X118726400Y-95674400D02*
X118726400Y-95474400D01*
G75*
G02*
X118826400Y-95374400I100000J0D01*
G01*
X120101400Y-95374400D01*
G75*
G02*
X120201400Y-95474400I0J-100000D01*
G01*
X120201400Y-95674400D01*
G75*
G02*
X120101400Y-95774400I-100000J0D01*
G01*
X118826400Y-95774400D01*
G75*
G02*
X118726400Y-95674400I0J100000D01*
G01*
G37*
G04 #@! TD*
G04 #@! TO.C,C16*
G36*
G01*
X116009000Y-95029000D02*
X116009000Y-95979000D01*
G75*
G02*
X115759000Y-96229000I-250000J0D01*
G01*
X115084000Y-96229000D01*
G75*
G02*
X114834000Y-95979000I0J250000D01*
G01*
X114834000Y-95029000D01*
G75*
G02*
X115084000Y-94779000I250000J0D01*
G01*
X115759000Y-94779000D01*
G75*
G02*
X116009000Y-95029000I0J-250000D01*
G01*
G37*
G36*
G01*
X118084000Y-95029000D02*
X118084000Y-95979000D01*
G75*
G02*
X117834000Y-96229000I-250000J0D01*
G01*
X117159000Y-96229000D01*
G75*
G02*
X116909000Y-95979000I0J250000D01*
G01*
X116909000Y-95029000D01*
G75*
G02*
X117159000Y-94779000I250000J0D01*
G01*
X117834000Y-94779000D01*
G75*
G02*
X118084000Y-95029000I0J-250000D01*
G01*
G37*
G04 #@! TD*
G04 #@! TO.C,R1*
G36*
G01*
X122866200Y-102343799D02*
X122866200Y-103243801D01*
G75*
G02*
X122616201Y-103493800I-249999J0D01*
G01*
X121916199Y-103493800D01*
G75*
G02*
X121666200Y-103243801I0J249999D01*
G01*
X121666200Y-102343799D01*
G75*
G02*
X121916199Y-102093800I249999J0D01*
G01*
X122616201Y-102093800D01*
G75*
G02*
X122866200Y-102343799I0J-249999D01*
G01*
G37*
G36*
G01*
X124866200Y-102343799D02*
X124866200Y-103243801D01*
G75*
G02*
X124616201Y-103493800I-249999J0D01*
G01*
X123916199Y-103493800D01*
G75*
G02*
X123666200Y-103243801I0J249999D01*
G01*
X123666200Y-102343799D01*
G75*
G02*
X123916199Y-102093800I249999J0D01*
G01*
X124616201Y-102093800D01*
G75*
G02*
X124866200Y-102343799I0J-249999D01*
G01*
G37*
G04 #@! TD*
D10*
G04 #@! TO.C,D2*
X122016200Y-104927400D03*
X124516200Y-104927400D03*
G04 #@! TD*
G04 #@! TO.C,C15*
G36*
G01*
X138996000Y-96299000D02*
X138996000Y-97249000D01*
G75*
G02*
X138746000Y-97499000I-250000J0D01*
G01*
X138071000Y-97499000D01*
G75*
G02*
X137821000Y-97249000I0J250000D01*
G01*
X137821000Y-96299000D01*
G75*
G02*
X138071000Y-96049000I250000J0D01*
G01*
X138746000Y-96049000D01*
G75*
G02*
X138996000Y-96299000I0J-250000D01*
G01*
G37*
G36*
G01*
X141071000Y-96299000D02*
X141071000Y-97249000D01*
G75*
G02*
X140821000Y-97499000I-250000J0D01*
G01*
X140146000Y-97499000D01*
G75*
G02*
X139896000Y-97249000I0J250000D01*
G01*
X139896000Y-96299000D01*
G75*
G02*
X140146000Y-96049000I250000J0D01*
G01*
X140821000Y-96049000D01*
G75*
G02*
X141071000Y-96299000I0J-250000D01*
G01*
G37*
G04 #@! TD*
G04 #@! TO.C,C14*
G36*
G01*
X144533600Y-91102600D02*
X145483600Y-91102600D01*
G75*
G02*
X145733600Y-91352600I0J-250000D01*
G01*
X145733600Y-92027600D01*
G75*
G02*
X145483600Y-92277600I-250000J0D01*
G01*
X144533600Y-92277600D01*
G75*
G02*
X144283600Y-92027600I0J250000D01*
G01*
X144283600Y-91352600D01*
G75*
G02*
X144533600Y-91102600I250000J0D01*
G01*
G37*
G36*
G01*
X144533600Y-89027600D02*
X145483600Y-89027600D01*
G75*
G02*
X145733600Y-89277600I0J-250000D01*
G01*
X145733600Y-89952600D01*
G75*
G02*
X145483600Y-90202600I-250000J0D01*
G01*
X144533600Y-90202600D01*
G75*
G02*
X144283600Y-89952600I0J250000D01*
G01*
X144283600Y-89277600D01*
G75*
G02*
X144533600Y-89027600I250000J0D01*
G01*
G37*
G04 #@! TD*
G04 #@! TO.C,C13*
G36*
G01*
X135451000Y-89629000D02*
X135451000Y-88679000D01*
G75*
G02*
X135701000Y-88429000I250000J0D01*
G01*
X136376000Y-88429000D01*
G75*
G02*
X136626000Y-88679000I0J-250000D01*
G01*
X136626000Y-89629000D01*
G75*
G02*
X136376000Y-89879000I-250000J0D01*
G01*
X135701000Y-89879000D01*
G75*
G02*
X135451000Y-89629000I0J250000D01*
G01*
G37*
G36*
G01*
X133376000Y-89629000D02*
X133376000Y-88679000D01*
G75*
G02*
X133626000Y-88429000I250000J0D01*
G01*
X134301000Y-88429000D01*
G75*
G02*
X134551000Y-88679000I0J-250000D01*
G01*
X134551000Y-89629000D01*
G75*
G02*
X134301000Y-89879000I-250000J0D01*
G01*
X133626000Y-89879000D01*
G75*
G02*
X133376000Y-89629000I0J250000D01*
G01*
G37*
G04 #@! TD*
G04 #@! TO.C,C12*
G36*
G01*
X134155200Y-94774600D02*
X133205200Y-94774600D01*
G75*
G02*
X132955200Y-94524600I0J250000D01*
G01*
X132955200Y-93849600D01*
G75*
G02*
X133205200Y-93599600I250000J0D01*
G01*
X134155200Y-93599600D01*
G75*
G02*
X134405200Y-93849600I0J-250000D01*
G01*
X134405200Y-94524600D01*
G75*
G02*
X134155200Y-94774600I-250000J0D01*
G01*
G37*
G36*
G01*
X134155200Y-96849600D02*
X133205200Y-96849600D01*
G75*
G02*
X132955200Y-96599600I0J250000D01*
G01*
X132955200Y-95924600D01*
G75*
G02*
X133205200Y-95674600I250000J0D01*
G01*
X134155200Y-95674600D01*
G75*
G02*
X134405200Y-95924600I0J-250000D01*
G01*
X134405200Y-96599600D01*
G75*
G02*
X134155200Y-96849600I-250000J0D01*
G01*
G37*
G04 #@! TD*
G04 #@! TO.C,C11*
G36*
G01*
X141699000Y-90202600D02*
X140749000Y-90202600D01*
G75*
G02*
X140499000Y-89952600I0J250000D01*
G01*
X140499000Y-89277600D01*
G75*
G02*
X140749000Y-89027600I250000J0D01*
G01*
X141699000Y-89027600D01*
G75*
G02*
X141949000Y-89277600I0J-250000D01*
G01*
X141949000Y-89952600D01*
G75*
G02*
X141699000Y-90202600I-250000J0D01*
G01*
G37*
G36*
G01*
X141699000Y-92277600D02*
X140749000Y-92277600D01*
G75*
G02*
X140499000Y-92027600I0J250000D01*
G01*
X140499000Y-91352600D01*
G75*
G02*
X140749000Y-91102600I250000J0D01*
G01*
X141699000Y-91102600D01*
G75*
G02*
X141949000Y-91352600I0J-250000D01*
G01*
X141949000Y-92027600D01*
G75*
G02*
X141699000Y-92277600I-250000J0D01*
G01*
G37*
G04 #@! TD*
G04 #@! TO.C,C7*
G36*
G01*
X122841600Y-98889800D02*
X122841600Y-99839800D01*
G75*
G02*
X122591600Y-100089800I-250000J0D01*
G01*
X121916600Y-100089800D01*
G75*
G02*
X121666600Y-99839800I0J250000D01*
G01*
X121666600Y-98889800D01*
G75*
G02*
X121916600Y-98639800I250000J0D01*
G01*
X122591600Y-98639800D01*
G75*
G02*
X122841600Y-98889800I0J-250000D01*
G01*
G37*
G36*
G01*
X124916600Y-98889800D02*
X124916600Y-99839800D01*
G75*
G02*
X124666600Y-100089800I-250000J0D01*
G01*
X123991600Y-100089800D01*
G75*
G02*
X123741600Y-99839800I0J250000D01*
G01*
X123741600Y-98889800D01*
G75*
G02*
X123991600Y-98639800I250000J0D01*
G01*
X124666600Y-98639800D01*
G75*
G02*
X124916600Y-98889800I0J-250000D01*
G01*
G37*
G04 #@! TD*
G04 #@! TO.C,C2*
G36*
G01*
X119804600Y-109466400D02*
X119804600Y-108516400D01*
G75*
G02*
X120054600Y-108266400I250000J0D01*
G01*
X120729600Y-108266400D01*
G75*
G02*
X120979600Y-108516400I0J-250000D01*
G01*
X120979600Y-109466400D01*
G75*
G02*
X120729600Y-109716400I-250000J0D01*
G01*
X120054600Y-109716400D01*
G75*
G02*
X119804600Y-109466400I0J250000D01*
G01*
G37*
G36*
G01*
X117729600Y-109466400D02*
X117729600Y-108516400D01*
G75*
G02*
X117979600Y-108266400I250000J0D01*
G01*
X118654600Y-108266400D01*
G75*
G02*
X118904600Y-108516400I0J-250000D01*
G01*
X118904600Y-109466400D01*
G75*
G02*
X118654600Y-109716400I-250000J0D01*
G01*
X117979600Y-109716400D01*
G75*
G02*
X117729600Y-109466400I0J250000D01*
G01*
G37*
G04 #@! TD*
M02*
