G04 #@! TF.GenerationSoftware,KiCad,Pcbnew,5.1.9*
G04 #@! TF.CreationDate,2021-01-29T13:56:36+08:00*
G04 #@! TF.ProjectId,LaserSwitch-Slave,4c617365-7253-4776-9974-63682d536c61,rev?*
G04 #@! TF.SameCoordinates,Original*
G04 #@! TF.FileFunction,Legend,Bot*
G04 #@! TF.FilePolarity,Positive*
%FSLAX46Y46*%
G04 Gerber Fmt 4.6, Leading zero omitted, Abs format (unit mm)*
G04 Created by KiCad (PCBNEW 5.1.9) date 2021-01-29 13:56:36*
%MOMM*%
%LPD*%
G01*
G04 APERTURE LIST*
%ADD10C,0.120000*%
%ADD11C,0.010000*%
%ADD12C,0.150000*%
G04 APERTURE END LIST*
D10*
G04 #@! TO.C,U2*
X116703200Y-102641400D02*
X116703200Y-100441400D01*
X116703200Y-102641400D02*
X116703200Y-104841400D01*
X119923200Y-102641400D02*
X119923200Y-100441400D01*
X119923200Y-102641400D02*
X119923200Y-106241400D01*
G04 #@! TO.C,R7*
X114708000Y-101804736D02*
X114708000Y-102258864D01*
X116178000Y-101804736D02*
X116178000Y-102258864D01*
G04 #@! TO.C,R6*
X114831864Y-104370200D02*
X114377736Y-104370200D01*
X114831864Y-105840200D02*
X114377736Y-105840200D01*
G04 #@! TO.C,R4*
X116711464Y-97004200D02*
X116257336Y-97004200D01*
X116711464Y-98474200D02*
X116257336Y-98474200D01*
G04 #@! TO.C,R3*
X119581664Y-110212200D02*
X119127536Y-110212200D01*
X119581664Y-111682200D02*
X119127536Y-111682200D01*
G04 #@! TO.C,U4*
X122326400Y-91014400D02*
X124526400Y-91014400D01*
X122326400Y-91014400D02*
X120126400Y-91014400D01*
X122326400Y-96234400D02*
X124526400Y-96234400D01*
X122326400Y-96234400D02*
X118726400Y-96234400D01*
D11*
G04 #@! TO.C,G\u002A\u002A\u002A*
G36*
X193421000Y-94030800D02*
G01*
X180721000Y-94030800D01*
X180721000Y-97523300D01*
X181546500Y-97523300D01*
X181546500Y-94856300D01*
X184213500Y-94856300D01*
X184213500Y-97523300D01*
X181546500Y-97523300D01*
X180721000Y-97523300D01*
X180721000Y-102857300D01*
X181546500Y-102857300D01*
X181546500Y-102666800D01*
X181562234Y-102531869D01*
X181636454Y-102482137D01*
X181737000Y-102476300D01*
X181871931Y-102460566D01*
X181921663Y-102386346D01*
X181927500Y-102285800D01*
X181911765Y-102150869D01*
X181837545Y-102101137D01*
X181737000Y-102095300D01*
X181546500Y-102095300D01*
X181546500Y-101333300D01*
X181737000Y-101333300D01*
X181871931Y-101317566D01*
X181921663Y-101243346D01*
X181927500Y-101142800D01*
X181911765Y-101007869D01*
X181837545Y-100958137D01*
X181737000Y-100952300D01*
X181546500Y-100952300D01*
X181546500Y-99809300D01*
X181737000Y-99809300D01*
X181871931Y-99825035D01*
X181921663Y-99899255D01*
X181927500Y-99999800D01*
X181943234Y-100134732D01*
X182017454Y-100184464D01*
X182118000Y-100190300D01*
X182252931Y-100206035D01*
X182302663Y-100280255D01*
X182308500Y-100380800D01*
X182324234Y-100515732D01*
X182398454Y-100565464D01*
X182499000Y-100571300D01*
X182633931Y-100555566D01*
X182683663Y-100481346D01*
X182689500Y-100380800D01*
X182705234Y-100245869D01*
X182779454Y-100196137D01*
X182880000Y-100190300D01*
X183014931Y-100174566D01*
X183064663Y-100100346D01*
X183070500Y-99999800D01*
X183054765Y-99864869D01*
X182980545Y-99815137D01*
X182880000Y-99809300D01*
X182745068Y-99793566D01*
X182695336Y-99719346D01*
X182689500Y-99618800D01*
X182689500Y-99428300D01*
X181927500Y-99428300D01*
X181927500Y-99237800D01*
X181911765Y-99102869D01*
X181837545Y-99053137D01*
X181737000Y-99047300D01*
X181602068Y-99031566D01*
X181552336Y-98957346D01*
X181546500Y-98856800D01*
X181562234Y-98721869D01*
X181636454Y-98672137D01*
X181737000Y-98666300D01*
X181871931Y-98650566D01*
X181921663Y-98576346D01*
X181927500Y-98475800D01*
X181911765Y-98340869D01*
X181837545Y-98291137D01*
X181737000Y-98285300D01*
X181602068Y-98269566D01*
X181552336Y-98195346D01*
X181546500Y-98094800D01*
X181562234Y-97959869D01*
X181636454Y-97910137D01*
X181737000Y-97904300D01*
X181871931Y-97920035D01*
X181921663Y-97994255D01*
X181927500Y-98094800D01*
X181927500Y-98285300D01*
X182689500Y-98285300D01*
X182689500Y-97904300D01*
X183451500Y-97904300D01*
X183451500Y-98094800D01*
X183467234Y-98229732D01*
X183541454Y-98279464D01*
X183642000Y-98285300D01*
X183776931Y-98269566D01*
X183826663Y-98195346D01*
X183832500Y-98094800D01*
X183832500Y-97904300D01*
X184594500Y-97904300D01*
X184594500Y-96380300D01*
X184785000Y-96380300D01*
X184919931Y-96364566D01*
X184969663Y-96290346D01*
X184975500Y-96189800D01*
X184959765Y-96054869D01*
X184885545Y-96005137D01*
X184785000Y-95999300D01*
X184594500Y-95999300D01*
X184594500Y-94856300D01*
X185356500Y-94856300D01*
X185356500Y-95237300D01*
X186118500Y-95237300D01*
X186118500Y-95046800D01*
X186134234Y-94911869D01*
X186208454Y-94862137D01*
X186309000Y-94856300D01*
X186443931Y-94872035D01*
X186493663Y-94946255D01*
X186499500Y-95046800D01*
X186483765Y-95181732D01*
X186409545Y-95231464D01*
X186309000Y-95237300D01*
X186174068Y-95253035D01*
X186124336Y-95327255D01*
X186118500Y-95427800D01*
X186118500Y-95618300D01*
X185356500Y-95618300D01*
X185356500Y-96761300D01*
X185737500Y-96761300D01*
X185737500Y-95999300D01*
X186118500Y-95999300D01*
X186118500Y-96761300D01*
X186880500Y-96761300D01*
X186880500Y-95999300D01*
X186690000Y-95999300D01*
X186555068Y-95983566D01*
X186505336Y-95909346D01*
X186499500Y-95808800D01*
X186515234Y-95673869D01*
X186589454Y-95624137D01*
X186690000Y-95618300D01*
X186824931Y-95634035D01*
X186874663Y-95708255D01*
X186880500Y-95808800D01*
X186896234Y-95943732D01*
X186970454Y-95993464D01*
X187071000Y-95999300D01*
X187261500Y-95999300D01*
X187261500Y-96761300D01*
X187642500Y-96761300D01*
X187642500Y-95618300D01*
X187261500Y-95618300D01*
X187261500Y-94856300D01*
X188023500Y-94856300D01*
X188023500Y-95237300D01*
X188785500Y-95237300D01*
X188785500Y-94856300D01*
X189928500Y-94856300D01*
X189928500Y-95618300D01*
X189166500Y-95618300D01*
X189166500Y-95808800D01*
X189182234Y-95943732D01*
X189256454Y-95993464D01*
X189357000Y-95999300D01*
X189491931Y-96015035D01*
X189541663Y-96089255D01*
X189547500Y-96189800D01*
X189547500Y-96380300D01*
X190309500Y-96380300D01*
X190309500Y-95618300D01*
X190500000Y-95618300D01*
X190634931Y-95602566D01*
X190684663Y-95528346D01*
X190690500Y-95427800D01*
X190674765Y-95292869D01*
X190600545Y-95243137D01*
X190500000Y-95237300D01*
X190365068Y-95221566D01*
X190315336Y-95147346D01*
X190309500Y-95046800D01*
X190309500Y-94856300D01*
X191071500Y-94856300D01*
X191071500Y-95618300D01*
X191262000Y-95618300D01*
X191396931Y-95634035D01*
X191446663Y-95708255D01*
X191452500Y-95808800D01*
X191452500Y-95999300D01*
X192214500Y-95999300D01*
X192214500Y-95808800D01*
X192198765Y-95673869D01*
X192124545Y-95624137D01*
X192024000Y-95618300D01*
X191833500Y-95618300D01*
X191833500Y-94856300D01*
X192595500Y-94856300D01*
X192595500Y-95046800D01*
X192579765Y-95181732D01*
X192505545Y-95231464D01*
X192405000Y-95237300D01*
X192270068Y-95253035D01*
X192220336Y-95327255D01*
X192214500Y-95427800D01*
X192230234Y-95562732D01*
X192304454Y-95612464D01*
X192405000Y-95618300D01*
X192595500Y-95618300D01*
X192595500Y-96380300D01*
X191452500Y-96380300D01*
X191452500Y-96189800D01*
X191436765Y-96054869D01*
X191362545Y-96005137D01*
X191262000Y-95999300D01*
X191071500Y-95999300D01*
X191071500Y-96761300D01*
X191452500Y-96761300D01*
X191452500Y-97523300D01*
X191833500Y-97523300D01*
X191833500Y-96761300D01*
X192024000Y-96761300D01*
X192158931Y-96777035D01*
X192208663Y-96851255D01*
X192214500Y-96951800D01*
X192230234Y-97086732D01*
X192304454Y-97136464D01*
X192405000Y-97142300D01*
X192595500Y-97142300D01*
X192595500Y-97904300D01*
X191452500Y-97904300D01*
X191452500Y-97713800D01*
X191436765Y-97578869D01*
X191362545Y-97529137D01*
X191262000Y-97523300D01*
X191071500Y-97523300D01*
X191071500Y-98285300D01*
X191262000Y-98285300D01*
X191396931Y-98301035D01*
X191446663Y-98375255D01*
X191452500Y-98475800D01*
X191436765Y-98610732D01*
X191362545Y-98660464D01*
X191262000Y-98666300D01*
X191127068Y-98682035D01*
X191077336Y-98756255D01*
X191071500Y-98856800D01*
X191071500Y-99047300D01*
X191833500Y-99047300D01*
X191833500Y-98285300D01*
X192024000Y-98285300D01*
X192158931Y-98301035D01*
X192208663Y-98375255D01*
X192214500Y-98475800D01*
X192230234Y-98610732D01*
X192304454Y-98660464D01*
X192405000Y-98666300D01*
X192595500Y-98666300D01*
X192595500Y-99809300D01*
X192405000Y-99809300D01*
X192270068Y-99825035D01*
X192220336Y-99899255D01*
X192214500Y-99999800D01*
X192230234Y-100134732D01*
X192304454Y-100184464D01*
X192405000Y-100190300D01*
X192595500Y-100190300D01*
X192595500Y-101333300D01*
X192405000Y-101333300D01*
X192270068Y-101349035D01*
X192220336Y-101423255D01*
X192214500Y-101523800D01*
X192230234Y-101658732D01*
X192304454Y-101708464D01*
X192405000Y-101714300D01*
X192595500Y-101714300D01*
X192595500Y-102476300D01*
X192405000Y-102476300D01*
X192270068Y-102460566D01*
X192220336Y-102386346D01*
X192214500Y-102285800D01*
X192214500Y-102095300D01*
X191452500Y-102095300D01*
X191452500Y-102285800D01*
X191468234Y-102420732D01*
X191542454Y-102470464D01*
X191643000Y-102476300D01*
X191777931Y-102492035D01*
X191827663Y-102566255D01*
X191833500Y-102666800D01*
X191817765Y-102801732D01*
X191743545Y-102851464D01*
X191643000Y-102857300D01*
X191508068Y-102841566D01*
X191458336Y-102767346D01*
X191452500Y-102666800D01*
X191436765Y-102531869D01*
X191362545Y-102482137D01*
X191262000Y-102476300D01*
X191127068Y-102460566D01*
X191077336Y-102386346D01*
X191071500Y-102285800D01*
X191055765Y-102150869D01*
X190981545Y-102101137D01*
X190881000Y-102095300D01*
X190746068Y-102079566D01*
X190696336Y-102005346D01*
X190690500Y-101904800D01*
X190674765Y-101769869D01*
X190600545Y-101720137D01*
X190500000Y-101714300D01*
X190309500Y-101714300D01*
X190309500Y-102857300D01*
X189166500Y-102857300D01*
X189166500Y-103047800D01*
X189182234Y-103182732D01*
X189256454Y-103232464D01*
X189357000Y-103238300D01*
X189547500Y-103238300D01*
X189547500Y-104000300D01*
X189357000Y-104000300D01*
X189222068Y-104016035D01*
X189172336Y-104090255D01*
X189166500Y-104190800D01*
X189150765Y-104325732D01*
X189076545Y-104375464D01*
X188976000Y-104381300D01*
X188841068Y-104397035D01*
X188791336Y-104471255D01*
X188785500Y-104571800D01*
X188769765Y-104706732D01*
X188695545Y-104756464D01*
X188595000Y-104762300D01*
X188460068Y-104746566D01*
X188410336Y-104672346D01*
X188404500Y-104571800D01*
X188388765Y-104436869D01*
X188314545Y-104387137D01*
X188214000Y-104381300D01*
X188079068Y-104397035D01*
X188029336Y-104471255D01*
X188023500Y-104571800D01*
X188007765Y-104706732D01*
X187933545Y-104756464D01*
X187833000Y-104762300D01*
X187698068Y-104778035D01*
X187648336Y-104852255D01*
X187642500Y-104952800D01*
X187658234Y-105087732D01*
X187732454Y-105137464D01*
X187833000Y-105143300D01*
X187967931Y-105159035D01*
X188017663Y-105233255D01*
X188023500Y-105333800D01*
X188007765Y-105468732D01*
X187933545Y-105518464D01*
X187833000Y-105524300D01*
X187698068Y-105540035D01*
X187648336Y-105614255D01*
X187642500Y-105714800D01*
X187642500Y-105905300D01*
X188404500Y-105905300D01*
X188404500Y-105714800D01*
X188420234Y-105579869D01*
X188494454Y-105530137D01*
X188595000Y-105524300D01*
X188729931Y-105508566D01*
X188779663Y-105434346D01*
X188785500Y-105333800D01*
X188801234Y-105198869D01*
X188875454Y-105149137D01*
X188976000Y-105143300D01*
X189110931Y-105127566D01*
X189160663Y-105053346D01*
X189166500Y-104952800D01*
X189182234Y-104817869D01*
X189256454Y-104768137D01*
X189357000Y-104762300D01*
X189547500Y-104762300D01*
X189547500Y-105524300D01*
X189357000Y-105524300D01*
X189222068Y-105540035D01*
X189172336Y-105614255D01*
X189166500Y-105714800D01*
X189166500Y-105905300D01*
X189928500Y-105905300D01*
X189928500Y-103238300D01*
X192595500Y-103238300D01*
X192595500Y-105905300D01*
X189928500Y-105905300D01*
X189166500Y-105905300D01*
X188404500Y-105905300D01*
X187642500Y-105905300D01*
X186118500Y-105905300D01*
X186118500Y-105524300D01*
X185356500Y-105524300D01*
X185356500Y-105714800D01*
X185340765Y-105849732D01*
X185266545Y-105899464D01*
X185166000Y-105905300D01*
X185031068Y-105889566D01*
X184981336Y-105815346D01*
X184975500Y-105714800D01*
X184991234Y-105579869D01*
X185065454Y-105530137D01*
X185166000Y-105524300D01*
X185300931Y-105508566D01*
X185350663Y-105434346D01*
X185356500Y-105333800D01*
X185356500Y-105143300D01*
X184594500Y-105143300D01*
X184594500Y-104952800D01*
X184610234Y-104817869D01*
X184684454Y-104768137D01*
X184785000Y-104762300D01*
X184919931Y-104746566D01*
X184969663Y-104672346D01*
X184975500Y-104571800D01*
X184991234Y-104436869D01*
X185065454Y-104387137D01*
X185166000Y-104381300D01*
X185300931Y-104365566D01*
X185350663Y-104291346D01*
X185356500Y-104190800D01*
X185340765Y-104055869D01*
X185266545Y-104006137D01*
X185166000Y-104000300D01*
X185031068Y-103984566D01*
X184981336Y-103910346D01*
X184975500Y-103809800D01*
X184959765Y-103674869D01*
X184885545Y-103625137D01*
X184785000Y-103619300D01*
X184594500Y-103619300D01*
X184594500Y-102857300D01*
X183070500Y-102857300D01*
X183070500Y-102095300D01*
X182880000Y-102095300D01*
X182745068Y-102079566D01*
X182695336Y-102005346D01*
X182689500Y-101904800D01*
X182673765Y-101769869D01*
X182599545Y-101720137D01*
X182499000Y-101714300D01*
X182364068Y-101698566D01*
X182314336Y-101624346D01*
X182308500Y-101523800D01*
X182292765Y-101388869D01*
X182218545Y-101339137D01*
X182118000Y-101333300D01*
X181927500Y-101333300D01*
X181927500Y-102095300D01*
X182118000Y-102095300D01*
X182252931Y-102111035D01*
X182302663Y-102185255D01*
X182308500Y-102285800D01*
X182324234Y-102420732D01*
X182398454Y-102470464D01*
X182499000Y-102476300D01*
X182633931Y-102492035D01*
X182683663Y-102566255D01*
X182689500Y-102666800D01*
X182689500Y-102857300D01*
X181546500Y-102857300D01*
X180721000Y-102857300D01*
X180721000Y-105905300D01*
X181546500Y-105905300D01*
X181546500Y-103238300D01*
X184213500Y-103238300D01*
X184213500Y-105905300D01*
X181546500Y-105905300D01*
X180721000Y-105905300D01*
X180721000Y-106730800D01*
X193421000Y-106730800D01*
X193421000Y-94030800D01*
G37*
X193421000Y-94030800D02*
X180721000Y-94030800D01*
X180721000Y-97523300D01*
X181546500Y-97523300D01*
X181546500Y-94856300D01*
X184213500Y-94856300D01*
X184213500Y-97523300D01*
X181546500Y-97523300D01*
X180721000Y-97523300D01*
X180721000Y-102857300D01*
X181546500Y-102857300D01*
X181546500Y-102666800D01*
X181562234Y-102531869D01*
X181636454Y-102482137D01*
X181737000Y-102476300D01*
X181871931Y-102460566D01*
X181921663Y-102386346D01*
X181927500Y-102285800D01*
X181911765Y-102150869D01*
X181837545Y-102101137D01*
X181737000Y-102095300D01*
X181546500Y-102095300D01*
X181546500Y-101333300D01*
X181737000Y-101333300D01*
X181871931Y-101317566D01*
X181921663Y-101243346D01*
X181927500Y-101142800D01*
X181911765Y-101007869D01*
X181837545Y-100958137D01*
X181737000Y-100952300D01*
X181546500Y-100952300D01*
X181546500Y-99809300D01*
X181737000Y-99809300D01*
X181871931Y-99825035D01*
X181921663Y-99899255D01*
X181927500Y-99999800D01*
X181943234Y-100134732D01*
X182017454Y-100184464D01*
X182118000Y-100190300D01*
X182252931Y-100206035D01*
X182302663Y-100280255D01*
X182308500Y-100380800D01*
X182324234Y-100515732D01*
X182398454Y-100565464D01*
X182499000Y-100571300D01*
X182633931Y-100555566D01*
X182683663Y-100481346D01*
X182689500Y-100380800D01*
X182705234Y-100245869D01*
X182779454Y-100196137D01*
X182880000Y-100190300D01*
X183014931Y-100174566D01*
X183064663Y-100100346D01*
X183070500Y-99999800D01*
X183054765Y-99864869D01*
X182980545Y-99815137D01*
X182880000Y-99809300D01*
X182745068Y-99793566D01*
X182695336Y-99719346D01*
X182689500Y-99618800D01*
X182689500Y-99428300D01*
X181927500Y-99428300D01*
X181927500Y-99237800D01*
X181911765Y-99102869D01*
X181837545Y-99053137D01*
X181737000Y-99047300D01*
X181602068Y-99031566D01*
X181552336Y-98957346D01*
X181546500Y-98856800D01*
X181562234Y-98721869D01*
X181636454Y-98672137D01*
X181737000Y-98666300D01*
X181871931Y-98650566D01*
X181921663Y-98576346D01*
X181927500Y-98475800D01*
X181911765Y-98340869D01*
X181837545Y-98291137D01*
X181737000Y-98285300D01*
X181602068Y-98269566D01*
X181552336Y-98195346D01*
X181546500Y-98094800D01*
X181562234Y-97959869D01*
X181636454Y-97910137D01*
X181737000Y-97904300D01*
X181871931Y-97920035D01*
X181921663Y-97994255D01*
X181927500Y-98094800D01*
X181927500Y-98285300D01*
X182689500Y-98285300D01*
X182689500Y-97904300D01*
X183451500Y-97904300D01*
X183451500Y-98094800D01*
X183467234Y-98229732D01*
X183541454Y-98279464D01*
X183642000Y-98285300D01*
X183776931Y-98269566D01*
X183826663Y-98195346D01*
X183832500Y-98094800D01*
X183832500Y-97904300D01*
X184594500Y-97904300D01*
X184594500Y-96380300D01*
X184785000Y-96380300D01*
X184919931Y-96364566D01*
X184969663Y-96290346D01*
X184975500Y-96189800D01*
X184959765Y-96054869D01*
X184885545Y-96005137D01*
X184785000Y-95999300D01*
X184594500Y-95999300D01*
X184594500Y-94856300D01*
X185356500Y-94856300D01*
X185356500Y-95237300D01*
X186118500Y-95237300D01*
X186118500Y-95046800D01*
X186134234Y-94911869D01*
X186208454Y-94862137D01*
X186309000Y-94856300D01*
X186443931Y-94872035D01*
X186493663Y-94946255D01*
X186499500Y-95046800D01*
X186483765Y-95181732D01*
X186409545Y-95231464D01*
X186309000Y-95237300D01*
X186174068Y-95253035D01*
X186124336Y-95327255D01*
X186118500Y-95427800D01*
X186118500Y-95618300D01*
X185356500Y-95618300D01*
X185356500Y-96761300D01*
X185737500Y-96761300D01*
X185737500Y-95999300D01*
X186118500Y-95999300D01*
X186118500Y-96761300D01*
X186880500Y-96761300D01*
X186880500Y-95999300D01*
X186690000Y-95999300D01*
X186555068Y-95983566D01*
X186505336Y-95909346D01*
X186499500Y-95808800D01*
X186515234Y-95673869D01*
X186589454Y-95624137D01*
X186690000Y-95618300D01*
X186824931Y-95634035D01*
X186874663Y-95708255D01*
X186880500Y-95808800D01*
X186896234Y-95943732D01*
X186970454Y-95993464D01*
X187071000Y-95999300D01*
X187261500Y-95999300D01*
X187261500Y-96761300D01*
X187642500Y-96761300D01*
X187642500Y-95618300D01*
X187261500Y-95618300D01*
X187261500Y-94856300D01*
X188023500Y-94856300D01*
X188023500Y-95237300D01*
X188785500Y-95237300D01*
X188785500Y-94856300D01*
X189928500Y-94856300D01*
X189928500Y-95618300D01*
X189166500Y-95618300D01*
X189166500Y-95808800D01*
X189182234Y-95943732D01*
X189256454Y-95993464D01*
X189357000Y-95999300D01*
X189491931Y-96015035D01*
X189541663Y-96089255D01*
X189547500Y-96189800D01*
X189547500Y-96380300D01*
X190309500Y-96380300D01*
X190309500Y-95618300D01*
X190500000Y-95618300D01*
X190634931Y-95602566D01*
X190684663Y-95528346D01*
X190690500Y-95427800D01*
X190674765Y-95292869D01*
X190600545Y-95243137D01*
X190500000Y-95237300D01*
X190365068Y-95221566D01*
X190315336Y-95147346D01*
X190309500Y-95046800D01*
X190309500Y-94856300D01*
X191071500Y-94856300D01*
X191071500Y-95618300D01*
X191262000Y-95618300D01*
X191396931Y-95634035D01*
X191446663Y-95708255D01*
X191452500Y-95808800D01*
X191452500Y-95999300D01*
X192214500Y-95999300D01*
X192214500Y-95808800D01*
X192198765Y-95673869D01*
X192124545Y-95624137D01*
X192024000Y-95618300D01*
X191833500Y-95618300D01*
X191833500Y-94856300D01*
X192595500Y-94856300D01*
X192595500Y-95046800D01*
X192579765Y-95181732D01*
X192505545Y-95231464D01*
X192405000Y-95237300D01*
X192270068Y-95253035D01*
X192220336Y-95327255D01*
X192214500Y-95427800D01*
X192230234Y-95562732D01*
X192304454Y-95612464D01*
X192405000Y-95618300D01*
X192595500Y-95618300D01*
X192595500Y-96380300D01*
X191452500Y-96380300D01*
X191452500Y-96189800D01*
X191436765Y-96054869D01*
X191362545Y-96005137D01*
X191262000Y-95999300D01*
X191071500Y-95999300D01*
X191071500Y-96761300D01*
X191452500Y-96761300D01*
X191452500Y-97523300D01*
X191833500Y-97523300D01*
X191833500Y-96761300D01*
X192024000Y-96761300D01*
X192158931Y-96777035D01*
X192208663Y-96851255D01*
X192214500Y-96951800D01*
X192230234Y-97086732D01*
X192304454Y-97136464D01*
X192405000Y-97142300D01*
X192595500Y-97142300D01*
X192595500Y-97904300D01*
X191452500Y-97904300D01*
X191452500Y-97713800D01*
X191436765Y-97578869D01*
X191362545Y-97529137D01*
X191262000Y-97523300D01*
X191071500Y-97523300D01*
X191071500Y-98285300D01*
X191262000Y-98285300D01*
X191396931Y-98301035D01*
X191446663Y-98375255D01*
X191452500Y-98475800D01*
X191436765Y-98610732D01*
X191362545Y-98660464D01*
X191262000Y-98666300D01*
X191127068Y-98682035D01*
X191077336Y-98756255D01*
X191071500Y-98856800D01*
X191071500Y-99047300D01*
X191833500Y-99047300D01*
X191833500Y-98285300D01*
X192024000Y-98285300D01*
X192158931Y-98301035D01*
X192208663Y-98375255D01*
X192214500Y-98475800D01*
X192230234Y-98610732D01*
X192304454Y-98660464D01*
X192405000Y-98666300D01*
X192595500Y-98666300D01*
X192595500Y-99809300D01*
X192405000Y-99809300D01*
X192270068Y-99825035D01*
X192220336Y-99899255D01*
X192214500Y-99999800D01*
X192230234Y-100134732D01*
X192304454Y-100184464D01*
X192405000Y-100190300D01*
X192595500Y-100190300D01*
X192595500Y-101333300D01*
X192405000Y-101333300D01*
X192270068Y-101349035D01*
X192220336Y-101423255D01*
X192214500Y-101523800D01*
X192230234Y-101658732D01*
X192304454Y-101708464D01*
X192405000Y-101714300D01*
X192595500Y-101714300D01*
X192595500Y-102476300D01*
X192405000Y-102476300D01*
X192270068Y-102460566D01*
X192220336Y-102386346D01*
X192214500Y-102285800D01*
X192214500Y-102095300D01*
X191452500Y-102095300D01*
X191452500Y-102285800D01*
X191468234Y-102420732D01*
X191542454Y-102470464D01*
X191643000Y-102476300D01*
X191777931Y-102492035D01*
X191827663Y-102566255D01*
X191833500Y-102666800D01*
X191817765Y-102801732D01*
X191743545Y-102851464D01*
X191643000Y-102857300D01*
X191508068Y-102841566D01*
X191458336Y-102767346D01*
X191452500Y-102666800D01*
X191436765Y-102531869D01*
X191362545Y-102482137D01*
X191262000Y-102476300D01*
X191127068Y-102460566D01*
X191077336Y-102386346D01*
X191071500Y-102285800D01*
X191055765Y-102150869D01*
X190981545Y-102101137D01*
X190881000Y-102095300D01*
X190746068Y-102079566D01*
X190696336Y-102005346D01*
X190690500Y-101904800D01*
X190674765Y-101769869D01*
X190600545Y-101720137D01*
X190500000Y-101714300D01*
X190309500Y-101714300D01*
X190309500Y-102857300D01*
X189166500Y-102857300D01*
X189166500Y-103047800D01*
X189182234Y-103182732D01*
X189256454Y-103232464D01*
X189357000Y-103238300D01*
X189547500Y-103238300D01*
X189547500Y-104000300D01*
X189357000Y-104000300D01*
X189222068Y-104016035D01*
X189172336Y-104090255D01*
X189166500Y-104190800D01*
X189150765Y-104325732D01*
X189076545Y-104375464D01*
X188976000Y-104381300D01*
X188841068Y-104397035D01*
X188791336Y-104471255D01*
X188785500Y-104571800D01*
X188769765Y-104706732D01*
X188695545Y-104756464D01*
X188595000Y-104762300D01*
X188460068Y-104746566D01*
X188410336Y-104672346D01*
X188404500Y-104571800D01*
X188388765Y-104436869D01*
X188314545Y-104387137D01*
X188214000Y-104381300D01*
X188079068Y-104397035D01*
X188029336Y-104471255D01*
X188023500Y-104571800D01*
X188007765Y-104706732D01*
X187933545Y-104756464D01*
X187833000Y-104762300D01*
X187698068Y-104778035D01*
X187648336Y-104852255D01*
X187642500Y-104952800D01*
X187658234Y-105087732D01*
X187732454Y-105137464D01*
X187833000Y-105143300D01*
X187967931Y-105159035D01*
X188017663Y-105233255D01*
X188023500Y-105333800D01*
X188007765Y-105468732D01*
X187933545Y-105518464D01*
X187833000Y-105524300D01*
X187698068Y-105540035D01*
X187648336Y-105614255D01*
X187642500Y-105714800D01*
X187642500Y-105905300D01*
X188404500Y-105905300D01*
X188404500Y-105714800D01*
X188420234Y-105579869D01*
X188494454Y-105530137D01*
X188595000Y-105524300D01*
X188729931Y-105508566D01*
X188779663Y-105434346D01*
X188785500Y-105333800D01*
X188801234Y-105198869D01*
X188875454Y-105149137D01*
X188976000Y-105143300D01*
X189110931Y-105127566D01*
X189160663Y-105053346D01*
X189166500Y-104952800D01*
X189182234Y-104817869D01*
X189256454Y-104768137D01*
X189357000Y-104762300D01*
X189547500Y-104762300D01*
X189547500Y-105524300D01*
X189357000Y-105524300D01*
X189222068Y-105540035D01*
X189172336Y-105614255D01*
X189166500Y-105714800D01*
X189166500Y-105905300D01*
X189928500Y-105905300D01*
X189928500Y-103238300D01*
X192595500Y-103238300D01*
X192595500Y-105905300D01*
X189928500Y-105905300D01*
X189166500Y-105905300D01*
X188404500Y-105905300D01*
X187642500Y-105905300D01*
X186118500Y-105905300D01*
X186118500Y-105524300D01*
X185356500Y-105524300D01*
X185356500Y-105714800D01*
X185340765Y-105849732D01*
X185266545Y-105899464D01*
X185166000Y-105905300D01*
X185031068Y-105889566D01*
X184981336Y-105815346D01*
X184975500Y-105714800D01*
X184991234Y-105579869D01*
X185065454Y-105530137D01*
X185166000Y-105524300D01*
X185300931Y-105508566D01*
X185350663Y-105434346D01*
X185356500Y-105333800D01*
X185356500Y-105143300D01*
X184594500Y-105143300D01*
X184594500Y-104952800D01*
X184610234Y-104817869D01*
X184684454Y-104768137D01*
X184785000Y-104762300D01*
X184919931Y-104746566D01*
X184969663Y-104672346D01*
X184975500Y-104571800D01*
X184991234Y-104436869D01*
X185065454Y-104387137D01*
X185166000Y-104381300D01*
X185300931Y-104365566D01*
X185350663Y-104291346D01*
X185356500Y-104190800D01*
X185340765Y-104055869D01*
X185266545Y-104006137D01*
X185166000Y-104000300D01*
X185031068Y-103984566D01*
X184981336Y-103910346D01*
X184975500Y-103809800D01*
X184959765Y-103674869D01*
X184885545Y-103625137D01*
X184785000Y-103619300D01*
X184594500Y-103619300D01*
X184594500Y-102857300D01*
X183070500Y-102857300D01*
X183070500Y-102095300D01*
X182880000Y-102095300D01*
X182745068Y-102079566D01*
X182695336Y-102005346D01*
X182689500Y-101904800D01*
X182673765Y-101769869D01*
X182599545Y-101720137D01*
X182499000Y-101714300D01*
X182364068Y-101698566D01*
X182314336Y-101624346D01*
X182308500Y-101523800D01*
X182292765Y-101388869D01*
X182218545Y-101339137D01*
X182118000Y-101333300D01*
X181927500Y-101333300D01*
X181927500Y-102095300D01*
X182118000Y-102095300D01*
X182252931Y-102111035D01*
X182302663Y-102185255D01*
X182308500Y-102285800D01*
X182324234Y-102420732D01*
X182398454Y-102470464D01*
X182499000Y-102476300D01*
X182633931Y-102492035D01*
X182683663Y-102566255D01*
X182689500Y-102666800D01*
X182689500Y-102857300D01*
X181546500Y-102857300D01*
X180721000Y-102857300D01*
X180721000Y-105905300D01*
X181546500Y-105905300D01*
X181546500Y-103238300D01*
X184213500Y-103238300D01*
X184213500Y-105905300D01*
X181546500Y-105905300D01*
X180721000Y-105905300D01*
X180721000Y-106730800D01*
X193421000Y-106730800D01*
X193421000Y-94030800D01*
G36*
X183832500Y-95237300D02*
G01*
X181927500Y-95237300D01*
X181927500Y-96761300D01*
X182308500Y-96761300D01*
X182308500Y-95618300D01*
X183451500Y-95618300D01*
X183451500Y-96761300D01*
X182308500Y-96761300D01*
X181927500Y-96761300D01*
X181927500Y-97142300D01*
X183832500Y-97142300D01*
X183832500Y-95237300D01*
G37*
X183832500Y-95237300D02*
X181927500Y-95237300D01*
X181927500Y-96761300D01*
X182308500Y-96761300D01*
X182308500Y-95618300D01*
X183451500Y-95618300D01*
X183451500Y-96761300D01*
X182308500Y-96761300D01*
X181927500Y-96761300D01*
X181927500Y-97142300D01*
X183832500Y-97142300D01*
X183832500Y-95237300D01*
G36*
X187261500Y-104762300D02*
G01*
X187071000Y-104762300D01*
X186936068Y-104746566D01*
X186886336Y-104672346D01*
X186880500Y-104571800D01*
X186896234Y-104436869D01*
X186970454Y-104387137D01*
X187071000Y-104381300D01*
X187205931Y-104365566D01*
X187255663Y-104291346D01*
X187261500Y-104190800D01*
X187261500Y-104000300D01*
X186499500Y-104000300D01*
X186499500Y-103809800D01*
X186515234Y-103674869D01*
X186589454Y-103625137D01*
X186690000Y-103619300D01*
X186824931Y-103603566D01*
X186874663Y-103529346D01*
X186880500Y-103428800D01*
X186896234Y-103293869D01*
X186970454Y-103244137D01*
X187071000Y-103238300D01*
X187205931Y-103254035D01*
X187255663Y-103328255D01*
X187261500Y-103428800D01*
X187277234Y-103563732D01*
X187351454Y-103613464D01*
X187452000Y-103619300D01*
X187586931Y-103603566D01*
X187636663Y-103529346D01*
X187642500Y-103428800D01*
X187658234Y-103293869D01*
X187732454Y-103244137D01*
X187833000Y-103238300D01*
X188023500Y-103238300D01*
X188023500Y-102476300D01*
X188214000Y-102476300D01*
X188348931Y-102492035D01*
X188398663Y-102566255D01*
X188404500Y-102666800D01*
X188404500Y-102857300D01*
X189166500Y-102857300D01*
X189166500Y-102095300D01*
X189357000Y-102095300D01*
X189491931Y-102111035D01*
X189541663Y-102185255D01*
X189547500Y-102285800D01*
X189563234Y-102420732D01*
X189637454Y-102470464D01*
X189738000Y-102476300D01*
X189872931Y-102460566D01*
X189922663Y-102386346D01*
X189928500Y-102285800D01*
X189912765Y-102150869D01*
X189838545Y-102101137D01*
X189738000Y-102095300D01*
X189603068Y-102079566D01*
X189553336Y-102005346D01*
X189547500Y-101904800D01*
X189547500Y-101714300D01*
X190309500Y-101714300D01*
X190309500Y-101333300D01*
X189547500Y-101333300D01*
X189547500Y-101142800D01*
X189531765Y-101007869D01*
X189457545Y-100958137D01*
X189357000Y-100952300D01*
X189222068Y-100936566D01*
X189172336Y-100862346D01*
X189166500Y-100761800D01*
X189166500Y-100571300D01*
X189928500Y-100571300D01*
X189928500Y-100190300D01*
X189166500Y-100190300D01*
X189166500Y-99809300D01*
X188404500Y-99809300D01*
X188404500Y-100190300D01*
X187261500Y-100190300D01*
X187261500Y-99999800D01*
X187277234Y-99864869D01*
X187351454Y-99815137D01*
X187452000Y-99809300D01*
X187642500Y-99809300D01*
X187642500Y-99047300D01*
X188023500Y-99047300D01*
X188023500Y-97904300D01*
X187833000Y-97904300D01*
X187698068Y-97888566D01*
X187648336Y-97814346D01*
X187642500Y-97713800D01*
X187642500Y-97523300D01*
X188404500Y-97523300D01*
X188404500Y-97142300D01*
X189166500Y-97142300D01*
X189166500Y-95999300D01*
X188976000Y-95999300D01*
X188841068Y-95983566D01*
X188791336Y-95909346D01*
X188785500Y-95808800D01*
X188769765Y-95673869D01*
X188695545Y-95624137D01*
X188595000Y-95618300D01*
X188460068Y-95634035D01*
X188410336Y-95708255D01*
X188404500Y-95808800D01*
X188388765Y-95943732D01*
X188314545Y-95993464D01*
X188214000Y-95999300D01*
X188079068Y-96015035D01*
X188029336Y-96089255D01*
X188023500Y-96189800D01*
X188023500Y-96380300D01*
X188785500Y-96380300D01*
X188785500Y-96570800D01*
X188769765Y-96705732D01*
X188695545Y-96755464D01*
X188595000Y-96761300D01*
X188460068Y-96777035D01*
X188410336Y-96851255D01*
X188404500Y-96951800D01*
X188388765Y-97086732D01*
X188314545Y-97136464D01*
X188214000Y-97142300D01*
X188079068Y-97126566D01*
X188029336Y-97052346D01*
X188023500Y-96951800D01*
X188007765Y-96816869D01*
X187933545Y-96767137D01*
X187833000Y-96761300D01*
X187698068Y-96777035D01*
X187648336Y-96851255D01*
X187642500Y-96951800D01*
X187626765Y-97086732D01*
X187552545Y-97136464D01*
X187452000Y-97142300D01*
X187317068Y-97158035D01*
X187267336Y-97232255D01*
X187261500Y-97332800D01*
X187245765Y-97467732D01*
X187171545Y-97517464D01*
X187071000Y-97523300D01*
X186936068Y-97507566D01*
X186886336Y-97433346D01*
X186880500Y-97332800D01*
X186864765Y-97197869D01*
X186790545Y-97148137D01*
X186690000Y-97142300D01*
X186555068Y-97158035D01*
X186505336Y-97232255D01*
X186499500Y-97332800D01*
X186515234Y-97467732D01*
X186589454Y-97517464D01*
X186690000Y-97523300D01*
X186824931Y-97539035D01*
X186874663Y-97613255D01*
X186880500Y-97713800D01*
X186864765Y-97848732D01*
X186790545Y-97898464D01*
X186690000Y-97904300D01*
X186555068Y-97920035D01*
X186505336Y-97994255D01*
X186499500Y-98094800D01*
X186483765Y-98229732D01*
X186409545Y-98279464D01*
X186309000Y-98285300D01*
X186174068Y-98269566D01*
X186124336Y-98195346D01*
X186118500Y-98094800D01*
X186118500Y-97904300D01*
X184975500Y-97904300D01*
X184975500Y-98094800D01*
X184959765Y-98229732D01*
X184885545Y-98279464D01*
X184785000Y-98285300D01*
X184594500Y-98285300D01*
X184594500Y-99047300D01*
X185356500Y-99047300D01*
X185356500Y-98856800D01*
X185340765Y-98721869D01*
X185266545Y-98672137D01*
X185166000Y-98666300D01*
X185031068Y-98650566D01*
X184981336Y-98576346D01*
X184975500Y-98475800D01*
X184975500Y-98285300D01*
X186118500Y-98285300D01*
X186118500Y-98475800D01*
X186102765Y-98610732D01*
X186028545Y-98660464D01*
X185928000Y-98666300D01*
X185793068Y-98682035D01*
X185743336Y-98756255D01*
X185737500Y-98856800D01*
X186499500Y-98856800D01*
X186515234Y-98721869D01*
X186589454Y-98672137D01*
X186690000Y-98666300D01*
X186824931Y-98682035D01*
X186874663Y-98756255D01*
X186880500Y-98856800D01*
X186864765Y-98991732D01*
X186790545Y-99041464D01*
X186690000Y-99047300D01*
X186555068Y-99031566D01*
X186505336Y-98957346D01*
X186499500Y-98856800D01*
X185737500Y-98856800D01*
X185753234Y-98991732D01*
X185827454Y-99041464D01*
X185928000Y-99047300D01*
X186118500Y-99047300D01*
X186118500Y-99618800D01*
X186880500Y-99618800D01*
X186896234Y-99483869D01*
X186970454Y-99434137D01*
X187071000Y-99428300D01*
X187205931Y-99444035D01*
X187255663Y-99518255D01*
X187261500Y-99618800D01*
X187245765Y-99753732D01*
X187171545Y-99803464D01*
X187071000Y-99809300D01*
X186936068Y-99793566D01*
X186886336Y-99719346D01*
X186880500Y-99618800D01*
X186118500Y-99618800D01*
X186118500Y-99809300D01*
X186880500Y-99809300D01*
X186880500Y-99999800D01*
X186864765Y-100134732D01*
X186790545Y-100184464D01*
X186690000Y-100190300D01*
X186499500Y-100190300D01*
X186499500Y-100380800D01*
X186880500Y-100380800D01*
X186896234Y-100245869D01*
X186970454Y-100196137D01*
X187071000Y-100190300D01*
X187205931Y-100206035D01*
X187255663Y-100280255D01*
X187261500Y-100380800D01*
X187245765Y-100515732D01*
X187171545Y-100565464D01*
X187071000Y-100571300D01*
X186936068Y-100555566D01*
X186886336Y-100481346D01*
X186880500Y-100380800D01*
X186499500Y-100380800D01*
X186499500Y-100952300D01*
X186690000Y-100952300D01*
X186824931Y-100968035D01*
X186874663Y-101042255D01*
X186880500Y-101142800D01*
X186896234Y-101277732D01*
X186970454Y-101327464D01*
X187071000Y-101333300D01*
X187261500Y-101333300D01*
X187261500Y-102095300D01*
X186880500Y-102095300D01*
X186880500Y-102476300D01*
X187261500Y-102476300D01*
X187261500Y-102285800D01*
X187277234Y-102150869D01*
X187351454Y-102101137D01*
X187452000Y-102095300D01*
X187586931Y-102079566D01*
X187636663Y-102005346D01*
X187642500Y-101904800D01*
X187658234Y-101769869D01*
X187732454Y-101720137D01*
X187833000Y-101714300D01*
X188023500Y-101714300D01*
X188023500Y-100952300D01*
X187833000Y-100952300D01*
X187698068Y-100936566D01*
X187648336Y-100862346D01*
X187642500Y-100761800D01*
X187658234Y-100626869D01*
X187732454Y-100577137D01*
X187833000Y-100571300D01*
X187967931Y-100587035D01*
X188017663Y-100661255D01*
X188023500Y-100761800D01*
X188039234Y-100896732D01*
X188113454Y-100946464D01*
X188214000Y-100952300D01*
X188348931Y-100968035D01*
X188398663Y-101042255D01*
X188404500Y-101142800D01*
X188420234Y-101277732D01*
X188494454Y-101327464D01*
X188595000Y-101333300D01*
X188729931Y-101349035D01*
X188779663Y-101423255D01*
X188785500Y-101523800D01*
X189166500Y-101523800D01*
X189182234Y-101388869D01*
X189256454Y-101339137D01*
X189357000Y-101333300D01*
X189491931Y-101349035D01*
X189541663Y-101423255D01*
X189547500Y-101523800D01*
X189531765Y-101658732D01*
X189457545Y-101708464D01*
X189357000Y-101714300D01*
X189222068Y-101698566D01*
X189172336Y-101624346D01*
X189166500Y-101523800D01*
X188785500Y-101523800D01*
X188769765Y-101658732D01*
X188695545Y-101708464D01*
X188595000Y-101714300D01*
X188460068Y-101730035D01*
X188410336Y-101804255D01*
X188404500Y-101904800D01*
X188388765Y-102039732D01*
X188314545Y-102089464D01*
X188214000Y-102095300D01*
X188079068Y-102111035D01*
X188029336Y-102185255D01*
X188023500Y-102285800D01*
X188023500Y-102476300D01*
X187261500Y-102476300D01*
X186880500Y-102476300D01*
X186880500Y-103238300D01*
X186690000Y-103238300D01*
X186555068Y-103254035D01*
X186505336Y-103328255D01*
X186499500Y-103428800D01*
X186483765Y-103563732D01*
X186409545Y-103613464D01*
X186309000Y-103619300D01*
X186118500Y-103619300D01*
X186118500Y-102857300D01*
X185737500Y-102857300D01*
X185737500Y-103619300D01*
X185547000Y-103619300D01*
X185412068Y-103603566D01*
X185362336Y-103529346D01*
X185356500Y-103428800D01*
X185340765Y-103293869D01*
X185266545Y-103244137D01*
X185166000Y-103238300D01*
X185031068Y-103254035D01*
X184981336Y-103328255D01*
X184975500Y-103428800D01*
X184991234Y-103563732D01*
X185065454Y-103613464D01*
X185166000Y-103619300D01*
X185300931Y-103635035D01*
X185350663Y-103709255D01*
X185356500Y-103809800D01*
X185372234Y-103944732D01*
X185446454Y-103994464D01*
X185547000Y-104000300D01*
X185681931Y-104016035D01*
X185731663Y-104090255D01*
X185737500Y-104190800D01*
X185753234Y-104325732D01*
X185827454Y-104375464D01*
X185928000Y-104381300D01*
X186062931Y-104397035D01*
X186112663Y-104471255D01*
X186118500Y-104571800D01*
X186102765Y-104706732D01*
X186028545Y-104756464D01*
X185928000Y-104762300D01*
X185793068Y-104778035D01*
X185743336Y-104852255D01*
X185737500Y-104952800D01*
X185753234Y-105087732D01*
X185827454Y-105137464D01*
X185928000Y-105143300D01*
X186062931Y-105127566D01*
X186112663Y-105053346D01*
X186118500Y-104952800D01*
X186134234Y-104817869D01*
X186208454Y-104768137D01*
X186309000Y-104762300D01*
X186443931Y-104778035D01*
X186493663Y-104852255D01*
X186499500Y-104952800D01*
X186515234Y-105087732D01*
X186589454Y-105137464D01*
X186690000Y-105143300D01*
X186824931Y-105159035D01*
X186874663Y-105233255D01*
X186880500Y-105333800D01*
X186896234Y-105468732D01*
X186970454Y-105518464D01*
X187071000Y-105524300D01*
X187261500Y-105524300D01*
X187261500Y-104762300D01*
G37*
X187261500Y-104762300D02*
X187071000Y-104762300D01*
X186936068Y-104746566D01*
X186886336Y-104672346D01*
X186880500Y-104571800D01*
X186896234Y-104436869D01*
X186970454Y-104387137D01*
X187071000Y-104381300D01*
X187205931Y-104365566D01*
X187255663Y-104291346D01*
X187261500Y-104190800D01*
X187261500Y-104000300D01*
X186499500Y-104000300D01*
X186499500Y-103809800D01*
X186515234Y-103674869D01*
X186589454Y-103625137D01*
X186690000Y-103619300D01*
X186824931Y-103603566D01*
X186874663Y-103529346D01*
X186880500Y-103428800D01*
X186896234Y-103293869D01*
X186970454Y-103244137D01*
X187071000Y-103238300D01*
X187205931Y-103254035D01*
X187255663Y-103328255D01*
X187261500Y-103428800D01*
X187277234Y-103563732D01*
X187351454Y-103613464D01*
X187452000Y-103619300D01*
X187586931Y-103603566D01*
X187636663Y-103529346D01*
X187642500Y-103428800D01*
X187658234Y-103293869D01*
X187732454Y-103244137D01*
X187833000Y-103238300D01*
X188023500Y-103238300D01*
X188023500Y-102476300D01*
X188214000Y-102476300D01*
X188348931Y-102492035D01*
X188398663Y-102566255D01*
X188404500Y-102666800D01*
X188404500Y-102857300D01*
X189166500Y-102857300D01*
X189166500Y-102095300D01*
X189357000Y-102095300D01*
X189491931Y-102111035D01*
X189541663Y-102185255D01*
X189547500Y-102285800D01*
X189563234Y-102420732D01*
X189637454Y-102470464D01*
X189738000Y-102476300D01*
X189872931Y-102460566D01*
X189922663Y-102386346D01*
X189928500Y-102285800D01*
X189912765Y-102150869D01*
X189838545Y-102101137D01*
X189738000Y-102095300D01*
X189603068Y-102079566D01*
X189553336Y-102005346D01*
X189547500Y-101904800D01*
X189547500Y-101714300D01*
X190309500Y-101714300D01*
X190309500Y-101333300D01*
X189547500Y-101333300D01*
X189547500Y-101142800D01*
X189531765Y-101007869D01*
X189457545Y-100958137D01*
X189357000Y-100952300D01*
X189222068Y-100936566D01*
X189172336Y-100862346D01*
X189166500Y-100761800D01*
X189166500Y-100571300D01*
X189928500Y-100571300D01*
X189928500Y-100190300D01*
X189166500Y-100190300D01*
X189166500Y-99809300D01*
X188404500Y-99809300D01*
X188404500Y-100190300D01*
X187261500Y-100190300D01*
X187261500Y-99999800D01*
X187277234Y-99864869D01*
X187351454Y-99815137D01*
X187452000Y-99809300D01*
X187642500Y-99809300D01*
X187642500Y-99047300D01*
X188023500Y-99047300D01*
X188023500Y-97904300D01*
X187833000Y-97904300D01*
X187698068Y-97888566D01*
X187648336Y-97814346D01*
X187642500Y-97713800D01*
X187642500Y-97523300D01*
X188404500Y-97523300D01*
X188404500Y-97142300D01*
X189166500Y-97142300D01*
X189166500Y-95999300D01*
X188976000Y-95999300D01*
X188841068Y-95983566D01*
X188791336Y-95909346D01*
X188785500Y-95808800D01*
X188769765Y-95673869D01*
X188695545Y-95624137D01*
X188595000Y-95618300D01*
X188460068Y-95634035D01*
X188410336Y-95708255D01*
X188404500Y-95808800D01*
X188388765Y-95943732D01*
X188314545Y-95993464D01*
X188214000Y-95999300D01*
X188079068Y-96015035D01*
X188029336Y-96089255D01*
X188023500Y-96189800D01*
X188023500Y-96380300D01*
X188785500Y-96380300D01*
X188785500Y-96570800D01*
X188769765Y-96705732D01*
X188695545Y-96755464D01*
X188595000Y-96761300D01*
X188460068Y-96777035D01*
X188410336Y-96851255D01*
X188404500Y-96951800D01*
X188388765Y-97086732D01*
X188314545Y-97136464D01*
X188214000Y-97142300D01*
X188079068Y-97126566D01*
X188029336Y-97052346D01*
X188023500Y-96951800D01*
X188007765Y-96816869D01*
X187933545Y-96767137D01*
X187833000Y-96761300D01*
X187698068Y-96777035D01*
X187648336Y-96851255D01*
X187642500Y-96951800D01*
X187626765Y-97086732D01*
X187552545Y-97136464D01*
X187452000Y-97142300D01*
X187317068Y-97158035D01*
X187267336Y-97232255D01*
X187261500Y-97332800D01*
X187245765Y-97467732D01*
X187171545Y-97517464D01*
X187071000Y-97523300D01*
X186936068Y-97507566D01*
X186886336Y-97433346D01*
X186880500Y-97332800D01*
X186864765Y-97197869D01*
X186790545Y-97148137D01*
X186690000Y-97142300D01*
X186555068Y-97158035D01*
X186505336Y-97232255D01*
X186499500Y-97332800D01*
X186515234Y-97467732D01*
X186589454Y-97517464D01*
X186690000Y-97523300D01*
X186824931Y-97539035D01*
X186874663Y-97613255D01*
X186880500Y-97713800D01*
X186864765Y-97848732D01*
X186790545Y-97898464D01*
X186690000Y-97904300D01*
X186555068Y-97920035D01*
X186505336Y-97994255D01*
X186499500Y-98094800D01*
X186483765Y-98229732D01*
X186409545Y-98279464D01*
X186309000Y-98285300D01*
X186174068Y-98269566D01*
X186124336Y-98195346D01*
X186118500Y-98094800D01*
X186118500Y-97904300D01*
X184975500Y-97904300D01*
X184975500Y-98094800D01*
X184959765Y-98229732D01*
X184885545Y-98279464D01*
X184785000Y-98285300D01*
X184594500Y-98285300D01*
X184594500Y-99047300D01*
X185356500Y-99047300D01*
X185356500Y-98856800D01*
X185340765Y-98721869D01*
X185266545Y-98672137D01*
X185166000Y-98666300D01*
X185031068Y-98650566D01*
X184981336Y-98576346D01*
X184975500Y-98475800D01*
X184975500Y-98285300D01*
X186118500Y-98285300D01*
X186118500Y-98475800D01*
X186102765Y-98610732D01*
X186028545Y-98660464D01*
X185928000Y-98666300D01*
X185793068Y-98682035D01*
X185743336Y-98756255D01*
X185737500Y-98856800D01*
X186499500Y-98856800D01*
X186515234Y-98721869D01*
X186589454Y-98672137D01*
X186690000Y-98666300D01*
X186824931Y-98682035D01*
X186874663Y-98756255D01*
X186880500Y-98856800D01*
X186864765Y-98991732D01*
X186790545Y-99041464D01*
X186690000Y-99047300D01*
X186555068Y-99031566D01*
X186505336Y-98957346D01*
X186499500Y-98856800D01*
X185737500Y-98856800D01*
X185753234Y-98991732D01*
X185827454Y-99041464D01*
X185928000Y-99047300D01*
X186118500Y-99047300D01*
X186118500Y-99618800D01*
X186880500Y-99618800D01*
X186896234Y-99483869D01*
X186970454Y-99434137D01*
X187071000Y-99428300D01*
X187205931Y-99444035D01*
X187255663Y-99518255D01*
X187261500Y-99618800D01*
X187245765Y-99753732D01*
X187171545Y-99803464D01*
X187071000Y-99809300D01*
X186936068Y-99793566D01*
X186886336Y-99719346D01*
X186880500Y-99618800D01*
X186118500Y-99618800D01*
X186118500Y-99809300D01*
X186880500Y-99809300D01*
X186880500Y-99999800D01*
X186864765Y-100134732D01*
X186790545Y-100184464D01*
X186690000Y-100190300D01*
X186499500Y-100190300D01*
X186499500Y-100380800D01*
X186880500Y-100380800D01*
X186896234Y-100245869D01*
X186970454Y-100196137D01*
X187071000Y-100190300D01*
X187205931Y-100206035D01*
X187255663Y-100280255D01*
X187261500Y-100380800D01*
X187245765Y-100515732D01*
X187171545Y-100565464D01*
X187071000Y-100571300D01*
X186936068Y-100555566D01*
X186886336Y-100481346D01*
X186880500Y-100380800D01*
X186499500Y-100380800D01*
X186499500Y-100952300D01*
X186690000Y-100952300D01*
X186824931Y-100968035D01*
X186874663Y-101042255D01*
X186880500Y-101142800D01*
X186896234Y-101277732D01*
X186970454Y-101327464D01*
X187071000Y-101333300D01*
X187261500Y-101333300D01*
X187261500Y-102095300D01*
X186880500Y-102095300D01*
X186880500Y-102476300D01*
X187261500Y-102476300D01*
X187261500Y-102285800D01*
X187277234Y-102150869D01*
X187351454Y-102101137D01*
X187452000Y-102095300D01*
X187586931Y-102079566D01*
X187636663Y-102005346D01*
X187642500Y-101904800D01*
X187658234Y-101769869D01*
X187732454Y-101720137D01*
X187833000Y-101714300D01*
X188023500Y-101714300D01*
X188023500Y-100952300D01*
X187833000Y-100952300D01*
X187698068Y-100936566D01*
X187648336Y-100862346D01*
X187642500Y-100761800D01*
X187658234Y-100626869D01*
X187732454Y-100577137D01*
X187833000Y-100571300D01*
X187967931Y-100587035D01*
X188017663Y-100661255D01*
X188023500Y-100761800D01*
X188039234Y-100896732D01*
X188113454Y-100946464D01*
X188214000Y-100952300D01*
X188348931Y-100968035D01*
X188398663Y-101042255D01*
X188404500Y-101142800D01*
X188420234Y-101277732D01*
X188494454Y-101327464D01*
X188595000Y-101333300D01*
X188729931Y-101349035D01*
X188779663Y-101423255D01*
X188785500Y-101523800D01*
X189166500Y-101523800D01*
X189182234Y-101388869D01*
X189256454Y-101339137D01*
X189357000Y-101333300D01*
X189491931Y-101349035D01*
X189541663Y-101423255D01*
X189547500Y-101523800D01*
X189531765Y-101658732D01*
X189457545Y-101708464D01*
X189357000Y-101714300D01*
X189222068Y-101698566D01*
X189172336Y-101624346D01*
X189166500Y-101523800D01*
X188785500Y-101523800D01*
X188769765Y-101658732D01*
X188695545Y-101708464D01*
X188595000Y-101714300D01*
X188460068Y-101730035D01*
X188410336Y-101804255D01*
X188404500Y-101904800D01*
X188388765Y-102039732D01*
X188314545Y-102089464D01*
X188214000Y-102095300D01*
X188079068Y-102111035D01*
X188029336Y-102185255D01*
X188023500Y-102285800D01*
X188023500Y-102476300D01*
X187261500Y-102476300D01*
X186880500Y-102476300D01*
X186880500Y-103238300D01*
X186690000Y-103238300D01*
X186555068Y-103254035D01*
X186505336Y-103328255D01*
X186499500Y-103428800D01*
X186483765Y-103563732D01*
X186409545Y-103613464D01*
X186309000Y-103619300D01*
X186118500Y-103619300D01*
X186118500Y-102857300D01*
X185737500Y-102857300D01*
X185737500Y-103619300D01*
X185547000Y-103619300D01*
X185412068Y-103603566D01*
X185362336Y-103529346D01*
X185356500Y-103428800D01*
X185340765Y-103293869D01*
X185266545Y-103244137D01*
X185166000Y-103238300D01*
X185031068Y-103254035D01*
X184981336Y-103328255D01*
X184975500Y-103428800D01*
X184991234Y-103563732D01*
X185065454Y-103613464D01*
X185166000Y-103619300D01*
X185300931Y-103635035D01*
X185350663Y-103709255D01*
X185356500Y-103809800D01*
X185372234Y-103944732D01*
X185446454Y-103994464D01*
X185547000Y-104000300D01*
X185681931Y-104016035D01*
X185731663Y-104090255D01*
X185737500Y-104190800D01*
X185753234Y-104325732D01*
X185827454Y-104375464D01*
X185928000Y-104381300D01*
X186062931Y-104397035D01*
X186112663Y-104471255D01*
X186118500Y-104571800D01*
X186102765Y-104706732D01*
X186028545Y-104756464D01*
X185928000Y-104762300D01*
X185793068Y-104778035D01*
X185743336Y-104852255D01*
X185737500Y-104952800D01*
X185753234Y-105087732D01*
X185827454Y-105137464D01*
X185928000Y-105143300D01*
X186062931Y-105127566D01*
X186112663Y-105053346D01*
X186118500Y-104952800D01*
X186134234Y-104817869D01*
X186208454Y-104768137D01*
X186309000Y-104762300D01*
X186443931Y-104778035D01*
X186493663Y-104852255D01*
X186499500Y-104952800D01*
X186515234Y-105087732D01*
X186589454Y-105137464D01*
X186690000Y-105143300D01*
X186824931Y-105159035D01*
X186874663Y-105233255D01*
X186880500Y-105333800D01*
X186896234Y-105468732D01*
X186970454Y-105518464D01*
X187071000Y-105524300D01*
X187261500Y-105524300D01*
X187261500Y-104762300D01*
G36*
X191071500Y-102095300D02*
G01*
X191262000Y-102095300D01*
X191396931Y-102079566D01*
X191446663Y-102005346D01*
X191452500Y-101904800D01*
X191468234Y-101769869D01*
X191542454Y-101720137D01*
X191643000Y-101714300D01*
X191833500Y-101714300D01*
X191833500Y-100952300D01*
X192024000Y-100952300D01*
X192158931Y-100936566D01*
X192208663Y-100862346D01*
X192214500Y-100761800D01*
X192198765Y-100626869D01*
X192124545Y-100577137D01*
X192024000Y-100571300D01*
X191833500Y-100571300D01*
X191833500Y-99428300D01*
X192024000Y-99428300D01*
X192158931Y-99412566D01*
X192208663Y-99338346D01*
X192214500Y-99237800D01*
X192198765Y-99102869D01*
X192124545Y-99053137D01*
X192024000Y-99047300D01*
X191889068Y-99063035D01*
X191839336Y-99137255D01*
X191833500Y-99237800D01*
X191817765Y-99372732D01*
X191743545Y-99422464D01*
X191643000Y-99428300D01*
X191452500Y-99428300D01*
X191452500Y-101333300D01*
X191071500Y-101333300D01*
X191071500Y-102095300D01*
G37*
X191071500Y-102095300D02*
X191262000Y-102095300D01*
X191396931Y-102079566D01*
X191446663Y-102005346D01*
X191452500Y-101904800D01*
X191468234Y-101769869D01*
X191542454Y-101720137D01*
X191643000Y-101714300D01*
X191833500Y-101714300D01*
X191833500Y-100952300D01*
X192024000Y-100952300D01*
X192158931Y-100936566D01*
X192208663Y-100862346D01*
X192214500Y-100761800D01*
X192198765Y-100626869D01*
X192124545Y-100577137D01*
X192024000Y-100571300D01*
X191833500Y-100571300D01*
X191833500Y-99428300D01*
X192024000Y-99428300D01*
X192158931Y-99412566D01*
X192208663Y-99338346D01*
X192214500Y-99237800D01*
X192198765Y-99102869D01*
X192124545Y-99053137D01*
X192024000Y-99047300D01*
X191889068Y-99063035D01*
X191839336Y-99137255D01*
X191833500Y-99237800D01*
X191817765Y-99372732D01*
X191743545Y-99422464D01*
X191643000Y-99428300D01*
X191452500Y-99428300D01*
X191452500Y-101333300D01*
X191071500Y-101333300D01*
X191071500Y-102095300D01*
G36*
X186062931Y-100174566D02*
G01*
X186112663Y-100100346D01*
X186118500Y-99999800D01*
X186118500Y-99809300D01*
X185928000Y-99809300D01*
X185793068Y-99793566D01*
X185743336Y-99719346D01*
X185737500Y-99618800D01*
X185721765Y-99483869D01*
X185647545Y-99434137D01*
X185547000Y-99428300D01*
X185412068Y-99444035D01*
X185362336Y-99518255D01*
X185356500Y-99618800D01*
X185340765Y-99753732D01*
X185266545Y-99803464D01*
X185166000Y-99809300D01*
X185031068Y-99825035D01*
X184981336Y-99899255D01*
X184975500Y-99999800D01*
X184991234Y-100134732D01*
X185065454Y-100184464D01*
X185166000Y-100190300D01*
X185300931Y-100174566D01*
X185350663Y-100100346D01*
X185356500Y-99999800D01*
X185372234Y-99864869D01*
X185446454Y-99815137D01*
X185547000Y-99809300D01*
X185681931Y-99825035D01*
X185731663Y-99899255D01*
X185737500Y-99999800D01*
X185753234Y-100134732D01*
X185827454Y-100184464D01*
X185928000Y-100190300D01*
X186062931Y-100174566D01*
G37*
X186062931Y-100174566D02*
X186112663Y-100100346D01*
X186118500Y-99999800D01*
X186118500Y-99809300D01*
X185928000Y-99809300D01*
X185793068Y-99793566D01*
X185743336Y-99719346D01*
X185737500Y-99618800D01*
X185721765Y-99483869D01*
X185647545Y-99434137D01*
X185547000Y-99428300D01*
X185412068Y-99444035D01*
X185362336Y-99518255D01*
X185356500Y-99618800D01*
X185340765Y-99753732D01*
X185266545Y-99803464D01*
X185166000Y-99809300D01*
X185031068Y-99825035D01*
X184981336Y-99899255D01*
X184975500Y-99999800D01*
X184991234Y-100134732D01*
X185065454Y-100184464D01*
X185166000Y-100190300D01*
X185300931Y-100174566D01*
X185350663Y-100100346D01*
X185356500Y-99999800D01*
X185372234Y-99864869D01*
X185446454Y-99815137D01*
X185547000Y-99809300D01*
X185681931Y-99825035D01*
X185731663Y-99899255D01*
X185737500Y-99999800D01*
X185753234Y-100134732D01*
X185827454Y-100184464D01*
X185928000Y-100190300D01*
X186062931Y-100174566D01*
G36*
X185356500Y-102095300D02*
G01*
X186118500Y-102095300D01*
X186118500Y-102857300D01*
X186499500Y-102857300D01*
X186499500Y-101333300D01*
X186309000Y-101333300D01*
X186174068Y-101317566D01*
X186124336Y-101243346D01*
X186118500Y-101142800D01*
X186102765Y-101007869D01*
X186028545Y-100958137D01*
X185928000Y-100952300D01*
X185793068Y-100936566D01*
X185743336Y-100862346D01*
X185737500Y-100761800D01*
X185737500Y-100571300D01*
X184975500Y-100571300D01*
X184975500Y-101523800D01*
X185737500Y-101523800D01*
X185753234Y-101388869D01*
X185827454Y-101339137D01*
X185928000Y-101333300D01*
X186062931Y-101349035D01*
X186112663Y-101423255D01*
X186118500Y-101523800D01*
X186102765Y-101658732D01*
X186028545Y-101708464D01*
X185928000Y-101714300D01*
X185793068Y-101698566D01*
X185743336Y-101624346D01*
X185737500Y-101523800D01*
X184975500Y-101523800D01*
X184975500Y-101714300D01*
X184785000Y-101714300D01*
X184650068Y-101730035D01*
X184600336Y-101804255D01*
X184594500Y-101904800D01*
X184975500Y-101904800D01*
X184991234Y-101769869D01*
X185065454Y-101720137D01*
X185166000Y-101714300D01*
X185300931Y-101730035D01*
X185350663Y-101804255D01*
X185356500Y-101904800D01*
X185340765Y-102039732D01*
X185266545Y-102089464D01*
X185166000Y-102095300D01*
X185031068Y-102079566D01*
X184981336Y-102005346D01*
X184975500Y-101904800D01*
X184594500Y-101904800D01*
X184610234Y-102039732D01*
X184684454Y-102089464D01*
X184785000Y-102095300D01*
X184975500Y-102095300D01*
X184975500Y-102857300D01*
X185356500Y-102857300D01*
X185356500Y-102095300D01*
G37*
X185356500Y-102095300D02*
X186118500Y-102095300D01*
X186118500Y-102857300D01*
X186499500Y-102857300D01*
X186499500Y-101333300D01*
X186309000Y-101333300D01*
X186174068Y-101317566D01*
X186124336Y-101243346D01*
X186118500Y-101142800D01*
X186102765Y-101007869D01*
X186028545Y-100958137D01*
X185928000Y-100952300D01*
X185793068Y-100936566D01*
X185743336Y-100862346D01*
X185737500Y-100761800D01*
X185737500Y-100571300D01*
X184975500Y-100571300D01*
X184975500Y-101523800D01*
X185737500Y-101523800D01*
X185753234Y-101388869D01*
X185827454Y-101339137D01*
X185928000Y-101333300D01*
X186062931Y-101349035D01*
X186112663Y-101423255D01*
X186118500Y-101523800D01*
X186102765Y-101658732D01*
X186028545Y-101708464D01*
X185928000Y-101714300D01*
X185793068Y-101698566D01*
X185743336Y-101624346D01*
X185737500Y-101523800D01*
X184975500Y-101523800D01*
X184975500Y-101714300D01*
X184785000Y-101714300D01*
X184650068Y-101730035D01*
X184600336Y-101804255D01*
X184594500Y-101904800D01*
X184975500Y-101904800D01*
X184991234Y-101769869D01*
X185065454Y-101720137D01*
X185166000Y-101714300D01*
X185300931Y-101730035D01*
X185350663Y-101804255D01*
X185356500Y-101904800D01*
X185340765Y-102039732D01*
X185266545Y-102089464D01*
X185166000Y-102095300D01*
X185031068Y-102079566D01*
X184981336Y-102005346D01*
X184975500Y-101904800D01*
X184594500Y-101904800D01*
X184610234Y-102039732D01*
X184684454Y-102089464D01*
X184785000Y-102095300D01*
X184975500Y-102095300D01*
X184975500Y-102857300D01*
X185356500Y-102857300D01*
X185356500Y-102095300D01*
G36*
X187967931Y-104365566D02*
G01*
X188017663Y-104291346D01*
X188023500Y-104190800D01*
X188039234Y-104055869D01*
X188113454Y-104006137D01*
X188214000Y-104000300D01*
X188404500Y-104000300D01*
X188404500Y-103238300D01*
X188023500Y-103238300D01*
X188023500Y-104000300D01*
X187833000Y-104000300D01*
X187698068Y-104016035D01*
X187648336Y-104090255D01*
X187642500Y-104190800D01*
X187658234Y-104325732D01*
X187732454Y-104375464D01*
X187833000Y-104381300D01*
X187967931Y-104365566D01*
G37*
X187967931Y-104365566D02*
X188017663Y-104291346D01*
X188023500Y-104190800D01*
X188039234Y-104055869D01*
X188113454Y-104006137D01*
X188214000Y-104000300D01*
X188404500Y-104000300D01*
X188404500Y-103238300D01*
X188023500Y-103238300D01*
X188023500Y-104000300D01*
X187833000Y-104000300D01*
X187698068Y-104016035D01*
X187648336Y-104090255D01*
X187642500Y-104190800D01*
X187658234Y-104325732D01*
X187732454Y-104375464D01*
X187833000Y-104381300D01*
X187967931Y-104365566D01*
G36*
X191071500Y-100571300D02*
G01*
X190881000Y-100571300D01*
X190746068Y-100555566D01*
X190696336Y-100481346D01*
X190690500Y-100380800D01*
X190706234Y-100245869D01*
X190780454Y-100196137D01*
X190881000Y-100190300D01*
X191071500Y-100190300D01*
X191071500Y-99047300D01*
X190309500Y-99047300D01*
X190309500Y-98856800D01*
X190293765Y-98721869D01*
X190219545Y-98672137D01*
X190119000Y-98666300D01*
X189984068Y-98682035D01*
X189934336Y-98756255D01*
X189928500Y-98856800D01*
X189944234Y-98991732D01*
X190018454Y-99041464D01*
X190119000Y-99047300D01*
X190253931Y-99063035D01*
X190303663Y-99137255D01*
X190309500Y-99237800D01*
X190325234Y-99372732D01*
X190399454Y-99422464D01*
X190500000Y-99428300D01*
X190634931Y-99444035D01*
X190684663Y-99518255D01*
X190690500Y-99618800D01*
X190674765Y-99753732D01*
X190600545Y-99803464D01*
X190500000Y-99809300D01*
X190309500Y-99809300D01*
X190309500Y-101333300D01*
X191071500Y-101333300D01*
X191071500Y-100571300D01*
G37*
X191071500Y-100571300D02*
X190881000Y-100571300D01*
X190746068Y-100555566D01*
X190696336Y-100481346D01*
X190690500Y-100380800D01*
X190706234Y-100245869D01*
X190780454Y-100196137D01*
X190881000Y-100190300D01*
X191071500Y-100190300D01*
X191071500Y-99047300D01*
X190309500Y-99047300D01*
X190309500Y-98856800D01*
X190293765Y-98721869D01*
X190219545Y-98672137D01*
X190119000Y-98666300D01*
X189984068Y-98682035D01*
X189934336Y-98756255D01*
X189928500Y-98856800D01*
X189944234Y-98991732D01*
X190018454Y-99041464D01*
X190119000Y-99047300D01*
X190253931Y-99063035D01*
X190303663Y-99137255D01*
X190309500Y-99237800D01*
X190325234Y-99372732D01*
X190399454Y-99422464D01*
X190500000Y-99428300D01*
X190634931Y-99444035D01*
X190684663Y-99518255D01*
X190690500Y-99618800D01*
X190674765Y-99753732D01*
X190600545Y-99803464D01*
X190500000Y-99809300D01*
X190309500Y-99809300D01*
X190309500Y-101333300D01*
X191071500Y-101333300D01*
X191071500Y-100571300D01*
G36*
X186062931Y-97126566D02*
G01*
X186112663Y-97052346D01*
X186118500Y-96951800D01*
X186102765Y-96816869D01*
X186028545Y-96767137D01*
X185928000Y-96761300D01*
X185793068Y-96777035D01*
X185743336Y-96851255D01*
X185737500Y-96951800D01*
X185753234Y-97086732D01*
X185827454Y-97136464D01*
X185928000Y-97142300D01*
X186062931Y-97126566D01*
G37*
X186062931Y-97126566D02*
X186112663Y-97052346D01*
X186118500Y-96951800D01*
X186102765Y-96816869D01*
X186028545Y-96767137D01*
X185928000Y-96761300D01*
X185793068Y-96777035D01*
X185743336Y-96851255D01*
X185737500Y-96951800D01*
X185753234Y-97086732D01*
X185827454Y-97136464D01*
X185928000Y-97142300D01*
X186062931Y-97126566D01*
G36*
X190690500Y-96761300D02*
G01*
X189547500Y-96761300D01*
X189547500Y-97332800D01*
X189928500Y-97332800D01*
X189944234Y-97197869D01*
X190018454Y-97148137D01*
X190119000Y-97142300D01*
X190253931Y-97158035D01*
X190303663Y-97232255D01*
X190309500Y-97332800D01*
X190293765Y-97467732D01*
X190219545Y-97517464D01*
X190119000Y-97523300D01*
X189984068Y-97507566D01*
X189934336Y-97433346D01*
X189928500Y-97332800D01*
X189547500Y-97332800D01*
X189547500Y-97904300D01*
X190690500Y-97904300D01*
X190690500Y-96761300D01*
G37*
X190690500Y-96761300D02*
X189547500Y-96761300D01*
X189547500Y-97332800D01*
X189928500Y-97332800D01*
X189944234Y-97197869D01*
X190018454Y-97148137D01*
X190119000Y-97142300D01*
X190253931Y-97158035D01*
X190303663Y-97232255D01*
X190309500Y-97332800D01*
X190293765Y-97467732D01*
X190219545Y-97517464D01*
X190119000Y-97523300D01*
X189984068Y-97507566D01*
X189934336Y-97433346D01*
X189928500Y-97332800D01*
X189547500Y-97332800D01*
X189547500Y-97904300D01*
X190690500Y-97904300D01*
X190690500Y-96761300D01*
G36*
X185300931Y-97507566D02*
G01*
X185350663Y-97433346D01*
X185356500Y-97332800D01*
X185340765Y-97197869D01*
X185266545Y-97148137D01*
X185166000Y-97142300D01*
X185031068Y-97158035D01*
X184981336Y-97232255D01*
X184975500Y-97332800D01*
X184991234Y-97467732D01*
X185065454Y-97517464D01*
X185166000Y-97523300D01*
X185300931Y-97507566D01*
G37*
X185300931Y-97507566D02*
X185350663Y-97433346D01*
X185356500Y-97332800D01*
X185340765Y-97197869D01*
X185266545Y-97148137D01*
X185166000Y-97142300D01*
X185031068Y-97158035D01*
X184981336Y-97232255D01*
X184975500Y-97332800D01*
X184991234Y-97467732D01*
X185065454Y-97517464D01*
X185166000Y-97523300D01*
X185300931Y-97507566D01*
G36*
X184157931Y-101698566D02*
G01*
X184207663Y-101624346D01*
X184213500Y-101523800D01*
X184229234Y-101388869D01*
X184303454Y-101339137D01*
X184404000Y-101333300D01*
X184538931Y-101317566D01*
X184588663Y-101243346D01*
X184594500Y-101142800D01*
X184578765Y-101007869D01*
X184504545Y-100958137D01*
X184404000Y-100952300D01*
X184269068Y-100936566D01*
X184219336Y-100862346D01*
X184213500Y-100761800D01*
X184229234Y-100626869D01*
X184303454Y-100577137D01*
X184404000Y-100571300D01*
X184538931Y-100555566D01*
X184588663Y-100481346D01*
X184594500Y-100380800D01*
X184578765Y-100245869D01*
X184504545Y-100196137D01*
X184404000Y-100190300D01*
X184269068Y-100174566D01*
X184219336Y-100100346D01*
X184213500Y-99999800D01*
X184229234Y-99864869D01*
X184303454Y-99815137D01*
X184404000Y-99809300D01*
X184538931Y-99793566D01*
X184588663Y-99719346D01*
X184594500Y-99618800D01*
X184578765Y-99483869D01*
X184504545Y-99434137D01*
X184404000Y-99428300D01*
X184269068Y-99412566D01*
X184219336Y-99338346D01*
X184213500Y-99237800D01*
X184197765Y-99102869D01*
X184123545Y-99053137D01*
X184023000Y-99047300D01*
X183888068Y-99031566D01*
X183838336Y-98957346D01*
X183832500Y-98856800D01*
X183848234Y-98721869D01*
X183922454Y-98672137D01*
X184023000Y-98666300D01*
X184157931Y-98650566D01*
X184207663Y-98576346D01*
X184213500Y-98475800D01*
X184197765Y-98340869D01*
X184123545Y-98291137D01*
X184023000Y-98285300D01*
X183888068Y-98301035D01*
X183838336Y-98375255D01*
X183832500Y-98475800D01*
X183816765Y-98610732D01*
X183742545Y-98660464D01*
X183642000Y-98666300D01*
X183507068Y-98650566D01*
X183457336Y-98576346D01*
X183451500Y-98475800D01*
X183435765Y-98340869D01*
X183361545Y-98291137D01*
X183261000Y-98285300D01*
X183126068Y-98301035D01*
X183076336Y-98375255D01*
X183070500Y-98475800D01*
X183070500Y-98666300D01*
X181927500Y-98666300D01*
X181927500Y-99047300D01*
X182689500Y-99047300D01*
X182689500Y-99237800D01*
X182705234Y-99372732D01*
X182779454Y-99422464D01*
X182880000Y-99428300D01*
X183070500Y-99428300D01*
X183070500Y-98666300D01*
X183451500Y-98666300D01*
X183451500Y-99428300D01*
X183070500Y-99428300D01*
X182880000Y-99428300D01*
X183014931Y-99444035D01*
X183064663Y-99518255D01*
X183070500Y-99618800D01*
X183086234Y-99753732D01*
X183160454Y-99803464D01*
X183261000Y-99809300D01*
X183395931Y-99793566D01*
X183445663Y-99719346D01*
X183451500Y-99618800D01*
X183451500Y-99428300D01*
X184213500Y-99428300D01*
X184213500Y-99618800D01*
X184197765Y-99753732D01*
X184123545Y-99803464D01*
X184023000Y-99809300D01*
X183888068Y-99825035D01*
X183838336Y-99899255D01*
X183832500Y-99999800D01*
X183848234Y-100134732D01*
X183922454Y-100184464D01*
X184023000Y-100190300D01*
X184157931Y-100206035D01*
X184207663Y-100280255D01*
X184213500Y-100380800D01*
X184197765Y-100515732D01*
X184123545Y-100565464D01*
X184023000Y-100571300D01*
X183888068Y-100587035D01*
X183838336Y-100661255D01*
X183832500Y-100761800D01*
X183848234Y-100896732D01*
X183922454Y-100946464D01*
X184023000Y-100952300D01*
X184157931Y-100968035D01*
X184207663Y-101042255D01*
X184213500Y-101142800D01*
X184197765Y-101277732D01*
X184123545Y-101327464D01*
X184023000Y-101333300D01*
X183888068Y-101349035D01*
X183838336Y-101423255D01*
X183832500Y-101523800D01*
X183848234Y-101658732D01*
X183922454Y-101708464D01*
X184023000Y-101714300D01*
X184157931Y-101698566D01*
G37*
X184157931Y-101698566D02*
X184207663Y-101624346D01*
X184213500Y-101523800D01*
X184229234Y-101388869D01*
X184303454Y-101339137D01*
X184404000Y-101333300D01*
X184538931Y-101317566D01*
X184588663Y-101243346D01*
X184594500Y-101142800D01*
X184578765Y-101007869D01*
X184504545Y-100958137D01*
X184404000Y-100952300D01*
X184269068Y-100936566D01*
X184219336Y-100862346D01*
X184213500Y-100761800D01*
X184229234Y-100626869D01*
X184303454Y-100577137D01*
X184404000Y-100571300D01*
X184538931Y-100555566D01*
X184588663Y-100481346D01*
X184594500Y-100380800D01*
X184578765Y-100245869D01*
X184504545Y-100196137D01*
X184404000Y-100190300D01*
X184269068Y-100174566D01*
X184219336Y-100100346D01*
X184213500Y-99999800D01*
X184229234Y-99864869D01*
X184303454Y-99815137D01*
X184404000Y-99809300D01*
X184538931Y-99793566D01*
X184588663Y-99719346D01*
X184594500Y-99618800D01*
X184578765Y-99483869D01*
X184504545Y-99434137D01*
X184404000Y-99428300D01*
X184269068Y-99412566D01*
X184219336Y-99338346D01*
X184213500Y-99237800D01*
X184197765Y-99102869D01*
X184123545Y-99053137D01*
X184023000Y-99047300D01*
X183888068Y-99031566D01*
X183838336Y-98957346D01*
X183832500Y-98856800D01*
X183848234Y-98721869D01*
X183922454Y-98672137D01*
X184023000Y-98666300D01*
X184157931Y-98650566D01*
X184207663Y-98576346D01*
X184213500Y-98475800D01*
X184197765Y-98340869D01*
X184123545Y-98291137D01*
X184023000Y-98285300D01*
X183888068Y-98301035D01*
X183838336Y-98375255D01*
X183832500Y-98475800D01*
X183816765Y-98610732D01*
X183742545Y-98660464D01*
X183642000Y-98666300D01*
X183507068Y-98650566D01*
X183457336Y-98576346D01*
X183451500Y-98475800D01*
X183435765Y-98340869D01*
X183361545Y-98291137D01*
X183261000Y-98285300D01*
X183126068Y-98301035D01*
X183076336Y-98375255D01*
X183070500Y-98475800D01*
X183070500Y-98666300D01*
X181927500Y-98666300D01*
X181927500Y-99047300D01*
X182689500Y-99047300D01*
X182689500Y-99237800D01*
X182705234Y-99372732D01*
X182779454Y-99422464D01*
X182880000Y-99428300D01*
X183070500Y-99428300D01*
X183070500Y-98666300D01*
X183451500Y-98666300D01*
X183451500Y-99428300D01*
X183070500Y-99428300D01*
X182880000Y-99428300D01*
X183014931Y-99444035D01*
X183064663Y-99518255D01*
X183070500Y-99618800D01*
X183086234Y-99753732D01*
X183160454Y-99803464D01*
X183261000Y-99809300D01*
X183395931Y-99793566D01*
X183445663Y-99719346D01*
X183451500Y-99618800D01*
X183451500Y-99428300D01*
X184213500Y-99428300D01*
X184213500Y-99618800D01*
X184197765Y-99753732D01*
X184123545Y-99803464D01*
X184023000Y-99809300D01*
X183888068Y-99825035D01*
X183838336Y-99899255D01*
X183832500Y-99999800D01*
X183848234Y-100134732D01*
X183922454Y-100184464D01*
X184023000Y-100190300D01*
X184157931Y-100206035D01*
X184207663Y-100280255D01*
X184213500Y-100380800D01*
X184197765Y-100515732D01*
X184123545Y-100565464D01*
X184023000Y-100571300D01*
X183888068Y-100587035D01*
X183838336Y-100661255D01*
X183832500Y-100761800D01*
X183848234Y-100896732D01*
X183922454Y-100946464D01*
X184023000Y-100952300D01*
X184157931Y-100968035D01*
X184207663Y-101042255D01*
X184213500Y-101142800D01*
X184197765Y-101277732D01*
X184123545Y-101327464D01*
X184023000Y-101333300D01*
X183888068Y-101349035D01*
X183838336Y-101423255D01*
X183832500Y-101523800D01*
X183848234Y-101658732D01*
X183922454Y-101708464D01*
X184023000Y-101714300D01*
X184157931Y-101698566D01*
G36*
X188785500Y-98475800D02*
G01*
X188769765Y-98340869D01*
X188695545Y-98291137D01*
X188595000Y-98285300D01*
X188460068Y-98301035D01*
X188410336Y-98375255D01*
X188404500Y-98475800D01*
X188420234Y-98610732D01*
X188494454Y-98660464D01*
X188595000Y-98666300D01*
X188785500Y-98666300D01*
X188785500Y-98475800D01*
G37*
X188785500Y-98475800D02*
X188769765Y-98340869D01*
X188695545Y-98291137D01*
X188595000Y-98285300D01*
X188460068Y-98301035D01*
X188410336Y-98375255D01*
X188404500Y-98475800D01*
X188420234Y-98610732D01*
X188494454Y-98660464D01*
X188595000Y-98666300D01*
X188785500Y-98666300D01*
X188785500Y-98475800D01*
G36*
X189547500Y-98666300D02*
G01*
X188785500Y-98666300D01*
X188785500Y-99428300D01*
X189547500Y-99428300D01*
X189547500Y-98666300D01*
G37*
X189547500Y-98666300D02*
X188785500Y-98666300D01*
X188785500Y-99428300D01*
X189547500Y-99428300D01*
X189547500Y-98666300D01*
G36*
X189872931Y-99793566D02*
G01*
X189922663Y-99719346D01*
X189928500Y-99618800D01*
X189912765Y-99483869D01*
X189838545Y-99434137D01*
X189738000Y-99428300D01*
X189547500Y-99428300D01*
X189547500Y-99618800D01*
X189563234Y-99753732D01*
X189637454Y-99803464D01*
X189738000Y-99809300D01*
X189872931Y-99793566D01*
G37*
X189872931Y-99793566D02*
X189922663Y-99719346D01*
X189928500Y-99618800D01*
X189912765Y-99483869D01*
X189838545Y-99434137D01*
X189738000Y-99428300D01*
X189547500Y-99428300D01*
X189547500Y-99618800D01*
X189563234Y-99753732D01*
X189637454Y-99803464D01*
X189738000Y-99809300D01*
X189872931Y-99793566D01*
G36*
X183451500Y-100571300D02*
G01*
X182689500Y-100571300D01*
X182689500Y-100761800D01*
X182673765Y-100896732D01*
X182599545Y-100946464D01*
X182499000Y-100952300D01*
X182364068Y-100936566D01*
X182314336Y-100862346D01*
X182308500Y-100761800D01*
X182292765Y-100626869D01*
X182218545Y-100577137D01*
X182118000Y-100571300D01*
X181983068Y-100587035D01*
X181933336Y-100661255D01*
X181927500Y-100761800D01*
X181943234Y-100896732D01*
X182017454Y-100946464D01*
X182118000Y-100952300D01*
X182252931Y-100968035D01*
X182302663Y-101042255D01*
X182308500Y-101142800D01*
X182324234Y-101277732D01*
X182398454Y-101327464D01*
X182499000Y-101333300D01*
X182633931Y-101349035D01*
X182683663Y-101423255D01*
X182689500Y-101523800D01*
X182689500Y-101714300D01*
X183451500Y-101714300D01*
X183451500Y-100571300D01*
G37*
X183451500Y-100571300D02*
X182689500Y-100571300D01*
X182689500Y-100761800D01*
X182673765Y-100896732D01*
X182599545Y-100946464D01*
X182499000Y-100952300D01*
X182364068Y-100936566D01*
X182314336Y-100862346D01*
X182308500Y-100761800D01*
X182292765Y-100626869D01*
X182218545Y-100577137D01*
X182118000Y-100571300D01*
X181983068Y-100587035D01*
X181933336Y-100661255D01*
X181927500Y-100761800D01*
X181943234Y-100896732D01*
X182017454Y-100946464D01*
X182118000Y-100952300D01*
X182252931Y-100968035D01*
X182302663Y-101042255D01*
X182308500Y-101142800D01*
X182324234Y-101277732D01*
X182398454Y-101327464D01*
X182499000Y-101333300D01*
X182633931Y-101349035D01*
X182683663Y-101423255D01*
X182689500Y-101523800D01*
X182689500Y-101714300D01*
X183451500Y-101714300D01*
X183451500Y-100571300D01*
G36*
X184213500Y-102095300D02*
G01*
X183451500Y-102095300D01*
X183451500Y-102476300D01*
X184213500Y-102476300D01*
X184213500Y-102095300D01*
G37*
X184213500Y-102095300D02*
X183451500Y-102095300D01*
X183451500Y-102476300D01*
X184213500Y-102476300D01*
X184213500Y-102095300D01*
G36*
X189110931Y-103603566D02*
G01*
X189160663Y-103529346D01*
X189166500Y-103428800D01*
X189150765Y-103293869D01*
X189076545Y-103244137D01*
X188976000Y-103238300D01*
X188841068Y-103254035D01*
X188791336Y-103328255D01*
X188785500Y-103428800D01*
X188801234Y-103563732D01*
X188875454Y-103613464D01*
X188976000Y-103619300D01*
X189110931Y-103603566D01*
G37*
X189110931Y-103603566D02*
X189160663Y-103529346D01*
X189166500Y-103428800D01*
X189150765Y-103293869D01*
X189076545Y-103244137D01*
X188976000Y-103238300D01*
X188841068Y-103254035D01*
X188791336Y-103328255D01*
X188785500Y-103428800D01*
X188801234Y-103563732D01*
X188875454Y-103613464D01*
X188976000Y-103619300D01*
X189110931Y-103603566D01*
G36*
X183832500Y-103619300D02*
G01*
X181927500Y-103619300D01*
X181927500Y-105143300D01*
X182308500Y-105143300D01*
X182308500Y-104000300D01*
X183451500Y-104000300D01*
X183451500Y-105143300D01*
X182308500Y-105143300D01*
X181927500Y-105143300D01*
X181927500Y-105524300D01*
X183832500Y-105524300D01*
X183832500Y-103619300D01*
G37*
X183832500Y-103619300D02*
X181927500Y-103619300D01*
X181927500Y-105143300D01*
X182308500Y-105143300D01*
X182308500Y-104000300D01*
X183451500Y-104000300D01*
X183451500Y-105143300D01*
X182308500Y-105143300D01*
X181927500Y-105143300D01*
X181927500Y-105524300D01*
X183832500Y-105524300D01*
X183832500Y-103619300D01*
G36*
X192214500Y-103619300D02*
G01*
X190309500Y-103619300D01*
X190309500Y-105143300D01*
X190690500Y-105143300D01*
X190690500Y-104000300D01*
X191833500Y-104000300D01*
X191833500Y-105143300D01*
X190690500Y-105143300D01*
X190309500Y-105143300D01*
X190309500Y-105524300D01*
X192214500Y-105524300D01*
X192214500Y-103619300D01*
G37*
X192214500Y-103619300D02*
X190309500Y-103619300D01*
X190309500Y-105143300D01*
X190690500Y-105143300D01*
X190690500Y-104000300D01*
X191833500Y-104000300D01*
X191833500Y-105143300D01*
X190690500Y-105143300D01*
X190309500Y-105143300D01*
X190309500Y-105524300D01*
X192214500Y-105524300D01*
X192214500Y-103619300D01*
G36*
X187472488Y-89082118D02*
G01*
X188034052Y-89081293D01*
X188584084Y-89079834D01*
X189116169Y-89077742D01*
X189623895Y-89075013D01*
X190100849Y-89071649D01*
X190540618Y-89067651D01*
X190936788Y-89063018D01*
X191282947Y-89057750D01*
X191572680Y-89051847D01*
X191799576Y-89045309D01*
X191957221Y-89038137D01*
X192039201Y-89030329D01*
X192049400Y-89027000D01*
X192062934Y-88990219D01*
X192074097Y-88905735D01*
X192083048Y-88768022D01*
X192089944Y-88571553D01*
X192094943Y-88310804D01*
X192098202Y-87980246D01*
X192099881Y-87574355D01*
X192100200Y-87249000D01*
X192100200Y-85521800D01*
X181940200Y-85521800D01*
X181940200Y-87249000D01*
X181940883Y-87709846D01*
X181941029Y-87735834D01*
X182024866Y-87735834D01*
X182024866Y-86580134D01*
X182207245Y-86580134D01*
X182328141Y-86571448D01*
X182410834Y-86532333D01*
X182492402Y-86443202D01*
X182509883Y-86420259D01*
X182750903Y-86166172D01*
X183034019Y-85980094D01*
X183347316Y-85864834D01*
X183678877Y-85823202D01*
X184016786Y-85858008D01*
X184349126Y-85972060D01*
X184369400Y-85981864D01*
X184450918Y-86029800D01*
X186766200Y-86029800D01*
X186766200Y-85733467D01*
X186917149Y-85733467D01*
X187044093Y-85745650D01*
X187145877Y-85775185D01*
X187149983Y-85777290D01*
X187211718Y-85843394D01*
X187232001Y-85930346D01*
X187203137Y-85999386D01*
X187195210Y-86005125D01*
X187174551Y-86058951D01*
X187178831Y-86133851D01*
X187176997Y-86219059D01*
X187126015Y-86261844D01*
X187295906Y-86261844D01*
X187341821Y-86155616D01*
X187353618Y-86135022D01*
X187412220Y-86005412D01*
X187442425Y-85879424D01*
X187443533Y-85858047D01*
X187462772Y-85759005D01*
X187507033Y-85733467D01*
X187558032Y-85770385D01*
X187570533Y-85841497D01*
X187591552Y-85945735D01*
X187644048Y-86074546D01*
X187665092Y-86113827D01*
X187687542Y-86162892D01*
X189136866Y-86162892D01*
X189169067Y-86065722D01*
X189271148Y-85998187D01*
X189359116Y-85971331D01*
X189443317Y-85937881D01*
X189475533Y-85900665D01*
X189443106Y-85846169D01*
X189368119Y-85832909D01*
X189284014Y-85864808D01*
X189269539Y-85876500D01*
X189185124Y-85937565D01*
X189143125Y-85927771D01*
X189136866Y-85890100D01*
X189172503Y-85803420D01*
X189261081Y-85749365D01*
X189375102Y-85734145D01*
X189418917Y-85745815D01*
X189619658Y-85745815D01*
X189656974Y-85733467D01*
X189726412Y-85767694D01*
X189744842Y-85796967D01*
X189802899Y-85849377D01*
X189894084Y-85855153D01*
X189981415Y-85815127D01*
X190003724Y-85791142D01*
X190064228Y-85741448D01*
X190099138Y-85738225D01*
X190109833Y-85782463D01*
X190090926Y-85878662D01*
X190051319Y-86003377D01*
X189999914Y-86133162D01*
X189945610Y-86244573D01*
X189897310Y-86314165D01*
X189875935Y-86326134D01*
X189831696Y-86289672D01*
X189775900Y-86195599D01*
X189736221Y-86103884D01*
X189683929Y-85966238D01*
X189640356Y-85852593D01*
X189622816Y-85807550D01*
X189619658Y-85745815D01*
X189418917Y-85745815D01*
X189487069Y-85763967D01*
X189536009Y-85799991D01*
X189590109Y-85859236D01*
X189597084Y-85904764D01*
X189577623Y-85960791D01*
X189523389Y-86016506D01*
X189423025Y-86068135D01*
X189406097Y-86074093D01*
X189324230Y-86116864D01*
X189281075Y-86166721D01*
X189284695Y-86203538D01*
X189343155Y-86207190D01*
X189353825Y-86204556D01*
X189445945Y-86179147D01*
X189486116Y-86167869D01*
X189548673Y-86167461D01*
X189555465Y-86204180D01*
X189511973Y-86256692D01*
X189454366Y-86291503D01*
X189337252Y-86313459D01*
X189227181Y-86285770D01*
X189152689Y-86219995D01*
X189136866Y-86162892D01*
X187687542Y-86162892D01*
X187717769Y-86228953D01*
X187726338Y-86300296D01*
X187696819Y-86316813D01*
X187635231Y-86267459D01*
X187603277Y-86227227D01*
X187515922Y-86107307D01*
X187420022Y-86227304D01*
X187341418Y-86306597D01*
X187297908Y-86315141D01*
X187295906Y-86261844D01*
X187126015Y-86261844D01*
X187115527Y-86270645D01*
X187085731Y-86283028D01*
X186961448Y-86316127D01*
X186869277Y-86326134D01*
X186815409Y-86321434D01*
X186784577Y-86295046D01*
X186770370Y-86228537D01*
X186766375Y-86103473D01*
X186766200Y-86029800D01*
X184450918Y-86029800D01*
X184512736Y-86066151D01*
X184662304Y-86176215D01*
X184801010Y-86296534D01*
X184911759Y-86411585D01*
X184977458Y-86505846D01*
X184988200Y-86543761D01*
X185029496Y-86549322D01*
X185149238Y-86554625D01*
X185341204Y-86559603D01*
X185599174Y-86564194D01*
X185916926Y-86568333D01*
X186288239Y-86571955D01*
X186706893Y-86574995D01*
X187166667Y-86577390D01*
X187661339Y-86579075D01*
X188184688Y-86579986D01*
X188501866Y-86580134D01*
X192015533Y-86580134D01*
X192015533Y-87735834D01*
X192014359Y-88112645D01*
X192010667Y-88410942D01*
X192004197Y-88636850D01*
X191994693Y-88796491D01*
X191981896Y-88895989D01*
X191965549Y-88941467D01*
X191964733Y-88942334D01*
X191915026Y-88950464D01*
X191787124Y-88957948D01*
X191587495Y-88964787D01*
X191322610Y-88970979D01*
X190998937Y-88976526D01*
X190622944Y-88981426D01*
X190201102Y-88985681D01*
X189739879Y-88989290D01*
X189245744Y-88992253D01*
X188725166Y-88994570D01*
X188184614Y-88996242D01*
X187630558Y-88997267D01*
X187069466Y-88997647D01*
X186507807Y-88997380D01*
X185952051Y-88996468D01*
X185408667Y-88994910D01*
X184884122Y-88992706D01*
X184384888Y-88989856D01*
X183917432Y-88986360D01*
X183488223Y-88982218D01*
X183103732Y-88977431D01*
X182770426Y-88971997D01*
X182494775Y-88965918D01*
X182283247Y-88959193D01*
X182142313Y-88951822D01*
X182078440Y-88943805D01*
X182075666Y-88942334D01*
X182059155Y-88899123D01*
X182046205Y-88802165D01*
X182036559Y-88645337D01*
X182029960Y-88422515D01*
X182026149Y-88127577D01*
X182024868Y-87754398D01*
X182024866Y-87735834D01*
X181941029Y-87735834D01*
X181943040Y-88091561D01*
X181946827Y-88399672D01*
X181952403Y-88639706D01*
X181959925Y-88817188D01*
X181969551Y-88937644D01*
X181981440Y-89006602D01*
X181990999Y-89027000D01*
X182040644Y-89035064D01*
X182168539Y-89042492D01*
X182368272Y-89049286D01*
X182633430Y-89055445D01*
X182957600Y-89060969D01*
X183334368Y-89065858D01*
X183757322Y-89070113D01*
X184220049Y-89073733D01*
X184716134Y-89076717D01*
X185239165Y-89079066D01*
X185782729Y-89080781D01*
X186340413Y-89081862D01*
X186905804Y-89082307D01*
X187472488Y-89082118D01*
G37*
X187472488Y-89082118D02*
X188034052Y-89081293D01*
X188584084Y-89079834D01*
X189116169Y-89077742D01*
X189623895Y-89075013D01*
X190100849Y-89071649D01*
X190540618Y-89067651D01*
X190936788Y-89063018D01*
X191282947Y-89057750D01*
X191572680Y-89051847D01*
X191799576Y-89045309D01*
X191957221Y-89038137D01*
X192039201Y-89030329D01*
X192049400Y-89027000D01*
X192062934Y-88990219D01*
X192074097Y-88905735D01*
X192083048Y-88768022D01*
X192089944Y-88571553D01*
X192094943Y-88310804D01*
X192098202Y-87980246D01*
X192099881Y-87574355D01*
X192100200Y-87249000D01*
X192100200Y-85521800D01*
X181940200Y-85521800D01*
X181940200Y-87249000D01*
X181940883Y-87709846D01*
X181941029Y-87735834D01*
X182024866Y-87735834D01*
X182024866Y-86580134D01*
X182207245Y-86580134D01*
X182328141Y-86571448D01*
X182410834Y-86532333D01*
X182492402Y-86443202D01*
X182509883Y-86420259D01*
X182750903Y-86166172D01*
X183034019Y-85980094D01*
X183347316Y-85864834D01*
X183678877Y-85823202D01*
X184016786Y-85858008D01*
X184349126Y-85972060D01*
X184369400Y-85981864D01*
X184450918Y-86029800D01*
X186766200Y-86029800D01*
X186766200Y-85733467D01*
X186917149Y-85733467D01*
X187044093Y-85745650D01*
X187145877Y-85775185D01*
X187149983Y-85777290D01*
X187211718Y-85843394D01*
X187232001Y-85930346D01*
X187203137Y-85999386D01*
X187195210Y-86005125D01*
X187174551Y-86058951D01*
X187178831Y-86133851D01*
X187176997Y-86219059D01*
X187126015Y-86261844D01*
X187295906Y-86261844D01*
X187341821Y-86155616D01*
X187353618Y-86135022D01*
X187412220Y-86005412D01*
X187442425Y-85879424D01*
X187443533Y-85858047D01*
X187462772Y-85759005D01*
X187507033Y-85733467D01*
X187558032Y-85770385D01*
X187570533Y-85841497D01*
X187591552Y-85945735D01*
X187644048Y-86074546D01*
X187665092Y-86113827D01*
X187687542Y-86162892D01*
X189136866Y-86162892D01*
X189169067Y-86065722D01*
X189271148Y-85998187D01*
X189359116Y-85971331D01*
X189443317Y-85937881D01*
X189475533Y-85900665D01*
X189443106Y-85846169D01*
X189368119Y-85832909D01*
X189284014Y-85864808D01*
X189269539Y-85876500D01*
X189185124Y-85937565D01*
X189143125Y-85927771D01*
X189136866Y-85890100D01*
X189172503Y-85803420D01*
X189261081Y-85749365D01*
X189375102Y-85734145D01*
X189418917Y-85745815D01*
X189619658Y-85745815D01*
X189656974Y-85733467D01*
X189726412Y-85767694D01*
X189744842Y-85796967D01*
X189802899Y-85849377D01*
X189894084Y-85855153D01*
X189981415Y-85815127D01*
X190003724Y-85791142D01*
X190064228Y-85741448D01*
X190099138Y-85738225D01*
X190109833Y-85782463D01*
X190090926Y-85878662D01*
X190051319Y-86003377D01*
X189999914Y-86133162D01*
X189945610Y-86244573D01*
X189897310Y-86314165D01*
X189875935Y-86326134D01*
X189831696Y-86289672D01*
X189775900Y-86195599D01*
X189736221Y-86103884D01*
X189683929Y-85966238D01*
X189640356Y-85852593D01*
X189622816Y-85807550D01*
X189619658Y-85745815D01*
X189418917Y-85745815D01*
X189487069Y-85763967D01*
X189536009Y-85799991D01*
X189590109Y-85859236D01*
X189597084Y-85904764D01*
X189577623Y-85960791D01*
X189523389Y-86016506D01*
X189423025Y-86068135D01*
X189406097Y-86074093D01*
X189324230Y-86116864D01*
X189281075Y-86166721D01*
X189284695Y-86203538D01*
X189343155Y-86207190D01*
X189353825Y-86204556D01*
X189445945Y-86179147D01*
X189486116Y-86167869D01*
X189548673Y-86167461D01*
X189555465Y-86204180D01*
X189511973Y-86256692D01*
X189454366Y-86291503D01*
X189337252Y-86313459D01*
X189227181Y-86285770D01*
X189152689Y-86219995D01*
X189136866Y-86162892D01*
X187687542Y-86162892D01*
X187717769Y-86228953D01*
X187726338Y-86300296D01*
X187696819Y-86316813D01*
X187635231Y-86267459D01*
X187603277Y-86227227D01*
X187515922Y-86107307D01*
X187420022Y-86227304D01*
X187341418Y-86306597D01*
X187297908Y-86315141D01*
X187295906Y-86261844D01*
X187126015Y-86261844D01*
X187115527Y-86270645D01*
X187085731Y-86283028D01*
X186961448Y-86316127D01*
X186869277Y-86326134D01*
X186815409Y-86321434D01*
X186784577Y-86295046D01*
X186770370Y-86228537D01*
X186766375Y-86103473D01*
X186766200Y-86029800D01*
X184450918Y-86029800D01*
X184512736Y-86066151D01*
X184662304Y-86176215D01*
X184801010Y-86296534D01*
X184911759Y-86411585D01*
X184977458Y-86505846D01*
X184988200Y-86543761D01*
X185029496Y-86549322D01*
X185149238Y-86554625D01*
X185341204Y-86559603D01*
X185599174Y-86564194D01*
X185916926Y-86568333D01*
X186288239Y-86571955D01*
X186706893Y-86574995D01*
X187166667Y-86577390D01*
X187661339Y-86579075D01*
X188184688Y-86579986D01*
X188501866Y-86580134D01*
X192015533Y-86580134D01*
X192015533Y-87735834D01*
X192014359Y-88112645D01*
X192010667Y-88410942D01*
X192004197Y-88636850D01*
X191994693Y-88796491D01*
X191981896Y-88895989D01*
X191965549Y-88941467D01*
X191964733Y-88942334D01*
X191915026Y-88950464D01*
X191787124Y-88957948D01*
X191587495Y-88964787D01*
X191322610Y-88970979D01*
X190998937Y-88976526D01*
X190622944Y-88981426D01*
X190201102Y-88985681D01*
X189739879Y-88989290D01*
X189245744Y-88992253D01*
X188725166Y-88994570D01*
X188184614Y-88996242D01*
X187630558Y-88997267D01*
X187069466Y-88997647D01*
X186507807Y-88997380D01*
X185952051Y-88996468D01*
X185408667Y-88994910D01*
X184884122Y-88992706D01*
X184384888Y-88989856D01*
X183917432Y-88986360D01*
X183488223Y-88982218D01*
X183103732Y-88977431D01*
X182770426Y-88971997D01*
X182494775Y-88965918D01*
X182283247Y-88959193D01*
X182142313Y-88951822D01*
X182078440Y-88943805D01*
X182075666Y-88942334D01*
X182059155Y-88899123D01*
X182046205Y-88802165D01*
X182036559Y-88645337D01*
X182029960Y-88422515D01*
X182026149Y-88127577D01*
X182024868Y-87754398D01*
X182024866Y-87735834D01*
X181941029Y-87735834D01*
X181943040Y-88091561D01*
X181946827Y-88399672D01*
X181952403Y-88639706D01*
X181959925Y-88817188D01*
X181969551Y-88937644D01*
X181981440Y-89006602D01*
X181990999Y-89027000D01*
X182040644Y-89035064D01*
X182168539Y-89042492D01*
X182368272Y-89049286D01*
X182633430Y-89055445D01*
X182957600Y-89060969D01*
X183334368Y-89065858D01*
X183757322Y-89070113D01*
X184220049Y-89073733D01*
X184716134Y-89076717D01*
X185239165Y-89079066D01*
X185782729Y-89080781D01*
X186340413Y-89081862D01*
X186905804Y-89082307D01*
X187472488Y-89082118D01*
G36*
X187070316Y-85948023D02*
G01*
X187094287Y-85902370D01*
X187053538Y-85866912D01*
X187002561Y-85860467D01*
X186913793Y-85882653D01*
X186893200Y-85926911D01*
X186925257Y-85977396D01*
X186985134Y-85979828D01*
X187070316Y-85948023D01*
G37*
X187070316Y-85948023D02*
X187094287Y-85902370D01*
X187053538Y-85866912D01*
X187002561Y-85860467D01*
X186913793Y-85882653D01*
X186893200Y-85926911D01*
X186925257Y-85977396D01*
X186985134Y-85979828D01*
X187070316Y-85948023D01*
G36*
X187046818Y-86172664D02*
G01*
X187062533Y-86135634D01*
X187027240Y-86083920D01*
X186977866Y-86072134D01*
X186908914Y-86098604D01*
X186893200Y-86135634D01*
X186928493Y-86187348D01*
X186977866Y-86199134D01*
X187046818Y-86172664D01*
G37*
X187046818Y-86172664D02*
X187062533Y-86135634D01*
X187027240Y-86083920D01*
X186977866Y-86072134D01*
X186908914Y-86098604D01*
X186893200Y-86135634D01*
X186928493Y-86187348D01*
X186977866Y-86199134D01*
X187046818Y-86172664D01*
G36*
X189898218Y-86128513D02*
G01*
X189913207Y-86046574D01*
X189924562Y-86012096D01*
X189920632Y-85955497D01*
X189882229Y-85945134D01*
X189823501Y-85971863D01*
X189814848Y-85998050D01*
X189828983Y-86058959D01*
X189858815Y-86117279D01*
X189887445Y-86146564D01*
X189898218Y-86128513D01*
G37*
X189898218Y-86128513D02*
X189913207Y-86046574D01*
X189924562Y-86012096D01*
X189920632Y-85955497D01*
X189882229Y-85945134D01*
X189823501Y-85971863D01*
X189814848Y-85998050D01*
X189828983Y-86058959D01*
X189858815Y-86117279D01*
X189887445Y-86146564D01*
X189898218Y-86128513D01*
G36*
X183749309Y-88731754D02*
G01*
X183776971Y-88730278D01*
X184063066Y-88695400D01*
X184296839Y-88618152D01*
X184504938Y-88486702D01*
X184672908Y-88332434D01*
X184859284Y-88082093D01*
X184980957Y-87789264D01*
X185029732Y-87474508D01*
X185030297Y-87435796D01*
X185012243Y-87170575D01*
X184951385Y-86945296D01*
X184836804Y-86721470D01*
X184820081Y-86694700D01*
X184622101Y-86458265D01*
X184369803Y-86274481D01*
X184080232Y-86150439D01*
X183770432Y-86093229D01*
X183457448Y-86109940D01*
X183428079Y-86115649D01*
X183158242Y-86211524D01*
X182902523Y-86376524D01*
X182679315Y-86595213D01*
X182507010Y-86852159D01*
X182477158Y-86913619D01*
X182402533Y-87167768D01*
X182384540Y-87453025D01*
X182396524Y-87543563D01*
X182633633Y-87543563D01*
X182637965Y-87280376D01*
X182714335Y-87019916D01*
X182851463Y-86779947D01*
X183038068Y-86578237D01*
X183262870Y-86432551D01*
X183364296Y-86392871D01*
X183592494Y-86350373D01*
X183837665Y-86353649D01*
X184063154Y-86400561D01*
X184155762Y-86439040D01*
X184421910Y-86613494D01*
X184612531Y-86825213D01*
X184729546Y-87077250D01*
X184774876Y-87372658D01*
X184775603Y-87424529D01*
X184747251Y-87705439D01*
X184658409Y-87940413D01*
X184500271Y-88150577D01*
X184453496Y-88197317D01*
X184241271Y-88360927D01*
X184011307Y-88453704D01*
X183739704Y-88485003D01*
X183718199Y-88485134D01*
X183416394Y-88446296D01*
X183149451Y-88335342D01*
X182926979Y-88160612D01*
X182758584Y-87930447D01*
X182653874Y-87653188D01*
X182633633Y-87543563D01*
X182396524Y-87543563D01*
X182422308Y-87738353D01*
X182506993Y-87977134D01*
X182687740Y-88262712D01*
X182914866Y-88481570D01*
X183178965Y-88634874D01*
X183320976Y-88693583D01*
X183440688Y-88725681D01*
X183572125Y-88736595D01*
X183749309Y-88731754D01*
G37*
X183749309Y-88731754D02*
X183776971Y-88730278D01*
X184063066Y-88695400D01*
X184296839Y-88618152D01*
X184504938Y-88486702D01*
X184672908Y-88332434D01*
X184859284Y-88082093D01*
X184980957Y-87789264D01*
X185029732Y-87474508D01*
X185030297Y-87435796D01*
X185012243Y-87170575D01*
X184951385Y-86945296D01*
X184836804Y-86721470D01*
X184820081Y-86694700D01*
X184622101Y-86458265D01*
X184369803Y-86274481D01*
X184080232Y-86150439D01*
X183770432Y-86093229D01*
X183457448Y-86109940D01*
X183428079Y-86115649D01*
X183158242Y-86211524D01*
X182902523Y-86376524D01*
X182679315Y-86595213D01*
X182507010Y-86852159D01*
X182477158Y-86913619D01*
X182402533Y-87167768D01*
X182384540Y-87453025D01*
X182396524Y-87543563D01*
X182633633Y-87543563D01*
X182637965Y-87280376D01*
X182714335Y-87019916D01*
X182851463Y-86779947D01*
X183038068Y-86578237D01*
X183262870Y-86432551D01*
X183364296Y-86392871D01*
X183592494Y-86350373D01*
X183837665Y-86353649D01*
X184063154Y-86400561D01*
X184155762Y-86439040D01*
X184421910Y-86613494D01*
X184612531Y-86825213D01*
X184729546Y-87077250D01*
X184774876Y-87372658D01*
X184775603Y-87424529D01*
X184747251Y-87705439D01*
X184658409Y-87940413D01*
X184500271Y-88150577D01*
X184453496Y-88197317D01*
X184241271Y-88360927D01*
X184011307Y-88453704D01*
X183739704Y-88485003D01*
X183718199Y-88485134D01*
X183416394Y-88446296D01*
X183149451Y-88335342D01*
X182926979Y-88160612D01*
X182758584Y-87930447D01*
X182653874Y-87653188D01*
X182633633Y-87543563D01*
X182396524Y-87543563D01*
X182422308Y-87738353D01*
X182506993Y-87977134D01*
X182687740Y-88262712D01*
X182914866Y-88481570D01*
X183178965Y-88634874D01*
X183320976Y-88693583D01*
X183440688Y-88725681D01*
X183572125Y-88736595D01*
X183749309Y-88731754D01*
G36*
X187661926Y-88731433D02*
G01*
X187722565Y-88704798D01*
X187959333Y-88541249D01*
X188135047Y-88334053D01*
X188246888Y-88096728D01*
X188292039Y-87842792D01*
X188267681Y-87585762D01*
X188170995Y-87339156D01*
X188043966Y-87163188D01*
X187824199Y-86977637D01*
X187573377Y-86865375D01*
X187305265Y-86828658D01*
X187033630Y-86869745D01*
X186819171Y-86962356D01*
X186596726Y-87133596D01*
X186439086Y-87345893D01*
X186346652Y-87585345D01*
X186321893Y-87818577D01*
X186512200Y-87818577D01*
X186531392Y-87609821D01*
X186597977Y-87438897D01*
X186725471Y-87275469D01*
X186777138Y-87223825D01*
X186984562Y-87078770D01*
X187216979Y-87011886D01*
X187462533Y-87025116D01*
X187635784Y-87083040D01*
X187830125Y-87212120D01*
X187985919Y-87394572D01*
X188087714Y-87607287D01*
X188120394Y-87807800D01*
X188093677Y-87971023D01*
X188024725Y-88151975D01*
X187930339Y-88307693D01*
X187919907Y-88320510D01*
X187734804Y-88483983D01*
X187525345Y-88577432D01*
X187305171Y-88605719D01*
X187087922Y-88573708D01*
X186887237Y-88486263D01*
X186716756Y-88348247D01*
X186590120Y-88164523D01*
X186520969Y-87939956D01*
X186512200Y-87818577D01*
X186321893Y-87818577D01*
X186319826Y-87838048D01*
X186359008Y-88090099D01*
X186464600Y-88327595D01*
X186637003Y-88536633D01*
X186770701Y-88641305D01*
X186968451Y-88731510D01*
X187204036Y-88778009D01*
X187445760Y-88778689D01*
X187661926Y-88731433D01*
G37*
X187661926Y-88731433D02*
X187722565Y-88704798D01*
X187959333Y-88541249D01*
X188135047Y-88334053D01*
X188246888Y-88096728D01*
X188292039Y-87842792D01*
X188267681Y-87585762D01*
X188170995Y-87339156D01*
X188043966Y-87163188D01*
X187824199Y-86977637D01*
X187573377Y-86865375D01*
X187305265Y-86828658D01*
X187033630Y-86869745D01*
X186819171Y-86962356D01*
X186596726Y-87133596D01*
X186439086Y-87345893D01*
X186346652Y-87585345D01*
X186321893Y-87818577D01*
X186512200Y-87818577D01*
X186531392Y-87609821D01*
X186597977Y-87438897D01*
X186725471Y-87275469D01*
X186777138Y-87223825D01*
X186984562Y-87078770D01*
X187216979Y-87011886D01*
X187462533Y-87025116D01*
X187635784Y-87083040D01*
X187830125Y-87212120D01*
X187985919Y-87394572D01*
X188087714Y-87607287D01*
X188120394Y-87807800D01*
X188093677Y-87971023D01*
X188024725Y-88151975D01*
X187930339Y-88307693D01*
X187919907Y-88320510D01*
X187734804Y-88483983D01*
X187525345Y-88577432D01*
X187305171Y-88605719D01*
X187087922Y-88573708D01*
X186887237Y-88486263D01*
X186716756Y-88348247D01*
X186590120Y-88164523D01*
X186520969Y-87939956D01*
X186512200Y-87818577D01*
X186321893Y-87818577D01*
X186319826Y-87838048D01*
X186359008Y-88090099D01*
X186464600Y-88327595D01*
X186637003Y-88536633D01*
X186770701Y-88641305D01*
X186968451Y-88731510D01*
X187204036Y-88778009D01*
X187445760Y-88778689D01*
X187661926Y-88731433D01*
G36*
X190010903Y-88746274D02*
G01*
X190134062Y-88701621D01*
X190361334Y-88555605D01*
X190532404Y-88358645D01*
X190644004Y-88125877D01*
X190692867Y-87872436D01*
X190675723Y-87613459D01*
X190589304Y-87364081D01*
X190463456Y-87176201D01*
X190257883Y-86996169D01*
X190013739Y-86879461D01*
X189749479Y-86829811D01*
X189483559Y-86850956D01*
X189259941Y-86932608D01*
X189034009Y-87095478D01*
X188868963Y-87304396D01*
X188766835Y-87544703D01*
X188730400Y-87796608D01*
X188925200Y-87796608D01*
X188962907Y-87550357D01*
X189067169Y-87340545D01*
X189224695Y-87175449D01*
X189422194Y-87063344D01*
X189646375Y-87012508D01*
X189883949Y-87031216D01*
X190055985Y-87092467D01*
X190258885Y-87230331D01*
X190398403Y-87406893D01*
X190477527Y-87608743D01*
X190499246Y-87822473D01*
X190466546Y-88034673D01*
X190382415Y-88231934D01*
X190249841Y-88400848D01*
X190071813Y-88528005D01*
X189851317Y-88599997D01*
X189717590Y-88611204D01*
X189463919Y-88574577D01*
X189248476Y-88468011D01*
X189080671Y-88301181D01*
X188969914Y-88083759D01*
X188925613Y-87825418D01*
X188925200Y-87796608D01*
X188730400Y-87796608D01*
X188729658Y-87801736D01*
X188759464Y-88060835D01*
X188858284Y-88307339D01*
X189028151Y-88526586D01*
X189037739Y-88535805D01*
X189241001Y-88674384D01*
X189487266Y-88758124D01*
X189752058Y-88783321D01*
X190010903Y-88746274D01*
G37*
X190010903Y-88746274D02*
X190134062Y-88701621D01*
X190361334Y-88555605D01*
X190532404Y-88358645D01*
X190644004Y-88125877D01*
X190692867Y-87872436D01*
X190675723Y-87613459D01*
X190589304Y-87364081D01*
X190463456Y-87176201D01*
X190257883Y-86996169D01*
X190013739Y-86879461D01*
X189749479Y-86829811D01*
X189483559Y-86850956D01*
X189259941Y-86932608D01*
X189034009Y-87095478D01*
X188868963Y-87304396D01*
X188766835Y-87544703D01*
X188730400Y-87796608D01*
X188925200Y-87796608D01*
X188962907Y-87550357D01*
X189067169Y-87340545D01*
X189224695Y-87175449D01*
X189422194Y-87063344D01*
X189646375Y-87012508D01*
X189883949Y-87031216D01*
X190055985Y-87092467D01*
X190258885Y-87230331D01*
X190398403Y-87406893D01*
X190477527Y-87608743D01*
X190499246Y-87822473D01*
X190466546Y-88034673D01*
X190382415Y-88231934D01*
X190249841Y-88400848D01*
X190071813Y-88528005D01*
X189851317Y-88599997D01*
X189717590Y-88611204D01*
X189463919Y-88574577D01*
X189248476Y-88468011D01*
X189080671Y-88301181D01*
X188969914Y-88083759D01*
X188925613Y-87825418D01*
X188925200Y-87796608D01*
X188730400Y-87796608D01*
X188729658Y-87801736D01*
X188759464Y-88060835D01*
X188858284Y-88307339D01*
X189028151Y-88526586D01*
X189037739Y-88535805D01*
X189241001Y-88674384D01*
X189487266Y-88758124D01*
X189752058Y-88783321D01*
X190010903Y-88746274D01*
G36*
X183515731Y-87788738D02*
G01*
X183604588Y-87729230D01*
X183656842Y-87675126D01*
X183643361Y-87636710D01*
X183608061Y-87608918D01*
X183526851Y-87578398D01*
X183480586Y-87600101D01*
X183397935Y-87630464D01*
X183328946Y-87631134D01*
X183261637Y-87605264D01*
X183228653Y-87536476D01*
X183218051Y-87455596D01*
X183227807Y-87306164D01*
X183277628Y-87209001D01*
X183355791Y-87173960D01*
X183450569Y-87210892D01*
X183479197Y-87236179D01*
X183549377Y-87270967D01*
X183626753Y-87269662D01*
X183673014Y-87235193D01*
X183675218Y-87221188D01*
X183636731Y-87141645D01*
X183544722Y-87066794D01*
X183428989Y-87016371D01*
X183350566Y-87006151D01*
X183247971Y-87024234D01*
X183182979Y-87045444D01*
X183060639Y-87135708D01*
X182978447Y-87274996D01*
X182956200Y-87395989D01*
X182990015Y-87574147D01*
X183080027Y-87711317D01*
X183209085Y-87798682D01*
X183360037Y-87827427D01*
X183515731Y-87788738D01*
G37*
X183515731Y-87788738D02*
X183604588Y-87729230D01*
X183656842Y-87675126D01*
X183643361Y-87636710D01*
X183608061Y-87608918D01*
X183526851Y-87578398D01*
X183480586Y-87600101D01*
X183397935Y-87630464D01*
X183328946Y-87631134D01*
X183261637Y-87605264D01*
X183228653Y-87536476D01*
X183218051Y-87455596D01*
X183227807Y-87306164D01*
X183277628Y-87209001D01*
X183355791Y-87173960D01*
X183450569Y-87210892D01*
X183479197Y-87236179D01*
X183549377Y-87270967D01*
X183626753Y-87269662D01*
X183673014Y-87235193D01*
X183675218Y-87221188D01*
X183636731Y-87141645D01*
X183544722Y-87066794D01*
X183428989Y-87016371D01*
X183350566Y-87006151D01*
X183247971Y-87024234D01*
X183182979Y-87045444D01*
X183060639Y-87135708D01*
X182978447Y-87274996D01*
X182956200Y-87395989D01*
X182990015Y-87574147D01*
X183080027Y-87711317D01*
X183209085Y-87798682D01*
X183360037Y-87827427D01*
X183515731Y-87788738D01*
G36*
X184327027Y-87763797D02*
G01*
X184360260Y-87737911D01*
X184416020Y-87679257D01*
X184408694Y-87640411D01*
X184370061Y-87608918D01*
X184288851Y-87578398D01*
X184242586Y-87600101D01*
X184159935Y-87630464D01*
X184090946Y-87631134D01*
X184013798Y-87585186D01*
X183976934Y-87492548D01*
X183977202Y-87379201D01*
X184011445Y-87271126D01*
X184076508Y-87194308D01*
X184146600Y-87172800D01*
X184198629Y-87199433D01*
X184241197Y-87236179D01*
X184320267Y-87275242D01*
X184397257Y-87260920D01*
X184437214Y-87201326D01*
X184437866Y-87190525D01*
X184401966Y-87132436D01*
X184314540Y-87070426D01*
X184206004Y-87021888D01*
X184111885Y-87004091D01*
X184016864Y-87023314D01*
X183930700Y-87057842D01*
X183802255Y-87165948D01*
X183734214Y-87317885D01*
X183731842Y-87493237D01*
X183781235Y-87637569D01*
X183881891Y-87748798D01*
X184025600Y-87810238D01*
X184183576Y-87816901D01*
X184327027Y-87763797D01*
G37*
X184327027Y-87763797D02*
X184360260Y-87737911D01*
X184416020Y-87679257D01*
X184408694Y-87640411D01*
X184370061Y-87608918D01*
X184288851Y-87578398D01*
X184242586Y-87600101D01*
X184159935Y-87630464D01*
X184090946Y-87631134D01*
X184013798Y-87585186D01*
X183976934Y-87492548D01*
X183977202Y-87379201D01*
X184011445Y-87271126D01*
X184076508Y-87194308D01*
X184146600Y-87172800D01*
X184198629Y-87199433D01*
X184241197Y-87236179D01*
X184320267Y-87275242D01*
X184397257Y-87260920D01*
X184437214Y-87201326D01*
X184437866Y-87190525D01*
X184401966Y-87132436D01*
X184314540Y-87070426D01*
X184206004Y-87021888D01*
X184111885Y-87004091D01*
X184016864Y-87023314D01*
X183930700Y-87057842D01*
X183802255Y-87165948D01*
X183734214Y-87317885D01*
X183731842Y-87493237D01*
X183781235Y-87637569D01*
X183881891Y-87748798D01*
X184025600Y-87810238D01*
X184183576Y-87816901D01*
X184327027Y-87763797D01*
G36*
X187570533Y-87873321D02*
G01*
X187564921Y-87732223D01*
X187545206Y-87659261D01*
X187507074Y-87638467D01*
X187507033Y-87638467D01*
X187468739Y-87617564D01*
X187449023Y-87544216D01*
X187443533Y-87405634D01*
X187443533Y-87172800D01*
X187147200Y-87172800D01*
X187147200Y-87401105D01*
X187139197Y-87549429D01*
X187112445Y-87630207D01*
X187081362Y-87654673D01*
X187039994Y-87695449D01*
X187025588Y-87787276D01*
X187028446Y-87881452D01*
X187041366Y-88082967D01*
X187305950Y-88095571D01*
X187570533Y-88108174D01*
X187570533Y-87873321D01*
G37*
X187570533Y-87873321D02*
X187564921Y-87732223D01*
X187545206Y-87659261D01*
X187507074Y-87638467D01*
X187507033Y-87638467D01*
X187468739Y-87617564D01*
X187449023Y-87544216D01*
X187443533Y-87405634D01*
X187443533Y-87172800D01*
X187147200Y-87172800D01*
X187147200Y-87401105D01*
X187139197Y-87549429D01*
X187112445Y-87630207D01*
X187081362Y-87654673D01*
X187039994Y-87695449D01*
X187025588Y-87787276D01*
X187028446Y-87881452D01*
X187041366Y-88082967D01*
X187305950Y-88095571D01*
X187570533Y-88108174D01*
X187570533Y-87873321D01*
G36*
X187374353Y-88401732D02*
G01*
X187389104Y-88388372D01*
X187433853Y-88301636D01*
X187406147Y-88227266D01*
X187317325Y-88189751D01*
X187296695Y-88188800D01*
X187215549Y-88205702D01*
X187190131Y-88273086D01*
X187189533Y-88295962D01*
X187218231Y-88394162D01*
X187288001Y-88433198D01*
X187374353Y-88401732D01*
G37*
X187374353Y-88401732D02*
X187389104Y-88388372D01*
X187433853Y-88301636D01*
X187406147Y-88227266D01*
X187317325Y-88189751D01*
X187296695Y-88188800D01*
X187215549Y-88205702D01*
X187190131Y-88273086D01*
X187189533Y-88295962D01*
X187218231Y-88394162D01*
X187288001Y-88433198D01*
X187374353Y-88401732D01*
G36*
X189860173Y-88302519D02*
G01*
X189963312Y-88250523D01*
X190051266Y-88171867D01*
X190143695Y-88065331D01*
X190185553Y-87964252D01*
X190195200Y-87829149D01*
X190166864Y-87624646D01*
X190088647Y-87455416D01*
X189983813Y-87352133D01*
X189855682Y-87301478D01*
X189701170Y-87278266D01*
X189564428Y-87287855D01*
X189534296Y-87297579D01*
X189452852Y-87352566D01*
X189363908Y-87440546D01*
X189292552Y-87533292D01*
X189263866Y-87601843D01*
X189296873Y-87635435D01*
X189376067Y-87636386D01*
X189471707Y-87609520D01*
X189554051Y-87559656D01*
X189560200Y-87553800D01*
X189676022Y-87478799D01*
X189783698Y-87480326D01*
X189871395Y-87550325D01*
X189927280Y-87680737D01*
X189941200Y-87813251D01*
X189924773Y-87973163D01*
X189869726Y-88065597D01*
X189767409Y-88102260D01*
X189726250Y-88104134D01*
X189624863Y-88081709D01*
X189550293Y-88027964D01*
X189526604Y-87963197D01*
X189534390Y-87942313D01*
X189524570Y-87889053D01*
X189474535Y-87828064D01*
X189408197Y-87777303D01*
X189357655Y-87786004D01*
X189307901Y-87827427D01*
X189258085Y-87878005D01*
X189247010Y-87924962D01*
X189274692Y-87998953D01*
X189308039Y-88065406D01*
X189401544Y-88208181D01*
X189515359Y-88286142D01*
X189675363Y-88314611D01*
X189730983Y-88315800D01*
X189860173Y-88302519D01*
G37*
X189860173Y-88302519D02*
X189963312Y-88250523D01*
X190051266Y-88171867D01*
X190143695Y-88065331D01*
X190185553Y-87964252D01*
X190195200Y-87829149D01*
X190166864Y-87624646D01*
X190088647Y-87455416D01*
X189983813Y-87352133D01*
X189855682Y-87301478D01*
X189701170Y-87278266D01*
X189564428Y-87287855D01*
X189534296Y-87297579D01*
X189452852Y-87352566D01*
X189363908Y-87440546D01*
X189292552Y-87533292D01*
X189263866Y-87601843D01*
X189296873Y-87635435D01*
X189376067Y-87636386D01*
X189471707Y-87609520D01*
X189554051Y-87559656D01*
X189560200Y-87553800D01*
X189676022Y-87478799D01*
X189783698Y-87480326D01*
X189871395Y-87550325D01*
X189927280Y-87680737D01*
X189941200Y-87813251D01*
X189924773Y-87973163D01*
X189869726Y-88065597D01*
X189767409Y-88102260D01*
X189726250Y-88104134D01*
X189624863Y-88081709D01*
X189550293Y-88027964D01*
X189526604Y-87963197D01*
X189534390Y-87942313D01*
X189524570Y-87889053D01*
X189474535Y-87828064D01*
X189408197Y-87777303D01*
X189357655Y-87786004D01*
X189307901Y-87827427D01*
X189258085Y-87878005D01*
X189247010Y-87924962D01*
X189274692Y-87998953D01*
X189308039Y-88065406D01*
X189401544Y-88208181D01*
X189515359Y-88286142D01*
X189675363Y-88314611D01*
X189730983Y-88315800D01*
X189860173Y-88302519D01*
D10*
G04 #@! TO.C,C16*
X116720252Y-94769000D02*
X116197748Y-94769000D01*
X116720252Y-96239000D02*
X116197748Y-96239000D01*
G04 #@! TO.C,R1*
X123493264Y-102058800D02*
X123039136Y-102058800D01*
X123493264Y-103528800D02*
X123039136Y-103528800D01*
G04 #@! TO.C,D2*
X125166200Y-104077400D02*
X125166200Y-105777400D01*
X125166200Y-105777400D02*
X122016200Y-105777400D01*
X125166200Y-104077400D02*
X122016200Y-104077400D01*
G04 #@! TO.C,C15*
X139707252Y-96039000D02*
X139184748Y-96039000D01*
X139707252Y-97509000D02*
X139184748Y-97509000D01*
G04 #@! TO.C,C14*
X144273600Y-90391348D02*
X144273600Y-90913852D01*
X145743600Y-90391348D02*
X145743600Y-90913852D01*
G04 #@! TO.C,C13*
X134739748Y-89889000D02*
X135262252Y-89889000D01*
X134739748Y-88419000D02*
X135262252Y-88419000D01*
G04 #@! TO.C,C12*
X134415200Y-95485852D02*
X134415200Y-94963348D01*
X132945200Y-95485852D02*
X132945200Y-94963348D01*
G04 #@! TO.C,C11*
X141959000Y-90913852D02*
X141959000Y-90391348D01*
X140489000Y-90913852D02*
X140489000Y-90391348D01*
G04 #@! TO.C,C7*
X123552852Y-98629800D02*
X123030348Y-98629800D01*
X123552852Y-100099800D02*
X123030348Y-100099800D01*
G04 #@! TO.C,C2*
X119093348Y-109726400D02*
X119615852Y-109726400D01*
X119093348Y-108256400D02*
X119615852Y-108256400D01*
G04 #@! TO.C,U2*
D12*
X120215580Y-101879495D02*
X121025104Y-101879495D01*
X121120342Y-101927114D01*
X121167961Y-101974733D01*
X121215580Y-102069971D01*
X121215580Y-102260447D01*
X121167961Y-102355685D01*
X121120342Y-102403304D01*
X121025104Y-102450923D01*
X120215580Y-102450923D01*
X120310819Y-102879495D02*
X120263200Y-102927114D01*
X120215580Y-103022352D01*
X120215580Y-103260447D01*
X120263200Y-103355685D01*
X120310819Y-103403304D01*
X120406057Y-103450923D01*
X120501295Y-103450923D01*
X120644152Y-103403304D01*
X121215580Y-102831876D01*
X121215580Y-103450923D01*
G04 #@! TO.C,R7*
X114295180Y-103160533D02*
X113818990Y-102827200D01*
X114295180Y-102589104D02*
X113295180Y-102589104D01*
X113295180Y-102970057D01*
X113342800Y-103065295D01*
X113390419Y-103112914D01*
X113485657Y-103160533D01*
X113628514Y-103160533D01*
X113723752Y-103112914D01*
X113771371Y-103065295D01*
X113818990Y-102970057D01*
X113818990Y-102589104D01*
X113295180Y-103493866D02*
X113295180Y-104160533D01*
X114295180Y-103731961D01*
G04 #@! TO.C,R6*
X111542533Y-104678219D02*
X111209200Y-105154409D01*
X110971104Y-104678219D02*
X110971104Y-105678219D01*
X111352057Y-105678219D01*
X111447295Y-105630600D01*
X111494914Y-105582980D01*
X111542533Y-105487742D01*
X111542533Y-105344885D01*
X111494914Y-105249647D01*
X111447295Y-105202028D01*
X111352057Y-105154409D01*
X110971104Y-105154409D01*
X112399676Y-105678219D02*
X112209200Y-105678219D01*
X112113961Y-105630600D01*
X112066342Y-105582980D01*
X111971104Y-105440123D01*
X111923485Y-105249647D01*
X111923485Y-104868695D01*
X111971104Y-104773457D01*
X112018723Y-104725838D01*
X112113961Y-104678219D01*
X112304438Y-104678219D01*
X112399676Y-104725838D01*
X112447295Y-104773457D01*
X112494914Y-104868695D01*
X112494914Y-105106790D01*
X112447295Y-105202028D01*
X112399676Y-105249647D01*
X112304438Y-105297266D01*
X112113961Y-105297266D01*
X112018723Y-105249647D01*
X111971104Y-105202028D01*
X111923485Y-105106790D01*
G04 #@! TO.C,R4*
X119365733Y-97210619D02*
X119032400Y-97686809D01*
X118794304Y-97210619D02*
X118794304Y-98210619D01*
X119175257Y-98210619D01*
X119270495Y-98163000D01*
X119318114Y-98115380D01*
X119365733Y-98020142D01*
X119365733Y-97877285D01*
X119318114Y-97782047D01*
X119270495Y-97734428D01*
X119175257Y-97686809D01*
X118794304Y-97686809D01*
X120222876Y-97877285D02*
X120222876Y-97210619D01*
X119984780Y-98258238D02*
X119746685Y-97543952D01*
X120365733Y-97543952D01*
G04 #@! TO.C,R3*
X122007333Y-110520219D02*
X121674000Y-110996409D01*
X121435904Y-110520219D02*
X121435904Y-111520219D01*
X121816857Y-111520219D01*
X121912095Y-111472600D01*
X121959714Y-111424980D01*
X122007333Y-111329742D01*
X122007333Y-111186885D01*
X121959714Y-111091647D01*
X121912095Y-111044028D01*
X121816857Y-110996409D01*
X121435904Y-110996409D01*
X122340666Y-111520219D02*
X122959714Y-111520219D01*
X122626380Y-111139266D01*
X122769238Y-111139266D01*
X122864476Y-111091647D01*
X122912095Y-111044028D01*
X122959714Y-110948790D01*
X122959714Y-110710695D01*
X122912095Y-110615457D01*
X122864476Y-110567838D01*
X122769238Y-110520219D01*
X122483523Y-110520219D01*
X122388285Y-110567838D01*
X122340666Y-110615457D01*
G04 #@! TO.C,U4*
X121564495Y-97622019D02*
X121564495Y-96812495D01*
X121612114Y-96717257D01*
X121659733Y-96669638D01*
X121754971Y-96622019D01*
X121945447Y-96622019D01*
X122040685Y-96669638D01*
X122088304Y-96717257D01*
X122135923Y-96812495D01*
X122135923Y-97622019D01*
X123040685Y-97288685D02*
X123040685Y-96622019D01*
X122802590Y-97669638D02*
X122564495Y-96955352D01*
X123183542Y-96955352D01*
G04 #@! TO.C,C16*
X116146342Y-93572057D02*
X116098723Y-93524438D01*
X115955866Y-93476819D01*
X115860628Y-93476819D01*
X115717771Y-93524438D01*
X115622533Y-93619676D01*
X115574914Y-93714914D01*
X115527295Y-93905390D01*
X115527295Y-94048247D01*
X115574914Y-94238723D01*
X115622533Y-94333961D01*
X115717771Y-94429200D01*
X115860628Y-94476819D01*
X115955866Y-94476819D01*
X116098723Y-94429200D01*
X116146342Y-94381580D01*
X117098723Y-93476819D02*
X116527295Y-93476819D01*
X116813009Y-93476819D02*
X116813009Y-94476819D01*
X116717771Y-94333961D01*
X116622533Y-94238723D01*
X116527295Y-94191104D01*
X117955866Y-94476819D02*
X117765390Y-94476819D01*
X117670152Y-94429200D01*
X117622533Y-94381580D01*
X117527295Y-94238723D01*
X117479676Y-94048247D01*
X117479676Y-93667295D01*
X117527295Y-93572057D01*
X117574914Y-93524438D01*
X117670152Y-93476819D01*
X117860628Y-93476819D01*
X117955866Y-93524438D01*
X118003485Y-93572057D01*
X118051104Y-93667295D01*
X118051104Y-93905390D01*
X118003485Y-94000628D01*
X117955866Y-94048247D01*
X117860628Y-94095866D01*
X117670152Y-94095866D01*
X117574914Y-94048247D01*
X117527295Y-94000628D01*
X117479676Y-93905390D01*
G04 #@! TO.C,R1*
X125868133Y-102366819D02*
X125534800Y-102843009D01*
X125296704Y-102366819D02*
X125296704Y-103366819D01*
X125677657Y-103366819D01*
X125772895Y-103319200D01*
X125820514Y-103271580D01*
X125868133Y-103176342D01*
X125868133Y-103033485D01*
X125820514Y-102938247D01*
X125772895Y-102890628D01*
X125677657Y-102843009D01*
X125296704Y-102843009D01*
X126820514Y-102366819D02*
X126249085Y-102366819D01*
X126534800Y-102366819D02*
X126534800Y-103366819D01*
X126439561Y-103223961D01*
X126344323Y-103128723D01*
X126249085Y-103081104D01*
G04 #@! TO.C,D2*
X125601504Y-104449619D02*
X125601504Y-105449619D01*
X125839600Y-105449619D01*
X125982457Y-105402000D01*
X126077695Y-105306761D01*
X126125314Y-105211523D01*
X126172933Y-105021047D01*
X126172933Y-104878190D01*
X126125314Y-104687714D01*
X126077695Y-104592476D01*
X125982457Y-104497238D01*
X125839600Y-104449619D01*
X125601504Y-104449619D01*
X126553885Y-105354380D02*
X126601504Y-105402000D01*
X126696742Y-105449619D01*
X126934838Y-105449619D01*
X127030076Y-105402000D01*
X127077695Y-105354380D01*
X127125314Y-105259142D01*
X127125314Y-105163904D01*
X127077695Y-105021047D01*
X126506266Y-104449619D01*
X127125314Y-104449619D01*
G04 #@! TO.C,C15*
X138803142Y-94736857D02*
X138755523Y-94689238D01*
X138612666Y-94641619D01*
X138517428Y-94641619D01*
X138374571Y-94689238D01*
X138279333Y-94784476D01*
X138231714Y-94879714D01*
X138184095Y-95070190D01*
X138184095Y-95213047D01*
X138231714Y-95403523D01*
X138279333Y-95498761D01*
X138374571Y-95594000D01*
X138517428Y-95641619D01*
X138612666Y-95641619D01*
X138755523Y-95594000D01*
X138803142Y-95546380D01*
X139755523Y-94641619D02*
X139184095Y-94641619D01*
X139469809Y-94641619D02*
X139469809Y-95641619D01*
X139374571Y-95498761D01*
X139279333Y-95403523D01*
X139184095Y-95355904D01*
X140660285Y-95641619D02*
X140184095Y-95641619D01*
X140136476Y-95165428D01*
X140184095Y-95213047D01*
X140279333Y-95260666D01*
X140517428Y-95260666D01*
X140612666Y-95213047D01*
X140660285Y-95165428D01*
X140707904Y-95070190D01*
X140707904Y-94832095D01*
X140660285Y-94736857D01*
X140612666Y-94689238D01*
X140517428Y-94641619D01*
X140279333Y-94641619D01*
X140184095Y-94689238D01*
X140136476Y-94736857D01*
G04 #@! TO.C,C14*
X147016742Y-90035142D02*
X147064361Y-89987523D01*
X147111980Y-89844666D01*
X147111980Y-89749428D01*
X147064361Y-89606571D01*
X146969123Y-89511333D01*
X146873885Y-89463714D01*
X146683409Y-89416095D01*
X146540552Y-89416095D01*
X146350076Y-89463714D01*
X146254838Y-89511333D01*
X146159600Y-89606571D01*
X146111980Y-89749428D01*
X146111980Y-89844666D01*
X146159600Y-89987523D01*
X146207219Y-90035142D01*
X147111980Y-90987523D02*
X147111980Y-90416095D01*
X147111980Y-90701809D02*
X146111980Y-90701809D01*
X146254838Y-90606571D01*
X146350076Y-90511333D01*
X146397695Y-90416095D01*
X146445314Y-91844666D02*
X147111980Y-91844666D01*
X146064361Y-91606571D02*
X146778647Y-91368476D01*
X146778647Y-91987523D01*
G04 #@! TO.C,C13*
X134358142Y-90476857D02*
X134310523Y-90429238D01*
X134167666Y-90381619D01*
X134072428Y-90381619D01*
X133929571Y-90429238D01*
X133834333Y-90524476D01*
X133786714Y-90619714D01*
X133739095Y-90810190D01*
X133739095Y-90953047D01*
X133786714Y-91143523D01*
X133834333Y-91238761D01*
X133929571Y-91334000D01*
X134072428Y-91381619D01*
X134167666Y-91381619D01*
X134310523Y-91334000D01*
X134358142Y-91286380D01*
X135310523Y-90381619D02*
X134739095Y-90381619D01*
X135024809Y-90381619D02*
X135024809Y-91381619D01*
X134929571Y-91238761D01*
X134834333Y-91143523D01*
X134739095Y-91095904D01*
X135643857Y-91381619D02*
X136262904Y-91381619D01*
X135929571Y-91000666D01*
X136072428Y-91000666D01*
X136167666Y-90953047D01*
X136215285Y-90905428D01*
X136262904Y-90810190D01*
X136262904Y-90572095D01*
X136215285Y-90476857D01*
X136167666Y-90429238D01*
X136072428Y-90381619D01*
X135786714Y-90381619D01*
X135691476Y-90429238D01*
X135643857Y-90476857D01*
G04 #@! TO.C,C12*
X135717342Y-94581742D02*
X135764961Y-94534123D01*
X135812580Y-94391266D01*
X135812580Y-94296028D01*
X135764961Y-94153171D01*
X135669723Y-94057933D01*
X135574485Y-94010314D01*
X135384009Y-93962695D01*
X135241152Y-93962695D01*
X135050676Y-94010314D01*
X134955438Y-94057933D01*
X134860200Y-94153171D01*
X134812580Y-94296028D01*
X134812580Y-94391266D01*
X134860200Y-94534123D01*
X134907819Y-94581742D01*
X135812580Y-95534123D02*
X135812580Y-94962695D01*
X135812580Y-95248409D02*
X134812580Y-95248409D01*
X134955438Y-95153171D01*
X135050676Y-95057933D01*
X135098295Y-94962695D01*
X134907819Y-95915076D02*
X134860200Y-95962695D01*
X134812580Y-96057933D01*
X134812580Y-96296028D01*
X134860200Y-96391266D01*
X134907819Y-96438885D01*
X135003057Y-96486504D01*
X135098295Y-96486504D01*
X135241152Y-96438885D01*
X135812580Y-95867457D01*
X135812580Y-96486504D01*
G04 #@! TO.C,C11*
X143261142Y-90009742D02*
X143308761Y-89962123D01*
X143356380Y-89819266D01*
X143356380Y-89724028D01*
X143308761Y-89581171D01*
X143213523Y-89485933D01*
X143118285Y-89438314D01*
X142927809Y-89390695D01*
X142784952Y-89390695D01*
X142594476Y-89438314D01*
X142499238Y-89485933D01*
X142404000Y-89581171D01*
X142356380Y-89724028D01*
X142356380Y-89819266D01*
X142404000Y-89962123D01*
X142451619Y-90009742D01*
X143356380Y-90962123D02*
X143356380Y-90390695D01*
X143356380Y-90676409D02*
X142356380Y-90676409D01*
X142499238Y-90581171D01*
X142594476Y-90485933D01*
X142642095Y-90390695D01*
X143356380Y-91914504D02*
X143356380Y-91343076D01*
X143356380Y-91628790D02*
X142356380Y-91628790D01*
X142499238Y-91533552D01*
X142594476Y-91438314D01*
X142642095Y-91343076D01*
G04 #@! TO.C,C7*
X123150333Y-100734857D02*
X123102714Y-100687238D01*
X122959857Y-100639619D01*
X122864619Y-100639619D01*
X122721761Y-100687238D01*
X122626523Y-100782476D01*
X122578904Y-100877714D01*
X122531285Y-101068190D01*
X122531285Y-101211047D01*
X122578904Y-101401523D01*
X122626523Y-101496761D01*
X122721761Y-101592000D01*
X122864619Y-101639619D01*
X122959857Y-101639619D01*
X123102714Y-101592000D01*
X123150333Y-101544380D01*
X123483666Y-101639619D02*
X124150333Y-101639619D01*
X123721761Y-100639619D01*
G04 #@! TO.C,C2*
X121905733Y-108583457D02*
X121858114Y-108535838D01*
X121715257Y-108488219D01*
X121620019Y-108488219D01*
X121477161Y-108535838D01*
X121381923Y-108631076D01*
X121334304Y-108726314D01*
X121286685Y-108916790D01*
X121286685Y-109059647D01*
X121334304Y-109250123D01*
X121381923Y-109345361D01*
X121477161Y-109440600D01*
X121620019Y-109488219D01*
X121715257Y-109488219D01*
X121858114Y-109440600D01*
X121905733Y-109392980D01*
X122286685Y-109392980D02*
X122334304Y-109440600D01*
X122429542Y-109488219D01*
X122667638Y-109488219D01*
X122762876Y-109440600D01*
X122810495Y-109392980D01*
X122858114Y-109297742D01*
X122858114Y-109202504D01*
X122810495Y-109059647D01*
X122239066Y-108488219D01*
X122858114Y-108488219D01*
G04 #@! TD*
M02*
