G04 #@! TF.GenerationSoftware,KiCad,Pcbnew,5.1.9*
G04 #@! TF.CreationDate,2021-01-29T13:56:36+08:00*
G04 #@! TF.ProjectId,LaserSwitch-Slave,4c617365-7253-4776-9974-63682d536c61,rev?*
G04 #@! TF.SameCoordinates,Original*
G04 #@! TF.FileFunction,Soldermask,Top*
G04 #@! TF.FilePolarity,Negative*
%FSLAX46Y46*%
G04 Gerber Fmt 4.6, Leading zero omitted, Abs format (unit mm)*
G04 Created by KiCad (PCBNEW 5.1.9) date 2021-01-29 13:56:36*
%MOMM*%
%LPD*%
G01*
G04 APERTURE LIST*
%ADD10C,2.800000*%
%ADD11C,6.400000*%
%ADD12C,1.500000*%
%ADD13R,1.200000X2.200000*%
%ADD14R,2.000000X1.500000*%
%ADD15R,2.000000X3.800000*%
%ADD16R,1.120000X2.440000*%
%ADD17R,1.300000X1.550000*%
%ADD18C,1.400000*%
%ADD19R,1.400000X1.400000*%
%ADD20O,1.700000X1.950000*%
%ADD21O,1.950000X1.700000*%
%ADD22O,2.000000X1.700000*%
G04 APERTURE END LIST*
G04 #@! TO.C,C17*
G36*
G01*
X116070400Y-99774500D02*
X115120400Y-99774500D01*
G75*
G02*
X114870400Y-99524500I0J250000D01*
G01*
X114870400Y-98849500D01*
G75*
G02*
X115120400Y-98599500I250000J0D01*
G01*
X116070400Y-98599500D01*
G75*
G02*
X116320400Y-98849500I0J-250000D01*
G01*
X116320400Y-99524500D01*
G75*
G02*
X116070400Y-99774500I-250000J0D01*
G01*
G37*
G36*
G01*
X116070400Y-101849500D02*
X115120400Y-101849500D01*
G75*
G02*
X114870400Y-101599500I0J250000D01*
G01*
X114870400Y-100924500D01*
G75*
G02*
X115120400Y-100674500I250000J0D01*
G01*
X116070400Y-100674500D01*
G75*
G02*
X116320400Y-100924500I0J-250000D01*
G01*
X116320400Y-101599500D01*
G75*
G02*
X116070400Y-101849500I-250000J0D01*
G01*
G37*
G04 #@! TD*
D10*
G04 #@! TO.C,TP2*
X121056400Y-89255600D03*
G04 #@! TD*
G04 #@! TO.C,TP1*
X127635000Y-89179400D03*
G04 #@! TD*
G04 #@! TO.C,R5*
G36*
G01*
X130817199Y-111321800D02*
X131717201Y-111321800D01*
G75*
G02*
X131967200Y-111571799I0J-249999D01*
G01*
X131967200Y-112271801D01*
G75*
G02*
X131717201Y-112521800I-249999J0D01*
G01*
X130817199Y-112521800D01*
G75*
G02*
X130567200Y-112271801I0J249999D01*
G01*
X130567200Y-111571799D01*
G75*
G02*
X130817199Y-111321800I249999J0D01*
G01*
G37*
G36*
G01*
X130817199Y-109321800D02*
X131717201Y-109321800D01*
G75*
G02*
X131967200Y-109571799I0J-249999D01*
G01*
X131967200Y-110271801D01*
G75*
G02*
X131717201Y-110521800I-249999J0D01*
G01*
X130817199Y-110521800D01*
G75*
G02*
X130567200Y-110271801I0J249999D01*
G01*
X130567200Y-109571799D01*
G75*
G02*
X130817199Y-109321800I249999J0D01*
G01*
G37*
G04 #@! TD*
D11*
G04 #@! TO.C,H3*
X196418200Y-111404400D03*
G04 #@! TD*
G04 #@! TO.C,H2*
X196418200Y-88569800D03*
G04 #@! TD*
G04 #@! TO.C,H1*
X110947200Y-100000000D03*
G04 #@! TD*
D12*
G04 #@! TO.C,Y1*
X127838200Y-102924000D03*
X127838200Y-98044000D03*
G04 #@! TD*
G04 #@! TO.C,U6*
G36*
G01*
X132464400Y-96864000D02*
X131064400Y-96864000D01*
G75*
G02*
X130989400Y-96789000I0J75000D01*
G01*
X130989400Y-96639000D01*
G75*
G02*
X131064400Y-96564000I75000J0D01*
G01*
X132464400Y-96564000D01*
G75*
G02*
X132539400Y-96639000I0J-75000D01*
G01*
X132539400Y-96789000D01*
G75*
G02*
X132464400Y-96864000I-75000J0D01*
G01*
G37*
G36*
G01*
X132464400Y-96364000D02*
X131064400Y-96364000D01*
G75*
G02*
X130989400Y-96289000I0J75000D01*
G01*
X130989400Y-96139000D01*
G75*
G02*
X131064400Y-96064000I75000J0D01*
G01*
X132464400Y-96064000D01*
G75*
G02*
X132539400Y-96139000I0J-75000D01*
G01*
X132539400Y-96289000D01*
G75*
G02*
X132464400Y-96364000I-75000J0D01*
G01*
G37*
G36*
G01*
X132464400Y-95864000D02*
X131064400Y-95864000D01*
G75*
G02*
X130989400Y-95789000I0J75000D01*
G01*
X130989400Y-95639000D01*
G75*
G02*
X131064400Y-95564000I75000J0D01*
G01*
X132464400Y-95564000D01*
G75*
G02*
X132539400Y-95639000I0J-75000D01*
G01*
X132539400Y-95789000D01*
G75*
G02*
X132464400Y-95864000I-75000J0D01*
G01*
G37*
G36*
G01*
X132464400Y-95364000D02*
X131064400Y-95364000D01*
G75*
G02*
X130989400Y-95289000I0J75000D01*
G01*
X130989400Y-95139000D01*
G75*
G02*
X131064400Y-95064000I75000J0D01*
G01*
X132464400Y-95064000D01*
G75*
G02*
X132539400Y-95139000I0J-75000D01*
G01*
X132539400Y-95289000D01*
G75*
G02*
X132464400Y-95364000I-75000J0D01*
G01*
G37*
G36*
G01*
X132464400Y-94864000D02*
X131064400Y-94864000D01*
G75*
G02*
X130989400Y-94789000I0J75000D01*
G01*
X130989400Y-94639000D01*
G75*
G02*
X131064400Y-94564000I75000J0D01*
G01*
X132464400Y-94564000D01*
G75*
G02*
X132539400Y-94639000I0J-75000D01*
G01*
X132539400Y-94789000D01*
G75*
G02*
X132464400Y-94864000I-75000J0D01*
G01*
G37*
G36*
G01*
X132464400Y-94364000D02*
X131064400Y-94364000D01*
G75*
G02*
X130989400Y-94289000I0J75000D01*
G01*
X130989400Y-94139000D01*
G75*
G02*
X131064400Y-94064000I75000J0D01*
G01*
X132464400Y-94064000D01*
G75*
G02*
X132539400Y-94139000I0J-75000D01*
G01*
X132539400Y-94289000D01*
G75*
G02*
X132464400Y-94364000I-75000J0D01*
G01*
G37*
G36*
G01*
X132464400Y-93864000D02*
X131064400Y-93864000D01*
G75*
G02*
X130989400Y-93789000I0J75000D01*
G01*
X130989400Y-93639000D01*
G75*
G02*
X131064400Y-93564000I75000J0D01*
G01*
X132464400Y-93564000D01*
G75*
G02*
X132539400Y-93639000I0J-75000D01*
G01*
X132539400Y-93789000D01*
G75*
G02*
X132464400Y-93864000I-75000J0D01*
G01*
G37*
G36*
G01*
X132464400Y-93364000D02*
X131064400Y-93364000D01*
G75*
G02*
X130989400Y-93289000I0J75000D01*
G01*
X130989400Y-93139000D01*
G75*
G02*
X131064400Y-93064000I75000J0D01*
G01*
X132464400Y-93064000D01*
G75*
G02*
X132539400Y-93139000I0J-75000D01*
G01*
X132539400Y-93289000D01*
G75*
G02*
X132464400Y-93364000I-75000J0D01*
G01*
G37*
G36*
G01*
X132464400Y-92864000D02*
X131064400Y-92864000D01*
G75*
G02*
X130989400Y-92789000I0J75000D01*
G01*
X130989400Y-92639000D01*
G75*
G02*
X131064400Y-92564000I75000J0D01*
G01*
X132464400Y-92564000D01*
G75*
G02*
X132539400Y-92639000I0J-75000D01*
G01*
X132539400Y-92789000D01*
G75*
G02*
X132464400Y-92864000I-75000J0D01*
G01*
G37*
G36*
G01*
X132464400Y-92364000D02*
X131064400Y-92364000D01*
G75*
G02*
X130989400Y-92289000I0J75000D01*
G01*
X130989400Y-92139000D01*
G75*
G02*
X131064400Y-92064000I75000J0D01*
G01*
X132464400Y-92064000D01*
G75*
G02*
X132539400Y-92139000I0J-75000D01*
G01*
X132539400Y-92289000D01*
G75*
G02*
X132464400Y-92364000I-75000J0D01*
G01*
G37*
G36*
G01*
X132464400Y-91864000D02*
X131064400Y-91864000D01*
G75*
G02*
X130989400Y-91789000I0J75000D01*
G01*
X130989400Y-91639000D01*
G75*
G02*
X131064400Y-91564000I75000J0D01*
G01*
X132464400Y-91564000D01*
G75*
G02*
X132539400Y-91639000I0J-75000D01*
G01*
X132539400Y-91789000D01*
G75*
G02*
X132464400Y-91864000I-75000J0D01*
G01*
G37*
G36*
G01*
X132464400Y-91364000D02*
X131064400Y-91364000D01*
G75*
G02*
X130989400Y-91289000I0J75000D01*
G01*
X130989400Y-91139000D01*
G75*
G02*
X131064400Y-91064000I75000J0D01*
G01*
X132464400Y-91064000D01*
G75*
G02*
X132539400Y-91139000I0J-75000D01*
G01*
X132539400Y-91289000D01*
G75*
G02*
X132464400Y-91364000I-75000J0D01*
G01*
G37*
G36*
G01*
X132464400Y-90864000D02*
X131064400Y-90864000D01*
G75*
G02*
X130989400Y-90789000I0J75000D01*
G01*
X130989400Y-90639000D01*
G75*
G02*
X131064400Y-90564000I75000J0D01*
G01*
X132464400Y-90564000D01*
G75*
G02*
X132539400Y-90639000I0J-75000D01*
G01*
X132539400Y-90789000D01*
G75*
G02*
X132464400Y-90864000I-75000J0D01*
G01*
G37*
G36*
G01*
X132464400Y-90364000D02*
X131064400Y-90364000D01*
G75*
G02*
X130989400Y-90289000I0J75000D01*
G01*
X130989400Y-90139000D01*
G75*
G02*
X131064400Y-90064000I75000J0D01*
G01*
X132464400Y-90064000D01*
G75*
G02*
X132539400Y-90139000I0J-75000D01*
G01*
X132539400Y-90289000D01*
G75*
G02*
X132464400Y-90364000I-75000J0D01*
G01*
G37*
G36*
G01*
X132464400Y-89864000D02*
X131064400Y-89864000D01*
G75*
G02*
X130989400Y-89789000I0J75000D01*
G01*
X130989400Y-89639000D01*
G75*
G02*
X131064400Y-89564000I75000J0D01*
G01*
X132464400Y-89564000D01*
G75*
G02*
X132539400Y-89639000I0J-75000D01*
G01*
X132539400Y-89789000D01*
G75*
G02*
X132464400Y-89864000I-75000J0D01*
G01*
G37*
G36*
G01*
X132464400Y-89364000D02*
X131064400Y-89364000D01*
G75*
G02*
X130989400Y-89289000I0J75000D01*
G01*
X130989400Y-89139000D01*
G75*
G02*
X131064400Y-89064000I75000J0D01*
G01*
X132464400Y-89064000D01*
G75*
G02*
X132539400Y-89139000I0J-75000D01*
G01*
X132539400Y-89289000D01*
G75*
G02*
X132464400Y-89364000I-75000J0D01*
G01*
G37*
G36*
G01*
X133764400Y-88064000D02*
X133614400Y-88064000D01*
G75*
G02*
X133539400Y-87989000I0J75000D01*
G01*
X133539400Y-86589000D01*
G75*
G02*
X133614400Y-86514000I75000J0D01*
G01*
X133764400Y-86514000D01*
G75*
G02*
X133839400Y-86589000I0J-75000D01*
G01*
X133839400Y-87989000D01*
G75*
G02*
X133764400Y-88064000I-75000J0D01*
G01*
G37*
G36*
G01*
X134264400Y-88064000D02*
X134114400Y-88064000D01*
G75*
G02*
X134039400Y-87989000I0J75000D01*
G01*
X134039400Y-86589000D01*
G75*
G02*
X134114400Y-86514000I75000J0D01*
G01*
X134264400Y-86514000D01*
G75*
G02*
X134339400Y-86589000I0J-75000D01*
G01*
X134339400Y-87989000D01*
G75*
G02*
X134264400Y-88064000I-75000J0D01*
G01*
G37*
G36*
G01*
X134764400Y-88064000D02*
X134614400Y-88064000D01*
G75*
G02*
X134539400Y-87989000I0J75000D01*
G01*
X134539400Y-86589000D01*
G75*
G02*
X134614400Y-86514000I75000J0D01*
G01*
X134764400Y-86514000D01*
G75*
G02*
X134839400Y-86589000I0J-75000D01*
G01*
X134839400Y-87989000D01*
G75*
G02*
X134764400Y-88064000I-75000J0D01*
G01*
G37*
G36*
G01*
X135264400Y-88064000D02*
X135114400Y-88064000D01*
G75*
G02*
X135039400Y-87989000I0J75000D01*
G01*
X135039400Y-86589000D01*
G75*
G02*
X135114400Y-86514000I75000J0D01*
G01*
X135264400Y-86514000D01*
G75*
G02*
X135339400Y-86589000I0J-75000D01*
G01*
X135339400Y-87989000D01*
G75*
G02*
X135264400Y-88064000I-75000J0D01*
G01*
G37*
G36*
G01*
X135764400Y-88064000D02*
X135614400Y-88064000D01*
G75*
G02*
X135539400Y-87989000I0J75000D01*
G01*
X135539400Y-86589000D01*
G75*
G02*
X135614400Y-86514000I75000J0D01*
G01*
X135764400Y-86514000D01*
G75*
G02*
X135839400Y-86589000I0J-75000D01*
G01*
X135839400Y-87989000D01*
G75*
G02*
X135764400Y-88064000I-75000J0D01*
G01*
G37*
G36*
G01*
X136264400Y-88064000D02*
X136114400Y-88064000D01*
G75*
G02*
X136039400Y-87989000I0J75000D01*
G01*
X136039400Y-86589000D01*
G75*
G02*
X136114400Y-86514000I75000J0D01*
G01*
X136264400Y-86514000D01*
G75*
G02*
X136339400Y-86589000I0J-75000D01*
G01*
X136339400Y-87989000D01*
G75*
G02*
X136264400Y-88064000I-75000J0D01*
G01*
G37*
G36*
G01*
X136764400Y-88064000D02*
X136614400Y-88064000D01*
G75*
G02*
X136539400Y-87989000I0J75000D01*
G01*
X136539400Y-86589000D01*
G75*
G02*
X136614400Y-86514000I75000J0D01*
G01*
X136764400Y-86514000D01*
G75*
G02*
X136839400Y-86589000I0J-75000D01*
G01*
X136839400Y-87989000D01*
G75*
G02*
X136764400Y-88064000I-75000J0D01*
G01*
G37*
G36*
G01*
X137264400Y-88064000D02*
X137114400Y-88064000D01*
G75*
G02*
X137039400Y-87989000I0J75000D01*
G01*
X137039400Y-86589000D01*
G75*
G02*
X137114400Y-86514000I75000J0D01*
G01*
X137264400Y-86514000D01*
G75*
G02*
X137339400Y-86589000I0J-75000D01*
G01*
X137339400Y-87989000D01*
G75*
G02*
X137264400Y-88064000I-75000J0D01*
G01*
G37*
G36*
G01*
X137764400Y-88064000D02*
X137614400Y-88064000D01*
G75*
G02*
X137539400Y-87989000I0J75000D01*
G01*
X137539400Y-86589000D01*
G75*
G02*
X137614400Y-86514000I75000J0D01*
G01*
X137764400Y-86514000D01*
G75*
G02*
X137839400Y-86589000I0J-75000D01*
G01*
X137839400Y-87989000D01*
G75*
G02*
X137764400Y-88064000I-75000J0D01*
G01*
G37*
G36*
G01*
X138264400Y-88064000D02*
X138114400Y-88064000D01*
G75*
G02*
X138039400Y-87989000I0J75000D01*
G01*
X138039400Y-86589000D01*
G75*
G02*
X138114400Y-86514000I75000J0D01*
G01*
X138264400Y-86514000D01*
G75*
G02*
X138339400Y-86589000I0J-75000D01*
G01*
X138339400Y-87989000D01*
G75*
G02*
X138264400Y-88064000I-75000J0D01*
G01*
G37*
G36*
G01*
X138764400Y-88064000D02*
X138614400Y-88064000D01*
G75*
G02*
X138539400Y-87989000I0J75000D01*
G01*
X138539400Y-86589000D01*
G75*
G02*
X138614400Y-86514000I75000J0D01*
G01*
X138764400Y-86514000D01*
G75*
G02*
X138839400Y-86589000I0J-75000D01*
G01*
X138839400Y-87989000D01*
G75*
G02*
X138764400Y-88064000I-75000J0D01*
G01*
G37*
G36*
G01*
X139264400Y-88064000D02*
X139114400Y-88064000D01*
G75*
G02*
X139039400Y-87989000I0J75000D01*
G01*
X139039400Y-86589000D01*
G75*
G02*
X139114400Y-86514000I75000J0D01*
G01*
X139264400Y-86514000D01*
G75*
G02*
X139339400Y-86589000I0J-75000D01*
G01*
X139339400Y-87989000D01*
G75*
G02*
X139264400Y-88064000I-75000J0D01*
G01*
G37*
G36*
G01*
X139764400Y-88064000D02*
X139614400Y-88064000D01*
G75*
G02*
X139539400Y-87989000I0J75000D01*
G01*
X139539400Y-86589000D01*
G75*
G02*
X139614400Y-86514000I75000J0D01*
G01*
X139764400Y-86514000D01*
G75*
G02*
X139839400Y-86589000I0J-75000D01*
G01*
X139839400Y-87989000D01*
G75*
G02*
X139764400Y-88064000I-75000J0D01*
G01*
G37*
G36*
G01*
X140264400Y-88064000D02*
X140114400Y-88064000D01*
G75*
G02*
X140039400Y-87989000I0J75000D01*
G01*
X140039400Y-86589000D01*
G75*
G02*
X140114400Y-86514000I75000J0D01*
G01*
X140264400Y-86514000D01*
G75*
G02*
X140339400Y-86589000I0J-75000D01*
G01*
X140339400Y-87989000D01*
G75*
G02*
X140264400Y-88064000I-75000J0D01*
G01*
G37*
G36*
G01*
X140764400Y-88064000D02*
X140614400Y-88064000D01*
G75*
G02*
X140539400Y-87989000I0J75000D01*
G01*
X140539400Y-86589000D01*
G75*
G02*
X140614400Y-86514000I75000J0D01*
G01*
X140764400Y-86514000D01*
G75*
G02*
X140839400Y-86589000I0J-75000D01*
G01*
X140839400Y-87989000D01*
G75*
G02*
X140764400Y-88064000I-75000J0D01*
G01*
G37*
G36*
G01*
X141264400Y-88064000D02*
X141114400Y-88064000D01*
G75*
G02*
X141039400Y-87989000I0J75000D01*
G01*
X141039400Y-86589000D01*
G75*
G02*
X141114400Y-86514000I75000J0D01*
G01*
X141264400Y-86514000D01*
G75*
G02*
X141339400Y-86589000I0J-75000D01*
G01*
X141339400Y-87989000D01*
G75*
G02*
X141264400Y-88064000I-75000J0D01*
G01*
G37*
G36*
G01*
X143814400Y-89364000D02*
X142414400Y-89364000D01*
G75*
G02*
X142339400Y-89289000I0J75000D01*
G01*
X142339400Y-89139000D01*
G75*
G02*
X142414400Y-89064000I75000J0D01*
G01*
X143814400Y-89064000D01*
G75*
G02*
X143889400Y-89139000I0J-75000D01*
G01*
X143889400Y-89289000D01*
G75*
G02*
X143814400Y-89364000I-75000J0D01*
G01*
G37*
G36*
G01*
X143814400Y-89864000D02*
X142414400Y-89864000D01*
G75*
G02*
X142339400Y-89789000I0J75000D01*
G01*
X142339400Y-89639000D01*
G75*
G02*
X142414400Y-89564000I75000J0D01*
G01*
X143814400Y-89564000D01*
G75*
G02*
X143889400Y-89639000I0J-75000D01*
G01*
X143889400Y-89789000D01*
G75*
G02*
X143814400Y-89864000I-75000J0D01*
G01*
G37*
G36*
G01*
X143814400Y-90364000D02*
X142414400Y-90364000D01*
G75*
G02*
X142339400Y-90289000I0J75000D01*
G01*
X142339400Y-90139000D01*
G75*
G02*
X142414400Y-90064000I75000J0D01*
G01*
X143814400Y-90064000D01*
G75*
G02*
X143889400Y-90139000I0J-75000D01*
G01*
X143889400Y-90289000D01*
G75*
G02*
X143814400Y-90364000I-75000J0D01*
G01*
G37*
G36*
G01*
X143814400Y-90864000D02*
X142414400Y-90864000D01*
G75*
G02*
X142339400Y-90789000I0J75000D01*
G01*
X142339400Y-90639000D01*
G75*
G02*
X142414400Y-90564000I75000J0D01*
G01*
X143814400Y-90564000D01*
G75*
G02*
X143889400Y-90639000I0J-75000D01*
G01*
X143889400Y-90789000D01*
G75*
G02*
X143814400Y-90864000I-75000J0D01*
G01*
G37*
G36*
G01*
X143814400Y-91364000D02*
X142414400Y-91364000D01*
G75*
G02*
X142339400Y-91289000I0J75000D01*
G01*
X142339400Y-91139000D01*
G75*
G02*
X142414400Y-91064000I75000J0D01*
G01*
X143814400Y-91064000D01*
G75*
G02*
X143889400Y-91139000I0J-75000D01*
G01*
X143889400Y-91289000D01*
G75*
G02*
X143814400Y-91364000I-75000J0D01*
G01*
G37*
G36*
G01*
X143814400Y-91864000D02*
X142414400Y-91864000D01*
G75*
G02*
X142339400Y-91789000I0J75000D01*
G01*
X142339400Y-91639000D01*
G75*
G02*
X142414400Y-91564000I75000J0D01*
G01*
X143814400Y-91564000D01*
G75*
G02*
X143889400Y-91639000I0J-75000D01*
G01*
X143889400Y-91789000D01*
G75*
G02*
X143814400Y-91864000I-75000J0D01*
G01*
G37*
G36*
G01*
X143814400Y-92364000D02*
X142414400Y-92364000D01*
G75*
G02*
X142339400Y-92289000I0J75000D01*
G01*
X142339400Y-92139000D01*
G75*
G02*
X142414400Y-92064000I75000J0D01*
G01*
X143814400Y-92064000D01*
G75*
G02*
X143889400Y-92139000I0J-75000D01*
G01*
X143889400Y-92289000D01*
G75*
G02*
X143814400Y-92364000I-75000J0D01*
G01*
G37*
G36*
G01*
X143814400Y-92864000D02*
X142414400Y-92864000D01*
G75*
G02*
X142339400Y-92789000I0J75000D01*
G01*
X142339400Y-92639000D01*
G75*
G02*
X142414400Y-92564000I75000J0D01*
G01*
X143814400Y-92564000D01*
G75*
G02*
X143889400Y-92639000I0J-75000D01*
G01*
X143889400Y-92789000D01*
G75*
G02*
X143814400Y-92864000I-75000J0D01*
G01*
G37*
G36*
G01*
X143814400Y-93364000D02*
X142414400Y-93364000D01*
G75*
G02*
X142339400Y-93289000I0J75000D01*
G01*
X142339400Y-93139000D01*
G75*
G02*
X142414400Y-93064000I75000J0D01*
G01*
X143814400Y-93064000D01*
G75*
G02*
X143889400Y-93139000I0J-75000D01*
G01*
X143889400Y-93289000D01*
G75*
G02*
X143814400Y-93364000I-75000J0D01*
G01*
G37*
G36*
G01*
X143814400Y-93864000D02*
X142414400Y-93864000D01*
G75*
G02*
X142339400Y-93789000I0J75000D01*
G01*
X142339400Y-93639000D01*
G75*
G02*
X142414400Y-93564000I75000J0D01*
G01*
X143814400Y-93564000D01*
G75*
G02*
X143889400Y-93639000I0J-75000D01*
G01*
X143889400Y-93789000D01*
G75*
G02*
X143814400Y-93864000I-75000J0D01*
G01*
G37*
G36*
G01*
X143814400Y-94364000D02*
X142414400Y-94364000D01*
G75*
G02*
X142339400Y-94289000I0J75000D01*
G01*
X142339400Y-94139000D01*
G75*
G02*
X142414400Y-94064000I75000J0D01*
G01*
X143814400Y-94064000D01*
G75*
G02*
X143889400Y-94139000I0J-75000D01*
G01*
X143889400Y-94289000D01*
G75*
G02*
X143814400Y-94364000I-75000J0D01*
G01*
G37*
G36*
G01*
X143814400Y-94864000D02*
X142414400Y-94864000D01*
G75*
G02*
X142339400Y-94789000I0J75000D01*
G01*
X142339400Y-94639000D01*
G75*
G02*
X142414400Y-94564000I75000J0D01*
G01*
X143814400Y-94564000D01*
G75*
G02*
X143889400Y-94639000I0J-75000D01*
G01*
X143889400Y-94789000D01*
G75*
G02*
X143814400Y-94864000I-75000J0D01*
G01*
G37*
G36*
G01*
X143814400Y-95364000D02*
X142414400Y-95364000D01*
G75*
G02*
X142339400Y-95289000I0J75000D01*
G01*
X142339400Y-95139000D01*
G75*
G02*
X142414400Y-95064000I75000J0D01*
G01*
X143814400Y-95064000D01*
G75*
G02*
X143889400Y-95139000I0J-75000D01*
G01*
X143889400Y-95289000D01*
G75*
G02*
X143814400Y-95364000I-75000J0D01*
G01*
G37*
G36*
G01*
X143814400Y-95864000D02*
X142414400Y-95864000D01*
G75*
G02*
X142339400Y-95789000I0J75000D01*
G01*
X142339400Y-95639000D01*
G75*
G02*
X142414400Y-95564000I75000J0D01*
G01*
X143814400Y-95564000D01*
G75*
G02*
X143889400Y-95639000I0J-75000D01*
G01*
X143889400Y-95789000D01*
G75*
G02*
X143814400Y-95864000I-75000J0D01*
G01*
G37*
G36*
G01*
X143814400Y-96364000D02*
X142414400Y-96364000D01*
G75*
G02*
X142339400Y-96289000I0J75000D01*
G01*
X142339400Y-96139000D01*
G75*
G02*
X142414400Y-96064000I75000J0D01*
G01*
X143814400Y-96064000D01*
G75*
G02*
X143889400Y-96139000I0J-75000D01*
G01*
X143889400Y-96289000D01*
G75*
G02*
X143814400Y-96364000I-75000J0D01*
G01*
G37*
G36*
G01*
X143814400Y-96864000D02*
X142414400Y-96864000D01*
G75*
G02*
X142339400Y-96789000I0J75000D01*
G01*
X142339400Y-96639000D01*
G75*
G02*
X142414400Y-96564000I75000J0D01*
G01*
X143814400Y-96564000D01*
G75*
G02*
X143889400Y-96639000I0J-75000D01*
G01*
X143889400Y-96789000D01*
G75*
G02*
X143814400Y-96864000I-75000J0D01*
G01*
G37*
G36*
G01*
X141264400Y-99414000D02*
X141114400Y-99414000D01*
G75*
G02*
X141039400Y-99339000I0J75000D01*
G01*
X141039400Y-97939000D01*
G75*
G02*
X141114400Y-97864000I75000J0D01*
G01*
X141264400Y-97864000D01*
G75*
G02*
X141339400Y-97939000I0J-75000D01*
G01*
X141339400Y-99339000D01*
G75*
G02*
X141264400Y-99414000I-75000J0D01*
G01*
G37*
G36*
G01*
X140764400Y-99414000D02*
X140614400Y-99414000D01*
G75*
G02*
X140539400Y-99339000I0J75000D01*
G01*
X140539400Y-97939000D01*
G75*
G02*
X140614400Y-97864000I75000J0D01*
G01*
X140764400Y-97864000D01*
G75*
G02*
X140839400Y-97939000I0J-75000D01*
G01*
X140839400Y-99339000D01*
G75*
G02*
X140764400Y-99414000I-75000J0D01*
G01*
G37*
G36*
G01*
X140264400Y-99414000D02*
X140114400Y-99414000D01*
G75*
G02*
X140039400Y-99339000I0J75000D01*
G01*
X140039400Y-97939000D01*
G75*
G02*
X140114400Y-97864000I75000J0D01*
G01*
X140264400Y-97864000D01*
G75*
G02*
X140339400Y-97939000I0J-75000D01*
G01*
X140339400Y-99339000D01*
G75*
G02*
X140264400Y-99414000I-75000J0D01*
G01*
G37*
G36*
G01*
X139764400Y-99414000D02*
X139614400Y-99414000D01*
G75*
G02*
X139539400Y-99339000I0J75000D01*
G01*
X139539400Y-97939000D01*
G75*
G02*
X139614400Y-97864000I75000J0D01*
G01*
X139764400Y-97864000D01*
G75*
G02*
X139839400Y-97939000I0J-75000D01*
G01*
X139839400Y-99339000D01*
G75*
G02*
X139764400Y-99414000I-75000J0D01*
G01*
G37*
G36*
G01*
X139264400Y-99414000D02*
X139114400Y-99414000D01*
G75*
G02*
X139039400Y-99339000I0J75000D01*
G01*
X139039400Y-97939000D01*
G75*
G02*
X139114400Y-97864000I75000J0D01*
G01*
X139264400Y-97864000D01*
G75*
G02*
X139339400Y-97939000I0J-75000D01*
G01*
X139339400Y-99339000D01*
G75*
G02*
X139264400Y-99414000I-75000J0D01*
G01*
G37*
G36*
G01*
X138764400Y-99414000D02*
X138614400Y-99414000D01*
G75*
G02*
X138539400Y-99339000I0J75000D01*
G01*
X138539400Y-97939000D01*
G75*
G02*
X138614400Y-97864000I75000J0D01*
G01*
X138764400Y-97864000D01*
G75*
G02*
X138839400Y-97939000I0J-75000D01*
G01*
X138839400Y-99339000D01*
G75*
G02*
X138764400Y-99414000I-75000J0D01*
G01*
G37*
G36*
G01*
X138264400Y-99414000D02*
X138114400Y-99414000D01*
G75*
G02*
X138039400Y-99339000I0J75000D01*
G01*
X138039400Y-97939000D01*
G75*
G02*
X138114400Y-97864000I75000J0D01*
G01*
X138264400Y-97864000D01*
G75*
G02*
X138339400Y-97939000I0J-75000D01*
G01*
X138339400Y-99339000D01*
G75*
G02*
X138264400Y-99414000I-75000J0D01*
G01*
G37*
G36*
G01*
X137764400Y-99414000D02*
X137614400Y-99414000D01*
G75*
G02*
X137539400Y-99339000I0J75000D01*
G01*
X137539400Y-97939000D01*
G75*
G02*
X137614400Y-97864000I75000J0D01*
G01*
X137764400Y-97864000D01*
G75*
G02*
X137839400Y-97939000I0J-75000D01*
G01*
X137839400Y-99339000D01*
G75*
G02*
X137764400Y-99414000I-75000J0D01*
G01*
G37*
G36*
G01*
X137264400Y-99414000D02*
X137114400Y-99414000D01*
G75*
G02*
X137039400Y-99339000I0J75000D01*
G01*
X137039400Y-97939000D01*
G75*
G02*
X137114400Y-97864000I75000J0D01*
G01*
X137264400Y-97864000D01*
G75*
G02*
X137339400Y-97939000I0J-75000D01*
G01*
X137339400Y-99339000D01*
G75*
G02*
X137264400Y-99414000I-75000J0D01*
G01*
G37*
G36*
G01*
X136764400Y-99414000D02*
X136614400Y-99414000D01*
G75*
G02*
X136539400Y-99339000I0J75000D01*
G01*
X136539400Y-97939000D01*
G75*
G02*
X136614400Y-97864000I75000J0D01*
G01*
X136764400Y-97864000D01*
G75*
G02*
X136839400Y-97939000I0J-75000D01*
G01*
X136839400Y-99339000D01*
G75*
G02*
X136764400Y-99414000I-75000J0D01*
G01*
G37*
G36*
G01*
X136264400Y-99414000D02*
X136114400Y-99414000D01*
G75*
G02*
X136039400Y-99339000I0J75000D01*
G01*
X136039400Y-97939000D01*
G75*
G02*
X136114400Y-97864000I75000J0D01*
G01*
X136264400Y-97864000D01*
G75*
G02*
X136339400Y-97939000I0J-75000D01*
G01*
X136339400Y-99339000D01*
G75*
G02*
X136264400Y-99414000I-75000J0D01*
G01*
G37*
G36*
G01*
X135764400Y-99414000D02*
X135614400Y-99414000D01*
G75*
G02*
X135539400Y-99339000I0J75000D01*
G01*
X135539400Y-97939000D01*
G75*
G02*
X135614400Y-97864000I75000J0D01*
G01*
X135764400Y-97864000D01*
G75*
G02*
X135839400Y-97939000I0J-75000D01*
G01*
X135839400Y-99339000D01*
G75*
G02*
X135764400Y-99414000I-75000J0D01*
G01*
G37*
G36*
G01*
X135264400Y-99414000D02*
X135114400Y-99414000D01*
G75*
G02*
X135039400Y-99339000I0J75000D01*
G01*
X135039400Y-97939000D01*
G75*
G02*
X135114400Y-97864000I75000J0D01*
G01*
X135264400Y-97864000D01*
G75*
G02*
X135339400Y-97939000I0J-75000D01*
G01*
X135339400Y-99339000D01*
G75*
G02*
X135264400Y-99414000I-75000J0D01*
G01*
G37*
G36*
G01*
X134764400Y-99414000D02*
X134614400Y-99414000D01*
G75*
G02*
X134539400Y-99339000I0J75000D01*
G01*
X134539400Y-97939000D01*
G75*
G02*
X134614400Y-97864000I75000J0D01*
G01*
X134764400Y-97864000D01*
G75*
G02*
X134839400Y-97939000I0J-75000D01*
G01*
X134839400Y-99339000D01*
G75*
G02*
X134764400Y-99414000I-75000J0D01*
G01*
G37*
G36*
G01*
X134264400Y-99414000D02*
X134114400Y-99414000D01*
G75*
G02*
X134039400Y-99339000I0J75000D01*
G01*
X134039400Y-97939000D01*
G75*
G02*
X134114400Y-97864000I75000J0D01*
G01*
X134264400Y-97864000D01*
G75*
G02*
X134339400Y-97939000I0J-75000D01*
G01*
X134339400Y-99339000D01*
G75*
G02*
X134264400Y-99414000I-75000J0D01*
G01*
G37*
G36*
G01*
X133764400Y-99414000D02*
X133614400Y-99414000D01*
G75*
G02*
X133539400Y-99339000I0J75000D01*
G01*
X133539400Y-97939000D01*
G75*
G02*
X133614400Y-97864000I75000J0D01*
G01*
X133764400Y-97864000D01*
G75*
G02*
X133839400Y-97939000I0J-75000D01*
G01*
X133839400Y-99339000D01*
G75*
G02*
X133764400Y-99414000I-75000J0D01*
G01*
G37*
G04 #@! TD*
D13*
G04 #@! TO.C,U5*
X180611000Y-93461700D03*
X180611000Y-106461700D03*
X182111000Y-93461700D03*
X182111000Y-106461700D03*
X183611000Y-93461700D03*
X183611000Y-106461700D03*
X185111000Y-93461700D03*
X185111000Y-106461700D03*
X186611000Y-93461700D03*
X186611000Y-106461700D03*
X188111000Y-93461700D03*
X188111000Y-106461700D03*
X189611000Y-93461700D03*
X189611000Y-106461700D03*
X191111000Y-93461700D03*
X191111000Y-106461700D03*
X192611000Y-93461700D03*
X192611000Y-106461700D03*
X194111000Y-93461700D03*
X194111000Y-106461700D03*
X195611000Y-93461700D03*
X195611000Y-106461700D03*
X197111000Y-93461700D03*
X197111000Y-106461700D03*
X198611000Y-93461700D03*
X198611000Y-106461700D03*
G04 #@! TD*
D14*
G04 #@! TO.C,U3*
X163106500Y-108218000D03*
X163106500Y-103618000D03*
X163106500Y-105918000D03*
D15*
X156806500Y-105918000D03*
G04 #@! TD*
D14*
G04 #@! TO.C,U1*
X163157300Y-96368900D03*
X163157300Y-91768900D03*
X163157300Y-94068900D03*
D15*
X156857300Y-94068900D03*
G04 #@! TD*
D16*
G04 #@! TO.C,SW2*
X134696200Y-102730600D03*
X142316200Y-111340600D03*
X137236200Y-102730600D03*
X139776200Y-111340600D03*
X139776200Y-102730600D03*
X137236200Y-111340600D03*
X142316200Y-102730600D03*
X134696200Y-111340600D03*
G04 #@! TD*
D17*
G04 #@! TO.C,SW1*
X151856000Y-102979400D03*
X147356000Y-102979400D03*
X147356000Y-110939400D03*
X151856000Y-110939400D03*
G04 #@! TD*
D18*
G04 #@! TO.C,RV1*
X125196600Y-110312200D03*
X122656600Y-112852200D03*
D19*
X122656600Y-107772200D03*
G04 #@! TD*
G04 #@! TO.C,R2*
G36*
G01*
X154501001Y-109734400D02*
X153600999Y-109734400D01*
G75*
G02*
X153351000Y-109484401I0J249999D01*
G01*
X153351000Y-108784399D01*
G75*
G02*
X153600999Y-108534400I249999J0D01*
G01*
X154501001Y-108534400D01*
G75*
G02*
X154751000Y-108784399I0J-249999D01*
G01*
X154751000Y-109484401D01*
G75*
G02*
X154501001Y-109734400I-249999J0D01*
G01*
G37*
G36*
G01*
X154501001Y-111734400D02*
X153600999Y-111734400D01*
G75*
G02*
X153351000Y-111484401I0J249999D01*
G01*
X153351000Y-110784399D01*
G75*
G02*
X153600999Y-110534400I249999J0D01*
G01*
X154501001Y-110534400D01*
G75*
G02*
X154751000Y-110784399I0J-249999D01*
G01*
X154751000Y-111484401D01*
G75*
G02*
X154501001Y-111734400I-249999J0D01*
G01*
G37*
G04 #@! TD*
D20*
G04 #@! TO.C,J4*
X175521000Y-106718000D03*
X173021000Y-106718000D03*
X170521000Y-106718000D03*
G36*
G01*
X167171000Y-107443000D02*
X167171000Y-105993000D01*
G75*
G02*
X167421000Y-105743000I250000J0D01*
G01*
X168621000Y-105743000D01*
G75*
G02*
X168871000Y-105993000I0J-250000D01*
G01*
X168871000Y-107443000D01*
G75*
G02*
X168621000Y-107693000I-250000J0D01*
G01*
X167421000Y-107693000D01*
G75*
G02*
X167171000Y-107443000I0J250000D01*
G01*
G37*
G04 #@! TD*
D21*
G04 #@! TO.C,J3*
X114401600Y-93392000D03*
X114401600Y-90892000D03*
G36*
G01*
X113676600Y-87542000D02*
X115126600Y-87542000D01*
G75*
G02*
X115376600Y-87792000I0J-250000D01*
G01*
X115376600Y-88992000D01*
G75*
G02*
X115126600Y-89242000I-250000J0D01*
G01*
X113676600Y-89242000D01*
G75*
G02*
X113426600Y-88992000I0J250000D01*
G01*
X113426600Y-87792000D01*
G75*
G02*
X113676600Y-87542000I250000J0D01*
G01*
G37*
G04 #@! TD*
G04 #@! TO.C,J2*
X149199600Y-90798000D03*
X149199600Y-93298000D03*
X149199600Y-95798000D03*
G36*
G01*
X149924600Y-99148000D02*
X148474600Y-99148000D01*
G75*
G02*
X148224600Y-98898000I0J250000D01*
G01*
X148224600Y-97698000D01*
G75*
G02*
X148474600Y-97448000I250000J0D01*
G01*
X149924600Y-97448000D01*
G75*
G02*
X150174600Y-97698000I0J-250000D01*
G01*
X150174600Y-98898000D01*
G75*
G02*
X149924600Y-99148000I-250000J0D01*
G01*
G37*
G04 #@! TD*
D20*
G04 #@! TO.C,J1*
X168033700Y-93268900D03*
X170533700Y-93268900D03*
X173033700Y-93268900D03*
G36*
G01*
X176383700Y-92543900D02*
X176383700Y-93993900D01*
G75*
G02*
X176133700Y-94243900I-250000J0D01*
G01*
X174933700Y-94243900D01*
G75*
G02*
X174683700Y-93993900I0J250000D01*
G01*
X174683700Y-92543900D01*
G75*
G02*
X174933700Y-92293900I250000J0D01*
G01*
X176133700Y-92293900D01*
G75*
G02*
X176383700Y-92543900I0J-250000D01*
G01*
G37*
G04 #@! TD*
D22*
G04 #@! TO.C,D1*
X114490500Y-109853100D03*
G36*
G01*
X113740500Y-106503100D02*
X115240500Y-106503100D01*
G75*
G02*
X115490500Y-106753100I0J-250000D01*
G01*
X115490500Y-107953100D01*
G75*
G02*
X115240500Y-108203100I-250000J0D01*
G01*
X113740500Y-108203100D01*
G75*
G02*
X113490500Y-107953100I0J250000D01*
G01*
X113490500Y-106753100D01*
G75*
G02*
X113740500Y-106503100I250000J0D01*
G01*
G37*
G04 #@! TD*
G04 #@! TO.C,C10*
G36*
G01*
X127414000Y-109289000D02*
X128364000Y-109289000D01*
G75*
G02*
X128614000Y-109539000I0J-250000D01*
G01*
X128614000Y-110214000D01*
G75*
G02*
X128364000Y-110464000I-250000J0D01*
G01*
X127414000Y-110464000D01*
G75*
G02*
X127164000Y-110214000I0J250000D01*
G01*
X127164000Y-109539000D01*
G75*
G02*
X127414000Y-109289000I250000J0D01*
G01*
G37*
G36*
G01*
X127414000Y-107214000D02*
X128364000Y-107214000D01*
G75*
G02*
X128614000Y-107464000I0J-250000D01*
G01*
X128614000Y-108139000D01*
G75*
G02*
X128364000Y-108389000I-250000J0D01*
G01*
X127414000Y-108389000D01*
G75*
G02*
X127164000Y-108139000I0J250000D01*
G01*
X127164000Y-107464000D01*
G75*
G02*
X127414000Y-107214000I250000J0D01*
G01*
G37*
G04 #@! TD*
G04 #@! TO.C,C9*
G36*
G01*
X128796200Y-93540600D02*
X128796200Y-92590600D01*
G75*
G02*
X129046200Y-92340600I250000J0D01*
G01*
X129721200Y-92340600D01*
G75*
G02*
X129971200Y-92590600I0J-250000D01*
G01*
X129971200Y-93540600D01*
G75*
G02*
X129721200Y-93790600I-250000J0D01*
G01*
X129046200Y-93790600D01*
G75*
G02*
X128796200Y-93540600I0J250000D01*
G01*
G37*
G36*
G01*
X126721200Y-93540600D02*
X126721200Y-92590600D01*
G75*
G02*
X126971200Y-92340600I250000J0D01*
G01*
X127646200Y-92340600D01*
G75*
G02*
X127896200Y-92590600I0J-250000D01*
G01*
X127896200Y-93540600D01*
G75*
G02*
X127646200Y-93790600I-250000J0D01*
G01*
X126971200Y-93790600D01*
G75*
G02*
X126721200Y-93540600I0J250000D01*
G01*
G37*
G04 #@! TD*
G04 #@! TO.C,C8*
G36*
G01*
X154500600Y-103639200D02*
X153550600Y-103639200D01*
G75*
G02*
X153300600Y-103389200I0J250000D01*
G01*
X153300600Y-102714200D01*
G75*
G02*
X153550600Y-102464200I250000J0D01*
G01*
X154500600Y-102464200D01*
G75*
G02*
X154750600Y-102714200I0J-250000D01*
G01*
X154750600Y-103389200D01*
G75*
G02*
X154500600Y-103639200I-250000J0D01*
G01*
G37*
G36*
G01*
X154500600Y-105714200D02*
X153550600Y-105714200D01*
G75*
G02*
X153300600Y-105464200I0J250000D01*
G01*
X153300600Y-104789200D01*
G75*
G02*
X153550600Y-104539200I250000J0D01*
G01*
X154500600Y-104539200D01*
G75*
G02*
X154750600Y-104789200I0J-250000D01*
G01*
X154750600Y-105464200D01*
G75*
G02*
X154500600Y-105714200I-250000J0D01*
G01*
G37*
G04 #@! TD*
G04 #@! TO.C,C6*
G36*
G01*
X181835300Y-91102200D02*
X181835300Y-90152200D01*
G75*
G02*
X182085300Y-89902200I250000J0D01*
G01*
X182760300Y-89902200D01*
G75*
G02*
X183010300Y-90152200I0J-250000D01*
G01*
X183010300Y-91102200D01*
G75*
G02*
X182760300Y-91352200I-250000J0D01*
G01*
X182085300Y-91352200D01*
G75*
G02*
X181835300Y-91102200I0J250000D01*
G01*
G37*
G36*
G01*
X179760300Y-91102200D02*
X179760300Y-90152200D01*
G75*
G02*
X180010300Y-89902200I250000J0D01*
G01*
X180685300Y-89902200D01*
G75*
G02*
X180935300Y-90152200I0J-250000D01*
G01*
X180935300Y-91102200D01*
G75*
G02*
X180685300Y-91352200I-250000J0D01*
G01*
X180010300Y-91352200D01*
G75*
G02*
X179760300Y-91102200I0J250000D01*
G01*
G37*
G04 #@! TD*
G04 #@! TO.C,C5*
G36*
G01*
X159557300Y-110243600D02*
X159557300Y-111193600D01*
G75*
G02*
X159307300Y-111443600I-250000J0D01*
G01*
X158632300Y-111443600D01*
G75*
G02*
X158382300Y-111193600I0J250000D01*
G01*
X158382300Y-110243600D01*
G75*
G02*
X158632300Y-109993600I250000J0D01*
G01*
X159307300Y-109993600D01*
G75*
G02*
X159557300Y-110243600I0J-250000D01*
G01*
G37*
G36*
G01*
X161632300Y-110243600D02*
X161632300Y-111193600D01*
G75*
G02*
X161382300Y-111443600I-250000J0D01*
G01*
X160707300Y-111443600D01*
G75*
G02*
X160457300Y-111193600I0J250000D01*
G01*
X160457300Y-110243600D01*
G75*
G02*
X160707300Y-109993600I250000J0D01*
G01*
X161382300Y-109993600D01*
G75*
G02*
X161632300Y-110243600I0J-250000D01*
G01*
G37*
G04 #@! TD*
G04 #@! TO.C,C4*
G36*
G01*
X159557300Y-100591600D02*
X159557300Y-101541600D01*
G75*
G02*
X159307300Y-101791600I-250000J0D01*
G01*
X158632300Y-101791600D01*
G75*
G02*
X158382300Y-101541600I0J250000D01*
G01*
X158382300Y-100591600D01*
G75*
G02*
X158632300Y-100341600I250000J0D01*
G01*
X159307300Y-100341600D01*
G75*
G02*
X159557300Y-100591600I0J-250000D01*
G01*
G37*
G36*
G01*
X161632300Y-100591600D02*
X161632300Y-101541600D01*
G75*
G02*
X161382300Y-101791600I-250000J0D01*
G01*
X160707300Y-101791600D01*
G75*
G02*
X160457300Y-101541600I0J250000D01*
G01*
X160457300Y-100591600D01*
G75*
G02*
X160707300Y-100341600I250000J0D01*
G01*
X161382300Y-100341600D01*
G75*
G02*
X161632300Y-100591600I0J-250000D01*
G01*
G37*
G04 #@! TD*
G04 #@! TO.C,C3*
G36*
G01*
X159557300Y-98585000D02*
X159557300Y-99535000D01*
G75*
G02*
X159307300Y-99785000I-250000J0D01*
G01*
X158632300Y-99785000D01*
G75*
G02*
X158382300Y-99535000I0J250000D01*
G01*
X158382300Y-98585000D01*
G75*
G02*
X158632300Y-98335000I250000J0D01*
G01*
X159307300Y-98335000D01*
G75*
G02*
X159557300Y-98585000I0J-250000D01*
G01*
G37*
G36*
G01*
X161632300Y-98585000D02*
X161632300Y-99535000D01*
G75*
G02*
X161382300Y-99785000I-250000J0D01*
G01*
X160707300Y-99785000D01*
G75*
G02*
X160457300Y-99535000I0J250000D01*
G01*
X160457300Y-98585000D01*
G75*
G02*
X160707300Y-98335000I250000J0D01*
G01*
X161382300Y-98335000D01*
G75*
G02*
X161632300Y-98585000I0J-250000D01*
G01*
G37*
G04 #@! TD*
G04 #@! TO.C,C1*
G36*
G01*
X159557300Y-88539300D02*
X159557300Y-89489300D01*
G75*
G02*
X159307300Y-89739300I-250000J0D01*
G01*
X158632300Y-89739300D01*
G75*
G02*
X158382300Y-89489300I0J250000D01*
G01*
X158382300Y-88539300D01*
G75*
G02*
X158632300Y-88289300I250000J0D01*
G01*
X159307300Y-88289300D01*
G75*
G02*
X159557300Y-88539300I0J-250000D01*
G01*
G37*
G36*
G01*
X161632300Y-88539300D02*
X161632300Y-89489300D01*
G75*
G02*
X161382300Y-89739300I-250000J0D01*
G01*
X160707300Y-89739300D01*
G75*
G02*
X160457300Y-89489300I0J250000D01*
G01*
X160457300Y-88539300D01*
G75*
G02*
X160707300Y-88289300I250000J0D01*
G01*
X161382300Y-88289300D01*
G75*
G02*
X161632300Y-88539300I0J-250000D01*
G01*
G37*
G04 #@! TD*
M02*
