G04 #@! TF.GenerationSoftware,KiCad,Pcbnew,5.1.9*
G04 #@! TF.CreationDate,2021-01-29T13:56:36+08:00*
G04 #@! TF.ProjectId,LaserSwitch-Slave,4c617365-7253-4776-9974-63682d536c61,rev?*
G04 #@! TF.SameCoordinates,Original*
G04 #@! TF.FileFunction,Copper,L1,Top*
G04 #@! TF.FilePolarity,Positive*
%FSLAX46Y46*%
G04 Gerber Fmt 4.6, Leading zero omitted, Abs format (unit mm)*
G04 Created by KiCad (PCBNEW 5.1.9) date 2021-01-29 13:56:36*
%MOMM*%
%LPD*%
G01*
G04 APERTURE LIST*
G04 #@! TA.AperFunction,ComponentPad*
%ADD10C,2.800000*%
G04 #@! TD*
G04 #@! TA.AperFunction,ComponentPad*
%ADD11C,6.400000*%
G04 #@! TD*
G04 #@! TA.AperFunction,ComponentPad*
%ADD12C,1.500000*%
G04 #@! TD*
G04 #@! TA.AperFunction,SMDPad,CuDef*
%ADD13R,1.200000X2.200000*%
G04 #@! TD*
G04 #@! TA.AperFunction,SMDPad,CuDef*
%ADD14R,2.000000X1.500000*%
G04 #@! TD*
G04 #@! TA.AperFunction,SMDPad,CuDef*
%ADD15R,2.000000X3.800000*%
G04 #@! TD*
G04 #@! TA.AperFunction,SMDPad,CuDef*
%ADD16R,1.120000X2.440000*%
G04 #@! TD*
G04 #@! TA.AperFunction,SMDPad,CuDef*
%ADD17R,1.300000X1.550000*%
G04 #@! TD*
G04 #@! TA.AperFunction,ComponentPad*
%ADD18C,1.400000*%
G04 #@! TD*
G04 #@! TA.AperFunction,ComponentPad*
%ADD19R,1.400000X1.400000*%
G04 #@! TD*
G04 #@! TA.AperFunction,ComponentPad*
%ADD20O,1.700000X1.950000*%
G04 #@! TD*
G04 #@! TA.AperFunction,ComponentPad*
%ADD21O,1.950000X1.700000*%
G04 #@! TD*
G04 #@! TA.AperFunction,ComponentPad*
%ADD22O,2.000000X1.700000*%
G04 #@! TD*
G04 #@! TA.AperFunction,ViaPad*
%ADD23C,0.800000*%
G04 #@! TD*
G04 #@! TA.AperFunction,ViaPad*
%ADD24C,0.600000*%
G04 #@! TD*
G04 #@! TA.AperFunction,Conductor*
%ADD25C,0.250000*%
G04 #@! TD*
G04 #@! TA.AperFunction,Conductor*
%ADD26C,1.000000*%
G04 #@! TD*
G04 #@! TA.AperFunction,Conductor*
%ADD27C,1.500000*%
G04 #@! TD*
G04 #@! TA.AperFunction,Conductor*
%ADD28C,0.500000*%
G04 #@! TD*
G04 #@! TA.AperFunction,Conductor*
%ADD29C,0.200000*%
G04 #@! TD*
G04 #@! TA.AperFunction,Conductor*
%ADD30C,0.254000*%
G04 #@! TD*
G04 #@! TA.AperFunction,Conductor*
%ADD31C,0.100000*%
G04 #@! TD*
G04 APERTURE END LIST*
G04 #@! TO.P,C17,2*
G04 #@! TO.N,GND*
G04 #@! TA.AperFunction,SMDPad,CuDef*
G36*
G01*
X116070400Y-99774500D02*
X115120400Y-99774500D01*
G75*
G02*
X114870400Y-99524500I0J250000D01*
G01*
X114870400Y-98849500D01*
G75*
G02*
X115120400Y-98599500I250000J0D01*
G01*
X116070400Y-98599500D01*
G75*
G02*
X116320400Y-98849500I0J-250000D01*
G01*
X116320400Y-99524500D01*
G75*
G02*
X116070400Y-99774500I-250000J0D01*
G01*
G37*
G04 #@! TD.AperFunction*
G04 #@! TO.P,C17,1*
G04 #@! TO.N,Net-(C17-Pad1)*
G04 #@! TA.AperFunction,SMDPad,CuDef*
G36*
G01*
X116070400Y-101849500D02*
X115120400Y-101849500D01*
G75*
G02*
X114870400Y-101599500I0J250000D01*
G01*
X114870400Y-100924500D01*
G75*
G02*
X115120400Y-100674500I250000J0D01*
G01*
X116070400Y-100674500D01*
G75*
G02*
X116320400Y-100924500I0J-250000D01*
G01*
X116320400Y-101599500D01*
G75*
G02*
X116070400Y-101849500I-250000J0D01*
G01*
G37*
G04 #@! TD.AperFunction*
G04 #@! TD*
D10*
G04 #@! TO.P,TP2,1*
G04 #@! TO.N,RX*
X121056400Y-89255600D03*
G04 #@! TD*
G04 #@! TO.P,TP1,1*
G04 #@! TO.N,Net-(R1-Pad2)*
X127635000Y-89179400D03*
G04 #@! TD*
G04 #@! TO.P,R5,2*
G04 #@! TO.N,+3V3*
G04 #@! TA.AperFunction,SMDPad,CuDef*
G36*
G01*
X130817199Y-111321800D02*
X131717201Y-111321800D01*
G75*
G02*
X131967200Y-111571799I0J-249999D01*
G01*
X131967200Y-112271801D01*
G75*
G02*
X131717201Y-112521800I-249999J0D01*
G01*
X130817199Y-112521800D01*
G75*
G02*
X130567200Y-112271801I0J249999D01*
G01*
X130567200Y-111571799D01*
G75*
G02*
X130817199Y-111321800I249999J0D01*
G01*
G37*
G04 #@! TD.AperFunction*
G04 #@! TO.P,R5,1*
G04 #@! TO.N,Net-(R5-Pad1)*
G04 #@! TA.AperFunction,SMDPad,CuDef*
G36*
G01*
X130817199Y-109321800D02*
X131717201Y-109321800D01*
G75*
G02*
X131967200Y-109571799I0J-249999D01*
G01*
X131967200Y-110271801D01*
G75*
G02*
X131717201Y-110521800I-249999J0D01*
G01*
X130817199Y-110521800D01*
G75*
G02*
X130567200Y-110271801I0J249999D01*
G01*
X130567200Y-109571799D01*
G75*
G02*
X130817199Y-109321800I249999J0D01*
G01*
G37*
G04 #@! TD.AperFunction*
G04 #@! TD*
D11*
G04 #@! TO.P,H3,1*
G04 #@! TO.N,GND*
X196418200Y-111404400D03*
G04 #@! TD*
G04 #@! TO.P,H2,1*
G04 #@! TO.N,GND*
X196418200Y-88569800D03*
G04 #@! TD*
G04 #@! TO.P,H1,1*
G04 #@! TO.N,GND*
X110947200Y-100000000D03*
G04 #@! TD*
D12*
G04 #@! TO.P,Y1,2*
G04 #@! TO.N,Net-(C10-Pad1)*
X127838200Y-102924000D03*
G04 #@! TO.P,Y1,1*
G04 #@! TO.N,Net-(C9-Pad1)*
X127838200Y-98044000D03*
G04 #@! TD*
G04 #@! TO.P,U6,64*
G04 #@! TO.N,+3V3*
G04 #@! TA.AperFunction,SMDPad,CuDef*
G36*
G01*
X132464400Y-96864000D02*
X131064400Y-96864000D01*
G75*
G02*
X130989400Y-96789000I0J75000D01*
G01*
X130989400Y-96639000D01*
G75*
G02*
X131064400Y-96564000I75000J0D01*
G01*
X132464400Y-96564000D01*
G75*
G02*
X132539400Y-96639000I0J-75000D01*
G01*
X132539400Y-96789000D01*
G75*
G02*
X132464400Y-96864000I-75000J0D01*
G01*
G37*
G04 #@! TD.AperFunction*
G04 #@! TO.P,U6,63*
G04 #@! TO.N,GND*
G04 #@! TA.AperFunction,SMDPad,CuDef*
G36*
G01*
X132464400Y-96364000D02*
X131064400Y-96364000D01*
G75*
G02*
X130989400Y-96289000I0J75000D01*
G01*
X130989400Y-96139000D01*
G75*
G02*
X131064400Y-96064000I75000J0D01*
G01*
X132464400Y-96064000D01*
G75*
G02*
X132539400Y-96139000I0J-75000D01*
G01*
X132539400Y-96289000D01*
G75*
G02*
X132464400Y-96364000I-75000J0D01*
G01*
G37*
G04 #@! TD.AperFunction*
G04 #@! TO.P,U6,62*
G04 #@! TO.N,Net-(U6-Pad62)*
G04 #@! TA.AperFunction,SMDPad,CuDef*
G36*
G01*
X132464400Y-95864000D02*
X131064400Y-95864000D01*
G75*
G02*
X130989400Y-95789000I0J75000D01*
G01*
X130989400Y-95639000D01*
G75*
G02*
X131064400Y-95564000I75000J0D01*
G01*
X132464400Y-95564000D01*
G75*
G02*
X132539400Y-95639000I0J-75000D01*
G01*
X132539400Y-95789000D01*
G75*
G02*
X132464400Y-95864000I-75000J0D01*
G01*
G37*
G04 #@! TD.AperFunction*
G04 #@! TO.P,U6,61*
G04 #@! TO.N,Net-(U6-Pad61)*
G04 #@! TA.AperFunction,SMDPad,CuDef*
G36*
G01*
X132464400Y-95364000D02*
X131064400Y-95364000D01*
G75*
G02*
X130989400Y-95289000I0J75000D01*
G01*
X130989400Y-95139000D01*
G75*
G02*
X131064400Y-95064000I75000J0D01*
G01*
X132464400Y-95064000D01*
G75*
G02*
X132539400Y-95139000I0J-75000D01*
G01*
X132539400Y-95289000D01*
G75*
G02*
X132464400Y-95364000I-75000J0D01*
G01*
G37*
G04 #@! TD.AperFunction*
G04 #@! TO.P,U6,60*
G04 #@! TO.N,Net-(U6-Pad60)*
G04 #@! TA.AperFunction,SMDPad,CuDef*
G36*
G01*
X132464400Y-94864000D02*
X131064400Y-94864000D01*
G75*
G02*
X130989400Y-94789000I0J75000D01*
G01*
X130989400Y-94639000D01*
G75*
G02*
X131064400Y-94564000I75000J0D01*
G01*
X132464400Y-94564000D01*
G75*
G02*
X132539400Y-94639000I0J-75000D01*
G01*
X132539400Y-94789000D01*
G75*
G02*
X132464400Y-94864000I-75000J0D01*
G01*
G37*
G04 #@! TD.AperFunction*
G04 #@! TO.P,U6,59*
G04 #@! TO.N,SDA*
G04 #@! TA.AperFunction,SMDPad,CuDef*
G36*
G01*
X132464400Y-94364000D02*
X131064400Y-94364000D01*
G75*
G02*
X130989400Y-94289000I0J75000D01*
G01*
X130989400Y-94139000D01*
G75*
G02*
X131064400Y-94064000I75000J0D01*
G01*
X132464400Y-94064000D01*
G75*
G02*
X132539400Y-94139000I0J-75000D01*
G01*
X132539400Y-94289000D01*
G75*
G02*
X132464400Y-94364000I-75000J0D01*
G01*
G37*
G04 #@! TD.AperFunction*
G04 #@! TO.P,U6,58*
G04 #@! TO.N,SCL*
G04 #@! TA.AperFunction,SMDPad,CuDef*
G36*
G01*
X132464400Y-93864000D02*
X131064400Y-93864000D01*
G75*
G02*
X130989400Y-93789000I0J75000D01*
G01*
X130989400Y-93639000D01*
G75*
G02*
X131064400Y-93564000I75000J0D01*
G01*
X132464400Y-93564000D01*
G75*
G02*
X132539400Y-93639000I0J-75000D01*
G01*
X132539400Y-93789000D01*
G75*
G02*
X132464400Y-93864000I-75000J0D01*
G01*
G37*
G04 #@! TD.AperFunction*
G04 #@! TO.P,U6,57*
G04 #@! TO.N,Net-(U6-Pad57)*
G04 #@! TA.AperFunction,SMDPad,CuDef*
G36*
G01*
X132464400Y-93364000D02*
X131064400Y-93364000D01*
G75*
G02*
X130989400Y-93289000I0J75000D01*
G01*
X130989400Y-93139000D01*
G75*
G02*
X131064400Y-93064000I75000J0D01*
G01*
X132464400Y-93064000D01*
G75*
G02*
X132539400Y-93139000I0J-75000D01*
G01*
X132539400Y-93289000D01*
G75*
G02*
X132464400Y-93364000I-75000J0D01*
G01*
G37*
G04 #@! TD.AperFunction*
G04 #@! TO.P,U6,56*
G04 #@! TO.N,Net-(U6-Pad56)*
G04 #@! TA.AperFunction,SMDPad,CuDef*
G36*
G01*
X132464400Y-92864000D02*
X131064400Y-92864000D01*
G75*
G02*
X130989400Y-92789000I0J75000D01*
G01*
X130989400Y-92639000D01*
G75*
G02*
X131064400Y-92564000I75000J0D01*
G01*
X132464400Y-92564000D01*
G75*
G02*
X132539400Y-92639000I0J-75000D01*
G01*
X132539400Y-92789000D01*
G75*
G02*
X132464400Y-92864000I-75000J0D01*
G01*
G37*
G04 #@! TD.AperFunction*
G04 #@! TO.P,U6,55*
G04 #@! TO.N,Net-(U6-Pad55)*
G04 #@! TA.AperFunction,SMDPad,CuDef*
G36*
G01*
X132464400Y-92364000D02*
X131064400Y-92364000D01*
G75*
G02*
X130989400Y-92289000I0J75000D01*
G01*
X130989400Y-92139000D01*
G75*
G02*
X131064400Y-92064000I75000J0D01*
G01*
X132464400Y-92064000D01*
G75*
G02*
X132539400Y-92139000I0J-75000D01*
G01*
X132539400Y-92289000D01*
G75*
G02*
X132464400Y-92364000I-75000J0D01*
G01*
G37*
G04 #@! TD.AperFunction*
G04 #@! TO.P,U6,54*
G04 #@! TO.N,Net-(U6-Pad54)*
G04 #@! TA.AperFunction,SMDPad,CuDef*
G36*
G01*
X132464400Y-91864000D02*
X131064400Y-91864000D01*
G75*
G02*
X130989400Y-91789000I0J75000D01*
G01*
X130989400Y-91639000D01*
G75*
G02*
X131064400Y-91564000I75000J0D01*
G01*
X132464400Y-91564000D01*
G75*
G02*
X132539400Y-91639000I0J-75000D01*
G01*
X132539400Y-91789000D01*
G75*
G02*
X132464400Y-91864000I-75000J0D01*
G01*
G37*
G04 #@! TD.AperFunction*
G04 #@! TO.P,U6,53*
G04 #@! TO.N,Net-(U6-Pad53)*
G04 #@! TA.AperFunction,SMDPad,CuDef*
G36*
G01*
X132464400Y-91364000D02*
X131064400Y-91364000D01*
G75*
G02*
X130989400Y-91289000I0J75000D01*
G01*
X130989400Y-91139000D01*
G75*
G02*
X131064400Y-91064000I75000J0D01*
G01*
X132464400Y-91064000D01*
G75*
G02*
X132539400Y-91139000I0J-75000D01*
G01*
X132539400Y-91289000D01*
G75*
G02*
X132464400Y-91364000I-75000J0D01*
G01*
G37*
G04 #@! TD.AperFunction*
G04 #@! TO.P,U6,52*
G04 #@! TO.N,Net-(U6-Pad52)*
G04 #@! TA.AperFunction,SMDPad,CuDef*
G36*
G01*
X132464400Y-90864000D02*
X131064400Y-90864000D01*
G75*
G02*
X130989400Y-90789000I0J75000D01*
G01*
X130989400Y-90639000D01*
G75*
G02*
X131064400Y-90564000I75000J0D01*
G01*
X132464400Y-90564000D01*
G75*
G02*
X132539400Y-90639000I0J-75000D01*
G01*
X132539400Y-90789000D01*
G75*
G02*
X132464400Y-90864000I-75000J0D01*
G01*
G37*
G04 #@! TD.AperFunction*
G04 #@! TO.P,U6,51*
G04 #@! TO.N,Net-(U6-Pad51)*
G04 #@! TA.AperFunction,SMDPad,CuDef*
G36*
G01*
X132464400Y-90364000D02*
X131064400Y-90364000D01*
G75*
G02*
X130989400Y-90289000I0J75000D01*
G01*
X130989400Y-90139000D01*
G75*
G02*
X131064400Y-90064000I75000J0D01*
G01*
X132464400Y-90064000D01*
G75*
G02*
X132539400Y-90139000I0J-75000D01*
G01*
X132539400Y-90289000D01*
G75*
G02*
X132464400Y-90364000I-75000J0D01*
G01*
G37*
G04 #@! TD.AperFunction*
G04 #@! TO.P,U6,50*
G04 #@! TO.N,Net-(U6-Pad50)*
G04 #@! TA.AperFunction,SMDPad,CuDef*
G36*
G01*
X132464400Y-89864000D02*
X131064400Y-89864000D01*
G75*
G02*
X130989400Y-89789000I0J75000D01*
G01*
X130989400Y-89639000D01*
G75*
G02*
X131064400Y-89564000I75000J0D01*
G01*
X132464400Y-89564000D01*
G75*
G02*
X132539400Y-89639000I0J-75000D01*
G01*
X132539400Y-89789000D01*
G75*
G02*
X132464400Y-89864000I-75000J0D01*
G01*
G37*
G04 #@! TD.AperFunction*
G04 #@! TO.P,U6,49*
G04 #@! TO.N,SWDCLK*
G04 #@! TA.AperFunction,SMDPad,CuDef*
G36*
G01*
X132464400Y-89364000D02*
X131064400Y-89364000D01*
G75*
G02*
X130989400Y-89289000I0J75000D01*
G01*
X130989400Y-89139000D01*
G75*
G02*
X131064400Y-89064000I75000J0D01*
G01*
X132464400Y-89064000D01*
G75*
G02*
X132539400Y-89139000I0J-75000D01*
G01*
X132539400Y-89289000D01*
G75*
G02*
X132464400Y-89364000I-75000J0D01*
G01*
G37*
G04 #@! TD.AperFunction*
G04 #@! TO.P,U6,48*
G04 #@! TO.N,+3V3*
G04 #@! TA.AperFunction,SMDPad,CuDef*
G36*
G01*
X133764400Y-88064000D02*
X133614400Y-88064000D01*
G75*
G02*
X133539400Y-87989000I0J75000D01*
G01*
X133539400Y-86589000D01*
G75*
G02*
X133614400Y-86514000I75000J0D01*
G01*
X133764400Y-86514000D01*
G75*
G02*
X133839400Y-86589000I0J-75000D01*
G01*
X133839400Y-87989000D01*
G75*
G02*
X133764400Y-88064000I-75000J0D01*
G01*
G37*
G04 #@! TD.AperFunction*
G04 #@! TO.P,U6,47*
G04 #@! TO.N,GND*
G04 #@! TA.AperFunction,SMDPad,CuDef*
G36*
G01*
X134264400Y-88064000D02*
X134114400Y-88064000D01*
G75*
G02*
X134039400Y-87989000I0J75000D01*
G01*
X134039400Y-86589000D01*
G75*
G02*
X134114400Y-86514000I75000J0D01*
G01*
X134264400Y-86514000D01*
G75*
G02*
X134339400Y-86589000I0J-75000D01*
G01*
X134339400Y-87989000D01*
G75*
G02*
X134264400Y-88064000I-75000J0D01*
G01*
G37*
G04 #@! TD.AperFunction*
G04 #@! TO.P,U6,46*
G04 #@! TO.N,SWDIO*
G04 #@! TA.AperFunction,SMDPad,CuDef*
G36*
G01*
X134764400Y-88064000D02*
X134614400Y-88064000D01*
G75*
G02*
X134539400Y-87989000I0J75000D01*
G01*
X134539400Y-86589000D01*
G75*
G02*
X134614400Y-86514000I75000J0D01*
G01*
X134764400Y-86514000D01*
G75*
G02*
X134839400Y-86589000I0J-75000D01*
G01*
X134839400Y-87989000D01*
G75*
G02*
X134764400Y-88064000I-75000J0D01*
G01*
G37*
G04 #@! TD.AperFunction*
G04 #@! TO.P,U6,45*
G04 #@! TO.N,Net-(U6-Pad45)*
G04 #@! TA.AperFunction,SMDPad,CuDef*
G36*
G01*
X135264400Y-88064000D02*
X135114400Y-88064000D01*
G75*
G02*
X135039400Y-87989000I0J75000D01*
G01*
X135039400Y-86589000D01*
G75*
G02*
X135114400Y-86514000I75000J0D01*
G01*
X135264400Y-86514000D01*
G75*
G02*
X135339400Y-86589000I0J-75000D01*
G01*
X135339400Y-87989000D01*
G75*
G02*
X135264400Y-88064000I-75000J0D01*
G01*
G37*
G04 #@! TD.AperFunction*
G04 #@! TO.P,U6,44*
G04 #@! TO.N,Net-(U6-Pad44)*
G04 #@! TA.AperFunction,SMDPad,CuDef*
G36*
G01*
X135764400Y-88064000D02*
X135614400Y-88064000D01*
G75*
G02*
X135539400Y-87989000I0J75000D01*
G01*
X135539400Y-86589000D01*
G75*
G02*
X135614400Y-86514000I75000J0D01*
G01*
X135764400Y-86514000D01*
G75*
G02*
X135839400Y-86589000I0J-75000D01*
G01*
X135839400Y-87989000D01*
G75*
G02*
X135764400Y-88064000I-75000J0D01*
G01*
G37*
G04 #@! TD.AperFunction*
G04 #@! TO.P,U6,43*
G04 #@! TO.N,RX*
G04 #@! TA.AperFunction,SMDPad,CuDef*
G36*
G01*
X136264400Y-88064000D02*
X136114400Y-88064000D01*
G75*
G02*
X136039400Y-87989000I0J75000D01*
G01*
X136039400Y-86589000D01*
G75*
G02*
X136114400Y-86514000I75000J0D01*
G01*
X136264400Y-86514000D01*
G75*
G02*
X136339400Y-86589000I0J-75000D01*
G01*
X136339400Y-87989000D01*
G75*
G02*
X136264400Y-88064000I-75000J0D01*
G01*
G37*
G04 #@! TD.AperFunction*
G04 #@! TO.P,U6,42*
G04 #@! TO.N,TX*
G04 #@! TA.AperFunction,SMDPad,CuDef*
G36*
G01*
X136764400Y-88064000D02*
X136614400Y-88064000D01*
G75*
G02*
X136539400Y-87989000I0J75000D01*
G01*
X136539400Y-86589000D01*
G75*
G02*
X136614400Y-86514000I75000J0D01*
G01*
X136764400Y-86514000D01*
G75*
G02*
X136839400Y-86589000I0J-75000D01*
G01*
X136839400Y-87989000D01*
G75*
G02*
X136764400Y-88064000I-75000J0D01*
G01*
G37*
G04 #@! TD.AperFunction*
G04 #@! TO.P,U6,41*
G04 #@! TO.N,Net-(U6-Pad41)*
G04 #@! TA.AperFunction,SMDPad,CuDef*
G36*
G01*
X137264400Y-88064000D02*
X137114400Y-88064000D01*
G75*
G02*
X137039400Y-87989000I0J75000D01*
G01*
X137039400Y-86589000D01*
G75*
G02*
X137114400Y-86514000I75000J0D01*
G01*
X137264400Y-86514000D01*
G75*
G02*
X137339400Y-86589000I0J-75000D01*
G01*
X137339400Y-87989000D01*
G75*
G02*
X137264400Y-88064000I-75000J0D01*
G01*
G37*
G04 #@! TD.AperFunction*
G04 #@! TO.P,U6,40*
G04 #@! TO.N,Net-(U6-Pad40)*
G04 #@! TA.AperFunction,SMDPad,CuDef*
G36*
G01*
X137764400Y-88064000D02*
X137614400Y-88064000D01*
G75*
G02*
X137539400Y-87989000I0J75000D01*
G01*
X137539400Y-86589000D01*
G75*
G02*
X137614400Y-86514000I75000J0D01*
G01*
X137764400Y-86514000D01*
G75*
G02*
X137839400Y-86589000I0J-75000D01*
G01*
X137839400Y-87989000D01*
G75*
G02*
X137764400Y-88064000I-75000J0D01*
G01*
G37*
G04 #@! TD.AperFunction*
G04 #@! TO.P,U6,39*
G04 #@! TO.N,Net-(U6-Pad39)*
G04 #@! TA.AperFunction,SMDPad,CuDef*
G36*
G01*
X138264400Y-88064000D02*
X138114400Y-88064000D01*
G75*
G02*
X138039400Y-87989000I0J75000D01*
G01*
X138039400Y-86589000D01*
G75*
G02*
X138114400Y-86514000I75000J0D01*
G01*
X138264400Y-86514000D01*
G75*
G02*
X138339400Y-86589000I0J-75000D01*
G01*
X138339400Y-87989000D01*
G75*
G02*
X138264400Y-88064000I-75000J0D01*
G01*
G37*
G04 #@! TD.AperFunction*
G04 #@! TO.P,U6,38*
G04 #@! TO.N,BT_RX*
G04 #@! TA.AperFunction,SMDPad,CuDef*
G36*
G01*
X138764400Y-88064000D02*
X138614400Y-88064000D01*
G75*
G02*
X138539400Y-87989000I0J75000D01*
G01*
X138539400Y-86589000D01*
G75*
G02*
X138614400Y-86514000I75000J0D01*
G01*
X138764400Y-86514000D01*
G75*
G02*
X138839400Y-86589000I0J-75000D01*
G01*
X138839400Y-87989000D01*
G75*
G02*
X138764400Y-88064000I-75000J0D01*
G01*
G37*
G04 #@! TD.AperFunction*
G04 #@! TO.P,U6,37*
G04 #@! TO.N,BT_TX*
G04 #@! TA.AperFunction,SMDPad,CuDef*
G36*
G01*
X139264400Y-88064000D02*
X139114400Y-88064000D01*
G75*
G02*
X139039400Y-87989000I0J75000D01*
G01*
X139039400Y-86589000D01*
G75*
G02*
X139114400Y-86514000I75000J0D01*
G01*
X139264400Y-86514000D01*
G75*
G02*
X139339400Y-86589000I0J-75000D01*
G01*
X139339400Y-87989000D01*
G75*
G02*
X139264400Y-88064000I-75000J0D01*
G01*
G37*
G04 #@! TD.AperFunction*
G04 #@! TO.P,U6,36*
G04 #@! TO.N,BT_CONN*
G04 #@! TA.AperFunction,SMDPad,CuDef*
G36*
G01*
X139764400Y-88064000D02*
X139614400Y-88064000D01*
G75*
G02*
X139539400Y-87989000I0J75000D01*
G01*
X139539400Y-86589000D01*
G75*
G02*
X139614400Y-86514000I75000J0D01*
G01*
X139764400Y-86514000D01*
G75*
G02*
X139839400Y-86589000I0J-75000D01*
G01*
X139839400Y-87989000D01*
G75*
G02*
X139764400Y-88064000I-75000J0D01*
G01*
G37*
G04 #@! TD.AperFunction*
G04 #@! TO.P,U6,35*
G04 #@! TO.N,Net-(U6-Pad35)*
G04 #@! TA.AperFunction,SMDPad,CuDef*
G36*
G01*
X140264400Y-88064000D02*
X140114400Y-88064000D01*
G75*
G02*
X140039400Y-87989000I0J75000D01*
G01*
X140039400Y-86589000D01*
G75*
G02*
X140114400Y-86514000I75000J0D01*
G01*
X140264400Y-86514000D01*
G75*
G02*
X140339400Y-86589000I0J-75000D01*
G01*
X140339400Y-87989000D01*
G75*
G02*
X140264400Y-88064000I-75000J0D01*
G01*
G37*
G04 #@! TD.AperFunction*
G04 #@! TO.P,U6,34*
G04 #@! TO.N,Net-(U6-Pad34)*
G04 #@! TA.AperFunction,SMDPad,CuDef*
G36*
G01*
X140764400Y-88064000D02*
X140614400Y-88064000D01*
G75*
G02*
X140539400Y-87989000I0J75000D01*
G01*
X140539400Y-86589000D01*
G75*
G02*
X140614400Y-86514000I75000J0D01*
G01*
X140764400Y-86514000D01*
G75*
G02*
X140839400Y-86589000I0J-75000D01*
G01*
X140839400Y-87989000D01*
G75*
G02*
X140764400Y-88064000I-75000J0D01*
G01*
G37*
G04 #@! TD.AperFunction*
G04 #@! TO.P,U6,33*
G04 #@! TO.N,Net-(U6-Pad33)*
G04 #@! TA.AperFunction,SMDPad,CuDef*
G36*
G01*
X141264400Y-88064000D02*
X141114400Y-88064000D01*
G75*
G02*
X141039400Y-87989000I0J75000D01*
G01*
X141039400Y-86589000D01*
G75*
G02*
X141114400Y-86514000I75000J0D01*
G01*
X141264400Y-86514000D01*
G75*
G02*
X141339400Y-86589000I0J-75000D01*
G01*
X141339400Y-87989000D01*
G75*
G02*
X141264400Y-88064000I-75000J0D01*
G01*
G37*
G04 #@! TD.AperFunction*
G04 #@! TO.P,U6,32*
G04 #@! TO.N,+3V3*
G04 #@! TA.AperFunction,SMDPad,CuDef*
G36*
G01*
X143814400Y-89364000D02*
X142414400Y-89364000D01*
G75*
G02*
X142339400Y-89289000I0J75000D01*
G01*
X142339400Y-89139000D01*
G75*
G02*
X142414400Y-89064000I75000J0D01*
G01*
X143814400Y-89064000D01*
G75*
G02*
X143889400Y-89139000I0J-75000D01*
G01*
X143889400Y-89289000D01*
G75*
G02*
X143814400Y-89364000I-75000J0D01*
G01*
G37*
G04 #@! TD.AperFunction*
G04 #@! TO.P,U6,31*
G04 #@! TO.N,GND*
G04 #@! TA.AperFunction,SMDPad,CuDef*
G36*
G01*
X143814400Y-89864000D02*
X142414400Y-89864000D01*
G75*
G02*
X142339400Y-89789000I0J75000D01*
G01*
X142339400Y-89639000D01*
G75*
G02*
X142414400Y-89564000I75000J0D01*
G01*
X143814400Y-89564000D01*
G75*
G02*
X143889400Y-89639000I0J-75000D01*
G01*
X143889400Y-89789000D01*
G75*
G02*
X143814400Y-89864000I-75000J0D01*
G01*
G37*
G04 #@! TD.AperFunction*
G04 #@! TO.P,U6,30*
G04 #@! TO.N,Net-(C11-Pad1)*
G04 #@! TA.AperFunction,SMDPad,CuDef*
G36*
G01*
X143814400Y-90364000D02*
X142414400Y-90364000D01*
G75*
G02*
X142339400Y-90289000I0J75000D01*
G01*
X142339400Y-90139000D01*
G75*
G02*
X142414400Y-90064000I75000J0D01*
G01*
X143814400Y-90064000D01*
G75*
G02*
X143889400Y-90139000I0J-75000D01*
G01*
X143889400Y-90289000D01*
G75*
G02*
X143814400Y-90364000I-75000J0D01*
G01*
G37*
G04 #@! TD.AperFunction*
G04 #@! TO.P,U6,29*
G04 #@! TO.N,Net-(U6-Pad29)*
G04 #@! TA.AperFunction,SMDPad,CuDef*
G36*
G01*
X143814400Y-90864000D02*
X142414400Y-90864000D01*
G75*
G02*
X142339400Y-90789000I0J75000D01*
G01*
X142339400Y-90639000D01*
G75*
G02*
X142414400Y-90564000I75000J0D01*
G01*
X143814400Y-90564000D01*
G75*
G02*
X143889400Y-90639000I0J-75000D01*
G01*
X143889400Y-90789000D01*
G75*
G02*
X143814400Y-90864000I-75000J0D01*
G01*
G37*
G04 #@! TD.AperFunction*
G04 #@! TO.P,U6,28*
G04 #@! TO.N,Net-(U6-Pad28)*
G04 #@! TA.AperFunction,SMDPad,CuDef*
G36*
G01*
X143814400Y-91364000D02*
X142414400Y-91364000D01*
G75*
G02*
X142339400Y-91289000I0J75000D01*
G01*
X142339400Y-91139000D01*
G75*
G02*
X142414400Y-91064000I75000J0D01*
G01*
X143814400Y-91064000D01*
G75*
G02*
X143889400Y-91139000I0J-75000D01*
G01*
X143889400Y-91289000D01*
G75*
G02*
X143814400Y-91364000I-75000J0D01*
G01*
G37*
G04 #@! TD.AperFunction*
G04 #@! TO.P,U6,27*
G04 #@! TO.N,Net-(U6-Pad27)*
G04 #@! TA.AperFunction,SMDPad,CuDef*
G36*
G01*
X143814400Y-91864000D02*
X142414400Y-91864000D01*
G75*
G02*
X142339400Y-91789000I0J75000D01*
G01*
X142339400Y-91639000D01*
G75*
G02*
X142414400Y-91564000I75000J0D01*
G01*
X143814400Y-91564000D01*
G75*
G02*
X143889400Y-91639000I0J-75000D01*
G01*
X143889400Y-91789000D01*
G75*
G02*
X143814400Y-91864000I-75000J0D01*
G01*
G37*
G04 #@! TD.AperFunction*
G04 #@! TO.P,U6,26*
G04 #@! TO.N,Net-(U6-Pad26)*
G04 #@! TA.AperFunction,SMDPad,CuDef*
G36*
G01*
X143814400Y-92364000D02*
X142414400Y-92364000D01*
G75*
G02*
X142339400Y-92289000I0J75000D01*
G01*
X142339400Y-92139000D01*
G75*
G02*
X142414400Y-92064000I75000J0D01*
G01*
X143814400Y-92064000D01*
G75*
G02*
X143889400Y-92139000I0J-75000D01*
G01*
X143889400Y-92289000D01*
G75*
G02*
X143814400Y-92364000I-75000J0D01*
G01*
G37*
G04 #@! TD.AperFunction*
G04 #@! TO.P,U6,25*
G04 #@! TO.N,ADC*
G04 #@! TA.AperFunction,SMDPad,CuDef*
G36*
G01*
X143814400Y-92864000D02*
X142414400Y-92864000D01*
G75*
G02*
X142339400Y-92789000I0J75000D01*
G01*
X142339400Y-92639000D01*
G75*
G02*
X142414400Y-92564000I75000J0D01*
G01*
X143814400Y-92564000D01*
G75*
G02*
X143889400Y-92639000I0J-75000D01*
G01*
X143889400Y-92789000D01*
G75*
G02*
X143814400Y-92864000I-75000J0D01*
G01*
G37*
G04 #@! TD.AperFunction*
G04 #@! TO.P,U6,24*
G04 #@! TO.N,Net-(U6-Pad24)*
G04 #@! TA.AperFunction,SMDPad,CuDef*
G36*
G01*
X143814400Y-93364000D02*
X142414400Y-93364000D01*
G75*
G02*
X142339400Y-93289000I0J75000D01*
G01*
X142339400Y-93139000D01*
G75*
G02*
X142414400Y-93064000I75000J0D01*
G01*
X143814400Y-93064000D01*
G75*
G02*
X143889400Y-93139000I0J-75000D01*
G01*
X143889400Y-93289000D01*
G75*
G02*
X143814400Y-93364000I-75000J0D01*
G01*
G37*
G04 #@! TD.AperFunction*
G04 #@! TO.P,U6,23*
G04 #@! TO.N,Net-(U6-Pad23)*
G04 #@! TA.AperFunction,SMDPad,CuDef*
G36*
G01*
X143814400Y-93864000D02*
X142414400Y-93864000D01*
G75*
G02*
X142339400Y-93789000I0J75000D01*
G01*
X142339400Y-93639000D01*
G75*
G02*
X142414400Y-93564000I75000J0D01*
G01*
X143814400Y-93564000D01*
G75*
G02*
X143889400Y-93639000I0J-75000D01*
G01*
X143889400Y-93789000D01*
G75*
G02*
X143814400Y-93864000I-75000J0D01*
G01*
G37*
G04 #@! TD.AperFunction*
G04 #@! TO.P,U6,22*
G04 #@! TO.N,Net-(U6-Pad22)*
G04 #@! TA.AperFunction,SMDPad,CuDef*
G36*
G01*
X143814400Y-94364000D02*
X142414400Y-94364000D01*
G75*
G02*
X142339400Y-94289000I0J75000D01*
G01*
X142339400Y-94139000D01*
G75*
G02*
X142414400Y-94064000I75000J0D01*
G01*
X143814400Y-94064000D01*
G75*
G02*
X143889400Y-94139000I0J-75000D01*
G01*
X143889400Y-94289000D01*
G75*
G02*
X143814400Y-94364000I-75000J0D01*
G01*
G37*
G04 #@! TD.AperFunction*
G04 #@! TO.P,U6,21*
G04 #@! TO.N,Net-(U6-Pad21)*
G04 #@! TA.AperFunction,SMDPad,CuDef*
G36*
G01*
X143814400Y-94864000D02*
X142414400Y-94864000D01*
G75*
G02*
X142339400Y-94789000I0J75000D01*
G01*
X142339400Y-94639000D01*
G75*
G02*
X142414400Y-94564000I75000J0D01*
G01*
X143814400Y-94564000D01*
G75*
G02*
X143889400Y-94639000I0J-75000D01*
G01*
X143889400Y-94789000D01*
G75*
G02*
X143814400Y-94864000I-75000J0D01*
G01*
G37*
G04 #@! TD.AperFunction*
G04 #@! TO.P,U6,20*
G04 #@! TO.N,Net-(U6-Pad20)*
G04 #@! TA.AperFunction,SMDPad,CuDef*
G36*
G01*
X143814400Y-95364000D02*
X142414400Y-95364000D01*
G75*
G02*
X142339400Y-95289000I0J75000D01*
G01*
X142339400Y-95139000D01*
G75*
G02*
X142414400Y-95064000I75000J0D01*
G01*
X143814400Y-95064000D01*
G75*
G02*
X143889400Y-95139000I0J-75000D01*
G01*
X143889400Y-95289000D01*
G75*
G02*
X143814400Y-95364000I-75000J0D01*
G01*
G37*
G04 #@! TD.AperFunction*
G04 #@! TO.P,U6,19*
G04 #@! TO.N,+3V3*
G04 #@! TA.AperFunction,SMDPad,CuDef*
G36*
G01*
X143814400Y-95864000D02*
X142414400Y-95864000D01*
G75*
G02*
X142339400Y-95789000I0J75000D01*
G01*
X142339400Y-95639000D01*
G75*
G02*
X142414400Y-95564000I75000J0D01*
G01*
X143814400Y-95564000D01*
G75*
G02*
X143889400Y-95639000I0J-75000D01*
G01*
X143889400Y-95789000D01*
G75*
G02*
X143814400Y-95864000I-75000J0D01*
G01*
G37*
G04 #@! TD.AperFunction*
G04 #@! TO.P,U6,18*
G04 #@! TO.N,GND*
G04 #@! TA.AperFunction,SMDPad,CuDef*
G36*
G01*
X143814400Y-96364000D02*
X142414400Y-96364000D01*
G75*
G02*
X142339400Y-96289000I0J75000D01*
G01*
X142339400Y-96139000D01*
G75*
G02*
X142414400Y-96064000I75000J0D01*
G01*
X143814400Y-96064000D01*
G75*
G02*
X143889400Y-96139000I0J-75000D01*
G01*
X143889400Y-96289000D01*
G75*
G02*
X143814400Y-96364000I-75000J0D01*
G01*
G37*
G04 #@! TD.AperFunction*
G04 #@! TO.P,U6,17*
G04 #@! TO.N,Net-(U6-Pad17)*
G04 #@! TA.AperFunction,SMDPad,CuDef*
G36*
G01*
X143814400Y-96864000D02*
X142414400Y-96864000D01*
G75*
G02*
X142339400Y-96789000I0J75000D01*
G01*
X142339400Y-96639000D01*
G75*
G02*
X142414400Y-96564000I75000J0D01*
G01*
X143814400Y-96564000D01*
G75*
G02*
X143889400Y-96639000I0J-75000D01*
G01*
X143889400Y-96789000D01*
G75*
G02*
X143814400Y-96864000I-75000J0D01*
G01*
G37*
G04 #@! TD.AperFunction*
G04 #@! TO.P,U6,16*
G04 #@! TO.N,Net-(U6-Pad16)*
G04 #@! TA.AperFunction,SMDPad,CuDef*
G36*
G01*
X141264400Y-99414000D02*
X141114400Y-99414000D01*
G75*
G02*
X141039400Y-99339000I0J75000D01*
G01*
X141039400Y-97939000D01*
G75*
G02*
X141114400Y-97864000I75000J0D01*
G01*
X141264400Y-97864000D01*
G75*
G02*
X141339400Y-97939000I0J-75000D01*
G01*
X141339400Y-99339000D01*
G75*
G02*
X141264400Y-99414000I-75000J0D01*
G01*
G37*
G04 #@! TD.AperFunction*
G04 #@! TO.P,U6,15*
G04 #@! TO.N,Net-(U6-Pad15)*
G04 #@! TA.AperFunction,SMDPad,CuDef*
G36*
G01*
X140764400Y-99414000D02*
X140614400Y-99414000D01*
G75*
G02*
X140539400Y-99339000I0J75000D01*
G01*
X140539400Y-97939000D01*
G75*
G02*
X140614400Y-97864000I75000J0D01*
G01*
X140764400Y-97864000D01*
G75*
G02*
X140839400Y-97939000I0J-75000D01*
G01*
X140839400Y-99339000D01*
G75*
G02*
X140764400Y-99414000I-75000J0D01*
G01*
G37*
G04 #@! TD.AperFunction*
G04 #@! TO.P,U6,14*
G04 #@! TO.N,Net-(U6-Pad14)*
G04 #@! TA.AperFunction,SMDPad,CuDef*
G36*
G01*
X140264400Y-99414000D02*
X140114400Y-99414000D01*
G75*
G02*
X140039400Y-99339000I0J75000D01*
G01*
X140039400Y-97939000D01*
G75*
G02*
X140114400Y-97864000I75000J0D01*
G01*
X140264400Y-97864000D01*
G75*
G02*
X140339400Y-97939000I0J-75000D01*
G01*
X140339400Y-99339000D01*
G75*
G02*
X140264400Y-99414000I-75000J0D01*
G01*
G37*
G04 #@! TD.AperFunction*
G04 #@! TO.P,U6,13*
G04 #@! TO.N,+3V3*
G04 #@! TA.AperFunction,SMDPad,CuDef*
G36*
G01*
X139764400Y-99414000D02*
X139614400Y-99414000D01*
G75*
G02*
X139539400Y-99339000I0J75000D01*
G01*
X139539400Y-97939000D01*
G75*
G02*
X139614400Y-97864000I75000J0D01*
G01*
X139764400Y-97864000D01*
G75*
G02*
X139839400Y-97939000I0J-75000D01*
G01*
X139839400Y-99339000D01*
G75*
G02*
X139764400Y-99414000I-75000J0D01*
G01*
G37*
G04 #@! TD.AperFunction*
G04 #@! TO.P,U6,12*
G04 #@! TO.N,GND*
G04 #@! TA.AperFunction,SMDPad,CuDef*
G36*
G01*
X139264400Y-99414000D02*
X139114400Y-99414000D01*
G75*
G02*
X139039400Y-99339000I0J75000D01*
G01*
X139039400Y-97939000D01*
G75*
G02*
X139114400Y-97864000I75000J0D01*
G01*
X139264400Y-97864000D01*
G75*
G02*
X139339400Y-97939000I0J-75000D01*
G01*
X139339400Y-99339000D01*
G75*
G02*
X139264400Y-99414000I-75000J0D01*
G01*
G37*
G04 #@! TD.AperFunction*
G04 #@! TO.P,U6,11*
G04 #@! TO.N,Net-(SW2-Pad5)*
G04 #@! TA.AperFunction,SMDPad,CuDef*
G36*
G01*
X138764400Y-99414000D02*
X138614400Y-99414000D01*
G75*
G02*
X138539400Y-99339000I0J75000D01*
G01*
X138539400Y-97939000D01*
G75*
G02*
X138614400Y-97864000I75000J0D01*
G01*
X138764400Y-97864000D01*
G75*
G02*
X138839400Y-97939000I0J-75000D01*
G01*
X138839400Y-99339000D01*
G75*
G02*
X138764400Y-99414000I-75000J0D01*
G01*
G37*
G04 #@! TD.AperFunction*
G04 #@! TO.P,U6,10*
G04 #@! TO.N,Net-(SW2-Pad6)*
G04 #@! TA.AperFunction,SMDPad,CuDef*
G36*
G01*
X138264400Y-99414000D02*
X138114400Y-99414000D01*
G75*
G02*
X138039400Y-99339000I0J75000D01*
G01*
X138039400Y-97939000D01*
G75*
G02*
X138114400Y-97864000I75000J0D01*
G01*
X138264400Y-97864000D01*
G75*
G02*
X138339400Y-97939000I0J-75000D01*
G01*
X138339400Y-99339000D01*
G75*
G02*
X138264400Y-99414000I-75000J0D01*
G01*
G37*
G04 #@! TD.AperFunction*
G04 #@! TO.P,U6,9*
G04 #@! TO.N,Net-(SW2-Pad7)*
G04 #@! TA.AperFunction,SMDPad,CuDef*
G36*
G01*
X137764400Y-99414000D02*
X137614400Y-99414000D01*
G75*
G02*
X137539400Y-99339000I0J75000D01*
G01*
X137539400Y-97939000D01*
G75*
G02*
X137614400Y-97864000I75000J0D01*
G01*
X137764400Y-97864000D01*
G75*
G02*
X137839400Y-97939000I0J-75000D01*
G01*
X137839400Y-99339000D01*
G75*
G02*
X137764400Y-99414000I-75000J0D01*
G01*
G37*
G04 #@! TD.AperFunction*
G04 #@! TO.P,U6,8*
G04 #@! TO.N,Net-(SW2-Pad8)*
G04 #@! TA.AperFunction,SMDPad,CuDef*
G36*
G01*
X137264400Y-99414000D02*
X137114400Y-99414000D01*
G75*
G02*
X137039400Y-99339000I0J75000D01*
G01*
X137039400Y-97939000D01*
G75*
G02*
X137114400Y-97864000I75000J0D01*
G01*
X137264400Y-97864000D01*
G75*
G02*
X137339400Y-97939000I0J-75000D01*
G01*
X137339400Y-99339000D01*
G75*
G02*
X137264400Y-99414000I-75000J0D01*
G01*
G37*
G04 #@! TD.AperFunction*
G04 #@! TO.P,U6,7*
G04 #@! TO.N,NRST*
G04 #@! TA.AperFunction,SMDPad,CuDef*
G36*
G01*
X136764400Y-99414000D02*
X136614400Y-99414000D01*
G75*
G02*
X136539400Y-99339000I0J75000D01*
G01*
X136539400Y-97939000D01*
G75*
G02*
X136614400Y-97864000I75000J0D01*
G01*
X136764400Y-97864000D01*
G75*
G02*
X136839400Y-97939000I0J-75000D01*
G01*
X136839400Y-99339000D01*
G75*
G02*
X136764400Y-99414000I-75000J0D01*
G01*
G37*
G04 #@! TD.AperFunction*
G04 #@! TO.P,U6,6*
G04 #@! TO.N,Net-(C10-Pad1)*
G04 #@! TA.AperFunction,SMDPad,CuDef*
G36*
G01*
X136264400Y-99414000D02*
X136114400Y-99414000D01*
G75*
G02*
X136039400Y-99339000I0J75000D01*
G01*
X136039400Y-97939000D01*
G75*
G02*
X136114400Y-97864000I75000J0D01*
G01*
X136264400Y-97864000D01*
G75*
G02*
X136339400Y-97939000I0J-75000D01*
G01*
X136339400Y-99339000D01*
G75*
G02*
X136264400Y-99414000I-75000J0D01*
G01*
G37*
G04 #@! TD.AperFunction*
G04 #@! TO.P,U6,5*
G04 #@! TO.N,Net-(C9-Pad1)*
G04 #@! TA.AperFunction,SMDPad,CuDef*
G36*
G01*
X135764400Y-99414000D02*
X135614400Y-99414000D01*
G75*
G02*
X135539400Y-99339000I0J75000D01*
G01*
X135539400Y-97939000D01*
G75*
G02*
X135614400Y-97864000I75000J0D01*
G01*
X135764400Y-97864000D01*
G75*
G02*
X135839400Y-97939000I0J-75000D01*
G01*
X135839400Y-99339000D01*
G75*
G02*
X135764400Y-99414000I-75000J0D01*
G01*
G37*
G04 #@! TD.AperFunction*
G04 #@! TO.P,U6,4*
G04 #@! TO.N,Net-(U6-Pad4)*
G04 #@! TA.AperFunction,SMDPad,CuDef*
G36*
G01*
X135264400Y-99414000D02*
X135114400Y-99414000D01*
G75*
G02*
X135039400Y-99339000I0J75000D01*
G01*
X135039400Y-97939000D01*
G75*
G02*
X135114400Y-97864000I75000J0D01*
G01*
X135264400Y-97864000D01*
G75*
G02*
X135339400Y-97939000I0J-75000D01*
G01*
X135339400Y-99339000D01*
G75*
G02*
X135264400Y-99414000I-75000J0D01*
G01*
G37*
G04 #@! TD.AperFunction*
G04 #@! TO.P,U6,3*
G04 #@! TO.N,Net-(U6-Pad3)*
G04 #@! TA.AperFunction,SMDPad,CuDef*
G36*
G01*
X134764400Y-99414000D02*
X134614400Y-99414000D01*
G75*
G02*
X134539400Y-99339000I0J75000D01*
G01*
X134539400Y-97939000D01*
G75*
G02*
X134614400Y-97864000I75000J0D01*
G01*
X134764400Y-97864000D01*
G75*
G02*
X134839400Y-97939000I0J-75000D01*
G01*
X134839400Y-99339000D01*
G75*
G02*
X134764400Y-99414000I-75000J0D01*
G01*
G37*
G04 #@! TD.AperFunction*
G04 #@! TO.P,U6,2*
G04 #@! TO.N,Net-(U6-Pad2)*
G04 #@! TA.AperFunction,SMDPad,CuDef*
G36*
G01*
X134264400Y-99414000D02*
X134114400Y-99414000D01*
G75*
G02*
X134039400Y-99339000I0J75000D01*
G01*
X134039400Y-97939000D01*
G75*
G02*
X134114400Y-97864000I75000J0D01*
G01*
X134264400Y-97864000D01*
G75*
G02*
X134339400Y-97939000I0J-75000D01*
G01*
X134339400Y-99339000D01*
G75*
G02*
X134264400Y-99414000I-75000J0D01*
G01*
G37*
G04 #@! TD.AperFunction*
G04 #@! TO.P,U6,1*
G04 #@! TO.N,Net-(U6-Pad1)*
G04 #@! TA.AperFunction,SMDPad,CuDef*
G36*
G01*
X133764400Y-99414000D02*
X133614400Y-99414000D01*
G75*
G02*
X133539400Y-99339000I0J75000D01*
G01*
X133539400Y-97939000D01*
G75*
G02*
X133614400Y-97864000I75000J0D01*
G01*
X133764400Y-97864000D01*
G75*
G02*
X133839400Y-97939000I0J-75000D01*
G01*
X133839400Y-99339000D01*
G75*
G02*
X133764400Y-99414000I-75000J0D01*
G01*
G37*
G04 #@! TD.AperFunction*
G04 #@! TD*
D13*
G04 #@! TO.P,U5,13*
G04 #@! TO.N,GND*
X180611000Y-93461700D03*
G04 #@! TO.P,U5,14*
X180611000Y-106461700D03*
G04 #@! TO.P,U5,12*
G04 #@! TO.N,+3V3*
X182111000Y-93461700D03*
G04 #@! TO.P,U5,15*
G04 #@! TO.N,N/C*
X182111000Y-106461700D03*
G04 #@! TO.P,U5,11*
G04 #@! TO.N,Net-(U5-Pad11)*
X183611000Y-93461700D03*
G04 #@! TO.P,U5,16*
G04 #@! TO.N,N/C*
X183611000Y-106461700D03*
G04 #@! TO.P,U5,10*
X185111000Y-93461700D03*
G04 #@! TO.P,U5,17*
G04 #@! TO.N,BT_CONN*
X185111000Y-106461700D03*
G04 #@! TO.P,U5,9*
G04 #@! TO.N,N/C*
X186611000Y-93461700D03*
G04 #@! TO.P,U5,18*
X186611000Y-106461700D03*
G04 #@! TO.P,U5,8*
X188111000Y-93461700D03*
G04 #@! TO.P,U5,19*
X188111000Y-106461700D03*
G04 #@! TO.P,U5,7*
X189611000Y-93461700D03*
G04 #@! TO.P,U5,20*
X189611000Y-106461700D03*
G04 #@! TO.P,U5,6*
X191111000Y-93461700D03*
G04 #@! TO.P,U5,21*
X191111000Y-106461700D03*
G04 #@! TO.P,U5,5*
X192611000Y-93461700D03*
G04 #@! TO.P,U5,22*
X192611000Y-106461700D03*
G04 #@! TO.P,U5,4*
X194111000Y-93461700D03*
G04 #@! TO.P,U5,23*
X194111000Y-106461700D03*
G04 #@! TO.P,U5,3*
X195611000Y-93461700D03*
G04 #@! TO.P,U5,24*
X195611000Y-106461700D03*
G04 #@! TO.P,U5,2*
G04 #@! TO.N,BT_TX*
X197111000Y-93461700D03*
G04 #@! TO.P,U5,25*
G04 #@! TO.N,N/C*
X197111000Y-106461700D03*
G04 #@! TO.P,U5,1*
G04 #@! TO.N,BT_RX*
X198611000Y-93461700D03*
G04 #@! TO.P,U5,26*
G04 #@! TO.N,GND*
X198611000Y-106461700D03*
G04 #@! TD*
D14*
G04 #@! TO.P,U3,1*
G04 #@! TO.N,GND*
X163106500Y-108218000D03*
G04 #@! TO.P,U3,3*
G04 #@! TO.N,+5V*
X163106500Y-103618000D03*
G04 #@! TO.P,U3,2*
G04 #@! TO.N,+3V3*
X163106500Y-105918000D03*
D15*
X156806500Y-105918000D03*
G04 #@! TD*
D14*
G04 #@! TO.P,U1,1*
G04 #@! TO.N,GND*
X163157300Y-96368900D03*
G04 #@! TO.P,U1,3*
G04 #@! TO.N,+7.5V*
X163157300Y-91768900D03*
G04 #@! TO.P,U1,2*
G04 #@! TO.N,+5V*
X163157300Y-94068900D03*
D15*
X156857300Y-94068900D03*
G04 #@! TD*
D16*
G04 #@! TO.P,SW2,8*
G04 #@! TO.N,Net-(SW2-Pad8)*
X134696200Y-102730600D03*
G04 #@! TO.P,SW2,4*
G04 #@! TO.N,Net-(R5-Pad1)*
X142316200Y-111340600D03*
G04 #@! TO.P,SW2,7*
G04 #@! TO.N,Net-(SW2-Pad7)*
X137236200Y-102730600D03*
G04 #@! TO.P,SW2,3*
G04 #@! TO.N,Net-(R5-Pad1)*
X139776200Y-111340600D03*
G04 #@! TO.P,SW2,6*
G04 #@! TO.N,Net-(SW2-Pad6)*
X139776200Y-102730600D03*
G04 #@! TO.P,SW2,2*
G04 #@! TO.N,Net-(R5-Pad1)*
X137236200Y-111340600D03*
G04 #@! TO.P,SW2,5*
G04 #@! TO.N,Net-(SW2-Pad5)*
X142316200Y-102730600D03*
G04 #@! TO.P,SW2,1*
G04 #@! TO.N,Net-(R5-Pad1)*
X134696200Y-111340600D03*
G04 #@! TD*
D17*
G04 #@! TO.P,SW1,2*
G04 #@! TO.N,GND*
X151856000Y-102979400D03*
G04 #@! TO.P,SW1,1*
G04 #@! TO.N,NRST*
X147356000Y-102979400D03*
X147356000Y-110939400D03*
G04 #@! TO.P,SW1,2*
G04 #@! TO.N,GND*
X151856000Y-110939400D03*
G04 #@! TD*
D18*
G04 #@! TO.P,RV1,2*
G04 #@! TO.N,Net-(R4-Pad1)*
X125196600Y-110312200D03*
G04 #@! TO.P,RV1,3*
G04 #@! TO.N,Net-(RV1-Pad3)*
X122656600Y-112852200D03*
D19*
G04 #@! TO.P,RV1,1*
G04 #@! TO.N,Net-(R1-Pad2)*
X122656600Y-107772200D03*
G04 #@! TD*
G04 #@! TO.P,R2,2*
G04 #@! TO.N,NRST*
G04 #@! TA.AperFunction,SMDPad,CuDef*
G36*
G01*
X154501001Y-109734400D02*
X153600999Y-109734400D01*
G75*
G02*
X153351000Y-109484401I0J249999D01*
G01*
X153351000Y-108784399D01*
G75*
G02*
X153600999Y-108534400I249999J0D01*
G01*
X154501001Y-108534400D01*
G75*
G02*
X154751000Y-108784399I0J-249999D01*
G01*
X154751000Y-109484401D01*
G75*
G02*
X154501001Y-109734400I-249999J0D01*
G01*
G37*
G04 #@! TD.AperFunction*
G04 #@! TO.P,R2,1*
G04 #@! TO.N,+3V3*
G04 #@! TA.AperFunction,SMDPad,CuDef*
G36*
G01*
X154501001Y-111734400D02*
X153600999Y-111734400D01*
G75*
G02*
X153351000Y-111484401I0J249999D01*
G01*
X153351000Y-110784399D01*
G75*
G02*
X153600999Y-110534400I249999J0D01*
G01*
X154501001Y-110534400D01*
G75*
G02*
X154751000Y-110784399I0J-249999D01*
G01*
X154751000Y-111484401D01*
G75*
G02*
X154501001Y-111734400I-249999J0D01*
G01*
G37*
G04 #@! TD.AperFunction*
G04 #@! TD*
D20*
G04 #@! TO.P,J4,4*
G04 #@! TO.N,GND*
X175521000Y-106718000D03*
G04 #@! TO.P,J4,3*
G04 #@! TO.N,SCL*
X173021000Y-106718000D03*
G04 #@! TO.P,J4,2*
G04 #@! TO.N,SDA*
X170521000Y-106718000D03*
G04 #@! TO.P,J4,1*
G04 #@! TO.N,+7.5V*
G04 #@! TA.AperFunction,ComponentPad*
G36*
G01*
X167171000Y-107443000D02*
X167171000Y-105993000D01*
G75*
G02*
X167421000Y-105743000I250000J0D01*
G01*
X168621000Y-105743000D01*
G75*
G02*
X168871000Y-105993000I0J-250000D01*
G01*
X168871000Y-107443000D01*
G75*
G02*
X168621000Y-107693000I-250000J0D01*
G01*
X167421000Y-107693000D01*
G75*
G02*
X167171000Y-107443000I0J250000D01*
G01*
G37*
G04 #@! TD.AperFunction*
G04 #@! TD*
D21*
G04 #@! TO.P,J3,3*
G04 #@! TO.N,+7.5V*
X114401600Y-93392000D03*
G04 #@! TO.P,J3,2*
G04 #@! TO.N,GND*
X114401600Y-90892000D03*
G04 #@! TO.P,J3,1*
G04 #@! TO.N,TX*
G04 #@! TA.AperFunction,ComponentPad*
G36*
G01*
X113676600Y-87542000D02*
X115126600Y-87542000D01*
G75*
G02*
X115376600Y-87792000I0J-250000D01*
G01*
X115376600Y-88992000D01*
G75*
G02*
X115126600Y-89242000I-250000J0D01*
G01*
X113676600Y-89242000D01*
G75*
G02*
X113426600Y-88992000I0J250000D01*
G01*
X113426600Y-87792000D01*
G75*
G02*
X113676600Y-87542000I250000J0D01*
G01*
G37*
G04 #@! TD.AperFunction*
G04 #@! TD*
G04 #@! TO.P,J2,4*
G04 #@! TO.N,GND*
X149199600Y-90798000D03*
G04 #@! TO.P,J2,3*
G04 #@! TO.N,SWDIO*
X149199600Y-93298000D03*
G04 #@! TO.P,J2,2*
G04 #@! TO.N,SWDCLK*
X149199600Y-95798000D03*
G04 #@! TO.P,J2,1*
G04 #@! TO.N,+5V*
G04 #@! TA.AperFunction,ComponentPad*
G36*
G01*
X149924600Y-99148000D02*
X148474600Y-99148000D01*
G75*
G02*
X148224600Y-98898000I0J250000D01*
G01*
X148224600Y-97698000D01*
G75*
G02*
X148474600Y-97448000I250000J0D01*
G01*
X149924600Y-97448000D01*
G75*
G02*
X150174600Y-97698000I0J-250000D01*
G01*
X150174600Y-98898000D01*
G75*
G02*
X149924600Y-99148000I-250000J0D01*
G01*
G37*
G04 #@! TD.AperFunction*
G04 #@! TD*
D20*
G04 #@! TO.P,J1,4*
G04 #@! TO.N,+7.5V*
X168033700Y-93268900D03*
G04 #@! TO.P,J1,3*
G04 #@! TO.N,SDA*
X170533700Y-93268900D03*
G04 #@! TO.P,J1,2*
G04 #@! TO.N,SCL*
X173033700Y-93268900D03*
G04 #@! TO.P,J1,1*
G04 #@! TO.N,GND*
G04 #@! TA.AperFunction,ComponentPad*
G36*
G01*
X176383700Y-92543900D02*
X176383700Y-93993900D01*
G75*
G02*
X176133700Y-94243900I-250000J0D01*
G01*
X174933700Y-94243900D01*
G75*
G02*
X174683700Y-93993900I0J250000D01*
G01*
X174683700Y-92543900D01*
G75*
G02*
X174933700Y-92293900I250000J0D01*
G01*
X176133700Y-92293900D01*
G75*
G02*
X176383700Y-92543900I0J-250000D01*
G01*
G37*
G04 #@! TD.AperFunction*
G04 #@! TD*
D22*
G04 #@! TO.P,D1,2*
G04 #@! TO.N,GND*
X114490500Y-109853100D03*
G04 #@! TO.P,D1,1*
G04 #@! TO.N,Net-(C2-Pad1)*
G04 #@! TA.AperFunction,ComponentPad*
G36*
G01*
X113740500Y-106503100D02*
X115240500Y-106503100D01*
G75*
G02*
X115490500Y-106753100I0J-250000D01*
G01*
X115490500Y-107953100D01*
G75*
G02*
X115240500Y-108203100I-250000J0D01*
G01*
X113740500Y-108203100D01*
G75*
G02*
X113490500Y-107953100I0J250000D01*
G01*
X113490500Y-106753100D01*
G75*
G02*
X113740500Y-106503100I250000J0D01*
G01*
G37*
G04 #@! TD.AperFunction*
G04 #@! TD*
G04 #@! TO.P,C10,2*
G04 #@! TO.N,GND*
G04 #@! TA.AperFunction,SMDPad,CuDef*
G36*
G01*
X127414000Y-109289000D02*
X128364000Y-109289000D01*
G75*
G02*
X128614000Y-109539000I0J-250000D01*
G01*
X128614000Y-110214000D01*
G75*
G02*
X128364000Y-110464000I-250000J0D01*
G01*
X127414000Y-110464000D01*
G75*
G02*
X127164000Y-110214000I0J250000D01*
G01*
X127164000Y-109539000D01*
G75*
G02*
X127414000Y-109289000I250000J0D01*
G01*
G37*
G04 #@! TD.AperFunction*
G04 #@! TO.P,C10,1*
G04 #@! TO.N,Net-(C10-Pad1)*
G04 #@! TA.AperFunction,SMDPad,CuDef*
G36*
G01*
X127414000Y-107214000D02*
X128364000Y-107214000D01*
G75*
G02*
X128614000Y-107464000I0J-250000D01*
G01*
X128614000Y-108139000D01*
G75*
G02*
X128364000Y-108389000I-250000J0D01*
G01*
X127414000Y-108389000D01*
G75*
G02*
X127164000Y-108139000I0J250000D01*
G01*
X127164000Y-107464000D01*
G75*
G02*
X127414000Y-107214000I250000J0D01*
G01*
G37*
G04 #@! TD.AperFunction*
G04 #@! TD*
G04 #@! TO.P,C9,2*
G04 #@! TO.N,GND*
G04 #@! TA.AperFunction,SMDPad,CuDef*
G36*
G01*
X128796200Y-93540600D02*
X128796200Y-92590600D01*
G75*
G02*
X129046200Y-92340600I250000J0D01*
G01*
X129721200Y-92340600D01*
G75*
G02*
X129971200Y-92590600I0J-250000D01*
G01*
X129971200Y-93540600D01*
G75*
G02*
X129721200Y-93790600I-250000J0D01*
G01*
X129046200Y-93790600D01*
G75*
G02*
X128796200Y-93540600I0J250000D01*
G01*
G37*
G04 #@! TD.AperFunction*
G04 #@! TO.P,C9,1*
G04 #@! TO.N,Net-(C9-Pad1)*
G04 #@! TA.AperFunction,SMDPad,CuDef*
G36*
G01*
X126721200Y-93540600D02*
X126721200Y-92590600D01*
G75*
G02*
X126971200Y-92340600I250000J0D01*
G01*
X127646200Y-92340600D01*
G75*
G02*
X127896200Y-92590600I0J-250000D01*
G01*
X127896200Y-93540600D01*
G75*
G02*
X127646200Y-93790600I-250000J0D01*
G01*
X126971200Y-93790600D01*
G75*
G02*
X126721200Y-93540600I0J250000D01*
G01*
G37*
G04 #@! TD.AperFunction*
G04 #@! TD*
G04 #@! TO.P,C8,2*
G04 #@! TO.N,GND*
G04 #@! TA.AperFunction,SMDPad,CuDef*
G36*
G01*
X154500600Y-103639200D02*
X153550600Y-103639200D01*
G75*
G02*
X153300600Y-103389200I0J250000D01*
G01*
X153300600Y-102714200D01*
G75*
G02*
X153550600Y-102464200I250000J0D01*
G01*
X154500600Y-102464200D01*
G75*
G02*
X154750600Y-102714200I0J-250000D01*
G01*
X154750600Y-103389200D01*
G75*
G02*
X154500600Y-103639200I-250000J0D01*
G01*
G37*
G04 #@! TD.AperFunction*
G04 #@! TO.P,C8,1*
G04 #@! TO.N,NRST*
G04 #@! TA.AperFunction,SMDPad,CuDef*
G36*
G01*
X154500600Y-105714200D02*
X153550600Y-105714200D01*
G75*
G02*
X153300600Y-105464200I0J250000D01*
G01*
X153300600Y-104789200D01*
G75*
G02*
X153550600Y-104539200I250000J0D01*
G01*
X154500600Y-104539200D01*
G75*
G02*
X154750600Y-104789200I0J-250000D01*
G01*
X154750600Y-105464200D01*
G75*
G02*
X154500600Y-105714200I-250000J0D01*
G01*
G37*
G04 #@! TD.AperFunction*
G04 #@! TD*
G04 #@! TO.P,C6,2*
G04 #@! TO.N,+3V3*
G04 #@! TA.AperFunction,SMDPad,CuDef*
G36*
G01*
X181835300Y-91102200D02*
X181835300Y-90152200D01*
G75*
G02*
X182085300Y-89902200I250000J0D01*
G01*
X182760300Y-89902200D01*
G75*
G02*
X183010300Y-90152200I0J-250000D01*
G01*
X183010300Y-91102200D01*
G75*
G02*
X182760300Y-91352200I-250000J0D01*
G01*
X182085300Y-91352200D01*
G75*
G02*
X181835300Y-91102200I0J250000D01*
G01*
G37*
G04 #@! TD.AperFunction*
G04 #@! TO.P,C6,1*
G04 #@! TO.N,GND*
G04 #@! TA.AperFunction,SMDPad,CuDef*
G36*
G01*
X179760300Y-91102200D02*
X179760300Y-90152200D01*
G75*
G02*
X180010300Y-89902200I250000J0D01*
G01*
X180685300Y-89902200D01*
G75*
G02*
X180935300Y-90152200I0J-250000D01*
G01*
X180935300Y-91102200D01*
G75*
G02*
X180685300Y-91352200I-250000J0D01*
G01*
X180010300Y-91352200D01*
G75*
G02*
X179760300Y-91102200I0J250000D01*
G01*
G37*
G04 #@! TD.AperFunction*
G04 #@! TD*
G04 #@! TO.P,C5,2*
G04 #@! TO.N,GND*
G04 #@! TA.AperFunction,SMDPad,CuDef*
G36*
G01*
X159557300Y-110243600D02*
X159557300Y-111193600D01*
G75*
G02*
X159307300Y-111443600I-250000J0D01*
G01*
X158632300Y-111443600D01*
G75*
G02*
X158382300Y-111193600I0J250000D01*
G01*
X158382300Y-110243600D01*
G75*
G02*
X158632300Y-109993600I250000J0D01*
G01*
X159307300Y-109993600D01*
G75*
G02*
X159557300Y-110243600I0J-250000D01*
G01*
G37*
G04 #@! TD.AperFunction*
G04 #@! TO.P,C5,1*
G04 #@! TO.N,+3V3*
G04 #@! TA.AperFunction,SMDPad,CuDef*
G36*
G01*
X161632300Y-110243600D02*
X161632300Y-111193600D01*
G75*
G02*
X161382300Y-111443600I-250000J0D01*
G01*
X160707300Y-111443600D01*
G75*
G02*
X160457300Y-111193600I0J250000D01*
G01*
X160457300Y-110243600D01*
G75*
G02*
X160707300Y-109993600I250000J0D01*
G01*
X161382300Y-109993600D01*
G75*
G02*
X161632300Y-110243600I0J-250000D01*
G01*
G37*
G04 #@! TD.AperFunction*
G04 #@! TD*
G04 #@! TO.P,C4,2*
G04 #@! TO.N,GND*
G04 #@! TA.AperFunction,SMDPad,CuDef*
G36*
G01*
X159557300Y-100591600D02*
X159557300Y-101541600D01*
G75*
G02*
X159307300Y-101791600I-250000J0D01*
G01*
X158632300Y-101791600D01*
G75*
G02*
X158382300Y-101541600I0J250000D01*
G01*
X158382300Y-100591600D01*
G75*
G02*
X158632300Y-100341600I250000J0D01*
G01*
X159307300Y-100341600D01*
G75*
G02*
X159557300Y-100591600I0J-250000D01*
G01*
G37*
G04 #@! TD.AperFunction*
G04 #@! TO.P,C4,1*
G04 #@! TO.N,+5V*
G04 #@! TA.AperFunction,SMDPad,CuDef*
G36*
G01*
X161632300Y-100591600D02*
X161632300Y-101541600D01*
G75*
G02*
X161382300Y-101791600I-250000J0D01*
G01*
X160707300Y-101791600D01*
G75*
G02*
X160457300Y-101541600I0J250000D01*
G01*
X160457300Y-100591600D01*
G75*
G02*
X160707300Y-100341600I250000J0D01*
G01*
X161382300Y-100341600D01*
G75*
G02*
X161632300Y-100591600I0J-250000D01*
G01*
G37*
G04 #@! TD.AperFunction*
G04 #@! TD*
G04 #@! TO.P,C3,2*
G04 #@! TO.N,GND*
G04 #@! TA.AperFunction,SMDPad,CuDef*
G36*
G01*
X159557300Y-98585000D02*
X159557300Y-99535000D01*
G75*
G02*
X159307300Y-99785000I-250000J0D01*
G01*
X158632300Y-99785000D01*
G75*
G02*
X158382300Y-99535000I0J250000D01*
G01*
X158382300Y-98585000D01*
G75*
G02*
X158632300Y-98335000I250000J0D01*
G01*
X159307300Y-98335000D01*
G75*
G02*
X159557300Y-98585000I0J-250000D01*
G01*
G37*
G04 #@! TD.AperFunction*
G04 #@! TO.P,C3,1*
G04 #@! TO.N,+5V*
G04 #@! TA.AperFunction,SMDPad,CuDef*
G36*
G01*
X161632300Y-98585000D02*
X161632300Y-99535000D01*
G75*
G02*
X161382300Y-99785000I-250000J0D01*
G01*
X160707300Y-99785000D01*
G75*
G02*
X160457300Y-99535000I0J250000D01*
G01*
X160457300Y-98585000D01*
G75*
G02*
X160707300Y-98335000I250000J0D01*
G01*
X161382300Y-98335000D01*
G75*
G02*
X161632300Y-98585000I0J-250000D01*
G01*
G37*
G04 #@! TD.AperFunction*
G04 #@! TD*
G04 #@! TO.P,C1,2*
G04 #@! TO.N,GND*
G04 #@! TA.AperFunction,SMDPad,CuDef*
G36*
G01*
X159557300Y-88539300D02*
X159557300Y-89489300D01*
G75*
G02*
X159307300Y-89739300I-250000J0D01*
G01*
X158632300Y-89739300D01*
G75*
G02*
X158382300Y-89489300I0J250000D01*
G01*
X158382300Y-88539300D01*
G75*
G02*
X158632300Y-88289300I250000J0D01*
G01*
X159307300Y-88289300D01*
G75*
G02*
X159557300Y-88539300I0J-250000D01*
G01*
G37*
G04 #@! TD.AperFunction*
G04 #@! TO.P,C1,1*
G04 #@! TO.N,+7.5V*
G04 #@! TA.AperFunction,SMDPad,CuDef*
G36*
G01*
X161632300Y-88539300D02*
X161632300Y-89489300D01*
G75*
G02*
X161382300Y-89739300I-250000J0D01*
G01*
X160707300Y-89739300D01*
G75*
G02*
X160457300Y-89489300I0J250000D01*
G01*
X160457300Y-88539300D01*
G75*
G02*
X160707300Y-88289300I250000J0D01*
G01*
X161382300Y-88289300D01*
G75*
G02*
X161632300Y-88539300I0J-250000D01*
G01*
G37*
G04 #@! TD.AperFunction*
G04 #@! TD*
D23*
G04 #@! TO.N,GND*
X150749000Y-102920800D03*
X150723600Y-110947200D03*
X179298600Y-93141800D03*
X164642800Y-108254800D03*
X164795200Y-96367600D03*
X157810200Y-89001600D03*
D24*
X136038500Y-89154000D03*
X145008600Y-91690100D03*
X138408500Y-96774000D03*
D23*
X180543200Y-108280200D03*
D24*
X141590544Y-89981644D03*
X133680200Y-94187100D03*
D23*
X158953200Y-97790000D03*
D24*
X141935200Y-97129600D03*
X127889000Y-111048800D03*
D23*
X118237000Y-91694000D03*
X108812676Y-87511400D03*
X108812676Y-91311400D03*
X108812676Y-95111400D03*
X108812676Y-104611400D03*
X108812676Y-108411400D03*
X108812676Y-112211400D03*
X110712676Y-106511400D03*
X110712676Y-110311400D03*
X111662676Y-113161400D03*
X114512676Y-112211400D03*
X117362676Y-113161400D03*
X123062676Y-96061400D03*
X124962676Y-107461400D03*
X124962676Y-113161400D03*
X129712676Y-95111400D03*
X129712676Y-105561400D03*
X130662676Y-97961400D03*
X130662676Y-102711400D03*
X130662676Y-108411400D03*
X132562676Y-106511400D03*
X134462676Y-108411400D03*
X136362676Y-106511400D03*
X138262676Y-108411400D03*
X140162676Y-106511400D03*
X142062676Y-108411400D03*
X143012676Y-98911400D03*
X143962676Y-101761400D03*
X143962676Y-106511400D03*
X143962676Y-110311400D03*
X145862676Y-108411400D03*
X146812676Y-96061400D03*
X147762676Y-105561400D03*
X149662676Y-107461400D03*
X153462676Y-88461400D03*
X153462676Y-92261400D03*
X155362676Y-90361400D03*
X155362676Y-98911400D03*
X159162676Y-91311400D03*
X159162676Y-96061400D03*
X159162676Y-107461400D03*
X161062676Y-113161400D03*
X162962676Y-98911400D03*
X162962676Y-110311400D03*
X163912676Y-88461400D03*
X164862676Y-112211400D03*
X168662676Y-109361400D03*
X170562676Y-87511400D03*
X171512676Y-90361400D03*
X171512676Y-110311400D03*
X173412676Y-88461400D03*
X174362676Y-109361400D03*
X175312676Y-90361400D03*
X176262676Y-87511400D03*
X177212676Y-96061400D03*
X177212676Y-99861400D03*
X177212676Y-103661400D03*
X178162676Y-89411400D03*
X179112676Y-113161400D03*
X180062676Y-87511400D03*
X181012676Y-99861400D03*
X181012676Y-103661400D03*
X181012676Y-110311400D03*
X182912676Y-97961400D03*
X182912676Y-101761400D03*
X182912676Y-112211400D03*
X183862676Y-109361400D03*
X185762676Y-111261400D03*
X186712676Y-89411400D03*
X186712676Y-97961400D03*
X186712676Y-101761400D03*
X187662676Y-109361400D03*
X187662676Y-113161400D03*
X188612676Y-91311400D03*
X188612676Y-96061400D03*
X188612676Y-99861400D03*
X188612676Y-103661400D03*
X189562676Y-111261400D03*
X190512676Y-87511400D03*
X190512676Y-97961400D03*
X190512676Y-101761400D03*
X191462676Y-109361400D03*
X191462676Y-113161400D03*
X192412676Y-96061400D03*
X192412676Y-99861400D03*
X192412676Y-103661400D03*
X194312676Y-97961400D03*
X194312676Y-101761400D03*
X196212676Y-99861400D03*
X196212676Y-103661400D03*
X198112676Y-97961400D03*
X198112676Y-101761400D03*
X121208800Y-104927400D03*
D24*
G04 #@! TO.N,+3V3*
X133934200Y-89154000D03*
X145008600Y-89615100D03*
X140483500Y-96774000D03*
X133680200Y-96262100D03*
D23*
X124612400Y-101015800D03*
D24*
G04 #@! TO.N,Net-(C11-Pad1)*
X141224000Y-91690100D03*
G04 #@! TO.N,ADC*
X139827000Y-92786200D03*
G04 #@! TO.N,SDA*
X139547600Y-94589600D03*
X170533700Y-102135300D03*
G04 #@! TO.N,SCL*
X139903200Y-93878400D03*
X173033700Y-101151700D03*
D23*
G04 #@! TO.N,RX*
X121539000Y-93192600D03*
G04 #@! TO.N,BT_CONN*
X185191400Y-91617800D03*
X185166000Y-95402400D03*
D24*
G04 #@! TO.N,BT_TX*
X191008000Y-91617800D03*
X196748400Y-95799610D03*
G04 #@! TO.N,BT_RX*
X192100200Y-91541600D03*
X198043800Y-95224600D03*
D23*
G04 #@! TO.N,Net-(C17-Pad1)*
X115443000Y-103031800D03*
G04 #@! TD*
D25*
G04 #@! TO.N,GND*
X151928300Y-103051700D02*
X151856000Y-102979400D01*
X154025600Y-103051700D02*
X151928300Y-103051700D01*
X150807600Y-102979400D02*
X150749000Y-102920800D01*
X151856000Y-102979400D02*
X150807600Y-102979400D01*
X150731400Y-110939400D02*
X150723600Y-110947200D01*
X151856000Y-110939400D02*
X150731400Y-110939400D01*
X161470400Y-108218000D02*
X163106500Y-108218000D01*
X158969800Y-110718600D02*
X161470400Y-108218000D01*
D26*
X180611000Y-90890400D02*
X180347800Y-90627200D01*
X180611000Y-93461700D02*
X180611000Y-90890400D01*
D27*
X175533700Y-106705300D02*
X175521000Y-106718000D01*
X175533700Y-93268900D02*
X175533700Y-106705300D01*
D25*
X179618500Y-93461700D02*
X179298600Y-93141800D01*
X180611000Y-93461700D02*
X179618500Y-93461700D01*
X164606000Y-108218000D02*
X164642800Y-108254800D01*
X163106500Y-108218000D02*
X164606000Y-108218000D01*
X164793900Y-96368900D02*
X164795200Y-96367600D01*
X163157300Y-96368900D02*
X164793900Y-96368900D01*
X158969800Y-99060000D02*
X158969800Y-101066600D01*
X157822900Y-89014300D02*
X157810200Y-89001600D01*
X158969800Y-89014300D02*
X157822900Y-89014300D01*
X145008600Y-90833200D02*
X145008600Y-91690100D01*
X143889400Y-89714000D02*
X145008600Y-90833200D01*
X143114400Y-89714000D02*
X143889400Y-89714000D01*
X139189400Y-97554900D02*
X138408500Y-96774000D01*
X139189400Y-98639000D02*
X139189400Y-97554900D01*
X180611000Y-106461700D02*
X180611000Y-106722400D01*
X180543200Y-106790200D02*
X180543200Y-108280200D01*
X180611000Y-106722400D02*
X180543200Y-106790200D01*
X143114400Y-89714000D02*
X141858188Y-89714000D01*
X141858188Y-89714000D02*
X141590544Y-89981644D01*
X134189400Y-87289000D02*
X134189400Y-88124692D01*
X134189400Y-88124692D02*
X135218708Y-89154000D01*
X135218708Y-89154000D02*
X136038500Y-89154000D01*
X131764400Y-96214000D02*
X132539400Y-96214000D01*
X132539400Y-96214000D02*
X133680200Y-95073200D01*
X133680200Y-95073200D02*
X133680200Y-94187100D01*
X158969800Y-101066600D02*
X158470600Y-101066600D01*
X158953200Y-99043400D02*
X158953200Y-97790000D01*
X158969800Y-99060000D02*
X158953200Y-99043400D01*
X141935200Y-96647000D02*
X141935200Y-97129600D01*
X141909800Y-96621600D02*
X141935200Y-96647000D01*
X142317400Y-96214000D02*
X141909800Y-96621600D01*
X143114400Y-96214000D02*
X142317400Y-96214000D01*
X127889000Y-109876500D02*
X127889000Y-111048800D01*
D27*
G04 #@! TO.N,+7.5V*
X168033700Y-106705300D02*
X168021000Y-106718000D01*
X168033700Y-93268900D02*
X168033700Y-106705300D01*
X166533700Y-91768900D02*
X163157300Y-91768900D01*
X168033700Y-93268900D02*
X166533700Y-91768900D01*
X161044800Y-89656400D02*
X163157300Y-91768900D01*
X161044800Y-89014300D02*
X161044800Y-89656400D01*
D26*
G04 #@! TO.N,+5V*
X161044800Y-99060000D02*
X161044800Y-101066600D01*
X161044800Y-101556300D02*
X163106500Y-103618000D01*
X161044800Y-101066600D02*
X161044800Y-101556300D01*
X161044800Y-99060000D02*
X161044800Y-95393600D01*
X162369500Y-94068900D02*
X163157300Y-94068900D01*
X161044800Y-95393600D02*
X162369500Y-94068900D01*
X156857300Y-94068900D02*
X163157300Y-94068900D01*
X152628200Y-98298000D02*
X156857300Y-94068900D01*
X149199600Y-98298000D02*
X152628200Y-98298000D01*
D25*
G04 #@! TO.N,Net-(R5-Pad1)*
X134696200Y-111340600D02*
X142316200Y-111340600D01*
D26*
G04 #@! TO.N,+3V3*
X163106500Y-105918000D02*
X156806500Y-105918000D01*
X154490100Y-111134400D02*
X154051000Y-111134400D01*
X156806500Y-108818000D02*
X154490100Y-111134400D01*
X156806500Y-105918000D02*
X156806500Y-108818000D01*
X182111000Y-90939000D02*
X182422800Y-90627200D01*
X182111000Y-93461700D02*
X182111000Y-90939000D01*
D25*
X133689400Y-87289000D02*
X133689400Y-88909200D01*
X133689400Y-88909200D02*
X133934200Y-89154000D01*
X144607500Y-89214000D02*
X145008600Y-89615100D01*
X143114400Y-89214000D02*
X144607500Y-89214000D01*
X139689400Y-97568100D02*
X140483500Y-96774000D01*
X139689400Y-98639000D02*
X139689400Y-97568100D01*
X141543500Y-95714000D02*
X143114400Y-95714000D01*
X140483500Y-96774000D02*
X141543500Y-95714000D01*
X133228300Y-96714000D02*
X133680200Y-96262100D01*
X131764400Y-96714000D02*
X133228300Y-96714000D01*
D26*
X163106500Y-105918000D02*
X164109400Y-105918000D01*
X166039800Y-110007400D02*
X166039800Y-106851300D01*
X165106500Y-105918000D02*
X163106500Y-105918000D01*
X168126010Y-112093610D02*
X166039800Y-110007400D01*
X176501190Y-112093610D02*
X168126010Y-112093610D01*
X166039800Y-106851300D02*
X165106500Y-105918000D01*
X179360999Y-109233801D02*
X176501190Y-112093610D01*
X179360999Y-98311701D02*
X179360999Y-109233801D01*
X182111000Y-95561700D02*
X179360999Y-98311701D01*
X182111000Y-93461700D02*
X182111000Y-95561700D01*
D28*
X154051000Y-111134400D02*
X154981400Y-112064800D01*
X159698600Y-112064800D02*
X161044800Y-110718600D01*
X154981400Y-112064800D02*
X159698600Y-112064800D01*
D25*
X149191200Y-101015800D02*
X154054300Y-101015800D01*
X156806500Y-103768000D02*
X156806500Y-105918000D01*
X154054300Y-101015800D02*
X156806500Y-103768000D01*
X143114400Y-95714000D02*
X143889400Y-95714000D01*
X145008600Y-89615100D02*
X145008600Y-89712800D01*
X145588600Y-90292800D02*
X145588600Y-97413200D01*
X145588600Y-97413200D02*
X149191200Y-101015800D01*
X145008600Y-89712800D02*
X145588600Y-90292800D01*
X143889400Y-95714000D02*
X145588600Y-97413200D01*
D26*
X154051000Y-111134400D02*
X151291800Y-113893600D01*
X151291800Y-113893600D02*
X132080000Y-113893600D01*
D25*
X131267200Y-111921800D02*
X131130800Y-111921800D01*
X131130800Y-111921800D02*
X130619500Y-112433100D01*
D26*
X132080000Y-113893600D02*
X130619500Y-112433100D01*
D25*
X130619500Y-112433100D02*
X127596900Y-112433100D01*
X127596900Y-112433100D02*
X126288800Y-111125000D01*
X126288800Y-102692200D02*
X124612400Y-101015800D01*
X126288800Y-111125000D02*
X126288800Y-102692200D01*
G04 #@! TO.N,NRST*
X154025600Y-109109000D02*
X154051000Y-109134400D01*
X154025600Y-105126700D02*
X154025600Y-109109000D01*
X149503300Y-105126700D02*
X147356000Y-102979400D01*
X154025600Y-105126700D02*
X149503300Y-105126700D01*
X149161000Y-109134400D02*
X154051000Y-109134400D01*
X147356000Y-110939400D02*
X149161000Y-109134400D01*
X136689400Y-98639000D02*
X136689400Y-99540392D01*
X136689400Y-99540392D02*
X135188592Y-101041200D01*
X135188592Y-101041200D02*
X134110598Y-101041200D01*
X134110598Y-101041200D02*
X133096000Y-102055798D01*
X133096000Y-103405402D02*
X134821198Y-105130600D01*
X134821198Y-105130600D02*
X145204800Y-105130600D01*
X145204800Y-105130600D02*
X147356000Y-102979400D01*
X133096000Y-102055798D02*
X133096000Y-103405402D01*
G04 #@! TO.N,Net-(C9-Pad1)*
X127889000Y-97993200D02*
X127838200Y-98044000D01*
X127889000Y-93493500D02*
X127889000Y-97993200D01*
X135689400Y-99408992D02*
X135689400Y-98639000D01*
X134939803Y-100158589D02*
X135689400Y-99408992D01*
X127838200Y-98044000D02*
X129063789Y-99269589D01*
X129952789Y-100158589D02*
X129063789Y-99269589D01*
X134939803Y-100158589D02*
X129952789Y-100158589D01*
X127308700Y-93065600D02*
X127381000Y-93065600D01*
X127461100Y-93065600D02*
X127889000Y-93493500D01*
X127308700Y-93065600D02*
X127461100Y-93065600D01*
G04 #@! TO.N,Net-(C10-Pad1)*
X127889000Y-102974800D02*
X127838200Y-102924000D01*
X127889000Y-107801500D02*
X127889000Y-106730800D01*
X127889000Y-106730800D02*
X127889000Y-102974800D01*
X127889000Y-107268100D02*
X127889000Y-106730800D01*
X136189400Y-99474692D02*
X136189400Y-98639000D01*
X135105492Y-100558600D02*
X136189400Y-99474692D01*
X130203600Y-100558600D02*
X127838200Y-102924000D01*
X135105492Y-100558600D02*
X130203600Y-100558600D01*
G04 #@! TO.N,Net-(C11-Pad1)*
X141224000Y-91329400D02*
X141224000Y-91690100D01*
X142339400Y-90214000D02*
X141224000Y-91329400D01*
X143114400Y-90214000D02*
X142339400Y-90214000D01*
G04 #@! TO.N,ADC*
X143110400Y-92710000D02*
X143114400Y-92714000D01*
X139903200Y-92710000D02*
X143110400Y-92710000D01*
X139827000Y-92786200D02*
X139903200Y-92710000D01*
D27*
G04 #@! TO.N,SDA*
X170533700Y-106705300D02*
X170521000Y-106718000D01*
D25*
X131764400Y-94214000D02*
X132760400Y-94214000D01*
X132760400Y-94214000D02*
X133451600Y-93522800D01*
X138480800Y-93522800D02*
X139547600Y-94589600D01*
X133451600Y-93522800D02*
X138480800Y-93522800D01*
D27*
X170533700Y-102135300D02*
X170533700Y-106705300D01*
X170533700Y-93268900D02*
X170533700Y-102135300D01*
G04 #@! TO.N,SCL*
X173033700Y-106705300D02*
X173021000Y-106718000D01*
D25*
X132539400Y-93714000D02*
X133238600Y-93014800D01*
X131764400Y-93714000D02*
X132539400Y-93714000D01*
X139039600Y-93014800D02*
X139903200Y-93878400D01*
X133238600Y-93014800D02*
X139039600Y-93014800D01*
D27*
X173033700Y-101151700D02*
X173033700Y-106705300D01*
X173033700Y-93268900D02*
X173033700Y-101151700D01*
D25*
G04 #@! TO.N,SWDIO*
X134764390Y-88133982D02*
X135200208Y-88569800D01*
X134689400Y-87289000D02*
X134764390Y-87363990D01*
X134764390Y-87363990D02*
X134764390Y-88133982D01*
X135200208Y-88569800D02*
X141427200Y-88569800D01*
X141427200Y-88569800D02*
X141655800Y-88341200D01*
X141655800Y-88341200D02*
X145237200Y-88341200D01*
X147949590Y-92047990D02*
X149199600Y-93298000D01*
X147949590Y-91053590D02*
X147949590Y-92047990D01*
X145237200Y-88341200D02*
X147949590Y-91053590D01*
G04 #@! TO.N,SWDCLK*
X132539400Y-89214000D02*
X133952600Y-90627200D01*
X131764400Y-89214000D02*
X132539400Y-89214000D01*
X133952600Y-90627200D02*
X140131800Y-90627200D01*
X141970010Y-88788990D02*
X145100790Y-88788990D01*
X140131800Y-90627200D02*
X141970010Y-88788990D01*
X145100790Y-88788990D02*
X146380200Y-90068400D01*
X146380200Y-92978600D02*
X149199600Y-95798000D01*
X146380200Y-90068400D02*
X146380200Y-92978600D01*
G04 #@! TO.N,TX*
X136689400Y-86453308D02*
X136689400Y-87289000D01*
X136075071Y-85838979D02*
X136689400Y-86453308D01*
X116954621Y-85838979D02*
X136075071Y-85838979D01*
X114401600Y-88392000D02*
X116954621Y-85838979D01*
G04 #@! TO.N,Net-(SW2-Pad8)*
X134696200Y-102692200D02*
X134696200Y-102730600D01*
X137189400Y-100199000D02*
X134696200Y-102692200D01*
X137189400Y-98639000D02*
X137189400Y-100199000D01*
G04 #@! TO.N,Net-(SW2-Pad7)*
X137689400Y-102277400D02*
X137236200Y-102730600D01*
X137689400Y-98639000D02*
X137689400Y-102277400D01*
G04 #@! TO.N,Net-(SW2-Pad6)*
X138189400Y-99683000D02*
X139776200Y-101269800D01*
X139776200Y-101269800D02*
X139776200Y-102730600D01*
X138189400Y-98639000D02*
X138189400Y-99683000D01*
G04 #@! TO.N,Net-(SW2-Pad5)*
X142006000Y-102730600D02*
X142316200Y-102730600D01*
X138689400Y-99414000D02*
X142006000Y-102730600D01*
X138689400Y-98639000D02*
X138689400Y-99414000D01*
G04 #@! TO.N,RX*
X121386600Y-89255600D02*
X121513600Y-89382600D01*
X121513600Y-93167200D02*
X121539000Y-93192600D01*
X121539000Y-90500200D02*
X121539000Y-93192600D01*
X125800210Y-86238990D02*
X121539000Y-90500200D01*
X135909382Y-86238990D02*
X125800210Y-86238990D01*
X136189400Y-86519008D02*
X135909382Y-86238990D01*
X136189400Y-87289000D02*
X136189400Y-86519008D01*
D29*
G04 #@! TO.N,BT_CONN*
X185166000Y-106406700D02*
X185111000Y-106461700D01*
X185166000Y-95402400D02*
X185166000Y-106406700D01*
X139689400Y-86514000D02*
X139689400Y-87289000D01*
X139939410Y-86263990D02*
X139689400Y-86514000D01*
X181869590Y-86263990D02*
X139939410Y-86263990D01*
X185191400Y-89585800D02*
X181869590Y-86263990D01*
X185191400Y-91617800D02*
X185191400Y-89585800D01*
G04 #@! TO.N,BT_TX*
X185287411Y-85897211D02*
X190677800Y-91287600D01*
X139806189Y-85897211D02*
X185287411Y-85897211D01*
X139189400Y-86514000D02*
X139806189Y-85897211D01*
X139189400Y-87289000D02*
X139189400Y-86514000D01*
D25*
X190677800Y-91287600D02*
X191008000Y-91617800D01*
X197027800Y-95520210D02*
X196748400Y-95799610D01*
X197027800Y-93544900D02*
X197027800Y-95520210D01*
X197111000Y-93461700D02*
X197027800Y-93544900D01*
D29*
G04 #@! TO.N,BT_RX*
X186105800Y-85547200D02*
X189712600Y-89154000D01*
X139661210Y-85547200D02*
X186105800Y-85547200D01*
X138689400Y-86519010D02*
X139661210Y-85547200D01*
X138689400Y-87289000D02*
X138689400Y-86519010D01*
D25*
X189712600Y-89154000D02*
X192100200Y-91541600D01*
X198611000Y-94682800D02*
X198611000Y-93461700D01*
X198069200Y-95224600D02*
X198611000Y-94682800D01*
X198043800Y-95224600D02*
X198069200Y-95224600D01*
G04 #@! TO.N,Net-(R5-Pad1)*
X133189974Y-111340600D02*
X134696200Y-111340600D01*
X131771174Y-109921800D02*
X133189974Y-111340600D01*
X131267200Y-109921800D02*
X131771174Y-109921800D01*
G04 #@! TO.N,Net-(C17-Pad1)*
X115595400Y-102879400D02*
X115443000Y-103031800D01*
X115595400Y-101262000D02*
X115595400Y-102879400D01*
G04 #@! TD*
D30*
G04 #@! TO.N,GND*
X114814871Y-86903928D02*
X113676600Y-86903928D01*
X113503346Y-86920992D01*
X113336750Y-86971528D01*
X113183214Y-87053595D01*
X113048638Y-87164038D01*
X112938195Y-87298614D01*
X112856128Y-87452150D01*
X112805592Y-87618746D01*
X112788528Y-87792000D01*
X112788528Y-88992000D01*
X112805592Y-89165254D01*
X112856128Y-89331850D01*
X112938195Y-89485386D01*
X113048638Y-89619962D01*
X113183214Y-89730405D01*
X113288561Y-89786714D01*
X113267171Y-89802951D01*
X113074104Y-90020807D01*
X112927248Y-90272142D01*
X112835124Y-90535110D01*
X112956445Y-90765000D01*
X114274600Y-90765000D01*
X114274600Y-90745000D01*
X114528600Y-90745000D01*
X114528600Y-90765000D01*
X115846755Y-90765000D01*
X115968076Y-90535110D01*
X115875952Y-90272142D01*
X115729096Y-90020807D01*
X115536029Y-89802951D01*
X115514639Y-89786714D01*
X115619986Y-89730405D01*
X115754562Y-89619962D01*
X115865005Y-89485386D01*
X115947072Y-89331850D01*
X115997608Y-89165254D01*
X116014672Y-88992000D01*
X116014672Y-87853729D01*
X117269423Y-86598979D01*
X124365419Y-86598979D01*
X122784867Y-88179531D01*
X122637087Y-87958363D01*
X122353637Y-87674913D01*
X122020334Y-87452207D01*
X121649987Y-87298804D01*
X121256830Y-87220600D01*
X120855970Y-87220600D01*
X120462813Y-87298804D01*
X120092466Y-87452207D01*
X119759163Y-87674913D01*
X119475713Y-87958363D01*
X119253007Y-88291666D01*
X119099604Y-88662013D01*
X119021400Y-89055170D01*
X119021400Y-89456030D01*
X119099604Y-89849187D01*
X119253007Y-90219534D01*
X119475713Y-90552837D01*
X119759163Y-90836287D01*
X120092466Y-91058993D01*
X120462813Y-91212396D01*
X120779000Y-91275290D01*
X120779001Y-92488888D01*
X120735063Y-92532826D01*
X120621795Y-92702344D01*
X120543774Y-92890702D01*
X120504000Y-93090661D01*
X120504000Y-93294539D01*
X120543774Y-93494498D01*
X120621795Y-93682856D01*
X120735063Y-93852374D01*
X120879226Y-93996537D01*
X121048744Y-94109805D01*
X121237102Y-94187826D01*
X121437061Y-94227600D01*
X121640939Y-94227600D01*
X121840898Y-94187826D01*
X122029256Y-94109805D01*
X122198774Y-93996537D01*
X122342937Y-93852374D01*
X122456205Y-93682856D01*
X122534226Y-93494498D01*
X122574000Y-93294539D01*
X122574000Y-93090661D01*
X122534226Y-92890702D01*
X122456205Y-92702344D01*
X122342937Y-92532826D01*
X122299000Y-92488889D01*
X122299000Y-90872794D01*
X122353637Y-90836287D01*
X122637087Y-90552837D01*
X122789971Y-90324031D01*
X124135032Y-88978970D01*
X125600000Y-88978970D01*
X125600000Y-89379830D01*
X125678204Y-89772987D01*
X125831607Y-90143334D01*
X126054313Y-90476637D01*
X126337763Y-90760087D01*
X126671066Y-90982793D01*
X127041413Y-91136196D01*
X127434570Y-91214400D01*
X127835430Y-91214400D01*
X128228587Y-91136196D01*
X128598934Y-90982793D01*
X128932237Y-90760087D01*
X129215687Y-90476637D01*
X129438393Y-90143334D01*
X129591796Y-89772987D01*
X129670000Y-89379830D01*
X129670000Y-88978970D01*
X129591796Y-88585813D01*
X129438393Y-88215466D01*
X129215687Y-87882163D01*
X128932237Y-87598713D01*
X128598934Y-87376007D01*
X128228587Y-87222604D01*
X127835430Y-87144400D01*
X127434570Y-87144400D01*
X127041413Y-87222604D01*
X126671066Y-87376007D01*
X126337763Y-87598713D01*
X126054313Y-87882163D01*
X125831607Y-88215466D01*
X125678204Y-88585813D01*
X125600000Y-88978970D01*
X124135032Y-88978970D01*
X126115012Y-86998990D01*
X132901328Y-86998990D01*
X132901328Y-87989000D01*
X132915029Y-88128113D01*
X132929401Y-88175490D01*
X132929401Y-88560705D01*
X132831647Y-88508454D01*
X132688386Y-88464997D01*
X132686541Y-88464815D01*
X132603513Y-88439629D01*
X132464400Y-88425928D01*
X131064400Y-88425928D01*
X130925287Y-88439629D01*
X130791519Y-88480207D01*
X130668238Y-88546102D01*
X130560182Y-88634782D01*
X130471502Y-88742838D01*
X130405607Y-88866119D01*
X130365029Y-88999887D01*
X130351328Y-89139000D01*
X130351328Y-89289000D01*
X130365029Y-89428113D01*
X130375915Y-89464000D01*
X130365029Y-89499887D01*
X130351328Y-89639000D01*
X130351328Y-89789000D01*
X130365029Y-89928113D01*
X130375915Y-89964000D01*
X130365029Y-89999887D01*
X130351328Y-90139000D01*
X130351328Y-90289000D01*
X130365029Y-90428113D01*
X130375915Y-90464000D01*
X130365029Y-90499887D01*
X130351328Y-90639000D01*
X130351328Y-90789000D01*
X130365029Y-90928113D01*
X130375915Y-90964000D01*
X130365029Y-90999887D01*
X130351328Y-91139000D01*
X130351328Y-91289000D01*
X130365029Y-91428113D01*
X130375915Y-91464000D01*
X130365029Y-91499887D01*
X130351328Y-91639000D01*
X130351328Y-91789000D01*
X130355839Y-91834802D01*
X130325694Y-91810063D01*
X130215380Y-91751098D01*
X130095682Y-91714788D01*
X129971200Y-91702528D01*
X129669450Y-91705600D01*
X129510700Y-91864350D01*
X129510700Y-92938600D01*
X129530700Y-92938600D01*
X129530700Y-93192600D01*
X129510700Y-93192600D01*
X129510700Y-94266850D01*
X129669450Y-94425600D01*
X129971200Y-94428672D01*
X130095682Y-94416412D01*
X130215380Y-94380102D01*
X130325694Y-94321137D01*
X130352339Y-94299270D01*
X130365029Y-94428113D01*
X130375915Y-94464000D01*
X130365029Y-94499887D01*
X130351328Y-94639000D01*
X130351328Y-94789000D01*
X130365029Y-94928113D01*
X130375915Y-94964000D01*
X130365029Y-94999887D01*
X130351328Y-95139000D01*
X130351328Y-95289000D01*
X130365029Y-95428113D01*
X130375915Y-95464000D01*
X130365029Y-95499887D01*
X130351328Y-95639000D01*
X130351328Y-95789000D01*
X130365029Y-95928113D01*
X130365602Y-95930003D01*
X130365463Y-95930439D01*
X130354400Y-96032250D01*
X130430382Y-96108232D01*
X130471502Y-96185162D01*
X130495169Y-96214000D01*
X130471502Y-96242838D01*
X130430382Y-96319768D01*
X130354400Y-96395750D01*
X130365463Y-96497561D01*
X130365602Y-96497997D01*
X130365029Y-96499887D01*
X130351328Y-96639000D01*
X130351328Y-96789000D01*
X130365029Y-96928113D01*
X130405607Y-97061881D01*
X130471502Y-97185162D01*
X130560182Y-97293218D01*
X130668238Y-97381898D01*
X130791519Y-97447793D01*
X130925287Y-97488371D01*
X131064400Y-97502072D01*
X132464400Y-97502072D01*
X132603513Y-97488371D01*
X132650888Y-97474000D01*
X133077996Y-97474000D01*
X133021502Y-97542838D01*
X132955607Y-97666119D01*
X132915029Y-97799887D01*
X132901328Y-97939000D01*
X132901328Y-99339000D01*
X132907197Y-99398589D01*
X130267591Y-99398589D01*
X129627592Y-98758591D01*
X129627588Y-98758586D01*
X129194367Y-98325365D01*
X129223200Y-98180411D01*
X129223200Y-97907589D01*
X129169975Y-97640011D01*
X129065571Y-97387957D01*
X128913999Y-97161114D01*
X128721086Y-96968201D01*
X128649000Y-96920035D01*
X128649000Y-94409521D01*
X128671718Y-94416412D01*
X128796200Y-94428672D01*
X129097950Y-94425600D01*
X129256700Y-94266850D01*
X129256700Y-93192600D01*
X129236700Y-93192600D01*
X129236700Y-92938600D01*
X129256700Y-92938600D01*
X129256700Y-91864350D01*
X129097950Y-91705600D01*
X128796200Y-91702528D01*
X128671718Y-91714788D01*
X128552020Y-91751098D01*
X128441706Y-91810063D01*
X128345015Y-91889415D01*
X128279542Y-91969194D01*
X128274162Y-91962638D01*
X128139586Y-91852195D01*
X127986050Y-91770128D01*
X127819454Y-91719592D01*
X127646200Y-91702528D01*
X126971200Y-91702528D01*
X126797946Y-91719592D01*
X126631350Y-91770128D01*
X126477814Y-91852195D01*
X126343238Y-91962638D01*
X126232795Y-92097214D01*
X126150728Y-92250750D01*
X126100192Y-92417346D01*
X126083128Y-92590600D01*
X126083128Y-93540600D01*
X126100192Y-93713854D01*
X126150728Y-93880450D01*
X126232795Y-94033986D01*
X126343238Y-94168562D01*
X126477814Y-94279005D01*
X126631350Y-94361072D01*
X126797946Y-94411608D01*
X126971200Y-94428672D01*
X127129000Y-94428672D01*
X127129001Y-96852147D01*
X126955314Y-96968201D01*
X126762401Y-97161114D01*
X126610829Y-97387957D01*
X126506425Y-97640011D01*
X126453200Y-97907589D01*
X126453200Y-98180411D01*
X126506425Y-98447989D01*
X126610829Y-98700043D01*
X126762401Y-98926886D01*
X126955314Y-99119799D01*
X127182157Y-99271371D01*
X127434211Y-99375775D01*
X127701789Y-99429000D01*
X127974611Y-99429000D01*
X128119565Y-99400167D01*
X128552786Y-99833388D01*
X128552791Y-99833392D01*
X129203398Y-100484000D01*
X128119565Y-101567833D01*
X127974611Y-101539000D01*
X127701789Y-101539000D01*
X127434211Y-101592225D01*
X127182157Y-101696629D01*
X126955314Y-101848201D01*
X126762401Y-102041114D01*
X126742420Y-102071018D01*
X125647400Y-100975999D01*
X125647400Y-100913861D01*
X125607626Y-100713902D01*
X125529605Y-100525544D01*
X125416337Y-100356026D01*
X125272174Y-100211863D01*
X125102656Y-100098595D01*
X124914298Y-100020574D01*
X124714339Y-99980800D01*
X124510461Y-99980800D01*
X124310502Y-100020574D01*
X124122144Y-100098595D01*
X123952626Y-100211863D01*
X123808463Y-100356026D01*
X123695195Y-100525544D01*
X123617174Y-100713902D01*
X123577400Y-100913861D01*
X123577400Y-101117739D01*
X123617174Y-101317698D01*
X123695195Y-101506056D01*
X123808463Y-101675574D01*
X123952626Y-101819737D01*
X124122144Y-101933005D01*
X124310502Y-102011026D01*
X124510461Y-102050800D01*
X124572599Y-102050800D01*
X125528801Y-103007003D01*
X125528800Y-109017125D01*
X125328086Y-108977200D01*
X125065114Y-108977200D01*
X124807195Y-109028504D01*
X124564241Y-109129139D01*
X124345587Y-109275238D01*
X124159638Y-109461187D01*
X124013539Y-109679841D01*
X123912904Y-109922795D01*
X123861600Y-110180714D01*
X123861600Y-110443686D01*
X123912904Y-110701605D01*
X124013539Y-110944559D01*
X124159638Y-111163213D01*
X124345587Y-111349162D01*
X124564241Y-111495261D01*
X124807195Y-111595896D01*
X125065114Y-111647200D01*
X125328086Y-111647200D01*
X125586005Y-111595896D01*
X125665174Y-111563103D01*
X125693671Y-111597826D01*
X125748799Y-111665001D01*
X125777803Y-111688804D01*
X127033101Y-112944103D01*
X127056899Y-112973101D01*
X127172624Y-113068074D01*
X127304653Y-113138646D01*
X127447914Y-113182103D01*
X127559567Y-113193100D01*
X127559575Y-113193100D01*
X127596900Y-113196776D01*
X127634225Y-113193100D01*
X129774933Y-113193100D01*
X129777512Y-113196243D01*
X130871268Y-114290000D01*
X107710000Y-114290000D01*
X107710000Y-112720714D01*
X121321600Y-112720714D01*
X121321600Y-112983686D01*
X121372904Y-113241605D01*
X121473539Y-113484559D01*
X121619638Y-113703213D01*
X121805587Y-113889162D01*
X122024241Y-114035261D01*
X122267195Y-114135896D01*
X122525114Y-114187200D01*
X122788086Y-114187200D01*
X123046005Y-114135896D01*
X123288959Y-114035261D01*
X123507613Y-113889162D01*
X123693562Y-113703213D01*
X123839661Y-113484559D01*
X123940296Y-113241605D01*
X123991600Y-112983686D01*
X123991600Y-112720714D01*
X123940296Y-112462795D01*
X123839661Y-112219841D01*
X123693562Y-112001187D01*
X123507613Y-111815238D01*
X123288959Y-111669139D01*
X123046005Y-111568504D01*
X122788086Y-111517200D01*
X122525114Y-111517200D01*
X122267195Y-111568504D01*
X122024241Y-111669139D01*
X121805587Y-111815238D01*
X121619638Y-112001187D01*
X121473539Y-112219841D01*
X121372904Y-112462795D01*
X121321600Y-112720714D01*
X107710000Y-112720714D01*
X107710000Y-110209990D01*
X112899024Y-110209990D01*
X112900946Y-110222361D01*
X113000646Y-110496109D01*
X113151836Y-110745146D01*
X113348705Y-110959902D01*
X113583688Y-111132125D01*
X113847755Y-111255196D01*
X114130758Y-111324385D01*
X114363500Y-111180332D01*
X114363500Y-109980100D01*
X114617500Y-109980100D01*
X114617500Y-111180332D01*
X114850242Y-111324385D01*
X115133245Y-111255196D01*
X115397312Y-111132125D01*
X115632295Y-110959902D01*
X115829164Y-110745146D01*
X115980354Y-110496109D01*
X116080054Y-110222361D01*
X116081976Y-110209990D01*
X115960655Y-109980100D01*
X114617500Y-109980100D01*
X114363500Y-109980100D01*
X113020345Y-109980100D01*
X112899024Y-110209990D01*
X107710000Y-110209990D01*
X107710000Y-106753100D01*
X112852428Y-106753100D01*
X112852428Y-107953100D01*
X112869492Y-108126354D01*
X112920028Y-108292950D01*
X113002095Y-108446486D01*
X113030000Y-108480489D01*
X113030000Y-108737400D01*
X113032440Y-108762176D01*
X113039667Y-108786001D01*
X113051403Y-108807957D01*
X113067197Y-108827203D01*
X113086443Y-108842997D01*
X113108399Y-108854733D01*
X113132224Y-108861960D01*
X113157000Y-108864400D01*
X113240440Y-108864400D01*
X113151836Y-108961054D01*
X113000646Y-109210091D01*
X112900946Y-109483839D01*
X112899024Y-109496210D01*
X113020345Y-109726100D01*
X114363500Y-109726100D01*
X114363500Y-109706100D01*
X114617500Y-109706100D01*
X114617500Y-109726100D01*
X115960655Y-109726100D01*
X116081976Y-109496210D01*
X116080054Y-109483839D01*
X115980354Y-109210091D01*
X115829164Y-108961054D01*
X115740560Y-108864400D01*
X116941600Y-108864400D01*
X116941600Y-111836200D01*
X116944040Y-111860976D01*
X116951267Y-111884801D01*
X116963003Y-111906757D01*
X116978797Y-111926003D01*
X116998043Y-111941797D01*
X117019999Y-111953533D01*
X117043824Y-111960760D01*
X117068600Y-111963200D01*
X119583200Y-111963200D01*
X119607976Y-111960760D01*
X119631801Y-111953533D01*
X119653757Y-111941797D01*
X119673003Y-111926003D01*
X119688797Y-111906757D01*
X119700533Y-111884801D01*
X119707760Y-111860976D01*
X119710200Y-111836200D01*
X119710200Y-107072200D01*
X121318528Y-107072200D01*
X121318528Y-108472200D01*
X121330788Y-108596682D01*
X121367098Y-108716380D01*
X121426063Y-108826694D01*
X121505415Y-108923385D01*
X121602106Y-109002737D01*
X121712420Y-109061702D01*
X121832118Y-109098012D01*
X121956600Y-109110272D01*
X123356600Y-109110272D01*
X123481082Y-109098012D01*
X123600780Y-109061702D01*
X123711094Y-109002737D01*
X123807785Y-108923385D01*
X123887137Y-108826694D01*
X123946102Y-108716380D01*
X123982412Y-108596682D01*
X123994672Y-108472200D01*
X123994672Y-107072200D01*
X123982412Y-106947718D01*
X123946102Y-106828020D01*
X123887137Y-106717706D01*
X123807785Y-106621015D01*
X123711094Y-106541663D01*
X123600780Y-106482698D01*
X123481082Y-106446388D01*
X123356600Y-106434128D01*
X121956600Y-106434128D01*
X121832118Y-106446388D01*
X121712420Y-106482698D01*
X121602106Y-106541663D01*
X121505415Y-106621015D01*
X121426063Y-106717706D01*
X121367098Y-106828020D01*
X121330788Y-106947718D01*
X121318528Y-107072200D01*
X119710200Y-107072200D01*
X119710200Y-104571800D01*
X119707760Y-104547024D01*
X119700533Y-104523199D01*
X119688797Y-104501243D01*
X119673003Y-104481997D01*
X119653757Y-104466203D01*
X119631801Y-104454467D01*
X119607976Y-104447240D01*
X119583200Y-104444800D01*
X117144800Y-104444800D01*
X117120024Y-104447240D01*
X117096199Y-104454467D01*
X117074243Y-104466203D01*
X117054997Y-104481997D01*
X117039203Y-104501243D01*
X117027467Y-104523199D01*
X117020240Y-104547024D01*
X117017800Y-104571800D01*
X117017800Y-106146600D01*
X115886075Y-106146600D01*
X115868462Y-106125138D01*
X115733886Y-106014695D01*
X115580350Y-105932628D01*
X115413754Y-105882092D01*
X115240500Y-105865028D01*
X113740500Y-105865028D01*
X113567246Y-105882092D01*
X113400650Y-105932628D01*
X113247114Y-106014695D01*
X113112538Y-106125138D01*
X113002095Y-106259714D01*
X112920028Y-106413250D01*
X112869492Y-106579846D01*
X112852428Y-106753100D01*
X107710000Y-106753100D01*
X107710000Y-102700881D01*
X108425924Y-102700881D01*
X108786112Y-103190548D01*
X109450082Y-103550849D01*
X110171585Y-103774694D01*
X110922895Y-103853480D01*
X111675138Y-103784178D01*
X112399408Y-103569452D01*
X113067870Y-103217555D01*
X113108288Y-103190548D01*
X113468476Y-102700881D01*
X110947200Y-100179605D01*
X108425924Y-102700881D01*
X107710000Y-102700881D01*
X107710000Y-102083352D01*
X107729645Y-102120670D01*
X107756652Y-102161088D01*
X108246319Y-102521276D01*
X110767595Y-100000000D01*
X111126805Y-100000000D01*
X113648081Y-102521276D01*
X114137748Y-102161088D01*
X114284920Y-101889876D01*
X114299928Y-101939350D01*
X114381995Y-102092886D01*
X114492438Y-102227462D01*
X114627014Y-102337905D01*
X114657102Y-102353987D01*
X114639063Y-102372026D01*
X114525795Y-102541544D01*
X114447774Y-102729902D01*
X114408000Y-102929861D01*
X114408000Y-103133739D01*
X114447774Y-103333698D01*
X114525795Y-103522056D01*
X114639063Y-103691574D01*
X114783226Y-103835737D01*
X114952744Y-103949005D01*
X115141102Y-104027026D01*
X115341061Y-104066800D01*
X115544939Y-104066800D01*
X115744898Y-104027026D01*
X115933256Y-103949005D01*
X116102774Y-103835737D01*
X116246937Y-103691574D01*
X116360205Y-103522056D01*
X116438226Y-103333698D01*
X116478000Y-103133739D01*
X116478000Y-102929861D01*
X116438226Y-102729902D01*
X116360205Y-102541544D01*
X116355400Y-102534353D01*
X116355400Y-102436610D01*
X116410250Y-102419972D01*
X116563786Y-102337905D01*
X116698362Y-102227462D01*
X116808805Y-102092886D01*
X116890872Y-101939350D01*
X116941408Y-101772754D01*
X116958472Y-101599500D01*
X116958472Y-100924500D01*
X116941408Y-100751246D01*
X116890872Y-100584650D01*
X116808805Y-100431114D01*
X116698362Y-100296538D01*
X116691806Y-100291158D01*
X116771585Y-100225685D01*
X116850937Y-100128994D01*
X116909902Y-100018680D01*
X116946212Y-99898982D01*
X116958472Y-99774500D01*
X116955400Y-99472750D01*
X116796650Y-99314000D01*
X115722400Y-99314000D01*
X115722400Y-99334000D01*
X115468400Y-99334000D01*
X115468400Y-99314000D01*
X115448400Y-99314000D01*
X115448400Y-99060000D01*
X115468400Y-99060000D01*
X115468400Y-98123250D01*
X115722400Y-98123250D01*
X115722400Y-99060000D01*
X116796650Y-99060000D01*
X116955400Y-98901250D01*
X116958472Y-98599500D01*
X116946212Y-98475018D01*
X116909902Y-98355320D01*
X116850937Y-98245006D01*
X116771585Y-98148315D01*
X116674894Y-98068963D01*
X116564580Y-98009998D01*
X116444882Y-97973688D01*
X116320400Y-97961428D01*
X115881150Y-97964500D01*
X115722400Y-98123250D01*
X115468400Y-98123250D01*
X115309650Y-97964500D01*
X114870400Y-97961428D01*
X114745918Y-97973688D01*
X114626220Y-98009998D01*
X114515906Y-98068963D01*
X114419215Y-98148315D01*
X114350460Y-98232094D01*
X114164755Y-97879330D01*
X114137748Y-97838912D01*
X113648081Y-97478724D01*
X111126805Y-100000000D01*
X110767595Y-100000000D01*
X108246319Y-97478724D01*
X107756652Y-97838912D01*
X107710000Y-97924883D01*
X107710000Y-97299119D01*
X108425924Y-97299119D01*
X110947200Y-99820395D01*
X113468476Y-97299119D01*
X113108288Y-96809452D01*
X112444318Y-96449151D01*
X111722815Y-96225306D01*
X110971505Y-96146520D01*
X110219262Y-96215822D01*
X109494992Y-96430548D01*
X108826530Y-96782445D01*
X108786112Y-96809452D01*
X108425924Y-97299119D01*
X107710000Y-97299119D01*
X107710000Y-93392000D01*
X112784415Y-93392000D01*
X112813087Y-93683111D01*
X112898001Y-93963034D01*
X113035894Y-94221014D01*
X113221466Y-94447134D01*
X113447586Y-94632706D01*
X113705566Y-94770599D01*
X113985489Y-94855513D01*
X114203650Y-94877000D01*
X114599550Y-94877000D01*
X114817711Y-94855513D01*
X115097634Y-94770599D01*
X115355614Y-94632706D01*
X115581734Y-94447134D01*
X115767306Y-94221014D01*
X115905199Y-93963034D01*
X115990113Y-93683111D01*
X116018785Y-93392000D01*
X115990113Y-93100889D01*
X115905199Y-92820966D01*
X115767306Y-92562986D01*
X115581734Y-92336866D01*
X115355614Y-92151294D01*
X115329878Y-92137538D01*
X115536029Y-91981049D01*
X115729096Y-91763193D01*
X115875952Y-91511858D01*
X115968076Y-91248890D01*
X115846755Y-91019000D01*
X114528600Y-91019000D01*
X114528600Y-91039000D01*
X114274600Y-91039000D01*
X114274600Y-91019000D01*
X112956445Y-91019000D01*
X112835124Y-91248890D01*
X112927248Y-91511858D01*
X113074104Y-91763193D01*
X113267171Y-91981049D01*
X113473322Y-92137538D01*
X113447586Y-92151294D01*
X113221466Y-92336866D01*
X113035894Y-92562986D01*
X112898001Y-92820966D01*
X112813087Y-93100889D01*
X112784415Y-93392000D01*
X107710000Y-93392000D01*
X107710000Y-85710000D01*
X116008798Y-85710000D01*
X114814871Y-86903928D01*
G04 #@! TA.AperFunction,Conductor*
D31*
G36*
X114814871Y-86903928D02*
G01*
X113676600Y-86903928D01*
X113503346Y-86920992D01*
X113336750Y-86971528D01*
X113183214Y-87053595D01*
X113048638Y-87164038D01*
X112938195Y-87298614D01*
X112856128Y-87452150D01*
X112805592Y-87618746D01*
X112788528Y-87792000D01*
X112788528Y-88992000D01*
X112805592Y-89165254D01*
X112856128Y-89331850D01*
X112938195Y-89485386D01*
X113048638Y-89619962D01*
X113183214Y-89730405D01*
X113288561Y-89786714D01*
X113267171Y-89802951D01*
X113074104Y-90020807D01*
X112927248Y-90272142D01*
X112835124Y-90535110D01*
X112956445Y-90765000D01*
X114274600Y-90765000D01*
X114274600Y-90745000D01*
X114528600Y-90745000D01*
X114528600Y-90765000D01*
X115846755Y-90765000D01*
X115968076Y-90535110D01*
X115875952Y-90272142D01*
X115729096Y-90020807D01*
X115536029Y-89802951D01*
X115514639Y-89786714D01*
X115619986Y-89730405D01*
X115754562Y-89619962D01*
X115865005Y-89485386D01*
X115947072Y-89331850D01*
X115997608Y-89165254D01*
X116014672Y-88992000D01*
X116014672Y-87853729D01*
X117269423Y-86598979D01*
X124365419Y-86598979D01*
X122784867Y-88179531D01*
X122637087Y-87958363D01*
X122353637Y-87674913D01*
X122020334Y-87452207D01*
X121649987Y-87298804D01*
X121256830Y-87220600D01*
X120855970Y-87220600D01*
X120462813Y-87298804D01*
X120092466Y-87452207D01*
X119759163Y-87674913D01*
X119475713Y-87958363D01*
X119253007Y-88291666D01*
X119099604Y-88662013D01*
X119021400Y-89055170D01*
X119021400Y-89456030D01*
X119099604Y-89849187D01*
X119253007Y-90219534D01*
X119475713Y-90552837D01*
X119759163Y-90836287D01*
X120092466Y-91058993D01*
X120462813Y-91212396D01*
X120779000Y-91275290D01*
X120779001Y-92488888D01*
X120735063Y-92532826D01*
X120621795Y-92702344D01*
X120543774Y-92890702D01*
X120504000Y-93090661D01*
X120504000Y-93294539D01*
X120543774Y-93494498D01*
X120621795Y-93682856D01*
X120735063Y-93852374D01*
X120879226Y-93996537D01*
X121048744Y-94109805D01*
X121237102Y-94187826D01*
X121437061Y-94227600D01*
X121640939Y-94227600D01*
X121840898Y-94187826D01*
X122029256Y-94109805D01*
X122198774Y-93996537D01*
X122342937Y-93852374D01*
X122456205Y-93682856D01*
X122534226Y-93494498D01*
X122574000Y-93294539D01*
X122574000Y-93090661D01*
X122534226Y-92890702D01*
X122456205Y-92702344D01*
X122342937Y-92532826D01*
X122299000Y-92488889D01*
X122299000Y-90872794D01*
X122353637Y-90836287D01*
X122637087Y-90552837D01*
X122789971Y-90324031D01*
X124135032Y-88978970D01*
X125600000Y-88978970D01*
X125600000Y-89379830D01*
X125678204Y-89772987D01*
X125831607Y-90143334D01*
X126054313Y-90476637D01*
X126337763Y-90760087D01*
X126671066Y-90982793D01*
X127041413Y-91136196D01*
X127434570Y-91214400D01*
X127835430Y-91214400D01*
X128228587Y-91136196D01*
X128598934Y-90982793D01*
X128932237Y-90760087D01*
X129215687Y-90476637D01*
X129438393Y-90143334D01*
X129591796Y-89772987D01*
X129670000Y-89379830D01*
X129670000Y-88978970D01*
X129591796Y-88585813D01*
X129438393Y-88215466D01*
X129215687Y-87882163D01*
X128932237Y-87598713D01*
X128598934Y-87376007D01*
X128228587Y-87222604D01*
X127835430Y-87144400D01*
X127434570Y-87144400D01*
X127041413Y-87222604D01*
X126671066Y-87376007D01*
X126337763Y-87598713D01*
X126054313Y-87882163D01*
X125831607Y-88215466D01*
X125678204Y-88585813D01*
X125600000Y-88978970D01*
X124135032Y-88978970D01*
X126115012Y-86998990D01*
X132901328Y-86998990D01*
X132901328Y-87989000D01*
X132915029Y-88128113D01*
X132929401Y-88175490D01*
X132929401Y-88560705D01*
X132831647Y-88508454D01*
X132688386Y-88464997D01*
X132686541Y-88464815D01*
X132603513Y-88439629D01*
X132464400Y-88425928D01*
X131064400Y-88425928D01*
X130925287Y-88439629D01*
X130791519Y-88480207D01*
X130668238Y-88546102D01*
X130560182Y-88634782D01*
X130471502Y-88742838D01*
X130405607Y-88866119D01*
X130365029Y-88999887D01*
X130351328Y-89139000D01*
X130351328Y-89289000D01*
X130365029Y-89428113D01*
X130375915Y-89464000D01*
X130365029Y-89499887D01*
X130351328Y-89639000D01*
X130351328Y-89789000D01*
X130365029Y-89928113D01*
X130375915Y-89964000D01*
X130365029Y-89999887D01*
X130351328Y-90139000D01*
X130351328Y-90289000D01*
X130365029Y-90428113D01*
X130375915Y-90464000D01*
X130365029Y-90499887D01*
X130351328Y-90639000D01*
X130351328Y-90789000D01*
X130365029Y-90928113D01*
X130375915Y-90964000D01*
X130365029Y-90999887D01*
X130351328Y-91139000D01*
X130351328Y-91289000D01*
X130365029Y-91428113D01*
X130375915Y-91464000D01*
X130365029Y-91499887D01*
X130351328Y-91639000D01*
X130351328Y-91789000D01*
X130355839Y-91834802D01*
X130325694Y-91810063D01*
X130215380Y-91751098D01*
X130095682Y-91714788D01*
X129971200Y-91702528D01*
X129669450Y-91705600D01*
X129510700Y-91864350D01*
X129510700Y-92938600D01*
X129530700Y-92938600D01*
X129530700Y-93192600D01*
X129510700Y-93192600D01*
X129510700Y-94266850D01*
X129669450Y-94425600D01*
X129971200Y-94428672D01*
X130095682Y-94416412D01*
X130215380Y-94380102D01*
X130325694Y-94321137D01*
X130352339Y-94299270D01*
X130365029Y-94428113D01*
X130375915Y-94464000D01*
X130365029Y-94499887D01*
X130351328Y-94639000D01*
X130351328Y-94789000D01*
X130365029Y-94928113D01*
X130375915Y-94964000D01*
X130365029Y-94999887D01*
X130351328Y-95139000D01*
X130351328Y-95289000D01*
X130365029Y-95428113D01*
X130375915Y-95464000D01*
X130365029Y-95499887D01*
X130351328Y-95639000D01*
X130351328Y-95789000D01*
X130365029Y-95928113D01*
X130365602Y-95930003D01*
X130365463Y-95930439D01*
X130354400Y-96032250D01*
X130430382Y-96108232D01*
X130471502Y-96185162D01*
X130495169Y-96214000D01*
X130471502Y-96242838D01*
X130430382Y-96319768D01*
X130354400Y-96395750D01*
X130365463Y-96497561D01*
X130365602Y-96497997D01*
X130365029Y-96499887D01*
X130351328Y-96639000D01*
X130351328Y-96789000D01*
X130365029Y-96928113D01*
X130405607Y-97061881D01*
X130471502Y-97185162D01*
X130560182Y-97293218D01*
X130668238Y-97381898D01*
X130791519Y-97447793D01*
X130925287Y-97488371D01*
X131064400Y-97502072D01*
X132464400Y-97502072D01*
X132603513Y-97488371D01*
X132650888Y-97474000D01*
X133077996Y-97474000D01*
X133021502Y-97542838D01*
X132955607Y-97666119D01*
X132915029Y-97799887D01*
X132901328Y-97939000D01*
X132901328Y-99339000D01*
X132907197Y-99398589D01*
X130267591Y-99398589D01*
X129627592Y-98758591D01*
X129627588Y-98758586D01*
X129194367Y-98325365D01*
X129223200Y-98180411D01*
X129223200Y-97907589D01*
X129169975Y-97640011D01*
X129065571Y-97387957D01*
X128913999Y-97161114D01*
X128721086Y-96968201D01*
X128649000Y-96920035D01*
X128649000Y-94409521D01*
X128671718Y-94416412D01*
X128796200Y-94428672D01*
X129097950Y-94425600D01*
X129256700Y-94266850D01*
X129256700Y-93192600D01*
X129236700Y-93192600D01*
X129236700Y-92938600D01*
X129256700Y-92938600D01*
X129256700Y-91864350D01*
X129097950Y-91705600D01*
X128796200Y-91702528D01*
X128671718Y-91714788D01*
X128552020Y-91751098D01*
X128441706Y-91810063D01*
X128345015Y-91889415D01*
X128279542Y-91969194D01*
X128274162Y-91962638D01*
X128139586Y-91852195D01*
X127986050Y-91770128D01*
X127819454Y-91719592D01*
X127646200Y-91702528D01*
X126971200Y-91702528D01*
X126797946Y-91719592D01*
X126631350Y-91770128D01*
X126477814Y-91852195D01*
X126343238Y-91962638D01*
X126232795Y-92097214D01*
X126150728Y-92250750D01*
X126100192Y-92417346D01*
X126083128Y-92590600D01*
X126083128Y-93540600D01*
X126100192Y-93713854D01*
X126150728Y-93880450D01*
X126232795Y-94033986D01*
X126343238Y-94168562D01*
X126477814Y-94279005D01*
X126631350Y-94361072D01*
X126797946Y-94411608D01*
X126971200Y-94428672D01*
X127129000Y-94428672D01*
X127129001Y-96852147D01*
X126955314Y-96968201D01*
X126762401Y-97161114D01*
X126610829Y-97387957D01*
X126506425Y-97640011D01*
X126453200Y-97907589D01*
X126453200Y-98180411D01*
X126506425Y-98447989D01*
X126610829Y-98700043D01*
X126762401Y-98926886D01*
X126955314Y-99119799D01*
X127182157Y-99271371D01*
X127434211Y-99375775D01*
X127701789Y-99429000D01*
X127974611Y-99429000D01*
X128119565Y-99400167D01*
X128552786Y-99833388D01*
X128552791Y-99833392D01*
X129203398Y-100484000D01*
X128119565Y-101567833D01*
X127974611Y-101539000D01*
X127701789Y-101539000D01*
X127434211Y-101592225D01*
X127182157Y-101696629D01*
X126955314Y-101848201D01*
X126762401Y-102041114D01*
X126742420Y-102071018D01*
X125647400Y-100975999D01*
X125647400Y-100913861D01*
X125607626Y-100713902D01*
X125529605Y-100525544D01*
X125416337Y-100356026D01*
X125272174Y-100211863D01*
X125102656Y-100098595D01*
X124914298Y-100020574D01*
X124714339Y-99980800D01*
X124510461Y-99980800D01*
X124310502Y-100020574D01*
X124122144Y-100098595D01*
X123952626Y-100211863D01*
X123808463Y-100356026D01*
X123695195Y-100525544D01*
X123617174Y-100713902D01*
X123577400Y-100913861D01*
X123577400Y-101117739D01*
X123617174Y-101317698D01*
X123695195Y-101506056D01*
X123808463Y-101675574D01*
X123952626Y-101819737D01*
X124122144Y-101933005D01*
X124310502Y-102011026D01*
X124510461Y-102050800D01*
X124572599Y-102050800D01*
X125528801Y-103007003D01*
X125528800Y-109017125D01*
X125328086Y-108977200D01*
X125065114Y-108977200D01*
X124807195Y-109028504D01*
X124564241Y-109129139D01*
X124345587Y-109275238D01*
X124159638Y-109461187D01*
X124013539Y-109679841D01*
X123912904Y-109922795D01*
X123861600Y-110180714D01*
X123861600Y-110443686D01*
X123912904Y-110701605D01*
X124013539Y-110944559D01*
X124159638Y-111163213D01*
X124345587Y-111349162D01*
X124564241Y-111495261D01*
X124807195Y-111595896D01*
X125065114Y-111647200D01*
X125328086Y-111647200D01*
X125586005Y-111595896D01*
X125665174Y-111563103D01*
X125693671Y-111597826D01*
X125748799Y-111665001D01*
X125777803Y-111688804D01*
X127033101Y-112944103D01*
X127056899Y-112973101D01*
X127172624Y-113068074D01*
X127304653Y-113138646D01*
X127447914Y-113182103D01*
X127559567Y-113193100D01*
X127559575Y-113193100D01*
X127596900Y-113196776D01*
X127634225Y-113193100D01*
X129774933Y-113193100D01*
X129777512Y-113196243D01*
X130871268Y-114290000D01*
X107710000Y-114290000D01*
X107710000Y-112720714D01*
X121321600Y-112720714D01*
X121321600Y-112983686D01*
X121372904Y-113241605D01*
X121473539Y-113484559D01*
X121619638Y-113703213D01*
X121805587Y-113889162D01*
X122024241Y-114035261D01*
X122267195Y-114135896D01*
X122525114Y-114187200D01*
X122788086Y-114187200D01*
X123046005Y-114135896D01*
X123288959Y-114035261D01*
X123507613Y-113889162D01*
X123693562Y-113703213D01*
X123839661Y-113484559D01*
X123940296Y-113241605D01*
X123991600Y-112983686D01*
X123991600Y-112720714D01*
X123940296Y-112462795D01*
X123839661Y-112219841D01*
X123693562Y-112001187D01*
X123507613Y-111815238D01*
X123288959Y-111669139D01*
X123046005Y-111568504D01*
X122788086Y-111517200D01*
X122525114Y-111517200D01*
X122267195Y-111568504D01*
X122024241Y-111669139D01*
X121805587Y-111815238D01*
X121619638Y-112001187D01*
X121473539Y-112219841D01*
X121372904Y-112462795D01*
X121321600Y-112720714D01*
X107710000Y-112720714D01*
X107710000Y-110209990D01*
X112899024Y-110209990D01*
X112900946Y-110222361D01*
X113000646Y-110496109D01*
X113151836Y-110745146D01*
X113348705Y-110959902D01*
X113583688Y-111132125D01*
X113847755Y-111255196D01*
X114130758Y-111324385D01*
X114363500Y-111180332D01*
X114363500Y-109980100D01*
X114617500Y-109980100D01*
X114617500Y-111180332D01*
X114850242Y-111324385D01*
X115133245Y-111255196D01*
X115397312Y-111132125D01*
X115632295Y-110959902D01*
X115829164Y-110745146D01*
X115980354Y-110496109D01*
X116080054Y-110222361D01*
X116081976Y-110209990D01*
X115960655Y-109980100D01*
X114617500Y-109980100D01*
X114363500Y-109980100D01*
X113020345Y-109980100D01*
X112899024Y-110209990D01*
X107710000Y-110209990D01*
X107710000Y-106753100D01*
X112852428Y-106753100D01*
X112852428Y-107953100D01*
X112869492Y-108126354D01*
X112920028Y-108292950D01*
X113002095Y-108446486D01*
X113030000Y-108480489D01*
X113030000Y-108737400D01*
X113032440Y-108762176D01*
X113039667Y-108786001D01*
X113051403Y-108807957D01*
X113067197Y-108827203D01*
X113086443Y-108842997D01*
X113108399Y-108854733D01*
X113132224Y-108861960D01*
X113157000Y-108864400D01*
X113240440Y-108864400D01*
X113151836Y-108961054D01*
X113000646Y-109210091D01*
X112900946Y-109483839D01*
X112899024Y-109496210D01*
X113020345Y-109726100D01*
X114363500Y-109726100D01*
X114363500Y-109706100D01*
X114617500Y-109706100D01*
X114617500Y-109726100D01*
X115960655Y-109726100D01*
X116081976Y-109496210D01*
X116080054Y-109483839D01*
X115980354Y-109210091D01*
X115829164Y-108961054D01*
X115740560Y-108864400D01*
X116941600Y-108864400D01*
X116941600Y-111836200D01*
X116944040Y-111860976D01*
X116951267Y-111884801D01*
X116963003Y-111906757D01*
X116978797Y-111926003D01*
X116998043Y-111941797D01*
X117019999Y-111953533D01*
X117043824Y-111960760D01*
X117068600Y-111963200D01*
X119583200Y-111963200D01*
X119607976Y-111960760D01*
X119631801Y-111953533D01*
X119653757Y-111941797D01*
X119673003Y-111926003D01*
X119688797Y-111906757D01*
X119700533Y-111884801D01*
X119707760Y-111860976D01*
X119710200Y-111836200D01*
X119710200Y-107072200D01*
X121318528Y-107072200D01*
X121318528Y-108472200D01*
X121330788Y-108596682D01*
X121367098Y-108716380D01*
X121426063Y-108826694D01*
X121505415Y-108923385D01*
X121602106Y-109002737D01*
X121712420Y-109061702D01*
X121832118Y-109098012D01*
X121956600Y-109110272D01*
X123356600Y-109110272D01*
X123481082Y-109098012D01*
X123600780Y-109061702D01*
X123711094Y-109002737D01*
X123807785Y-108923385D01*
X123887137Y-108826694D01*
X123946102Y-108716380D01*
X123982412Y-108596682D01*
X123994672Y-108472200D01*
X123994672Y-107072200D01*
X123982412Y-106947718D01*
X123946102Y-106828020D01*
X123887137Y-106717706D01*
X123807785Y-106621015D01*
X123711094Y-106541663D01*
X123600780Y-106482698D01*
X123481082Y-106446388D01*
X123356600Y-106434128D01*
X121956600Y-106434128D01*
X121832118Y-106446388D01*
X121712420Y-106482698D01*
X121602106Y-106541663D01*
X121505415Y-106621015D01*
X121426063Y-106717706D01*
X121367098Y-106828020D01*
X121330788Y-106947718D01*
X121318528Y-107072200D01*
X119710200Y-107072200D01*
X119710200Y-104571800D01*
X119707760Y-104547024D01*
X119700533Y-104523199D01*
X119688797Y-104501243D01*
X119673003Y-104481997D01*
X119653757Y-104466203D01*
X119631801Y-104454467D01*
X119607976Y-104447240D01*
X119583200Y-104444800D01*
X117144800Y-104444800D01*
X117120024Y-104447240D01*
X117096199Y-104454467D01*
X117074243Y-104466203D01*
X117054997Y-104481997D01*
X117039203Y-104501243D01*
X117027467Y-104523199D01*
X117020240Y-104547024D01*
X117017800Y-104571800D01*
X117017800Y-106146600D01*
X115886075Y-106146600D01*
X115868462Y-106125138D01*
X115733886Y-106014695D01*
X115580350Y-105932628D01*
X115413754Y-105882092D01*
X115240500Y-105865028D01*
X113740500Y-105865028D01*
X113567246Y-105882092D01*
X113400650Y-105932628D01*
X113247114Y-106014695D01*
X113112538Y-106125138D01*
X113002095Y-106259714D01*
X112920028Y-106413250D01*
X112869492Y-106579846D01*
X112852428Y-106753100D01*
X107710000Y-106753100D01*
X107710000Y-102700881D01*
X108425924Y-102700881D01*
X108786112Y-103190548D01*
X109450082Y-103550849D01*
X110171585Y-103774694D01*
X110922895Y-103853480D01*
X111675138Y-103784178D01*
X112399408Y-103569452D01*
X113067870Y-103217555D01*
X113108288Y-103190548D01*
X113468476Y-102700881D01*
X110947200Y-100179605D01*
X108425924Y-102700881D01*
X107710000Y-102700881D01*
X107710000Y-102083352D01*
X107729645Y-102120670D01*
X107756652Y-102161088D01*
X108246319Y-102521276D01*
X110767595Y-100000000D01*
X111126805Y-100000000D01*
X113648081Y-102521276D01*
X114137748Y-102161088D01*
X114284920Y-101889876D01*
X114299928Y-101939350D01*
X114381995Y-102092886D01*
X114492438Y-102227462D01*
X114627014Y-102337905D01*
X114657102Y-102353987D01*
X114639063Y-102372026D01*
X114525795Y-102541544D01*
X114447774Y-102729902D01*
X114408000Y-102929861D01*
X114408000Y-103133739D01*
X114447774Y-103333698D01*
X114525795Y-103522056D01*
X114639063Y-103691574D01*
X114783226Y-103835737D01*
X114952744Y-103949005D01*
X115141102Y-104027026D01*
X115341061Y-104066800D01*
X115544939Y-104066800D01*
X115744898Y-104027026D01*
X115933256Y-103949005D01*
X116102774Y-103835737D01*
X116246937Y-103691574D01*
X116360205Y-103522056D01*
X116438226Y-103333698D01*
X116478000Y-103133739D01*
X116478000Y-102929861D01*
X116438226Y-102729902D01*
X116360205Y-102541544D01*
X116355400Y-102534353D01*
X116355400Y-102436610D01*
X116410250Y-102419972D01*
X116563786Y-102337905D01*
X116698362Y-102227462D01*
X116808805Y-102092886D01*
X116890872Y-101939350D01*
X116941408Y-101772754D01*
X116958472Y-101599500D01*
X116958472Y-100924500D01*
X116941408Y-100751246D01*
X116890872Y-100584650D01*
X116808805Y-100431114D01*
X116698362Y-100296538D01*
X116691806Y-100291158D01*
X116771585Y-100225685D01*
X116850937Y-100128994D01*
X116909902Y-100018680D01*
X116946212Y-99898982D01*
X116958472Y-99774500D01*
X116955400Y-99472750D01*
X116796650Y-99314000D01*
X115722400Y-99314000D01*
X115722400Y-99334000D01*
X115468400Y-99334000D01*
X115468400Y-99314000D01*
X115448400Y-99314000D01*
X115448400Y-99060000D01*
X115468400Y-99060000D01*
X115468400Y-98123250D01*
X115722400Y-98123250D01*
X115722400Y-99060000D01*
X116796650Y-99060000D01*
X116955400Y-98901250D01*
X116958472Y-98599500D01*
X116946212Y-98475018D01*
X116909902Y-98355320D01*
X116850937Y-98245006D01*
X116771585Y-98148315D01*
X116674894Y-98068963D01*
X116564580Y-98009998D01*
X116444882Y-97973688D01*
X116320400Y-97961428D01*
X115881150Y-97964500D01*
X115722400Y-98123250D01*
X115468400Y-98123250D01*
X115309650Y-97964500D01*
X114870400Y-97961428D01*
X114745918Y-97973688D01*
X114626220Y-98009998D01*
X114515906Y-98068963D01*
X114419215Y-98148315D01*
X114350460Y-98232094D01*
X114164755Y-97879330D01*
X114137748Y-97838912D01*
X113648081Y-97478724D01*
X111126805Y-100000000D01*
X110767595Y-100000000D01*
X108246319Y-97478724D01*
X107756652Y-97838912D01*
X107710000Y-97924883D01*
X107710000Y-97299119D01*
X108425924Y-97299119D01*
X110947200Y-99820395D01*
X113468476Y-97299119D01*
X113108288Y-96809452D01*
X112444318Y-96449151D01*
X111722815Y-96225306D01*
X110971505Y-96146520D01*
X110219262Y-96215822D01*
X109494992Y-96430548D01*
X108826530Y-96782445D01*
X108786112Y-96809452D01*
X108425924Y-97299119D01*
X107710000Y-97299119D01*
X107710000Y-93392000D01*
X112784415Y-93392000D01*
X112813087Y-93683111D01*
X112898001Y-93963034D01*
X113035894Y-94221014D01*
X113221466Y-94447134D01*
X113447586Y-94632706D01*
X113705566Y-94770599D01*
X113985489Y-94855513D01*
X114203650Y-94877000D01*
X114599550Y-94877000D01*
X114817711Y-94855513D01*
X115097634Y-94770599D01*
X115355614Y-94632706D01*
X115581734Y-94447134D01*
X115767306Y-94221014D01*
X115905199Y-93963034D01*
X115990113Y-93683111D01*
X116018785Y-93392000D01*
X115990113Y-93100889D01*
X115905199Y-92820966D01*
X115767306Y-92562986D01*
X115581734Y-92336866D01*
X115355614Y-92151294D01*
X115329878Y-92137538D01*
X115536029Y-91981049D01*
X115729096Y-91763193D01*
X115875952Y-91511858D01*
X115968076Y-91248890D01*
X115846755Y-91019000D01*
X114528600Y-91019000D01*
X114528600Y-91039000D01*
X114274600Y-91039000D01*
X114274600Y-91019000D01*
X112956445Y-91019000D01*
X112835124Y-91248890D01*
X112927248Y-91511858D01*
X113074104Y-91763193D01*
X113267171Y-91981049D01*
X113473322Y-92137538D01*
X113447586Y-92151294D01*
X113221466Y-92336866D01*
X113035894Y-92562986D01*
X112898001Y-92820966D01*
X112813087Y-93100889D01*
X112784415Y-93392000D01*
X107710000Y-93392000D01*
X107710000Y-85710000D01*
X116008798Y-85710000D01*
X114814871Y-86903928D01*
G37*
G04 #@! TD.AperFunction*
D30*
X194886518Y-95187512D02*
X195011000Y-95199772D01*
X196025948Y-95199772D01*
X196022138Y-95203582D01*
X195919814Y-95356721D01*
X195849332Y-95526881D01*
X195813400Y-95707521D01*
X195813400Y-95891699D01*
X195849332Y-96072339D01*
X195919814Y-96242499D01*
X196022138Y-96395638D01*
X196152372Y-96525872D01*
X196305511Y-96628196D01*
X196475671Y-96698678D01*
X196656311Y-96734610D01*
X196840489Y-96734610D01*
X197021129Y-96698678D01*
X197191289Y-96628196D01*
X197344428Y-96525872D01*
X197474662Y-96395638D01*
X197576986Y-96242499D01*
X197647422Y-96072451D01*
X197771071Y-96123668D01*
X197951711Y-96159600D01*
X198135889Y-96159600D01*
X198316529Y-96123668D01*
X198486689Y-96053186D01*
X198639828Y-95950862D01*
X198770062Y-95820628D01*
X198872386Y-95667489D01*
X198942868Y-95497329D01*
X198960646Y-95407956D01*
X199122003Y-95246598D01*
X199151001Y-95222801D01*
X199169900Y-95199772D01*
X199211000Y-95199772D01*
X199290001Y-95191991D01*
X199290000Y-104731409D01*
X199211000Y-104723628D01*
X198896750Y-104726700D01*
X198738000Y-104885450D01*
X198738000Y-106334700D01*
X198758000Y-106334700D01*
X198758000Y-106588700D01*
X198738000Y-106588700D01*
X198738000Y-108037950D01*
X198896750Y-108196700D01*
X199211000Y-108199772D01*
X199290000Y-108191991D01*
X199290000Y-109008848D01*
X199119081Y-108883124D01*
X196597805Y-111404400D01*
X199119081Y-113925676D01*
X199290000Y-113799952D01*
X199290000Y-114290000D01*
X198803601Y-114290000D01*
X198939476Y-114105281D01*
X196418200Y-111584005D01*
X193896924Y-114105281D01*
X194032799Y-114290000D01*
X152500531Y-114290000D01*
X154227776Y-112562755D01*
X154324870Y-112659849D01*
X154352583Y-112693617D01*
X154386351Y-112721330D01*
X154386353Y-112721332D01*
X154451776Y-112775023D01*
X154487341Y-112804211D01*
X154641087Y-112886389D01*
X154807910Y-112936995D01*
X154937923Y-112949800D01*
X154937933Y-112949800D01*
X154981399Y-112954081D01*
X155024865Y-112949800D01*
X159655131Y-112949800D01*
X159698600Y-112954081D01*
X159742069Y-112949800D01*
X159742077Y-112949800D01*
X159872090Y-112936995D01*
X160038913Y-112886389D01*
X160192659Y-112804211D01*
X160327417Y-112693617D01*
X160355134Y-112659844D01*
X160933306Y-112081672D01*
X161382300Y-112081672D01*
X161555554Y-112064608D01*
X161722150Y-112014072D01*
X161875686Y-111932005D01*
X162010262Y-111821562D01*
X162120705Y-111686986D01*
X162202772Y-111533450D01*
X162253308Y-111366854D01*
X162270372Y-111193600D01*
X162270372Y-110243600D01*
X162253308Y-110070346D01*
X162202772Y-109903750D01*
X162120705Y-109750214D01*
X162010262Y-109615638D01*
X161983892Y-109593997D01*
X162106500Y-109606072D01*
X162820750Y-109603000D01*
X162979500Y-109444250D01*
X162979500Y-108345000D01*
X163233500Y-108345000D01*
X163233500Y-109444250D01*
X163392250Y-109603000D01*
X164106500Y-109606072D01*
X164230982Y-109593812D01*
X164350680Y-109557502D01*
X164460994Y-109498537D01*
X164557685Y-109419185D01*
X164637037Y-109322494D01*
X164696002Y-109212180D01*
X164732312Y-109092482D01*
X164744572Y-108968000D01*
X164741500Y-108503750D01*
X164582750Y-108345000D01*
X163233500Y-108345000D01*
X162979500Y-108345000D01*
X161630250Y-108345000D01*
X161471500Y-108503750D01*
X161468428Y-108968000D01*
X161480688Y-109092482D01*
X161516998Y-109212180D01*
X161575963Y-109322494D01*
X161637470Y-109397441D01*
X161555554Y-109372592D01*
X161382300Y-109355528D01*
X160707300Y-109355528D01*
X160534046Y-109372592D01*
X160367450Y-109423128D01*
X160213914Y-109505195D01*
X160079338Y-109615638D01*
X160073958Y-109622194D01*
X160008485Y-109542415D01*
X159911794Y-109463063D01*
X159801480Y-109404098D01*
X159681782Y-109367788D01*
X159557300Y-109355528D01*
X159255550Y-109358600D01*
X159096800Y-109517350D01*
X159096800Y-110591600D01*
X159116800Y-110591600D01*
X159116800Y-110845600D01*
X159096800Y-110845600D01*
X159096800Y-110865600D01*
X158842800Y-110865600D01*
X158842800Y-110845600D01*
X157906050Y-110845600D01*
X157747300Y-111004350D01*
X157746073Y-111179800D01*
X156049831Y-111179800D01*
X157236031Y-109993600D01*
X157744228Y-109993600D01*
X157747300Y-110432850D01*
X157906050Y-110591600D01*
X158842800Y-110591600D01*
X158842800Y-109517350D01*
X158684050Y-109358600D01*
X158382300Y-109355528D01*
X158257818Y-109367788D01*
X158138120Y-109404098D01*
X158027806Y-109463063D01*
X157931115Y-109542415D01*
X157851763Y-109639106D01*
X157792798Y-109749420D01*
X157756488Y-109869118D01*
X157744228Y-109993600D01*
X157236031Y-109993600D01*
X157569641Y-109659991D01*
X157612949Y-109624449D01*
X157754784Y-109451623D01*
X157860176Y-109254447D01*
X157925077Y-109040499D01*
X157941500Y-108873752D01*
X157941500Y-108873743D01*
X157946990Y-108818001D01*
X157941500Y-108762259D01*
X157941500Y-108440621D01*
X158050680Y-108407502D01*
X158160994Y-108348537D01*
X158257685Y-108269185D01*
X158337037Y-108172494D01*
X158396002Y-108062180D01*
X158432312Y-107942482D01*
X158444572Y-107818000D01*
X158444572Y-107053000D01*
X161600999Y-107053000D01*
X161613309Y-107068000D01*
X161575963Y-107113506D01*
X161516998Y-107223820D01*
X161480688Y-107343518D01*
X161468428Y-107468000D01*
X161471500Y-107932250D01*
X161630250Y-108091000D01*
X162979500Y-108091000D01*
X162979500Y-108071000D01*
X163233500Y-108071000D01*
X163233500Y-108091000D01*
X164582750Y-108091000D01*
X164741500Y-107932250D01*
X164744572Y-107468000D01*
X164732312Y-107343518D01*
X164696002Y-107223820D01*
X164637037Y-107113506D01*
X164599691Y-107068000D01*
X164612001Y-107053000D01*
X164636368Y-107053000D01*
X164904801Y-107321433D01*
X164904800Y-109951648D01*
X164899309Y-110007400D01*
X164904800Y-110063151D01*
X164921223Y-110229898D01*
X164986124Y-110443846D01*
X165091516Y-110641023D01*
X165233351Y-110813849D01*
X165276665Y-110849396D01*
X167284019Y-112856751D01*
X167319561Y-112900059D01*
X167492387Y-113041894D01*
X167689563Y-113147286D01*
X167903511Y-113212187D01*
X168070258Y-113228610D01*
X168070267Y-113228610D01*
X168126009Y-113234100D01*
X168181751Y-113228610D01*
X176445439Y-113228610D01*
X176501190Y-113234101D01*
X176556941Y-113228610D01*
X176556942Y-113228610D01*
X176723689Y-113212187D01*
X176937637Y-113147286D01*
X177134813Y-113041894D01*
X177307639Y-112900059D01*
X177343186Y-112856745D01*
X178819837Y-111380095D01*
X192564720Y-111380095D01*
X192634022Y-112132338D01*
X192848748Y-112856608D01*
X193200645Y-113525070D01*
X193227652Y-113565488D01*
X193717319Y-113925676D01*
X196238595Y-111404400D01*
X193717319Y-108883124D01*
X193227652Y-109243312D01*
X192867351Y-109907282D01*
X192643506Y-110628785D01*
X192564720Y-111380095D01*
X178819837Y-111380095D01*
X180124145Y-110075788D01*
X180167448Y-110040250D01*
X180203667Y-109996118D01*
X180309283Y-109867424D01*
X180414675Y-109670248D01*
X180479576Y-109456300D01*
X180501490Y-109233801D01*
X180495999Y-109178049D01*
X180495999Y-98781832D01*
X182874146Y-96403687D01*
X182917449Y-96368149D01*
X182957289Y-96319605D01*
X183059284Y-96195323D01*
X183164676Y-95998147D01*
X183229577Y-95784199D01*
X183251491Y-95561700D01*
X183246000Y-95505948D01*
X183246000Y-95199772D01*
X184151028Y-95199772D01*
X184131000Y-95300461D01*
X184131000Y-95504339D01*
X184170774Y-95704298D01*
X184248795Y-95892656D01*
X184362063Y-96062174D01*
X184431000Y-96131111D01*
X184431001Y-104731507D01*
X184386518Y-104735888D01*
X184361000Y-104743629D01*
X184335482Y-104735888D01*
X184211000Y-104723628D01*
X183011000Y-104723628D01*
X182886518Y-104735888D01*
X182861000Y-104743629D01*
X182835482Y-104735888D01*
X182711000Y-104723628D01*
X181511000Y-104723628D01*
X181386518Y-104735888D01*
X181361000Y-104743629D01*
X181335482Y-104735888D01*
X181211000Y-104723628D01*
X180896750Y-104726700D01*
X180738000Y-104885450D01*
X180738000Y-106334700D01*
X180758000Y-106334700D01*
X180758000Y-106588700D01*
X180738000Y-106588700D01*
X180738000Y-108037950D01*
X180896750Y-108196700D01*
X181211000Y-108199772D01*
X181335482Y-108187512D01*
X181361000Y-108179771D01*
X181386518Y-108187512D01*
X181511000Y-108199772D01*
X182711000Y-108199772D01*
X182835482Y-108187512D01*
X182861000Y-108179771D01*
X182886518Y-108187512D01*
X183011000Y-108199772D01*
X184211000Y-108199772D01*
X184335482Y-108187512D01*
X184361000Y-108179771D01*
X184386518Y-108187512D01*
X184511000Y-108199772D01*
X185711000Y-108199772D01*
X185835482Y-108187512D01*
X185861000Y-108179771D01*
X185886518Y-108187512D01*
X186011000Y-108199772D01*
X187211000Y-108199772D01*
X187335482Y-108187512D01*
X187361000Y-108179771D01*
X187386518Y-108187512D01*
X187511000Y-108199772D01*
X188711000Y-108199772D01*
X188835482Y-108187512D01*
X188861000Y-108179771D01*
X188886518Y-108187512D01*
X189011000Y-108199772D01*
X190211000Y-108199772D01*
X190335482Y-108187512D01*
X190361000Y-108179771D01*
X190386518Y-108187512D01*
X190511000Y-108199772D01*
X191711000Y-108199772D01*
X191835482Y-108187512D01*
X191861000Y-108179771D01*
X191886518Y-108187512D01*
X192011000Y-108199772D01*
X193211000Y-108199772D01*
X193335482Y-108187512D01*
X193361000Y-108179771D01*
X193386518Y-108187512D01*
X193511000Y-108199772D01*
X194278184Y-108199772D01*
X194257112Y-108213852D01*
X193896924Y-108703519D01*
X196418200Y-111224795D01*
X198939476Y-108703519D01*
X198579288Y-108213852D01*
X198403493Y-108118457D01*
X198484000Y-108037950D01*
X198484000Y-106588700D01*
X198464000Y-106588700D01*
X198464000Y-106334700D01*
X198484000Y-106334700D01*
X198484000Y-104885450D01*
X198325250Y-104726700D01*
X198011000Y-104723628D01*
X197886518Y-104735888D01*
X197861000Y-104743629D01*
X197835482Y-104735888D01*
X197711000Y-104723628D01*
X196511000Y-104723628D01*
X196386518Y-104735888D01*
X196361000Y-104743629D01*
X196335482Y-104735888D01*
X196211000Y-104723628D01*
X195011000Y-104723628D01*
X194886518Y-104735888D01*
X194861000Y-104743629D01*
X194835482Y-104735888D01*
X194711000Y-104723628D01*
X193511000Y-104723628D01*
X193386518Y-104735888D01*
X193361000Y-104743629D01*
X193335482Y-104735888D01*
X193211000Y-104723628D01*
X192011000Y-104723628D01*
X191886518Y-104735888D01*
X191861000Y-104743629D01*
X191835482Y-104735888D01*
X191711000Y-104723628D01*
X190511000Y-104723628D01*
X190386518Y-104735888D01*
X190361000Y-104743629D01*
X190335482Y-104735888D01*
X190211000Y-104723628D01*
X189011000Y-104723628D01*
X188886518Y-104735888D01*
X188861000Y-104743629D01*
X188835482Y-104735888D01*
X188711000Y-104723628D01*
X187511000Y-104723628D01*
X187386518Y-104735888D01*
X187361000Y-104743629D01*
X187335482Y-104735888D01*
X187211000Y-104723628D01*
X186011000Y-104723628D01*
X185901000Y-104734462D01*
X185901000Y-96131111D01*
X185969937Y-96062174D01*
X186083205Y-95892656D01*
X186161226Y-95704298D01*
X186201000Y-95504339D01*
X186201000Y-95300461D01*
X186180972Y-95199772D01*
X187211000Y-95199772D01*
X187335482Y-95187512D01*
X187361000Y-95179771D01*
X187386518Y-95187512D01*
X187511000Y-95199772D01*
X188711000Y-95199772D01*
X188835482Y-95187512D01*
X188861000Y-95179771D01*
X188886518Y-95187512D01*
X189011000Y-95199772D01*
X190211000Y-95199772D01*
X190335482Y-95187512D01*
X190361000Y-95179771D01*
X190386518Y-95187512D01*
X190511000Y-95199772D01*
X191711000Y-95199772D01*
X191835482Y-95187512D01*
X191861000Y-95179771D01*
X191886518Y-95187512D01*
X192011000Y-95199772D01*
X193211000Y-95199772D01*
X193335482Y-95187512D01*
X193361000Y-95179771D01*
X193386518Y-95187512D01*
X193511000Y-95199772D01*
X194711000Y-95199772D01*
X194835482Y-95187512D01*
X194861000Y-95179771D01*
X194886518Y-95187512D01*
G04 #@! TA.AperFunction,Conductor*
D31*
G36*
X194886518Y-95187512D02*
G01*
X195011000Y-95199772D01*
X196025948Y-95199772D01*
X196022138Y-95203582D01*
X195919814Y-95356721D01*
X195849332Y-95526881D01*
X195813400Y-95707521D01*
X195813400Y-95891699D01*
X195849332Y-96072339D01*
X195919814Y-96242499D01*
X196022138Y-96395638D01*
X196152372Y-96525872D01*
X196305511Y-96628196D01*
X196475671Y-96698678D01*
X196656311Y-96734610D01*
X196840489Y-96734610D01*
X197021129Y-96698678D01*
X197191289Y-96628196D01*
X197344428Y-96525872D01*
X197474662Y-96395638D01*
X197576986Y-96242499D01*
X197647422Y-96072451D01*
X197771071Y-96123668D01*
X197951711Y-96159600D01*
X198135889Y-96159600D01*
X198316529Y-96123668D01*
X198486689Y-96053186D01*
X198639828Y-95950862D01*
X198770062Y-95820628D01*
X198872386Y-95667489D01*
X198942868Y-95497329D01*
X198960646Y-95407956D01*
X199122003Y-95246598D01*
X199151001Y-95222801D01*
X199169900Y-95199772D01*
X199211000Y-95199772D01*
X199290001Y-95191991D01*
X199290000Y-104731409D01*
X199211000Y-104723628D01*
X198896750Y-104726700D01*
X198738000Y-104885450D01*
X198738000Y-106334700D01*
X198758000Y-106334700D01*
X198758000Y-106588700D01*
X198738000Y-106588700D01*
X198738000Y-108037950D01*
X198896750Y-108196700D01*
X199211000Y-108199772D01*
X199290000Y-108191991D01*
X199290000Y-109008848D01*
X199119081Y-108883124D01*
X196597805Y-111404400D01*
X199119081Y-113925676D01*
X199290000Y-113799952D01*
X199290000Y-114290000D01*
X198803601Y-114290000D01*
X198939476Y-114105281D01*
X196418200Y-111584005D01*
X193896924Y-114105281D01*
X194032799Y-114290000D01*
X152500531Y-114290000D01*
X154227776Y-112562755D01*
X154324870Y-112659849D01*
X154352583Y-112693617D01*
X154386351Y-112721330D01*
X154386353Y-112721332D01*
X154451776Y-112775023D01*
X154487341Y-112804211D01*
X154641087Y-112886389D01*
X154807910Y-112936995D01*
X154937923Y-112949800D01*
X154937933Y-112949800D01*
X154981399Y-112954081D01*
X155024865Y-112949800D01*
X159655131Y-112949800D01*
X159698600Y-112954081D01*
X159742069Y-112949800D01*
X159742077Y-112949800D01*
X159872090Y-112936995D01*
X160038913Y-112886389D01*
X160192659Y-112804211D01*
X160327417Y-112693617D01*
X160355134Y-112659844D01*
X160933306Y-112081672D01*
X161382300Y-112081672D01*
X161555554Y-112064608D01*
X161722150Y-112014072D01*
X161875686Y-111932005D01*
X162010262Y-111821562D01*
X162120705Y-111686986D01*
X162202772Y-111533450D01*
X162253308Y-111366854D01*
X162270372Y-111193600D01*
X162270372Y-110243600D01*
X162253308Y-110070346D01*
X162202772Y-109903750D01*
X162120705Y-109750214D01*
X162010262Y-109615638D01*
X161983892Y-109593997D01*
X162106500Y-109606072D01*
X162820750Y-109603000D01*
X162979500Y-109444250D01*
X162979500Y-108345000D01*
X163233500Y-108345000D01*
X163233500Y-109444250D01*
X163392250Y-109603000D01*
X164106500Y-109606072D01*
X164230982Y-109593812D01*
X164350680Y-109557502D01*
X164460994Y-109498537D01*
X164557685Y-109419185D01*
X164637037Y-109322494D01*
X164696002Y-109212180D01*
X164732312Y-109092482D01*
X164744572Y-108968000D01*
X164741500Y-108503750D01*
X164582750Y-108345000D01*
X163233500Y-108345000D01*
X162979500Y-108345000D01*
X161630250Y-108345000D01*
X161471500Y-108503750D01*
X161468428Y-108968000D01*
X161480688Y-109092482D01*
X161516998Y-109212180D01*
X161575963Y-109322494D01*
X161637470Y-109397441D01*
X161555554Y-109372592D01*
X161382300Y-109355528D01*
X160707300Y-109355528D01*
X160534046Y-109372592D01*
X160367450Y-109423128D01*
X160213914Y-109505195D01*
X160079338Y-109615638D01*
X160073958Y-109622194D01*
X160008485Y-109542415D01*
X159911794Y-109463063D01*
X159801480Y-109404098D01*
X159681782Y-109367788D01*
X159557300Y-109355528D01*
X159255550Y-109358600D01*
X159096800Y-109517350D01*
X159096800Y-110591600D01*
X159116800Y-110591600D01*
X159116800Y-110845600D01*
X159096800Y-110845600D01*
X159096800Y-110865600D01*
X158842800Y-110865600D01*
X158842800Y-110845600D01*
X157906050Y-110845600D01*
X157747300Y-111004350D01*
X157746073Y-111179800D01*
X156049831Y-111179800D01*
X157236031Y-109993600D01*
X157744228Y-109993600D01*
X157747300Y-110432850D01*
X157906050Y-110591600D01*
X158842800Y-110591600D01*
X158842800Y-109517350D01*
X158684050Y-109358600D01*
X158382300Y-109355528D01*
X158257818Y-109367788D01*
X158138120Y-109404098D01*
X158027806Y-109463063D01*
X157931115Y-109542415D01*
X157851763Y-109639106D01*
X157792798Y-109749420D01*
X157756488Y-109869118D01*
X157744228Y-109993600D01*
X157236031Y-109993600D01*
X157569641Y-109659991D01*
X157612949Y-109624449D01*
X157754784Y-109451623D01*
X157860176Y-109254447D01*
X157925077Y-109040499D01*
X157941500Y-108873752D01*
X157941500Y-108873743D01*
X157946990Y-108818001D01*
X157941500Y-108762259D01*
X157941500Y-108440621D01*
X158050680Y-108407502D01*
X158160994Y-108348537D01*
X158257685Y-108269185D01*
X158337037Y-108172494D01*
X158396002Y-108062180D01*
X158432312Y-107942482D01*
X158444572Y-107818000D01*
X158444572Y-107053000D01*
X161600999Y-107053000D01*
X161613309Y-107068000D01*
X161575963Y-107113506D01*
X161516998Y-107223820D01*
X161480688Y-107343518D01*
X161468428Y-107468000D01*
X161471500Y-107932250D01*
X161630250Y-108091000D01*
X162979500Y-108091000D01*
X162979500Y-108071000D01*
X163233500Y-108071000D01*
X163233500Y-108091000D01*
X164582750Y-108091000D01*
X164741500Y-107932250D01*
X164744572Y-107468000D01*
X164732312Y-107343518D01*
X164696002Y-107223820D01*
X164637037Y-107113506D01*
X164599691Y-107068000D01*
X164612001Y-107053000D01*
X164636368Y-107053000D01*
X164904801Y-107321433D01*
X164904800Y-109951648D01*
X164899309Y-110007400D01*
X164904800Y-110063151D01*
X164921223Y-110229898D01*
X164986124Y-110443846D01*
X165091516Y-110641023D01*
X165233351Y-110813849D01*
X165276665Y-110849396D01*
X167284019Y-112856751D01*
X167319561Y-112900059D01*
X167492387Y-113041894D01*
X167689563Y-113147286D01*
X167903511Y-113212187D01*
X168070258Y-113228610D01*
X168070267Y-113228610D01*
X168126009Y-113234100D01*
X168181751Y-113228610D01*
X176445439Y-113228610D01*
X176501190Y-113234101D01*
X176556941Y-113228610D01*
X176556942Y-113228610D01*
X176723689Y-113212187D01*
X176937637Y-113147286D01*
X177134813Y-113041894D01*
X177307639Y-112900059D01*
X177343186Y-112856745D01*
X178819837Y-111380095D01*
X192564720Y-111380095D01*
X192634022Y-112132338D01*
X192848748Y-112856608D01*
X193200645Y-113525070D01*
X193227652Y-113565488D01*
X193717319Y-113925676D01*
X196238595Y-111404400D01*
X193717319Y-108883124D01*
X193227652Y-109243312D01*
X192867351Y-109907282D01*
X192643506Y-110628785D01*
X192564720Y-111380095D01*
X178819837Y-111380095D01*
X180124145Y-110075788D01*
X180167448Y-110040250D01*
X180203667Y-109996118D01*
X180309283Y-109867424D01*
X180414675Y-109670248D01*
X180479576Y-109456300D01*
X180501490Y-109233801D01*
X180495999Y-109178049D01*
X180495999Y-98781832D01*
X182874146Y-96403687D01*
X182917449Y-96368149D01*
X182957289Y-96319605D01*
X183059284Y-96195323D01*
X183164676Y-95998147D01*
X183229577Y-95784199D01*
X183251491Y-95561700D01*
X183246000Y-95505948D01*
X183246000Y-95199772D01*
X184151028Y-95199772D01*
X184131000Y-95300461D01*
X184131000Y-95504339D01*
X184170774Y-95704298D01*
X184248795Y-95892656D01*
X184362063Y-96062174D01*
X184431000Y-96131111D01*
X184431001Y-104731507D01*
X184386518Y-104735888D01*
X184361000Y-104743629D01*
X184335482Y-104735888D01*
X184211000Y-104723628D01*
X183011000Y-104723628D01*
X182886518Y-104735888D01*
X182861000Y-104743629D01*
X182835482Y-104735888D01*
X182711000Y-104723628D01*
X181511000Y-104723628D01*
X181386518Y-104735888D01*
X181361000Y-104743629D01*
X181335482Y-104735888D01*
X181211000Y-104723628D01*
X180896750Y-104726700D01*
X180738000Y-104885450D01*
X180738000Y-106334700D01*
X180758000Y-106334700D01*
X180758000Y-106588700D01*
X180738000Y-106588700D01*
X180738000Y-108037950D01*
X180896750Y-108196700D01*
X181211000Y-108199772D01*
X181335482Y-108187512D01*
X181361000Y-108179771D01*
X181386518Y-108187512D01*
X181511000Y-108199772D01*
X182711000Y-108199772D01*
X182835482Y-108187512D01*
X182861000Y-108179771D01*
X182886518Y-108187512D01*
X183011000Y-108199772D01*
X184211000Y-108199772D01*
X184335482Y-108187512D01*
X184361000Y-108179771D01*
X184386518Y-108187512D01*
X184511000Y-108199772D01*
X185711000Y-108199772D01*
X185835482Y-108187512D01*
X185861000Y-108179771D01*
X185886518Y-108187512D01*
X186011000Y-108199772D01*
X187211000Y-108199772D01*
X187335482Y-108187512D01*
X187361000Y-108179771D01*
X187386518Y-108187512D01*
X187511000Y-108199772D01*
X188711000Y-108199772D01*
X188835482Y-108187512D01*
X188861000Y-108179771D01*
X188886518Y-108187512D01*
X189011000Y-108199772D01*
X190211000Y-108199772D01*
X190335482Y-108187512D01*
X190361000Y-108179771D01*
X190386518Y-108187512D01*
X190511000Y-108199772D01*
X191711000Y-108199772D01*
X191835482Y-108187512D01*
X191861000Y-108179771D01*
X191886518Y-108187512D01*
X192011000Y-108199772D01*
X193211000Y-108199772D01*
X193335482Y-108187512D01*
X193361000Y-108179771D01*
X193386518Y-108187512D01*
X193511000Y-108199772D01*
X194278184Y-108199772D01*
X194257112Y-108213852D01*
X193896924Y-108703519D01*
X196418200Y-111224795D01*
X198939476Y-108703519D01*
X198579288Y-108213852D01*
X198403493Y-108118457D01*
X198484000Y-108037950D01*
X198484000Y-106588700D01*
X198464000Y-106588700D01*
X198464000Y-106334700D01*
X198484000Y-106334700D01*
X198484000Y-104885450D01*
X198325250Y-104726700D01*
X198011000Y-104723628D01*
X197886518Y-104735888D01*
X197861000Y-104743629D01*
X197835482Y-104735888D01*
X197711000Y-104723628D01*
X196511000Y-104723628D01*
X196386518Y-104735888D01*
X196361000Y-104743629D01*
X196335482Y-104735888D01*
X196211000Y-104723628D01*
X195011000Y-104723628D01*
X194886518Y-104735888D01*
X194861000Y-104743629D01*
X194835482Y-104735888D01*
X194711000Y-104723628D01*
X193511000Y-104723628D01*
X193386518Y-104735888D01*
X193361000Y-104743629D01*
X193335482Y-104735888D01*
X193211000Y-104723628D01*
X192011000Y-104723628D01*
X191886518Y-104735888D01*
X191861000Y-104743629D01*
X191835482Y-104735888D01*
X191711000Y-104723628D01*
X190511000Y-104723628D01*
X190386518Y-104735888D01*
X190361000Y-104743629D01*
X190335482Y-104735888D01*
X190211000Y-104723628D01*
X189011000Y-104723628D01*
X188886518Y-104735888D01*
X188861000Y-104743629D01*
X188835482Y-104735888D01*
X188711000Y-104723628D01*
X187511000Y-104723628D01*
X187386518Y-104735888D01*
X187361000Y-104743629D01*
X187335482Y-104735888D01*
X187211000Y-104723628D01*
X186011000Y-104723628D01*
X185901000Y-104734462D01*
X185901000Y-96131111D01*
X185969937Y-96062174D01*
X186083205Y-95892656D01*
X186161226Y-95704298D01*
X186201000Y-95504339D01*
X186201000Y-95300461D01*
X186180972Y-95199772D01*
X187211000Y-95199772D01*
X187335482Y-95187512D01*
X187361000Y-95179771D01*
X187386518Y-95187512D01*
X187511000Y-95199772D01*
X188711000Y-95199772D01*
X188835482Y-95187512D01*
X188861000Y-95179771D01*
X188886518Y-95187512D01*
X189011000Y-95199772D01*
X190211000Y-95199772D01*
X190335482Y-95187512D01*
X190361000Y-95179771D01*
X190386518Y-95187512D01*
X190511000Y-95199772D01*
X191711000Y-95199772D01*
X191835482Y-95187512D01*
X191861000Y-95179771D01*
X191886518Y-95187512D01*
X192011000Y-95199772D01*
X193211000Y-95199772D01*
X193335482Y-95187512D01*
X193361000Y-95179771D01*
X193386518Y-95187512D01*
X193511000Y-95199772D01*
X194711000Y-95199772D01*
X194835482Y-95187512D01*
X194861000Y-95179771D01*
X194886518Y-95187512D01*
G37*
G04 #@! TD.AperFunction*
D30*
X132585002Y-101491994D02*
X132555999Y-101515797D01*
X132518044Y-101562046D01*
X132461026Y-101631522D01*
X132417154Y-101713601D01*
X132390454Y-101763552D01*
X132346997Y-101906813D01*
X132336000Y-102018466D01*
X132336000Y-102018476D01*
X132332324Y-102055798D01*
X132336000Y-102093121D01*
X132336001Y-103368070D01*
X132332324Y-103405402D01*
X132336001Y-103442735D01*
X132346650Y-103550849D01*
X132346998Y-103554387D01*
X132390454Y-103697648D01*
X132461026Y-103829678D01*
X132505099Y-103883380D01*
X132556000Y-103945403D01*
X132584998Y-103969201D01*
X134257403Y-105641608D01*
X134281197Y-105670601D01*
X134310190Y-105694395D01*
X134310194Y-105694399D01*
X134342875Y-105721219D01*
X134396922Y-105765574D01*
X134528951Y-105836146D01*
X134672212Y-105879603D01*
X134783865Y-105890600D01*
X134783874Y-105890600D01*
X134821197Y-105894276D01*
X134858520Y-105890600D01*
X145167478Y-105890600D01*
X145204800Y-105894276D01*
X145242122Y-105890600D01*
X145242133Y-105890600D01*
X145353786Y-105879603D01*
X145497047Y-105836146D01*
X145629076Y-105765574D01*
X145744801Y-105670601D01*
X145768604Y-105641597D01*
X147017730Y-104392472D01*
X147694271Y-104392472D01*
X148939501Y-105637703D01*
X148963299Y-105666701D01*
X149079024Y-105761674D01*
X149211053Y-105832246D01*
X149354314Y-105875703D01*
X149465967Y-105886700D01*
X149465975Y-105886700D01*
X149503300Y-105890376D01*
X149540625Y-105886700D01*
X152774306Y-105886700D01*
X152812195Y-105957586D01*
X152922638Y-106092162D01*
X153057214Y-106202605D01*
X153210750Y-106284672D01*
X153265600Y-106301311D01*
X153265601Y-107962578D01*
X153261149Y-107963928D01*
X153107613Y-108045995D01*
X152973038Y-108156438D01*
X152862595Y-108291013D01*
X152818024Y-108374400D01*
X149198322Y-108374400D01*
X149160999Y-108370724D01*
X149123676Y-108374400D01*
X149123667Y-108374400D01*
X149012014Y-108385397D01*
X148868753Y-108428854D01*
X148736724Y-108499426D01*
X148736722Y-108499427D01*
X148736723Y-108499427D01*
X148649996Y-108570601D01*
X148649992Y-108570605D01*
X148620999Y-108594399D01*
X148597205Y-108623392D01*
X147694270Y-109526328D01*
X146706000Y-109526328D01*
X146581518Y-109538588D01*
X146461820Y-109574898D01*
X146351506Y-109633863D01*
X146254815Y-109713215D01*
X146175463Y-109809906D01*
X146116498Y-109920220D01*
X146080188Y-110039918D01*
X146067928Y-110164400D01*
X146067928Y-111714400D01*
X146080188Y-111838882D01*
X146116498Y-111958580D01*
X146175463Y-112068894D01*
X146254815Y-112165585D01*
X146351506Y-112244937D01*
X146461820Y-112303902D01*
X146581518Y-112340212D01*
X146706000Y-112352472D01*
X148006000Y-112352472D01*
X148130482Y-112340212D01*
X148250180Y-112303902D01*
X148360494Y-112244937D01*
X148457185Y-112165585D01*
X148536537Y-112068894D01*
X148595502Y-111958580D01*
X148631812Y-111838882D01*
X148644072Y-111714400D01*
X148644072Y-110726130D01*
X149475803Y-109894400D01*
X150630299Y-109894400D01*
X150616498Y-109920220D01*
X150580188Y-110039918D01*
X150567928Y-110164400D01*
X150571000Y-110653650D01*
X150729750Y-110812400D01*
X151729000Y-110812400D01*
X151729000Y-110792400D01*
X151983000Y-110792400D01*
X151983000Y-110812400D01*
X152003000Y-110812400D01*
X152003000Y-111066400D01*
X151983000Y-111066400D01*
X151983000Y-111086400D01*
X151729000Y-111086400D01*
X151729000Y-111066400D01*
X150729750Y-111066400D01*
X150571000Y-111225150D01*
X150567928Y-111714400D01*
X150580188Y-111838882D01*
X150616498Y-111958580D01*
X150675463Y-112068894D01*
X150754815Y-112165585D01*
X150851506Y-112244937D01*
X150961820Y-112303902D01*
X151081518Y-112340212D01*
X151206000Y-112352472D01*
X151227982Y-112352287D01*
X150821669Y-112758600D01*
X143479711Y-112758600D01*
X143502012Y-112685082D01*
X143514272Y-112560600D01*
X143514272Y-110120600D01*
X143502012Y-109996118D01*
X143465702Y-109876420D01*
X143406737Y-109766106D01*
X143327385Y-109669415D01*
X143230694Y-109590063D01*
X143120380Y-109531098D01*
X143000682Y-109494788D01*
X142876200Y-109482528D01*
X141756200Y-109482528D01*
X141631718Y-109494788D01*
X141512020Y-109531098D01*
X141401706Y-109590063D01*
X141305015Y-109669415D01*
X141225663Y-109766106D01*
X141166698Y-109876420D01*
X141130388Y-109996118D01*
X141118128Y-110120600D01*
X141118128Y-110580600D01*
X140974272Y-110580600D01*
X140974272Y-110120600D01*
X140962012Y-109996118D01*
X140925702Y-109876420D01*
X140866737Y-109766106D01*
X140787385Y-109669415D01*
X140690694Y-109590063D01*
X140580380Y-109531098D01*
X140460682Y-109494788D01*
X140336200Y-109482528D01*
X139216200Y-109482528D01*
X139091718Y-109494788D01*
X138972020Y-109531098D01*
X138861706Y-109590063D01*
X138765015Y-109669415D01*
X138685663Y-109766106D01*
X138626698Y-109876420D01*
X138590388Y-109996118D01*
X138578128Y-110120600D01*
X138578128Y-110580600D01*
X138434272Y-110580600D01*
X138434272Y-110120600D01*
X138422012Y-109996118D01*
X138385702Y-109876420D01*
X138326737Y-109766106D01*
X138247385Y-109669415D01*
X138150694Y-109590063D01*
X138040380Y-109531098D01*
X137920682Y-109494788D01*
X137796200Y-109482528D01*
X136676200Y-109482528D01*
X136551718Y-109494788D01*
X136432020Y-109531098D01*
X136321706Y-109590063D01*
X136225015Y-109669415D01*
X136145663Y-109766106D01*
X136086698Y-109876420D01*
X136050388Y-109996118D01*
X136038128Y-110120600D01*
X136038128Y-110580600D01*
X135894272Y-110580600D01*
X135894272Y-110120600D01*
X135882012Y-109996118D01*
X135845702Y-109876420D01*
X135786737Y-109766106D01*
X135707385Y-109669415D01*
X135610694Y-109590063D01*
X135500380Y-109531098D01*
X135380682Y-109494788D01*
X135256200Y-109482528D01*
X134136200Y-109482528D01*
X134011718Y-109494788D01*
X133892020Y-109531098D01*
X133781706Y-109590063D01*
X133685015Y-109669415D01*
X133605663Y-109766106D01*
X133546698Y-109876420D01*
X133510388Y-109996118D01*
X133498128Y-110120600D01*
X133498128Y-110573952D01*
X132605272Y-109681097D01*
X132605272Y-109571799D01*
X132588208Y-109398545D01*
X132537672Y-109231949D01*
X132455605Y-109078413D01*
X132345162Y-108943838D01*
X132210587Y-108833395D01*
X132057051Y-108751328D01*
X131890455Y-108700792D01*
X131717201Y-108683728D01*
X130817199Y-108683728D01*
X130643945Y-108700792D01*
X130477349Y-108751328D01*
X130323813Y-108833395D01*
X130189238Y-108943838D01*
X130078795Y-109078413D01*
X129996728Y-109231949D01*
X129946192Y-109398545D01*
X129929128Y-109571799D01*
X129929128Y-110271801D01*
X129946192Y-110445055D01*
X129996728Y-110611651D01*
X130078795Y-110765187D01*
X130189238Y-110899762D01*
X130216091Y-110921800D01*
X130189238Y-110943838D01*
X130078795Y-111078413D01*
X129996728Y-111231949D01*
X129946192Y-111398545D01*
X129933458Y-111527837D01*
X129813052Y-111626652D01*
X129774933Y-111673100D01*
X127911702Y-111673100D01*
X127339446Y-111100845D01*
X127603250Y-111099000D01*
X127762000Y-110940250D01*
X127762000Y-110003500D01*
X128016000Y-110003500D01*
X128016000Y-110940250D01*
X128174750Y-111099000D01*
X128614000Y-111102072D01*
X128738482Y-111089812D01*
X128858180Y-111053502D01*
X128968494Y-110994537D01*
X129065185Y-110915185D01*
X129144537Y-110818494D01*
X129203502Y-110708180D01*
X129239812Y-110588482D01*
X129252072Y-110464000D01*
X129249000Y-110162250D01*
X129090250Y-110003500D01*
X128016000Y-110003500D01*
X127762000Y-110003500D01*
X127742000Y-110003500D01*
X127742000Y-109749500D01*
X127762000Y-109749500D01*
X127762000Y-109729500D01*
X128016000Y-109729500D01*
X128016000Y-109749500D01*
X129090250Y-109749500D01*
X129249000Y-109590750D01*
X129252072Y-109289000D01*
X129239812Y-109164518D01*
X129203502Y-109044820D01*
X129144537Y-108934506D01*
X129065185Y-108837815D01*
X128985406Y-108772342D01*
X128991962Y-108766962D01*
X129102405Y-108632386D01*
X129184472Y-108478850D01*
X129235008Y-108312254D01*
X129252072Y-108139000D01*
X129252072Y-107464000D01*
X129235008Y-107290746D01*
X129184472Y-107124150D01*
X129102405Y-106970614D01*
X128991962Y-106836038D01*
X128857386Y-106725595D01*
X128703850Y-106643528D01*
X128649000Y-106626890D01*
X128649000Y-104047965D01*
X128721086Y-103999799D01*
X128913999Y-103806886D01*
X129065571Y-103580043D01*
X129169975Y-103327989D01*
X129223200Y-103060411D01*
X129223200Y-102787589D01*
X129194367Y-102642635D01*
X130518402Y-101318600D01*
X132758397Y-101318600D01*
X132585002Y-101491994D01*
G04 #@! TA.AperFunction,Conductor*
D31*
G36*
X132585002Y-101491994D02*
G01*
X132555999Y-101515797D01*
X132518044Y-101562046D01*
X132461026Y-101631522D01*
X132417154Y-101713601D01*
X132390454Y-101763552D01*
X132346997Y-101906813D01*
X132336000Y-102018466D01*
X132336000Y-102018476D01*
X132332324Y-102055798D01*
X132336000Y-102093121D01*
X132336001Y-103368070D01*
X132332324Y-103405402D01*
X132336001Y-103442735D01*
X132346650Y-103550849D01*
X132346998Y-103554387D01*
X132390454Y-103697648D01*
X132461026Y-103829678D01*
X132505099Y-103883380D01*
X132556000Y-103945403D01*
X132584998Y-103969201D01*
X134257403Y-105641608D01*
X134281197Y-105670601D01*
X134310190Y-105694395D01*
X134310194Y-105694399D01*
X134342875Y-105721219D01*
X134396922Y-105765574D01*
X134528951Y-105836146D01*
X134672212Y-105879603D01*
X134783865Y-105890600D01*
X134783874Y-105890600D01*
X134821197Y-105894276D01*
X134858520Y-105890600D01*
X145167478Y-105890600D01*
X145204800Y-105894276D01*
X145242122Y-105890600D01*
X145242133Y-105890600D01*
X145353786Y-105879603D01*
X145497047Y-105836146D01*
X145629076Y-105765574D01*
X145744801Y-105670601D01*
X145768604Y-105641597D01*
X147017730Y-104392472D01*
X147694271Y-104392472D01*
X148939501Y-105637703D01*
X148963299Y-105666701D01*
X149079024Y-105761674D01*
X149211053Y-105832246D01*
X149354314Y-105875703D01*
X149465967Y-105886700D01*
X149465975Y-105886700D01*
X149503300Y-105890376D01*
X149540625Y-105886700D01*
X152774306Y-105886700D01*
X152812195Y-105957586D01*
X152922638Y-106092162D01*
X153057214Y-106202605D01*
X153210750Y-106284672D01*
X153265600Y-106301311D01*
X153265601Y-107962578D01*
X153261149Y-107963928D01*
X153107613Y-108045995D01*
X152973038Y-108156438D01*
X152862595Y-108291013D01*
X152818024Y-108374400D01*
X149198322Y-108374400D01*
X149160999Y-108370724D01*
X149123676Y-108374400D01*
X149123667Y-108374400D01*
X149012014Y-108385397D01*
X148868753Y-108428854D01*
X148736724Y-108499426D01*
X148736722Y-108499427D01*
X148736723Y-108499427D01*
X148649996Y-108570601D01*
X148649992Y-108570605D01*
X148620999Y-108594399D01*
X148597205Y-108623392D01*
X147694270Y-109526328D01*
X146706000Y-109526328D01*
X146581518Y-109538588D01*
X146461820Y-109574898D01*
X146351506Y-109633863D01*
X146254815Y-109713215D01*
X146175463Y-109809906D01*
X146116498Y-109920220D01*
X146080188Y-110039918D01*
X146067928Y-110164400D01*
X146067928Y-111714400D01*
X146080188Y-111838882D01*
X146116498Y-111958580D01*
X146175463Y-112068894D01*
X146254815Y-112165585D01*
X146351506Y-112244937D01*
X146461820Y-112303902D01*
X146581518Y-112340212D01*
X146706000Y-112352472D01*
X148006000Y-112352472D01*
X148130482Y-112340212D01*
X148250180Y-112303902D01*
X148360494Y-112244937D01*
X148457185Y-112165585D01*
X148536537Y-112068894D01*
X148595502Y-111958580D01*
X148631812Y-111838882D01*
X148644072Y-111714400D01*
X148644072Y-110726130D01*
X149475803Y-109894400D01*
X150630299Y-109894400D01*
X150616498Y-109920220D01*
X150580188Y-110039918D01*
X150567928Y-110164400D01*
X150571000Y-110653650D01*
X150729750Y-110812400D01*
X151729000Y-110812400D01*
X151729000Y-110792400D01*
X151983000Y-110792400D01*
X151983000Y-110812400D01*
X152003000Y-110812400D01*
X152003000Y-111066400D01*
X151983000Y-111066400D01*
X151983000Y-111086400D01*
X151729000Y-111086400D01*
X151729000Y-111066400D01*
X150729750Y-111066400D01*
X150571000Y-111225150D01*
X150567928Y-111714400D01*
X150580188Y-111838882D01*
X150616498Y-111958580D01*
X150675463Y-112068894D01*
X150754815Y-112165585D01*
X150851506Y-112244937D01*
X150961820Y-112303902D01*
X151081518Y-112340212D01*
X151206000Y-112352472D01*
X151227982Y-112352287D01*
X150821669Y-112758600D01*
X143479711Y-112758600D01*
X143502012Y-112685082D01*
X143514272Y-112560600D01*
X143514272Y-110120600D01*
X143502012Y-109996118D01*
X143465702Y-109876420D01*
X143406737Y-109766106D01*
X143327385Y-109669415D01*
X143230694Y-109590063D01*
X143120380Y-109531098D01*
X143000682Y-109494788D01*
X142876200Y-109482528D01*
X141756200Y-109482528D01*
X141631718Y-109494788D01*
X141512020Y-109531098D01*
X141401706Y-109590063D01*
X141305015Y-109669415D01*
X141225663Y-109766106D01*
X141166698Y-109876420D01*
X141130388Y-109996118D01*
X141118128Y-110120600D01*
X141118128Y-110580600D01*
X140974272Y-110580600D01*
X140974272Y-110120600D01*
X140962012Y-109996118D01*
X140925702Y-109876420D01*
X140866737Y-109766106D01*
X140787385Y-109669415D01*
X140690694Y-109590063D01*
X140580380Y-109531098D01*
X140460682Y-109494788D01*
X140336200Y-109482528D01*
X139216200Y-109482528D01*
X139091718Y-109494788D01*
X138972020Y-109531098D01*
X138861706Y-109590063D01*
X138765015Y-109669415D01*
X138685663Y-109766106D01*
X138626698Y-109876420D01*
X138590388Y-109996118D01*
X138578128Y-110120600D01*
X138578128Y-110580600D01*
X138434272Y-110580600D01*
X138434272Y-110120600D01*
X138422012Y-109996118D01*
X138385702Y-109876420D01*
X138326737Y-109766106D01*
X138247385Y-109669415D01*
X138150694Y-109590063D01*
X138040380Y-109531098D01*
X137920682Y-109494788D01*
X137796200Y-109482528D01*
X136676200Y-109482528D01*
X136551718Y-109494788D01*
X136432020Y-109531098D01*
X136321706Y-109590063D01*
X136225015Y-109669415D01*
X136145663Y-109766106D01*
X136086698Y-109876420D01*
X136050388Y-109996118D01*
X136038128Y-110120600D01*
X136038128Y-110580600D01*
X135894272Y-110580600D01*
X135894272Y-110120600D01*
X135882012Y-109996118D01*
X135845702Y-109876420D01*
X135786737Y-109766106D01*
X135707385Y-109669415D01*
X135610694Y-109590063D01*
X135500380Y-109531098D01*
X135380682Y-109494788D01*
X135256200Y-109482528D01*
X134136200Y-109482528D01*
X134011718Y-109494788D01*
X133892020Y-109531098D01*
X133781706Y-109590063D01*
X133685015Y-109669415D01*
X133605663Y-109766106D01*
X133546698Y-109876420D01*
X133510388Y-109996118D01*
X133498128Y-110120600D01*
X133498128Y-110573952D01*
X132605272Y-109681097D01*
X132605272Y-109571799D01*
X132588208Y-109398545D01*
X132537672Y-109231949D01*
X132455605Y-109078413D01*
X132345162Y-108943838D01*
X132210587Y-108833395D01*
X132057051Y-108751328D01*
X131890455Y-108700792D01*
X131717201Y-108683728D01*
X130817199Y-108683728D01*
X130643945Y-108700792D01*
X130477349Y-108751328D01*
X130323813Y-108833395D01*
X130189238Y-108943838D01*
X130078795Y-109078413D01*
X129996728Y-109231949D01*
X129946192Y-109398545D01*
X129929128Y-109571799D01*
X129929128Y-110271801D01*
X129946192Y-110445055D01*
X129996728Y-110611651D01*
X130078795Y-110765187D01*
X130189238Y-110899762D01*
X130216091Y-110921800D01*
X130189238Y-110943838D01*
X130078795Y-111078413D01*
X129996728Y-111231949D01*
X129946192Y-111398545D01*
X129933458Y-111527837D01*
X129813052Y-111626652D01*
X129774933Y-111673100D01*
X127911702Y-111673100D01*
X127339446Y-111100845D01*
X127603250Y-111099000D01*
X127762000Y-110940250D01*
X127762000Y-110003500D01*
X128016000Y-110003500D01*
X128016000Y-110940250D01*
X128174750Y-111099000D01*
X128614000Y-111102072D01*
X128738482Y-111089812D01*
X128858180Y-111053502D01*
X128968494Y-110994537D01*
X129065185Y-110915185D01*
X129144537Y-110818494D01*
X129203502Y-110708180D01*
X129239812Y-110588482D01*
X129252072Y-110464000D01*
X129249000Y-110162250D01*
X129090250Y-110003500D01*
X128016000Y-110003500D01*
X127762000Y-110003500D01*
X127742000Y-110003500D01*
X127742000Y-109749500D01*
X127762000Y-109749500D01*
X127762000Y-109729500D01*
X128016000Y-109729500D01*
X128016000Y-109749500D01*
X129090250Y-109749500D01*
X129249000Y-109590750D01*
X129252072Y-109289000D01*
X129239812Y-109164518D01*
X129203502Y-109044820D01*
X129144537Y-108934506D01*
X129065185Y-108837815D01*
X128985406Y-108772342D01*
X128991962Y-108766962D01*
X129102405Y-108632386D01*
X129184472Y-108478850D01*
X129235008Y-108312254D01*
X129252072Y-108139000D01*
X129252072Y-107464000D01*
X129235008Y-107290746D01*
X129184472Y-107124150D01*
X129102405Y-106970614D01*
X128991962Y-106836038D01*
X128857386Y-106725595D01*
X128703850Y-106643528D01*
X128649000Y-106626890D01*
X128649000Y-104047965D01*
X128721086Y-103999799D01*
X128913999Y-103806886D01*
X129065571Y-103580043D01*
X129169975Y-103327989D01*
X129223200Y-103060411D01*
X129223200Y-102787589D01*
X129194367Y-102642635D01*
X130518402Y-101318600D01*
X132758397Y-101318600D01*
X132585002Y-101491994D01*
G37*
G04 #@! TD.AperFunction*
D30*
X184456401Y-89890248D02*
X184456400Y-90889089D01*
X184387463Y-90958026D01*
X184274195Y-91127544D01*
X184196174Y-91315902D01*
X184156400Y-91515861D01*
X184156400Y-91719739D01*
X184157174Y-91723628D01*
X183393624Y-91723628D01*
X183498705Y-91595586D01*
X183580772Y-91442050D01*
X183631308Y-91275454D01*
X183648372Y-91102200D01*
X183648372Y-90152200D01*
X183631308Y-89978946D01*
X183580772Y-89812350D01*
X183498705Y-89658814D01*
X183388262Y-89524238D01*
X183253686Y-89413795D01*
X183100150Y-89331728D01*
X182933554Y-89281192D01*
X182760300Y-89264128D01*
X182085300Y-89264128D01*
X181912046Y-89281192D01*
X181745450Y-89331728D01*
X181591914Y-89413795D01*
X181457338Y-89524238D01*
X181451958Y-89530794D01*
X181386485Y-89451015D01*
X181289794Y-89371663D01*
X181179480Y-89312698D01*
X181059782Y-89276388D01*
X180935300Y-89264128D01*
X180633550Y-89267200D01*
X180474800Y-89425950D01*
X180474800Y-90500200D01*
X180494800Y-90500200D01*
X180494800Y-90754200D01*
X180474800Y-90754200D01*
X180474800Y-90774200D01*
X180220800Y-90774200D01*
X180220800Y-90754200D01*
X179284050Y-90754200D01*
X179125300Y-90912950D01*
X179122228Y-91352200D01*
X179134488Y-91476682D01*
X179170798Y-91596380D01*
X179229763Y-91706694D01*
X179309115Y-91803385D01*
X179405806Y-91882737D01*
X179516120Y-91941702D01*
X179530613Y-91946098D01*
X179480463Y-92007206D01*
X179421498Y-92117520D01*
X179385188Y-92237218D01*
X179372928Y-92361700D01*
X179376000Y-93175950D01*
X179534750Y-93334700D01*
X180484000Y-93334700D01*
X180484000Y-93314700D01*
X180738000Y-93314700D01*
X180738000Y-93334700D01*
X180758000Y-93334700D01*
X180758000Y-93588700D01*
X180738000Y-93588700D01*
X180738000Y-95037950D01*
X180883809Y-95183759D01*
X178597864Y-97469705D01*
X178554550Y-97505252D01*
X178412715Y-97678078D01*
X178323914Y-97844215D01*
X178307323Y-97875255D01*
X178242422Y-98089203D01*
X178220508Y-98311701D01*
X178225999Y-98367453D01*
X178226000Y-108763667D01*
X176031059Y-110958610D01*
X168596142Y-110958610D01*
X167174800Y-109537269D01*
X167174800Y-108291880D01*
X167247746Y-108314008D01*
X167421000Y-108331072D01*
X168621000Y-108331072D01*
X168794254Y-108314008D01*
X168960850Y-108263472D01*
X169114386Y-108181405D01*
X169248962Y-108070962D01*
X169359405Y-107936386D01*
X169413777Y-107834663D01*
X169465866Y-107898134D01*
X169691987Y-108083706D01*
X169949967Y-108221599D01*
X170229890Y-108306513D01*
X170521000Y-108335185D01*
X170812111Y-108306513D01*
X171092034Y-108221599D01*
X171350014Y-108083706D01*
X171576134Y-107898134D01*
X171761706Y-107672014D01*
X171771000Y-107654626D01*
X171780294Y-107672014D01*
X171965866Y-107898134D01*
X172191987Y-108083706D01*
X172449967Y-108221599D01*
X172729890Y-108306513D01*
X173021000Y-108335185D01*
X173312111Y-108306513D01*
X173592034Y-108221599D01*
X173850014Y-108083706D01*
X174076134Y-107898134D01*
X174261706Y-107672014D01*
X174275462Y-107646278D01*
X174431951Y-107852429D01*
X174649807Y-108045496D01*
X174901142Y-108192352D01*
X175164110Y-108284476D01*
X175394000Y-108163155D01*
X175394000Y-106845000D01*
X175648000Y-106845000D01*
X175648000Y-108163155D01*
X175877890Y-108284476D01*
X176140858Y-108192352D01*
X176392193Y-108045496D01*
X176610049Y-107852429D01*
X176786053Y-107620570D01*
X176913442Y-107358830D01*
X176987320Y-107077267D01*
X176847165Y-106845000D01*
X175648000Y-106845000D01*
X175394000Y-106845000D01*
X175374000Y-106845000D01*
X175374000Y-106591000D01*
X175394000Y-106591000D01*
X175394000Y-105272845D01*
X175648000Y-105272845D01*
X175648000Y-106591000D01*
X176847165Y-106591000D01*
X176987320Y-106358733D01*
X176913442Y-106077170D01*
X176786053Y-105815430D01*
X176610049Y-105583571D01*
X176392193Y-105390504D01*
X176140858Y-105243648D01*
X175877890Y-105151524D01*
X175648000Y-105272845D01*
X175394000Y-105272845D01*
X175164110Y-105151524D01*
X174901142Y-105243648D01*
X174649807Y-105390504D01*
X174431951Y-105583571D01*
X174418700Y-105601027D01*
X174418700Y-94822273D01*
X174439520Y-94833402D01*
X174559218Y-94869712D01*
X174683700Y-94881972D01*
X175247950Y-94878900D01*
X175406700Y-94720150D01*
X175406700Y-93395900D01*
X175660700Y-93395900D01*
X175660700Y-94720150D01*
X175819450Y-94878900D01*
X176383700Y-94881972D01*
X176508182Y-94869712D01*
X176627880Y-94833402D01*
X176738194Y-94774437D01*
X176834885Y-94695085D01*
X176914237Y-94598394D01*
X176933850Y-94561700D01*
X179372928Y-94561700D01*
X179385188Y-94686182D01*
X179421498Y-94805880D01*
X179480463Y-94916194D01*
X179559815Y-95012885D01*
X179656506Y-95092237D01*
X179766820Y-95151202D01*
X179886518Y-95187512D01*
X180011000Y-95199772D01*
X180325250Y-95196700D01*
X180484000Y-95037950D01*
X180484000Y-93588700D01*
X179534750Y-93588700D01*
X179376000Y-93747450D01*
X179372928Y-94561700D01*
X176933850Y-94561700D01*
X176973202Y-94488080D01*
X177009512Y-94368382D01*
X177021772Y-94243900D01*
X177018700Y-93554650D01*
X176859950Y-93395900D01*
X175660700Y-93395900D01*
X175406700Y-93395900D01*
X175386700Y-93395900D01*
X175386700Y-93141900D01*
X175406700Y-93141900D01*
X175406700Y-91817650D01*
X175660700Y-91817650D01*
X175660700Y-93141900D01*
X176859950Y-93141900D01*
X177018700Y-92983150D01*
X177021772Y-92293900D01*
X177009512Y-92169418D01*
X176973202Y-92049720D01*
X176914237Y-91939406D01*
X176834885Y-91842715D01*
X176738194Y-91763363D01*
X176627880Y-91704398D01*
X176508182Y-91668088D01*
X176383700Y-91655828D01*
X175819450Y-91658900D01*
X175660700Y-91817650D01*
X175406700Y-91817650D01*
X175247950Y-91658900D01*
X174683700Y-91655828D01*
X174559218Y-91668088D01*
X174439520Y-91704398D01*
X174329206Y-91763363D01*
X174232515Y-91842715D01*
X174153163Y-91939406D01*
X174094198Y-92049720D01*
X174083645Y-92084508D01*
X173862714Y-91903194D01*
X173604734Y-91765301D01*
X173324811Y-91680387D01*
X173033700Y-91651715D01*
X172742590Y-91680387D01*
X172462667Y-91765301D01*
X172204687Y-91903194D01*
X171978566Y-92088766D01*
X171792994Y-92314886D01*
X171783700Y-92332274D01*
X171774406Y-92314886D01*
X171588834Y-92088766D01*
X171362714Y-91903194D01*
X171104734Y-91765301D01*
X170824811Y-91680387D01*
X170533700Y-91651715D01*
X170242590Y-91680387D01*
X169962667Y-91765301D01*
X169704687Y-91903194D01*
X169478566Y-92088766D01*
X169292994Y-92314886D01*
X169283700Y-92332274D01*
X169274406Y-92314886D01*
X169088834Y-92088766D01*
X168862714Y-91903194D01*
X168604734Y-91765301D01*
X168438299Y-91714813D01*
X167561154Y-90837669D01*
X167517781Y-90784819D01*
X167306888Y-90611743D01*
X167066281Y-90483136D01*
X166805207Y-90403940D01*
X166601737Y-90383900D01*
X166601729Y-90383900D01*
X166533700Y-90377200D01*
X166465671Y-90383900D01*
X164188492Y-90383900D01*
X164157300Y-90380828D01*
X163727914Y-90380828D01*
X163249286Y-89902200D01*
X179122228Y-89902200D01*
X179125300Y-90341450D01*
X179284050Y-90500200D01*
X180220800Y-90500200D01*
X180220800Y-89425950D01*
X180062050Y-89267200D01*
X179760300Y-89264128D01*
X179635818Y-89276388D01*
X179516120Y-89312698D01*
X179405806Y-89371663D01*
X179309115Y-89451015D01*
X179229763Y-89547706D01*
X179170798Y-89658020D01*
X179134488Y-89777718D01*
X179122228Y-89902200D01*
X163249286Y-89902200D01*
X162429800Y-89082715D01*
X162429800Y-88946263D01*
X162409760Y-88742793D01*
X162330564Y-88481719D01*
X162233063Y-88299308D01*
X162202772Y-88199450D01*
X162120705Y-88045914D01*
X162010262Y-87911338D01*
X161875686Y-87800895D01*
X161722150Y-87718828D01*
X161555554Y-87668292D01*
X161382300Y-87651228D01*
X161322530Y-87651228D01*
X161316306Y-87649340D01*
X161044800Y-87622599D01*
X160773293Y-87649340D01*
X160767069Y-87651228D01*
X160707300Y-87651228D01*
X160534046Y-87668292D01*
X160367450Y-87718828D01*
X160213914Y-87800895D01*
X160079338Y-87911338D01*
X160073958Y-87917894D01*
X160008485Y-87838115D01*
X159911794Y-87758763D01*
X159801480Y-87699798D01*
X159681782Y-87663488D01*
X159557300Y-87651228D01*
X159255550Y-87654300D01*
X159096800Y-87813050D01*
X159096800Y-88887300D01*
X159116800Y-88887300D01*
X159116800Y-89141300D01*
X159096800Y-89141300D01*
X159096800Y-90215550D01*
X159255550Y-90374300D01*
X159557300Y-90377372D01*
X159681782Y-90365112D01*
X159801480Y-90328802D01*
X159826596Y-90315377D01*
X159887643Y-90429588D01*
X159977106Y-90538598D01*
X160012770Y-90582054D01*
X160060720Y-90640481D01*
X160113564Y-90683849D01*
X161519228Y-92089514D01*
X161519228Y-92518900D01*
X161531488Y-92643382D01*
X161567798Y-92763080D01*
X161626763Y-92873394D01*
X161664109Y-92918900D01*
X161651799Y-92933900D01*
X158495372Y-92933900D01*
X158495372Y-92168900D01*
X158483112Y-92044418D01*
X158446802Y-91924720D01*
X158387837Y-91814406D01*
X158308485Y-91717715D01*
X158211794Y-91638363D01*
X158101480Y-91579398D01*
X157981782Y-91543088D01*
X157857300Y-91530828D01*
X155857300Y-91530828D01*
X155732818Y-91543088D01*
X155613120Y-91579398D01*
X155502806Y-91638363D01*
X155406115Y-91717715D01*
X155326763Y-91814406D01*
X155267798Y-91924720D01*
X155231488Y-92044418D01*
X155219228Y-92168900D01*
X155219228Y-94101839D01*
X152158069Y-97163000D01*
X150628853Y-97163000D01*
X150552562Y-97070038D01*
X150417986Y-96959595D01*
X150316263Y-96905223D01*
X150379734Y-96853134D01*
X150565306Y-96627014D01*
X150703199Y-96369034D01*
X150788113Y-96089111D01*
X150816785Y-95798000D01*
X150788113Y-95506889D01*
X150703199Y-95226966D01*
X150565306Y-94968986D01*
X150379734Y-94742866D01*
X150153614Y-94557294D01*
X150136226Y-94548000D01*
X150153614Y-94538706D01*
X150379734Y-94353134D01*
X150565306Y-94127014D01*
X150703199Y-93869034D01*
X150788113Y-93589111D01*
X150816785Y-93298000D01*
X150788113Y-93006889D01*
X150703199Y-92726966D01*
X150565306Y-92468986D01*
X150379734Y-92242866D01*
X150153614Y-92057294D01*
X150127878Y-92043538D01*
X150334029Y-91887049D01*
X150527096Y-91669193D01*
X150673952Y-91417858D01*
X150766076Y-91154890D01*
X150644755Y-90925000D01*
X149326600Y-90925000D01*
X149326600Y-90945000D01*
X149072600Y-90945000D01*
X149072600Y-90925000D01*
X149052600Y-90925000D01*
X149052600Y-90671000D01*
X149072600Y-90671000D01*
X149072600Y-89471835D01*
X149326600Y-89471835D01*
X149326600Y-90671000D01*
X150644755Y-90671000D01*
X150766076Y-90441110D01*
X150673952Y-90178142D01*
X150527096Y-89926807D01*
X150360925Y-89739300D01*
X157744228Y-89739300D01*
X157756488Y-89863782D01*
X157792798Y-89983480D01*
X157851763Y-90093794D01*
X157931115Y-90190485D01*
X158027806Y-90269837D01*
X158138120Y-90328802D01*
X158257818Y-90365112D01*
X158382300Y-90377372D01*
X158684050Y-90374300D01*
X158842800Y-90215550D01*
X158842800Y-89141300D01*
X157906050Y-89141300D01*
X157747300Y-89300050D01*
X157744228Y-89739300D01*
X150360925Y-89739300D01*
X150334029Y-89708951D01*
X150102170Y-89532947D01*
X149840430Y-89405558D01*
X149558867Y-89331680D01*
X149326600Y-89471835D01*
X149072600Y-89471835D01*
X148840333Y-89331680D01*
X148558770Y-89405558D01*
X148297030Y-89532947D01*
X148065171Y-89708951D01*
X147884087Y-89913285D01*
X146260102Y-88289300D01*
X157744228Y-88289300D01*
X157747300Y-88728550D01*
X157906050Y-88887300D01*
X158842800Y-88887300D01*
X158842800Y-87813050D01*
X158684050Y-87654300D01*
X158382300Y-87651228D01*
X158257818Y-87663488D01*
X158138120Y-87699798D01*
X158027806Y-87758763D01*
X157931115Y-87838115D01*
X157851763Y-87934806D01*
X157792798Y-88045120D01*
X157756488Y-88164818D01*
X157744228Y-88289300D01*
X146260102Y-88289300D01*
X145801004Y-87830203D01*
X145777201Y-87801199D01*
X145661476Y-87706226D01*
X145529447Y-87635654D01*
X145386186Y-87592197D01*
X145274533Y-87581200D01*
X145274522Y-87581200D01*
X145237200Y-87577524D01*
X145199878Y-87581200D01*
X141977472Y-87581200D01*
X141977472Y-86998990D01*
X181565144Y-86998990D01*
X184456401Y-89890248D01*
G04 #@! TA.AperFunction,Conductor*
D31*
G36*
X184456401Y-89890248D02*
G01*
X184456400Y-90889089D01*
X184387463Y-90958026D01*
X184274195Y-91127544D01*
X184196174Y-91315902D01*
X184156400Y-91515861D01*
X184156400Y-91719739D01*
X184157174Y-91723628D01*
X183393624Y-91723628D01*
X183498705Y-91595586D01*
X183580772Y-91442050D01*
X183631308Y-91275454D01*
X183648372Y-91102200D01*
X183648372Y-90152200D01*
X183631308Y-89978946D01*
X183580772Y-89812350D01*
X183498705Y-89658814D01*
X183388262Y-89524238D01*
X183253686Y-89413795D01*
X183100150Y-89331728D01*
X182933554Y-89281192D01*
X182760300Y-89264128D01*
X182085300Y-89264128D01*
X181912046Y-89281192D01*
X181745450Y-89331728D01*
X181591914Y-89413795D01*
X181457338Y-89524238D01*
X181451958Y-89530794D01*
X181386485Y-89451015D01*
X181289794Y-89371663D01*
X181179480Y-89312698D01*
X181059782Y-89276388D01*
X180935300Y-89264128D01*
X180633550Y-89267200D01*
X180474800Y-89425950D01*
X180474800Y-90500200D01*
X180494800Y-90500200D01*
X180494800Y-90754200D01*
X180474800Y-90754200D01*
X180474800Y-90774200D01*
X180220800Y-90774200D01*
X180220800Y-90754200D01*
X179284050Y-90754200D01*
X179125300Y-90912950D01*
X179122228Y-91352200D01*
X179134488Y-91476682D01*
X179170798Y-91596380D01*
X179229763Y-91706694D01*
X179309115Y-91803385D01*
X179405806Y-91882737D01*
X179516120Y-91941702D01*
X179530613Y-91946098D01*
X179480463Y-92007206D01*
X179421498Y-92117520D01*
X179385188Y-92237218D01*
X179372928Y-92361700D01*
X179376000Y-93175950D01*
X179534750Y-93334700D01*
X180484000Y-93334700D01*
X180484000Y-93314700D01*
X180738000Y-93314700D01*
X180738000Y-93334700D01*
X180758000Y-93334700D01*
X180758000Y-93588700D01*
X180738000Y-93588700D01*
X180738000Y-95037950D01*
X180883809Y-95183759D01*
X178597864Y-97469705D01*
X178554550Y-97505252D01*
X178412715Y-97678078D01*
X178323914Y-97844215D01*
X178307323Y-97875255D01*
X178242422Y-98089203D01*
X178220508Y-98311701D01*
X178225999Y-98367453D01*
X178226000Y-108763667D01*
X176031059Y-110958610D01*
X168596142Y-110958610D01*
X167174800Y-109537269D01*
X167174800Y-108291880D01*
X167247746Y-108314008D01*
X167421000Y-108331072D01*
X168621000Y-108331072D01*
X168794254Y-108314008D01*
X168960850Y-108263472D01*
X169114386Y-108181405D01*
X169248962Y-108070962D01*
X169359405Y-107936386D01*
X169413777Y-107834663D01*
X169465866Y-107898134D01*
X169691987Y-108083706D01*
X169949967Y-108221599D01*
X170229890Y-108306513D01*
X170521000Y-108335185D01*
X170812111Y-108306513D01*
X171092034Y-108221599D01*
X171350014Y-108083706D01*
X171576134Y-107898134D01*
X171761706Y-107672014D01*
X171771000Y-107654626D01*
X171780294Y-107672014D01*
X171965866Y-107898134D01*
X172191987Y-108083706D01*
X172449967Y-108221599D01*
X172729890Y-108306513D01*
X173021000Y-108335185D01*
X173312111Y-108306513D01*
X173592034Y-108221599D01*
X173850014Y-108083706D01*
X174076134Y-107898134D01*
X174261706Y-107672014D01*
X174275462Y-107646278D01*
X174431951Y-107852429D01*
X174649807Y-108045496D01*
X174901142Y-108192352D01*
X175164110Y-108284476D01*
X175394000Y-108163155D01*
X175394000Y-106845000D01*
X175648000Y-106845000D01*
X175648000Y-108163155D01*
X175877890Y-108284476D01*
X176140858Y-108192352D01*
X176392193Y-108045496D01*
X176610049Y-107852429D01*
X176786053Y-107620570D01*
X176913442Y-107358830D01*
X176987320Y-107077267D01*
X176847165Y-106845000D01*
X175648000Y-106845000D01*
X175394000Y-106845000D01*
X175374000Y-106845000D01*
X175374000Y-106591000D01*
X175394000Y-106591000D01*
X175394000Y-105272845D01*
X175648000Y-105272845D01*
X175648000Y-106591000D01*
X176847165Y-106591000D01*
X176987320Y-106358733D01*
X176913442Y-106077170D01*
X176786053Y-105815430D01*
X176610049Y-105583571D01*
X176392193Y-105390504D01*
X176140858Y-105243648D01*
X175877890Y-105151524D01*
X175648000Y-105272845D01*
X175394000Y-105272845D01*
X175164110Y-105151524D01*
X174901142Y-105243648D01*
X174649807Y-105390504D01*
X174431951Y-105583571D01*
X174418700Y-105601027D01*
X174418700Y-94822273D01*
X174439520Y-94833402D01*
X174559218Y-94869712D01*
X174683700Y-94881972D01*
X175247950Y-94878900D01*
X175406700Y-94720150D01*
X175406700Y-93395900D01*
X175660700Y-93395900D01*
X175660700Y-94720150D01*
X175819450Y-94878900D01*
X176383700Y-94881972D01*
X176508182Y-94869712D01*
X176627880Y-94833402D01*
X176738194Y-94774437D01*
X176834885Y-94695085D01*
X176914237Y-94598394D01*
X176933850Y-94561700D01*
X179372928Y-94561700D01*
X179385188Y-94686182D01*
X179421498Y-94805880D01*
X179480463Y-94916194D01*
X179559815Y-95012885D01*
X179656506Y-95092237D01*
X179766820Y-95151202D01*
X179886518Y-95187512D01*
X180011000Y-95199772D01*
X180325250Y-95196700D01*
X180484000Y-95037950D01*
X180484000Y-93588700D01*
X179534750Y-93588700D01*
X179376000Y-93747450D01*
X179372928Y-94561700D01*
X176933850Y-94561700D01*
X176973202Y-94488080D01*
X177009512Y-94368382D01*
X177021772Y-94243900D01*
X177018700Y-93554650D01*
X176859950Y-93395900D01*
X175660700Y-93395900D01*
X175406700Y-93395900D01*
X175386700Y-93395900D01*
X175386700Y-93141900D01*
X175406700Y-93141900D01*
X175406700Y-91817650D01*
X175660700Y-91817650D01*
X175660700Y-93141900D01*
X176859950Y-93141900D01*
X177018700Y-92983150D01*
X177021772Y-92293900D01*
X177009512Y-92169418D01*
X176973202Y-92049720D01*
X176914237Y-91939406D01*
X176834885Y-91842715D01*
X176738194Y-91763363D01*
X176627880Y-91704398D01*
X176508182Y-91668088D01*
X176383700Y-91655828D01*
X175819450Y-91658900D01*
X175660700Y-91817650D01*
X175406700Y-91817650D01*
X175247950Y-91658900D01*
X174683700Y-91655828D01*
X174559218Y-91668088D01*
X174439520Y-91704398D01*
X174329206Y-91763363D01*
X174232515Y-91842715D01*
X174153163Y-91939406D01*
X174094198Y-92049720D01*
X174083645Y-92084508D01*
X173862714Y-91903194D01*
X173604734Y-91765301D01*
X173324811Y-91680387D01*
X173033700Y-91651715D01*
X172742590Y-91680387D01*
X172462667Y-91765301D01*
X172204687Y-91903194D01*
X171978566Y-92088766D01*
X171792994Y-92314886D01*
X171783700Y-92332274D01*
X171774406Y-92314886D01*
X171588834Y-92088766D01*
X171362714Y-91903194D01*
X171104734Y-91765301D01*
X170824811Y-91680387D01*
X170533700Y-91651715D01*
X170242590Y-91680387D01*
X169962667Y-91765301D01*
X169704687Y-91903194D01*
X169478566Y-92088766D01*
X169292994Y-92314886D01*
X169283700Y-92332274D01*
X169274406Y-92314886D01*
X169088834Y-92088766D01*
X168862714Y-91903194D01*
X168604734Y-91765301D01*
X168438299Y-91714813D01*
X167561154Y-90837669D01*
X167517781Y-90784819D01*
X167306888Y-90611743D01*
X167066281Y-90483136D01*
X166805207Y-90403940D01*
X166601737Y-90383900D01*
X166601729Y-90383900D01*
X166533700Y-90377200D01*
X166465671Y-90383900D01*
X164188492Y-90383900D01*
X164157300Y-90380828D01*
X163727914Y-90380828D01*
X163249286Y-89902200D01*
X179122228Y-89902200D01*
X179125300Y-90341450D01*
X179284050Y-90500200D01*
X180220800Y-90500200D01*
X180220800Y-89425950D01*
X180062050Y-89267200D01*
X179760300Y-89264128D01*
X179635818Y-89276388D01*
X179516120Y-89312698D01*
X179405806Y-89371663D01*
X179309115Y-89451015D01*
X179229763Y-89547706D01*
X179170798Y-89658020D01*
X179134488Y-89777718D01*
X179122228Y-89902200D01*
X163249286Y-89902200D01*
X162429800Y-89082715D01*
X162429800Y-88946263D01*
X162409760Y-88742793D01*
X162330564Y-88481719D01*
X162233063Y-88299308D01*
X162202772Y-88199450D01*
X162120705Y-88045914D01*
X162010262Y-87911338D01*
X161875686Y-87800895D01*
X161722150Y-87718828D01*
X161555554Y-87668292D01*
X161382300Y-87651228D01*
X161322530Y-87651228D01*
X161316306Y-87649340D01*
X161044800Y-87622599D01*
X160773293Y-87649340D01*
X160767069Y-87651228D01*
X160707300Y-87651228D01*
X160534046Y-87668292D01*
X160367450Y-87718828D01*
X160213914Y-87800895D01*
X160079338Y-87911338D01*
X160073958Y-87917894D01*
X160008485Y-87838115D01*
X159911794Y-87758763D01*
X159801480Y-87699798D01*
X159681782Y-87663488D01*
X159557300Y-87651228D01*
X159255550Y-87654300D01*
X159096800Y-87813050D01*
X159096800Y-88887300D01*
X159116800Y-88887300D01*
X159116800Y-89141300D01*
X159096800Y-89141300D01*
X159096800Y-90215550D01*
X159255550Y-90374300D01*
X159557300Y-90377372D01*
X159681782Y-90365112D01*
X159801480Y-90328802D01*
X159826596Y-90315377D01*
X159887643Y-90429588D01*
X159977106Y-90538598D01*
X160012770Y-90582054D01*
X160060720Y-90640481D01*
X160113564Y-90683849D01*
X161519228Y-92089514D01*
X161519228Y-92518900D01*
X161531488Y-92643382D01*
X161567798Y-92763080D01*
X161626763Y-92873394D01*
X161664109Y-92918900D01*
X161651799Y-92933900D01*
X158495372Y-92933900D01*
X158495372Y-92168900D01*
X158483112Y-92044418D01*
X158446802Y-91924720D01*
X158387837Y-91814406D01*
X158308485Y-91717715D01*
X158211794Y-91638363D01*
X158101480Y-91579398D01*
X157981782Y-91543088D01*
X157857300Y-91530828D01*
X155857300Y-91530828D01*
X155732818Y-91543088D01*
X155613120Y-91579398D01*
X155502806Y-91638363D01*
X155406115Y-91717715D01*
X155326763Y-91814406D01*
X155267798Y-91924720D01*
X155231488Y-92044418D01*
X155219228Y-92168900D01*
X155219228Y-94101839D01*
X152158069Y-97163000D01*
X150628853Y-97163000D01*
X150552562Y-97070038D01*
X150417986Y-96959595D01*
X150316263Y-96905223D01*
X150379734Y-96853134D01*
X150565306Y-96627014D01*
X150703199Y-96369034D01*
X150788113Y-96089111D01*
X150816785Y-95798000D01*
X150788113Y-95506889D01*
X150703199Y-95226966D01*
X150565306Y-94968986D01*
X150379734Y-94742866D01*
X150153614Y-94557294D01*
X150136226Y-94548000D01*
X150153614Y-94538706D01*
X150379734Y-94353134D01*
X150565306Y-94127014D01*
X150703199Y-93869034D01*
X150788113Y-93589111D01*
X150816785Y-93298000D01*
X150788113Y-93006889D01*
X150703199Y-92726966D01*
X150565306Y-92468986D01*
X150379734Y-92242866D01*
X150153614Y-92057294D01*
X150127878Y-92043538D01*
X150334029Y-91887049D01*
X150527096Y-91669193D01*
X150673952Y-91417858D01*
X150766076Y-91154890D01*
X150644755Y-90925000D01*
X149326600Y-90925000D01*
X149326600Y-90945000D01*
X149072600Y-90945000D01*
X149072600Y-90925000D01*
X149052600Y-90925000D01*
X149052600Y-90671000D01*
X149072600Y-90671000D01*
X149072600Y-89471835D01*
X149326600Y-89471835D01*
X149326600Y-90671000D01*
X150644755Y-90671000D01*
X150766076Y-90441110D01*
X150673952Y-90178142D01*
X150527096Y-89926807D01*
X150360925Y-89739300D01*
X157744228Y-89739300D01*
X157756488Y-89863782D01*
X157792798Y-89983480D01*
X157851763Y-90093794D01*
X157931115Y-90190485D01*
X158027806Y-90269837D01*
X158138120Y-90328802D01*
X158257818Y-90365112D01*
X158382300Y-90377372D01*
X158684050Y-90374300D01*
X158842800Y-90215550D01*
X158842800Y-89141300D01*
X157906050Y-89141300D01*
X157747300Y-89300050D01*
X157744228Y-89739300D01*
X150360925Y-89739300D01*
X150334029Y-89708951D01*
X150102170Y-89532947D01*
X149840430Y-89405558D01*
X149558867Y-89331680D01*
X149326600Y-89471835D01*
X149072600Y-89471835D01*
X148840333Y-89331680D01*
X148558770Y-89405558D01*
X148297030Y-89532947D01*
X148065171Y-89708951D01*
X147884087Y-89913285D01*
X146260102Y-88289300D01*
X157744228Y-88289300D01*
X157747300Y-88728550D01*
X157906050Y-88887300D01*
X158842800Y-88887300D01*
X158842800Y-87813050D01*
X158684050Y-87654300D01*
X158382300Y-87651228D01*
X158257818Y-87663488D01*
X158138120Y-87699798D01*
X158027806Y-87758763D01*
X157931115Y-87838115D01*
X157851763Y-87934806D01*
X157792798Y-88045120D01*
X157756488Y-88164818D01*
X157744228Y-88289300D01*
X146260102Y-88289300D01*
X145801004Y-87830203D01*
X145777201Y-87801199D01*
X145661476Y-87706226D01*
X145529447Y-87635654D01*
X145386186Y-87592197D01*
X145274533Y-87581200D01*
X145274522Y-87581200D01*
X145237200Y-87577524D01*
X145199878Y-87581200D01*
X141977472Y-87581200D01*
X141977472Y-86998990D01*
X181565144Y-86998990D01*
X184456401Y-89890248D01*
G37*
G04 #@! TD.AperFunction*
D30*
X166604614Y-93798499D02*
X166648700Y-93943832D01*
X166648701Y-105563025D01*
X166600528Y-105653150D01*
X166564745Y-105771112D01*
X165948495Y-105154864D01*
X165912949Y-105111551D01*
X165740123Y-104969716D01*
X165542947Y-104864324D01*
X165328999Y-104799423D01*
X165162252Y-104783000D01*
X165162251Y-104783000D01*
X165106500Y-104777509D01*
X165050749Y-104783000D01*
X164612001Y-104783000D01*
X164599691Y-104768000D01*
X164637037Y-104722494D01*
X164696002Y-104612180D01*
X164732312Y-104492482D01*
X164744572Y-104368000D01*
X164744572Y-102868000D01*
X164732312Y-102743518D01*
X164696002Y-102623820D01*
X164637037Y-102513506D01*
X164557685Y-102416815D01*
X164460994Y-102337463D01*
X164350680Y-102278498D01*
X164230982Y-102242188D01*
X164106500Y-102229928D01*
X163323560Y-102229928D01*
X162270372Y-101176741D01*
X162270372Y-100591600D01*
X162253308Y-100418346D01*
X162202772Y-100251750D01*
X162179800Y-100208773D01*
X162179800Y-99917827D01*
X162202772Y-99874850D01*
X162253308Y-99708254D01*
X162270372Y-99535000D01*
X162270372Y-98585000D01*
X162253308Y-98411746D01*
X162202772Y-98245150D01*
X162179800Y-98202173D01*
X162179800Y-97756875D01*
X162871550Y-97753900D01*
X163030300Y-97595150D01*
X163030300Y-96495900D01*
X163284300Y-96495900D01*
X163284300Y-97595150D01*
X163443050Y-97753900D01*
X164157300Y-97756972D01*
X164281782Y-97744712D01*
X164401480Y-97708402D01*
X164511794Y-97649437D01*
X164608485Y-97570085D01*
X164687837Y-97473394D01*
X164746802Y-97363080D01*
X164783112Y-97243382D01*
X164795372Y-97118900D01*
X164792300Y-96654650D01*
X164633550Y-96495900D01*
X163284300Y-96495900D01*
X163030300Y-96495900D01*
X163010300Y-96495900D01*
X163010300Y-96241900D01*
X163030300Y-96241900D01*
X163030300Y-96221900D01*
X163284300Y-96221900D01*
X163284300Y-96241900D01*
X164633550Y-96241900D01*
X164792300Y-96083150D01*
X164795372Y-95618900D01*
X164783112Y-95494418D01*
X164746802Y-95374720D01*
X164687837Y-95264406D01*
X164650491Y-95218900D01*
X164687837Y-95173394D01*
X164746802Y-95063080D01*
X164783112Y-94943382D01*
X164795372Y-94818900D01*
X164795372Y-93318900D01*
X164783112Y-93194418D01*
X164770821Y-93153900D01*
X165960015Y-93153900D01*
X166604614Y-93798499D01*
G04 #@! TA.AperFunction,Conductor*
D31*
G36*
X166604614Y-93798499D02*
G01*
X166648700Y-93943832D01*
X166648701Y-105563025D01*
X166600528Y-105653150D01*
X166564745Y-105771112D01*
X165948495Y-105154864D01*
X165912949Y-105111551D01*
X165740123Y-104969716D01*
X165542947Y-104864324D01*
X165328999Y-104799423D01*
X165162252Y-104783000D01*
X165162251Y-104783000D01*
X165106500Y-104777509D01*
X165050749Y-104783000D01*
X164612001Y-104783000D01*
X164599691Y-104768000D01*
X164637037Y-104722494D01*
X164696002Y-104612180D01*
X164732312Y-104492482D01*
X164744572Y-104368000D01*
X164744572Y-102868000D01*
X164732312Y-102743518D01*
X164696002Y-102623820D01*
X164637037Y-102513506D01*
X164557685Y-102416815D01*
X164460994Y-102337463D01*
X164350680Y-102278498D01*
X164230982Y-102242188D01*
X164106500Y-102229928D01*
X163323560Y-102229928D01*
X162270372Y-101176741D01*
X162270372Y-100591600D01*
X162253308Y-100418346D01*
X162202772Y-100251750D01*
X162179800Y-100208773D01*
X162179800Y-99917827D01*
X162202772Y-99874850D01*
X162253308Y-99708254D01*
X162270372Y-99535000D01*
X162270372Y-98585000D01*
X162253308Y-98411746D01*
X162202772Y-98245150D01*
X162179800Y-98202173D01*
X162179800Y-97756875D01*
X162871550Y-97753900D01*
X163030300Y-97595150D01*
X163030300Y-96495900D01*
X163284300Y-96495900D01*
X163284300Y-97595150D01*
X163443050Y-97753900D01*
X164157300Y-97756972D01*
X164281782Y-97744712D01*
X164401480Y-97708402D01*
X164511794Y-97649437D01*
X164608485Y-97570085D01*
X164687837Y-97473394D01*
X164746802Y-97363080D01*
X164783112Y-97243382D01*
X164795372Y-97118900D01*
X164792300Y-96654650D01*
X164633550Y-96495900D01*
X163284300Y-96495900D01*
X163030300Y-96495900D01*
X163010300Y-96495900D01*
X163010300Y-96241900D01*
X163030300Y-96241900D01*
X163030300Y-96221900D01*
X163284300Y-96221900D01*
X163284300Y-96241900D01*
X164633550Y-96241900D01*
X164792300Y-96083150D01*
X164795372Y-95618900D01*
X164783112Y-95494418D01*
X164746802Y-95374720D01*
X164687837Y-95264406D01*
X164650491Y-95218900D01*
X164687837Y-95173394D01*
X164746802Y-95063080D01*
X164783112Y-94943382D01*
X164795372Y-94818900D01*
X164795372Y-93318900D01*
X164783112Y-93194418D01*
X164770821Y-93153900D01*
X165960015Y-93153900D01*
X166604614Y-93798499D01*
G37*
G04 #@! TD.AperFunction*
D30*
X159904309Y-95393600D02*
X159909801Y-95449361D01*
X159909800Y-97803397D01*
X159801480Y-97745498D01*
X159681782Y-97709188D01*
X159557300Y-97696928D01*
X159255550Y-97700000D01*
X159096800Y-97858750D01*
X159096800Y-98933000D01*
X159116800Y-98933000D01*
X159116800Y-99187000D01*
X159096800Y-99187000D01*
X159096800Y-100939600D01*
X159116800Y-100939600D01*
X159116800Y-101193600D01*
X159096800Y-101193600D01*
X159096800Y-102267850D01*
X159255550Y-102426600D01*
X159557300Y-102429672D01*
X159681782Y-102417412D01*
X159801480Y-102381102D01*
X159911794Y-102322137D01*
X160008485Y-102242785D01*
X160073958Y-102163006D01*
X160079338Y-102169562D01*
X160090554Y-102178766D01*
X160096517Y-102189923D01*
X160238352Y-102362749D01*
X160281660Y-102398291D01*
X161468428Y-103585060D01*
X161468428Y-104368000D01*
X161480688Y-104492482D01*
X161516998Y-104612180D01*
X161575963Y-104722494D01*
X161613309Y-104768000D01*
X161600999Y-104783000D01*
X158444572Y-104783000D01*
X158444572Y-104018000D01*
X158432312Y-103893518D01*
X158396002Y-103773820D01*
X158337037Y-103663506D01*
X158257685Y-103566815D01*
X158160994Y-103487463D01*
X158050680Y-103428498D01*
X157930982Y-103392188D01*
X157806500Y-103379928D01*
X157460826Y-103379928D01*
X157441474Y-103343724D01*
X157370299Y-103256997D01*
X157346501Y-103227999D01*
X157317504Y-103204202D01*
X155904902Y-101791600D01*
X157744228Y-101791600D01*
X157756488Y-101916082D01*
X157792798Y-102035780D01*
X157851763Y-102146094D01*
X157931115Y-102242785D01*
X158027806Y-102322137D01*
X158138120Y-102381102D01*
X158257818Y-102417412D01*
X158382300Y-102429672D01*
X158684050Y-102426600D01*
X158842800Y-102267850D01*
X158842800Y-101193600D01*
X157906050Y-101193600D01*
X157747300Y-101352350D01*
X157744228Y-101791600D01*
X155904902Y-101791600D01*
X154618104Y-100504803D01*
X154594301Y-100475799D01*
X154478576Y-100380826D01*
X154346547Y-100310254D01*
X154203286Y-100266797D01*
X154091633Y-100255800D01*
X154091622Y-100255800D01*
X154054300Y-100252124D01*
X154016978Y-100255800D01*
X149506002Y-100255800D01*
X149036274Y-99786072D01*
X149924600Y-99786072D01*
X149935484Y-99785000D01*
X157744228Y-99785000D01*
X157756488Y-99909482D01*
X157792798Y-100029180D01*
X157811036Y-100063300D01*
X157792798Y-100097420D01*
X157756488Y-100217118D01*
X157744228Y-100341600D01*
X157747300Y-100780850D01*
X157906050Y-100939600D01*
X158842800Y-100939600D01*
X158842800Y-99187000D01*
X157906050Y-99187000D01*
X157747300Y-99345750D01*
X157744228Y-99785000D01*
X149935484Y-99785000D01*
X150097854Y-99769008D01*
X150264450Y-99718472D01*
X150417986Y-99636405D01*
X150552562Y-99525962D01*
X150628853Y-99433000D01*
X152572449Y-99433000D01*
X152628200Y-99438491D01*
X152683951Y-99433000D01*
X152683952Y-99433000D01*
X152850699Y-99416577D01*
X153064647Y-99351676D01*
X153261823Y-99246284D01*
X153434649Y-99104449D01*
X153470196Y-99061135D01*
X154196331Y-98335000D01*
X157744228Y-98335000D01*
X157747300Y-98774250D01*
X157906050Y-98933000D01*
X158842800Y-98933000D01*
X158842800Y-97858750D01*
X158684050Y-97700000D01*
X158382300Y-97696928D01*
X158257818Y-97709188D01*
X158138120Y-97745498D01*
X158027806Y-97804463D01*
X157931115Y-97883815D01*
X157851763Y-97980506D01*
X157792798Y-98090820D01*
X157756488Y-98210518D01*
X157744228Y-98335000D01*
X154196331Y-98335000D01*
X155924360Y-96606972D01*
X157857300Y-96606972D01*
X157981782Y-96594712D01*
X158101480Y-96558402D01*
X158211794Y-96499437D01*
X158308485Y-96420085D01*
X158387837Y-96323394D01*
X158446802Y-96213080D01*
X158483112Y-96093382D01*
X158495372Y-95968900D01*
X158495372Y-95203900D01*
X159922993Y-95203900D01*
X159904309Y-95393600D01*
G04 #@! TA.AperFunction,Conductor*
D31*
G36*
X159904309Y-95393600D02*
G01*
X159909801Y-95449361D01*
X159909800Y-97803397D01*
X159801480Y-97745498D01*
X159681782Y-97709188D01*
X159557300Y-97696928D01*
X159255550Y-97700000D01*
X159096800Y-97858750D01*
X159096800Y-98933000D01*
X159116800Y-98933000D01*
X159116800Y-99187000D01*
X159096800Y-99187000D01*
X159096800Y-100939600D01*
X159116800Y-100939600D01*
X159116800Y-101193600D01*
X159096800Y-101193600D01*
X159096800Y-102267850D01*
X159255550Y-102426600D01*
X159557300Y-102429672D01*
X159681782Y-102417412D01*
X159801480Y-102381102D01*
X159911794Y-102322137D01*
X160008485Y-102242785D01*
X160073958Y-102163006D01*
X160079338Y-102169562D01*
X160090554Y-102178766D01*
X160096517Y-102189923D01*
X160238352Y-102362749D01*
X160281660Y-102398291D01*
X161468428Y-103585060D01*
X161468428Y-104368000D01*
X161480688Y-104492482D01*
X161516998Y-104612180D01*
X161575963Y-104722494D01*
X161613309Y-104768000D01*
X161600999Y-104783000D01*
X158444572Y-104783000D01*
X158444572Y-104018000D01*
X158432312Y-103893518D01*
X158396002Y-103773820D01*
X158337037Y-103663506D01*
X158257685Y-103566815D01*
X158160994Y-103487463D01*
X158050680Y-103428498D01*
X157930982Y-103392188D01*
X157806500Y-103379928D01*
X157460826Y-103379928D01*
X157441474Y-103343724D01*
X157370299Y-103256997D01*
X157346501Y-103227999D01*
X157317504Y-103204202D01*
X155904902Y-101791600D01*
X157744228Y-101791600D01*
X157756488Y-101916082D01*
X157792798Y-102035780D01*
X157851763Y-102146094D01*
X157931115Y-102242785D01*
X158027806Y-102322137D01*
X158138120Y-102381102D01*
X158257818Y-102417412D01*
X158382300Y-102429672D01*
X158684050Y-102426600D01*
X158842800Y-102267850D01*
X158842800Y-101193600D01*
X157906050Y-101193600D01*
X157747300Y-101352350D01*
X157744228Y-101791600D01*
X155904902Y-101791600D01*
X154618104Y-100504803D01*
X154594301Y-100475799D01*
X154478576Y-100380826D01*
X154346547Y-100310254D01*
X154203286Y-100266797D01*
X154091633Y-100255800D01*
X154091622Y-100255800D01*
X154054300Y-100252124D01*
X154016978Y-100255800D01*
X149506002Y-100255800D01*
X149036274Y-99786072D01*
X149924600Y-99786072D01*
X149935484Y-99785000D01*
X157744228Y-99785000D01*
X157756488Y-99909482D01*
X157792798Y-100029180D01*
X157811036Y-100063300D01*
X157792798Y-100097420D01*
X157756488Y-100217118D01*
X157744228Y-100341600D01*
X157747300Y-100780850D01*
X157906050Y-100939600D01*
X158842800Y-100939600D01*
X158842800Y-99187000D01*
X157906050Y-99187000D01*
X157747300Y-99345750D01*
X157744228Y-99785000D01*
X149935484Y-99785000D01*
X150097854Y-99769008D01*
X150264450Y-99718472D01*
X150417986Y-99636405D01*
X150552562Y-99525962D01*
X150628853Y-99433000D01*
X152572449Y-99433000D01*
X152628200Y-99438491D01*
X152683951Y-99433000D01*
X152683952Y-99433000D01*
X152850699Y-99416577D01*
X153064647Y-99351676D01*
X153261823Y-99246284D01*
X153434649Y-99104449D01*
X153470196Y-99061135D01*
X154196331Y-98335000D01*
X157744228Y-98335000D01*
X157747300Y-98774250D01*
X157906050Y-98933000D01*
X158842800Y-98933000D01*
X158842800Y-97858750D01*
X158684050Y-97700000D01*
X158382300Y-97696928D01*
X158257818Y-97709188D01*
X158138120Y-97745498D01*
X158027806Y-97804463D01*
X157931115Y-97883815D01*
X157851763Y-97980506D01*
X157792798Y-98090820D01*
X157756488Y-98210518D01*
X157744228Y-98335000D01*
X154196331Y-98335000D01*
X155924360Y-96606972D01*
X157857300Y-96606972D01*
X157981782Y-96594712D01*
X158101480Y-96558402D01*
X158211794Y-96499437D01*
X158308485Y-96420085D01*
X158387837Y-96323394D01*
X158446802Y-96213080D01*
X158483112Y-96093382D01*
X158495372Y-95968900D01*
X158495372Y-95203900D01*
X159922993Y-95203900D01*
X159904309Y-95393600D01*
G37*
G04 #@! TD.AperFunction*
D30*
X141701328Y-96639000D02*
X141701328Y-96789000D01*
X141715029Y-96928113D01*
X141755607Y-97061881D01*
X141821502Y-97185162D01*
X141910182Y-97293218D01*
X142018238Y-97381898D01*
X142141519Y-97447793D01*
X142275287Y-97488371D01*
X142414400Y-97502072D01*
X143814400Y-97502072D01*
X143953513Y-97488371D01*
X144087281Y-97447793D01*
X144210562Y-97381898D01*
X144318618Y-97293218D01*
X144352514Y-97251916D01*
X145024806Y-97924208D01*
X145048600Y-97953201D01*
X145077593Y-97976995D01*
X148627400Y-101526802D01*
X148651199Y-101555801D01*
X148766924Y-101650774D01*
X148898953Y-101721346D01*
X149042214Y-101764803D01*
X149153867Y-101775800D01*
X149153875Y-101775800D01*
X149191200Y-101779476D01*
X149228525Y-101775800D01*
X150736280Y-101775800D01*
X150675463Y-101849906D01*
X150616498Y-101960220D01*
X150580188Y-102079918D01*
X150567928Y-102204400D01*
X150571000Y-102693650D01*
X150729750Y-102852400D01*
X151729000Y-102852400D01*
X151729000Y-102832400D01*
X151983000Y-102832400D01*
X151983000Y-102852400D01*
X152752050Y-102852400D01*
X152824350Y-102924700D01*
X153898600Y-102924700D01*
X153898600Y-102904700D01*
X154152600Y-102904700D01*
X154152600Y-102924700D01*
X154172600Y-102924700D01*
X154172600Y-103178700D01*
X154152600Y-103178700D01*
X154152600Y-103198700D01*
X153898600Y-103198700D01*
X153898600Y-103178700D01*
X153054550Y-103178700D01*
X152982250Y-103106400D01*
X151983000Y-103106400D01*
X151983000Y-103126400D01*
X151729000Y-103126400D01*
X151729000Y-103106400D01*
X150729750Y-103106400D01*
X150571000Y-103265150D01*
X150567928Y-103754400D01*
X150580188Y-103878882D01*
X150616498Y-103998580D01*
X150675463Y-104108894D01*
X150754815Y-104205585D01*
X150851506Y-104284937D01*
X150961820Y-104343902D01*
X151036975Y-104366700D01*
X149818102Y-104366700D01*
X148644072Y-103192671D01*
X148644072Y-102204400D01*
X148631812Y-102079918D01*
X148595502Y-101960220D01*
X148536537Y-101849906D01*
X148457185Y-101753215D01*
X148360494Y-101673863D01*
X148250180Y-101614898D01*
X148130482Y-101578588D01*
X148006000Y-101566328D01*
X146706000Y-101566328D01*
X146581518Y-101578588D01*
X146461820Y-101614898D01*
X146351506Y-101673863D01*
X146254815Y-101753215D01*
X146175463Y-101849906D01*
X146116498Y-101960220D01*
X146080188Y-102079918D01*
X146067928Y-102204400D01*
X146067928Y-103192670D01*
X144889999Y-104370600D01*
X143352978Y-104370600D01*
X143406737Y-104305094D01*
X143465702Y-104194780D01*
X143502012Y-104075082D01*
X143514272Y-103950600D01*
X143514272Y-101510600D01*
X143502012Y-101386118D01*
X143465702Y-101266420D01*
X143406737Y-101156106D01*
X143327385Y-101059415D01*
X143230694Y-100980063D01*
X143120380Y-100921098D01*
X143000682Y-100884788D01*
X142876200Y-100872528D01*
X141756200Y-100872528D01*
X141631718Y-100884788D01*
X141512020Y-100921098D01*
X141401706Y-100980063D01*
X141362467Y-101012265D01*
X140389912Y-100039711D01*
X140403513Y-100038371D01*
X140439400Y-100027485D01*
X140475287Y-100038371D01*
X140614400Y-100052072D01*
X140764400Y-100052072D01*
X140903513Y-100038371D01*
X140939400Y-100027485D01*
X140975287Y-100038371D01*
X141114400Y-100052072D01*
X141264400Y-100052072D01*
X141403513Y-100038371D01*
X141537281Y-99997793D01*
X141660562Y-99931898D01*
X141768618Y-99843218D01*
X141857298Y-99735162D01*
X141923193Y-99611881D01*
X141963771Y-99478113D01*
X141977472Y-99339000D01*
X141977472Y-97939000D01*
X141963771Y-97799887D01*
X141923193Y-97666119D01*
X141857298Y-97542838D01*
X141768618Y-97434782D01*
X141660562Y-97346102D01*
X141537281Y-97280207D01*
X141403513Y-97239629D01*
X141303475Y-97229776D01*
X141312086Y-97216889D01*
X141382568Y-97046729D01*
X141406653Y-96925649D01*
X141702205Y-96630097D01*
X141701328Y-96639000D01*
G04 #@! TA.AperFunction,Conductor*
D31*
G36*
X141701328Y-96639000D02*
G01*
X141701328Y-96789000D01*
X141715029Y-96928113D01*
X141755607Y-97061881D01*
X141821502Y-97185162D01*
X141910182Y-97293218D01*
X142018238Y-97381898D01*
X142141519Y-97447793D01*
X142275287Y-97488371D01*
X142414400Y-97502072D01*
X143814400Y-97502072D01*
X143953513Y-97488371D01*
X144087281Y-97447793D01*
X144210562Y-97381898D01*
X144318618Y-97293218D01*
X144352514Y-97251916D01*
X145024806Y-97924208D01*
X145048600Y-97953201D01*
X145077593Y-97976995D01*
X148627400Y-101526802D01*
X148651199Y-101555801D01*
X148766924Y-101650774D01*
X148898953Y-101721346D01*
X149042214Y-101764803D01*
X149153867Y-101775800D01*
X149153875Y-101775800D01*
X149191200Y-101779476D01*
X149228525Y-101775800D01*
X150736280Y-101775800D01*
X150675463Y-101849906D01*
X150616498Y-101960220D01*
X150580188Y-102079918D01*
X150567928Y-102204400D01*
X150571000Y-102693650D01*
X150729750Y-102852400D01*
X151729000Y-102852400D01*
X151729000Y-102832400D01*
X151983000Y-102832400D01*
X151983000Y-102852400D01*
X152752050Y-102852400D01*
X152824350Y-102924700D01*
X153898600Y-102924700D01*
X153898600Y-102904700D01*
X154152600Y-102904700D01*
X154152600Y-102924700D01*
X154172600Y-102924700D01*
X154172600Y-103178700D01*
X154152600Y-103178700D01*
X154152600Y-103198700D01*
X153898600Y-103198700D01*
X153898600Y-103178700D01*
X153054550Y-103178700D01*
X152982250Y-103106400D01*
X151983000Y-103106400D01*
X151983000Y-103126400D01*
X151729000Y-103126400D01*
X151729000Y-103106400D01*
X150729750Y-103106400D01*
X150571000Y-103265150D01*
X150567928Y-103754400D01*
X150580188Y-103878882D01*
X150616498Y-103998580D01*
X150675463Y-104108894D01*
X150754815Y-104205585D01*
X150851506Y-104284937D01*
X150961820Y-104343902D01*
X151036975Y-104366700D01*
X149818102Y-104366700D01*
X148644072Y-103192671D01*
X148644072Y-102204400D01*
X148631812Y-102079918D01*
X148595502Y-101960220D01*
X148536537Y-101849906D01*
X148457185Y-101753215D01*
X148360494Y-101673863D01*
X148250180Y-101614898D01*
X148130482Y-101578588D01*
X148006000Y-101566328D01*
X146706000Y-101566328D01*
X146581518Y-101578588D01*
X146461820Y-101614898D01*
X146351506Y-101673863D01*
X146254815Y-101753215D01*
X146175463Y-101849906D01*
X146116498Y-101960220D01*
X146080188Y-102079918D01*
X146067928Y-102204400D01*
X146067928Y-103192670D01*
X144889999Y-104370600D01*
X143352978Y-104370600D01*
X143406737Y-104305094D01*
X143465702Y-104194780D01*
X143502012Y-104075082D01*
X143514272Y-103950600D01*
X143514272Y-101510600D01*
X143502012Y-101386118D01*
X143465702Y-101266420D01*
X143406737Y-101156106D01*
X143327385Y-101059415D01*
X143230694Y-100980063D01*
X143120380Y-100921098D01*
X143000682Y-100884788D01*
X142876200Y-100872528D01*
X141756200Y-100872528D01*
X141631718Y-100884788D01*
X141512020Y-100921098D01*
X141401706Y-100980063D01*
X141362467Y-101012265D01*
X140389912Y-100039711D01*
X140403513Y-100038371D01*
X140439400Y-100027485D01*
X140475287Y-100038371D01*
X140614400Y-100052072D01*
X140764400Y-100052072D01*
X140903513Y-100038371D01*
X140939400Y-100027485D01*
X140975287Y-100038371D01*
X141114400Y-100052072D01*
X141264400Y-100052072D01*
X141403513Y-100038371D01*
X141537281Y-99997793D01*
X141660562Y-99931898D01*
X141768618Y-99843218D01*
X141857298Y-99735162D01*
X141923193Y-99611881D01*
X141963771Y-99478113D01*
X141977472Y-99339000D01*
X141977472Y-97939000D01*
X141963771Y-97799887D01*
X141923193Y-97666119D01*
X141857298Y-97542838D01*
X141768618Y-97434782D01*
X141660562Y-97346102D01*
X141537281Y-97280207D01*
X141403513Y-97239629D01*
X141303475Y-97229776D01*
X141312086Y-97216889D01*
X141382568Y-97046729D01*
X141406653Y-96925649D01*
X141702205Y-96630097D01*
X141701328Y-96639000D01*
G37*
G04 #@! TD.AperFunction*
D30*
X147662896Y-95336098D02*
X147611087Y-95506889D01*
X147582415Y-95798000D01*
X147611087Y-96089111D01*
X147696001Y-96369034D01*
X147833894Y-96627014D01*
X148019466Y-96853134D01*
X148082937Y-96905223D01*
X147981214Y-96959595D01*
X147846638Y-97070038D01*
X147736195Y-97204614D01*
X147654128Y-97358150D01*
X147603592Y-97524746D01*
X147586528Y-97698000D01*
X147586528Y-98336327D01*
X146348600Y-97098399D01*
X146348600Y-94021801D01*
X147662896Y-95336098D01*
G04 #@! TA.AperFunction,Conductor*
D31*
G36*
X147662896Y-95336098D02*
G01*
X147611087Y-95506889D01*
X147582415Y-95798000D01*
X147611087Y-96089111D01*
X147696001Y-96369034D01*
X147833894Y-96627014D01*
X148019466Y-96853134D01*
X148082937Y-96905223D01*
X147981214Y-96959595D01*
X147846638Y-97070038D01*
X147736195Y-97204614D01*
X147654128Y-97358150D01*
X147603592Y-97524746D01*
X147586528Y-97698000D01*
X147586528Y-98336327D01*
X146348600Y-97098399D01*
X146348600Y-94021801D01*
X147662896Y-95336098D01*
G37*
G04 #@! TD.AperFunction*
D30*
X141715029Y-93499887D02*
X141701328Y-93639000D01*
X141701328Y-93789000D01*
X141715029Y-93928113D01*
X141725915Y-93964000D01*
X141715029Y-93999887D01*
X141701328Y-94139000D01*
X141701328Y-94289000D01*
X141715029Y-94428113D01*
X141725915Y-94464000D01*
X141715029Y-94499887D01*
X141701328Y-94639000D01*
X141701328Y-94789000D01*
X141715029Y-94928113D01*
X141722882Y-94954000D01*
X141580822Y-94954000D01*
X141543499Y-94950324D01*
X141506176Y-94954000D01*
X141506167Y-94954000D01*
X141394514Y-94964997D01*
X141251253Y-95008454D01*
X141119224Y-95079026D01*
X141119222Y-95079027D01*
X141119223Y-95079027D01*
X141032496Y-95150201D01*
X141032492Y-95150205D01*
X141003499Y-95173999D01*
X140979705Y-95202992D01*
X140331851Y-95850847D01*
X140210771Y-95874932D01*
X140040611Y-95945414D01*
X139887472Y-96047738D01*
X139757238Y-96177972D01*
X139654914Y-96331111D01*
X139584432Y-96501271D01*
X139560347Y-96622351D01*
X139178398Y-97004301D01*
X139149400Y-97028099D01*
X139125602Y-97057097D01*
X139125601Y-97057098D01*
X139054426Y-97143824D01*
X139008463Y-97229813D01*
X139007650Y-97229000D01*
X138905839Y-97240063D01*
X138905403Y-97240202D01*
X138903513Y-97239629D01*
X138764400Y-97225928D01*
X138614400Y-97225928D01*
X138475287Y-97239629D01*
X138439400Y-97250515D01*
X138403513Y-97239629D01*
X138264400Y-97225928D01*
X138114400Y-97225928D01*
X137975287Y-97239629D01*
X137939400Y-97250515D01*
X137903513Y-97239629D01*
X137764400Y-97225928D01*
X137614400Y-97225928D01*
X137475287Y-97239629D01*
X137439400Y-97250515D01*
X137403513Y-97239629D01*
X137264400Y-97225928D01*
X137114400Y-97225928D01*
X136975287Y-97239629D01*
X136939400Y-97250515D01*
X136903513Y-97239629D01*
X136764400Y-97225928D01*
X136614400Y-97225928D01*
X136475287Y-97239629D01*
X136439400Y-97250515D01*
X136403513Y-97239629D01*
X136264400Y-97225928D01*
X136114400Y-97225928D01*
X135975287Y-97239629D01*
X135939400Y-97250515D01*
X135903513Y-97239629D01*
X135764400Y-97225928D01*
X135614400Y-97225928D01*
X135475287Y-97239629D01*
X135439400Y-97250515D01*
X135403513Y-97239629D01*
X135264400Y-97225928D01*
X135114400Y-97225928D01*
X134975287Y-97239629D01*
X134939400Y-97250515D01*
X134903513Y-97239629D01*
X134764400Y-97225928D01*
X134614400Y-97225928D01*
X134475287Y-97239629D01*
X134439400Y-97250515D01*
X134403513Y-97239629D01*
X134264400Y-97225928D01*
X134114400Y-97225928D01*
X133975287Y-97239629D01*
X133939400Y-97250515D01*
X133903513Y-97239629D01*
X133789325Y-97228383D01*
X133792104Y-97224997D01*
X133831848Y-97185253D01*
X133952929Y-97161168D01*
X134123089Y-97090686D01*
X134276228Y-96988362D01*
X134406462Y-96858128D01*
X134508786Y-96704989D01*
X134579268Y-96534829D01*
X134615200Y-96354189D01*
X134615200Y-96170011D01*
X134579268Y-95989371D01*
X134508786Y-95819211D01*
X134406462Y-95666072D01*
X134276228Y-95535838D01*
X134123089Y-95433514D01*
X133952929Y-95363032D01*
X133772289Y-95327100D01*
X133588111Y-95327100D01*
X133407471Y-95363032D01*
X133237311Y-95433514D01*
X133159424Y-95485556D01*
X133152885Y-95464000D01*
X133163771Y-95428113D01*
X133177472Y-95289000D01*
X133177472Y-95139000D01*
X133163771Y-94999887D01*
X133152885Y-94964000D01*
X133163771Y-94928113D01*
X133170837Y-94856371D01*
X133184676Y-94848974D01*
X133300401Y-94754001D01*
X133324203Y-94724998D01*
X133766402Y-94282800D01*
X138165999Y-94282800D01*
X138624447Y-94741249D01*
X138648532Y-94862329D01*
X138719014Y-95032489D01*
X138821338Y-95185628D01*
X138951572Y-95315862D01*
X139104711Y-95418186D01*
X139274871Y-95488668D01*
X139455511Y-95524600D01*
X139639689Y-95524600D01*
X139820329Y-95488668D01*
X139990489Y-95418186D01*
X140143628Y-95315862D01*
X140273862Y-95185628D01*
X140376186Y-95032489D01*
X140446668Y-94862329D01*
X140482600Y-94681689D01*
X140482600Y-94615772D01*
X140499228Y-94604662D01*
X140629462Y-94474428D01*
X140731786Y-94321289D01*
X140802268Y-94151129D01*
X140838200Y-93970489D01*
X140838200Y-93786311D01*
X140802268Y-93605671D01*
X140746072Y-93470000D01*
X141724095Y-93470000D01*
X141715029Y-93499887D01*
G04 #@! TA.AperFunction,Conductor*
D31*
G36*
X141715029Y-93499887D02*
G01*
X141701328Y-93639000D01*
X141701328Y-93789000D01*
X141715029Y-93928113D01*
X141725915Y-93964000D01*
X141715029Y-93999887D01*
X141701328Y-94139000D01*
X141701328Y-94289000D01*
X141715029Y-94428113D01*
X141725915Y-94464000D01*
X141715029Y-94499887D01*
X141701328Y-94639000D01*
X141701328Y-94789000D01*
X141715029Y-94928113D01*
X141722882Y-94954000D01*
X141580822Y-94954000D01*
X141543499Y-94950324D01*
X141506176Y-94954000D01*
X141506167Y-94954000D01*
X141394514Y-94964997D01*
X141251253Y-95008454D01*
X141119224Y-95079026D01*
X141119222Y-95079027D01*
X141119223Y-95079027D01*
X141032496Y-95150201D01*
X141032492Y-95150205D01*
X141003499Y-95173999D01*
X140979705Y-95202992D01*
X140331851Y-95850847D01*
X140210771Y-95874932D01*
X140040611Y-95945414D01*
X139887472Y-96047738D01*
X139757238Y-96177972D01*
X139654914Y-96331111D01*
X139584432Y-96501271D01*
X139560347Y-96622351D01*
X139178398Y-97004301D01*
X139149400Y-97028099D01*
X139125602Y-97057097D01*
X139125601Y-97057098D01*
X139054426Y-97143824D01*
X139008463Y-97229813D01*
X139007650Y-97229000D01*
X138905839Y-97240063D01*
X138905403Y-97240202D01*
X138903513Y-97239629D01*
X138764400Y-97225928D01*
X138614400Y-97225928D01*
X138475287Y-97239629D01*
X138439400Y-97250515D01*
X138403513Y-97239629D01*
X138264400Y-97225928D01*
X138114400Y-97225928D01*
X137975287Y-97239629D01*
X137939400Y-97250515D01*
X137903513Y-97239629D01*
X137764400Y-97225928D01*
X137614400Y-97225928D01*
X137475287Y-97239629D01*
X137439400Y-97250515D01*
X137403513Y-97239629D01*
X137264400Y-97225928D01*
X137114400Y-97225928D01*
X136975287Y-97239629D01*
X136939400Y-97250515D01*
X136903513Y-97239629D01*
X136764400Y-97225928D01*
X136614400Y-97225928D01*
X136475287Y-97239629D01*
X136439400Y-97250515D01*
X136403513Y-97239629D01*
X136264400Y-97225928D01*
X136114400Y-97225928D01*
X135975287Y-97239629D01*
X135939400Y-97250515D01*
X135903513Y-97239629D01*
X135764400Y-97225928D01*
X135614400Y-97225928D01*
X135475287Y-97239629D01*
X135439400Y-97250515D01*
X135403513Y-97239629D01*
X135264400Y-97225928D01*
X135114400Y-97225928D01*
X134975287Y-97239629D01*
X134939400Y-97250515D01*
X134903513Y-97239629D01*
X134764400Y-97225928D01*
X134614400Y-97225928D01*
X134475287Y-97239629D01*
X134439400Y-97250515D01*
X134403513Y-97239629D01*
X134264400Y-97225928D01*
X134114400Y-97225928D01*
X133975287Y-97239629D01*
X133939400Y-97250515D01*
X133903513Y-97239629D01*
X133789325Y-97228383D01*
X133792104Y-97224997D01*
X133831848Y-97185253D01*
X133952929Y-97161168D01*
X134123089Y-97090686D01*
X134276228Y-96988362D01*
X134406462Y-96858128D01*
X134508786Y-96704989D01*
X134579268Y-96534829D01*
X134615200Y-96354189D01*
X134615200Y-96170011D01*
X134579268Y-95989371D01*
X134508786Y-95819211D01*
X134406462Y-95666072D01*
X134276228Y-95535838D01*
X134123089Y-95433514D01*
X133952929Y-95363032D01*
X133772289Y-95327100D01*
X133588111Y-95327100D01*
X133407471Y-95363032D01*
X133237311Y-95433514D01*
X133159424Y-95485556D01*
X133152885Y-95464000D01*
X133163771Y-95428113D01*
X133177472Y-95289000D01*
X133177472Y-95139000D01*
X133163771Y-94999887D01*
X133152885Y-94964000D01*
X133163771Y-94928113D01*
X133170837Y-94856371D01*
X133184676Y-94848974D01*
X133300401Y-94754001D01*
X133324203Y-94724998D01*
X133766402Y-94282800D01*
X138165999Y-94282800D01*
X138624447Y-94741249D01*
X138648532Y-94862329D01*
X138719014Y-95032489D01*
X138821338Y-95185628D01*
X138951572Y-95315862D01*
X139104711Y-95418186D01*
X139274871Y-95488668D01*
X139455511Y-95524600D01*
X139639689Y-95524600D01*
X139820329Y-95488668D01*
X139990489Y-95418186D01*
X140143628Y-95315862D01*
X140273862Y-95185628D01*
X140376186Y-95032489D01*
X140446668Y-94862329D01*
X140482600Y-94681689D01*
X140482600Y-94615772D01*
X140499228Y-94604662D01*
X140629462Y-94474428D01*
X140731786Y-94321289D01*
X140802268Y-94151129D01*
X140838200Y-93970489D01*
X140838200Y-93786311D01*
X140802268Y-93605671D01*
X140746072Y-93470000D01*
X141724095Y-93470000D01*
X141715029Y-93499887D01*
G37*
G04 #@! TD.AperFunction*
D30*
X190020086Y-91669333D02*
X190042826Y-91711876D01*
X190052471Y-91723628D01*
X189011000Y-91723628D01*
X188886518Y-91735888D01*
X188861000Y-91743629D01*
X188835482Y-91735888D01*
X188711000Y-91723628D01*
X187511000Y-91723628D01*
X187386518Y-91735888D01*
X187361000Y-91743629D01*
X187335482Y-91735888D01*
X187211000Y-91723628D01*
X186225626Y-91723628D01*
X186226400Y-91719739D01*
X186226400Y-91515861D01*
X186186626Y-91315902D01*
X186108605Y-91127544D01*
X185995337Y-90958026D01*
X185926400Y-90889089D01*
X185926400Y-89621905D01*
X185929956Y-89585800D01*
X185915765Y-89441715D01*
X185873737Y-89303166D01*
X185805487Y-89175480D01*
X185777436Y-89141300D01*
X185713638Y-89063562D01*
X185685593Y-89040546D01*
X183277257Y-86632211D01*
X184982965Y-86632211D01*
X190020086Y-91669333D01*
G04 #@! TA.AperFunction,Conductor*
D31*
G36*
X190020086Y-91669333D02*
G01*
X190042826Y-91711876D01*
X190052471Y-91723628D01*
X189011000Y-91723628D01*
X188886518Y-91735888D01*
X188861000Y-91743629D01*
X188835482Y-91735888D01*
X188711000Y-91723628D01*
X187511000Y-91723628D01*
X187386518Y-91735888D01*
X187361000Y-91743629D01*
X187335482Y-91735888D01*
X187211000Y-91723628D01*
X186225626Y-91723628D01*
X186226400Y-91719739D01*
X186226400Y-91515861D01*
X186186626Y-91315902D01*
X186108605Y-91127544D01*
X185995337Y-90958026D01*
X185926400Y-90889089D01*
X185926400Y-89621905D01*
X185929956Y-89585800D01*
X185915765Y-89441715D01*
X185873737Y-89303166D01*
X185805487Y-89175480D01*
X185777436Y-89141300D01*
X185713638Y-89063562D01*
X185685593Y-89040546D01*
X183277257Y-86632211D01*
X184982965Y-86632211D01*
X190020086Y-91669333D01*
G37*
G04 #@! TD.AperFunction*
D30*
X193896924Y-85868919D02*
X196418200Y-88390195D01*
X198939476Y-85868919D01*
X198822579Y-85710000D01*
X199290001Y-85710000D01*
X199290001Y-86174249D01*
X199119081Y-86048524D01*
X196597805Y-88569800D01*
X199119081Y-91091076D01*
X199290001Y-90965351D01*
X199290001Y-91731409D01*
X199211000Y-91723628D01*
X198606298Y-91723628D01*
X198939476Y-91270681D01*
X196418200Y-88749405D01*
X193896924Y-91270681D01*
X194230102Y-91723628D01*
X193511000Y-91723628D01*
X193386518Y-91735888D01*
X193361000Y-91743629D01*
X193335482Y-91735888D01*
X193211000Y-91723628D01*
X193017310Y-91723628D01*
X193035200Y-91633689D01*
X193035200Y-91449511D01*
X192999268Y-91268871D01*
X192928786Y-91098711D01*
X192826462Y-90945572D01*
X192696228Y-90815338D01*
X192543089Y-90713014D01*
X192372929Y-90642532D01*
X192251849Y-90618447D01*
X190223602Y-88590201D01*
X190169129Y-88545495D01*
X192564720Y-88545495D01*
X192634022Y-89297738D01*
X192848748Y-90022008D01*
X193200645Y-90690470D01*
X193227652Y-90730888D01*
X193717319Y-91091076D01*
X196238595Y-88569800D01*
X193717319Y-86048524D01*
X193227652Y-86408712D01*
X192867351Y-87072682D01*
X192643506Y-87794185D01*
X192564720Y-88545495D01*
X190169129Y-88545495D01*
X190136876Y-88519026D01*
X190094333Y-88496286D01*
X187308046Y-85710000D01*
X194013821Y-85710000D01*
X193896924Y-85868919D01*
G04 #@! TA.AperFunction,Conductor*
D31*
G36*
X193896924Y-85868919D02*
G01*
X196418200Y-88390195D01*
X198939476Y-85868919D01*
X198822579Y-85710000D01*
X199290001Y-85710000D01*
X199290001Y-86174249D01*
X199119081Y-86048524D01*
X196597805Y-88569800D01*
X199119081Y-91091076D01*
X199290001Y-90965351D01*
X199290001Y-91731409D01*
X199211000Y-91723628D01*
X198606298Y-91723628D01*
X198939476Y-91270681D01*
X196418200Y-88749405D01*
X193896924Y-91270681D01*
X194230102Y-91723628D01*
X193511000Y-91723628D01*
X193386518Y-91735888D01*
X193361000Y-91743629D01*
X193335482Y-91735888D01*
X193211000Y-91723628D01*
X193017310Y-91723628D01*
X193035200Y-91633689D01*
X193035200Y-91449511D01*
X192999268Y-91268871D01*
X192928786Y-91098711D01*
X192826462Y-90945572D01*
X192696228Y-90815338D01*
X192543089Y-90713014D01*
X192372929Y-90642532D01*
X192251849Y-90618447D01*
X190223602Y-88590201D01*
X190169129Y-88545495D01*
X192564720Y-88545495D01*
X192634022Y-89297738D01*
X192848748Y-90022008D01*
X193200645Y-90690470D01*
X193227652Y-90730888D01*
X193717319Y-91091076D01*
X196238595Y-88569800D01*
X193717319Y-86048524D01*
X193227652Y-86408712D01*
X192867351Y-87072682D01*
X192643506Y-87794185D01*
X192564720Y-88545495D01*
X190169129Y-88545495D01*
X190136876Y-88519026D01*
X190094333Y-88496286D01*
X187308046Y-85710000D01*
X194013821Y-85710000D01*
X193896924Y-85868919D01*
G37*
G04 #@! TD.AperFunction*
G04 #@! TD*
M02*
