G04 #@! TF.GenerationSoftware,KiCad,Pcbnew,5.1.9*
G04 #@! TF.CreationDate,2021-03-06T22:13:27+08:00*
G04 #@! TF.ProjectId,LaserSwitch-Master,4c617365-7253-4776-9974-63682d4d6173,rev?*
G04 #@! TF.SameCoordinates,Original*
G04 #@! TF.FileFunction,Legend,Bot*
G04 #@! TF.FilePolarity,Positive*
%FSLAX46Y46*%
G04 Gerber Fmt 4.6, Leading zero omitted, Abs format (unit mm)*
G04 Created by KiCad (PCBNEW 5.1.9) date 2021-03-06 22:13:27*
%MOMM*%
%LPD*%
G01*
G04 APERTURE LIST*
%ADD10C,0.150000*%
%ADD11C,0.010000*%
%ADD12C,0.120000*%
G04 APERTURE END LIST*
D10*
X118203023Y-120841361D02*
X118060166Y-120888980D01*
X117822071Y-120888980D01*
X117726833Y-120841361D01*
X117679214Y-120793742D01*
X117631595Y-120698504D01*
X117631595Y-120603266D01*
X117679214Y-120508028D01*
X117726833Y-120460409D01*
X117822071Y-120412790D01*
X118012547Y-120365171D01*
X118107785Y-120317552D01*
X118155404Y-120269933D01*
X118203023Y-120174695D01*
X118203023Y-120079457D01*
X118155404Y-119984219D01*
X118107785Y-119936600D01*
X118012547Y-119888980D01*
X117774452Y-119888980D01*
X117631595Y-119936600D01*
X117345880Y-119888980D02*
X116774452Y-119888980D01*
X117060166Y-120888980D02*
X117060166Y-119888980D01*
X116441119Y-120365171D02*
X116107785Y-120365171D01*
X115964928Y-120888980D02*
X116441119Y-120888980D01*
X116441119Y-119888980D01*
X115964928Y-119888980D01*
X115536357Y-120888980D02*
X115536357Y-119888980D01*
X115155404Y-119888980D01*
X115060166Y-119936600D01*
X115012547Y-119984219D01*
X114964928Y-120079457D01*
X114964928Y-120222314D01*
X115012547Y-120317552D01*
X115060166Y-120365171D01*
X115155404Y-120412790D01*
X115536357Y-120412790D01*
X114536357Y-120508028D02*
X113774452Y-120508028D01*
X114155404Y-120888980D02*
X114155404Y-120127076D01*
X118203023Y-122491361D02*
X118060166Y-122538980D01*
X117822071Y-122538980D01*
X117726833Y-122491361D01*
X117679214Y-122443742D01*
X117631595Y-122348504D01*
X117631595Y-122253266D01*
X117679214Y-122158028D01*
X117726833Y-122110409D01*
X117822071Y-122062790D01*
X118012547Y-122015171D01*
X118107785Y-121967552D01*
X118155404Y-121919933D01*
X118203023Y-121824695D01*
X118203023Y-121729457D01*
X118155404Y-121634219D01*
X118107785Y-121586600D01*
X118012547Y-121538980D01*
X117774452Y-121538980D01*
X117631595Y-121586600D01*
X117345880Y-121538980D02*
X116774452Y-121538980D01*
X117060166Y-122538980D02*
X117060166Y-121538980D01*
X116441119Y-122015171D02*
X116107785Y-122015171D01*
X115964928Y-122538980D02*
X116441119Y-122538980D01*
X116441119Y-121538980D01*
X115964928Y-121538980D01*
X115536357Y-122538980D02*
X115536357Y-121538980D01*
X115155404Y-121538980D01*
X115060166Y-121586600D01*
X115012547Y-121634219D01*
X114964928Y-121729457D01*
X114964928Y-121872314D01*
X115012547Y-121967552D01*
X115060166Y-122015171D01*
X115155404Y-122062790D01*
X115536357Y-122062790D01*
X114536357Y-122158028D02*
X113774452Y-122158028D01*
X118155404Y-124188980D02*
X118155404Y-123188980D01*
X117917309Y-123188980D01*
X117774452Y-123236600D01*
X117679214Y-123331838D01*
X117631595Y-123427076D01*
X117583976Y-123617552D01*
X117583976Y-123760409D01*
X117631595Y-123950885D01*
X117679214Y-124046123D01*
X117774452Y-124141361D01*
X117917309Y-124188980D01*
X118155404Y-124188980D01*
X117155404Y-124188980D02*
X117155404Y-123188980D01*
X116107785Y-124188980D02*
X116441119Y-123712790D01*
X116679214Y-124188980D02*
X116679214Y-123188980D01*
X116298261Y-123188980D01*
X116203023Y-123236600D01*
X116155404Y-123284219D01*
X116107785Y-123379457D01*
X116107785Y-123522314D01*
X116155404Y-123617552D01*
X116203023Y-123665171D01*
X116298261Y-123712790D01*
X116679214Y-123712790D01*
X115679214Y-123808028D02*
X114917309Y-123808028D01*
X115298261Y-124188980D02*
X115298261Y-123427076D01*
X118155404Y-125838980D02*
X118155404Y-124838980D01*
X117917309Y-124838980D01*
X117774452Y-124886600D01*
X117679214Y-124981838D01*
X117631595Y-125077076D01*
X117583976Y-125267552D01*
X117583976Y-125410409D01*
X117631595Y-125600885D01*
X117679214Y-125696123D01*
X117774452Y-125791361D01*
X117917309Y-125838980D01*
X118155404Y-125838980D01*
X117155404Y-125838980D02*
X117155404Y-124838980D01*
X116107785Y-125838980D02*
X116441119Y-125362790D01*
X116679214Y-125838980D02*
X116679214Y-124838980D01*
X116298261Y-124838980D01*
X116203023Y-124886600D01*
X116155404Y-124934219D01*
X116107785Y-125029457D01*
X116107785Y-125172314D01*
X116155404Y-125267552D01*
X116203023Y-125315171D01*
X116298261Y-125362790D01*
X116679214Y-125362790D01*
X115679214Y-125458028D02*
X114917309Y-125458028D01*
X118155404Y-126965171D02*
X117822071Y-126965171D01*
X117679214Y-127488980D02*
X118155404Y-127488980D01*
X118155404Y-126488980D01*
X117679214Y-126488980D01*
X117250642Y-127488980D02*
X117250642Y-126488980D01*
X116679214Y-127488980D01*
X116679214Y-126488980D01*
X116203023Y-127108028D02*
X115441119Y-127108028D01*
X115822071Y-127488980D02*
X115822071Y-126727076D01*
X118155404Y-128615171D02*
X117822071Y-128615171D01*
X117679214Y-129138980D02*
X118155404Y-129138980D01*
X118155404Y-128138980D01*
X117679214Y-128138980D01*
X117250642Y-129138980D02*
X117250642Y-128138980D01*
X116679214Y-129138980D01*
X116679214Y-128138980D01*
X116203023Y-128758028D02*
X115441119Y-128758028D01*
D11*
G04 #@! TO.C,G\u002A\u002A\u002A*
G36*
X151007318Y-126598512D02*
G01*
X151006493Y-126036948D01*
X151005034Y-125486916D01*
X151002942Y-124954831D01*
X151000213Y-124447105D01*
X150996849Y-123970151D01*
X150992851Y-123530382D01*
X150988218Y-123134212D01*
X150982950Y-122788053D01*
X150977047Y-122498320D01*
X150970509Y-122271424D01*
X150963337Y-122113779D01*
X150955529Y-122031799D01*
X150952200Y-122021600D01*
X150915419Y-122008066D01*
X150830935Y-121996903D01*
X150693222Y-121987952D01*
X150496753Y-121981056D01*
X150236004Y-121976057D01*
X149905446Y-121972798D01*
X149499555Y-121971119D01*
X149174200Y-121970800D01*
X147447000Y-121970800D01*
X147447000Y-132130800D01*
X149174200Y-132130800D01*
X149635046Y-132130117D01*
X149661034Y-132129971D01*
X149661034Y-132046134D01*
X148505334Y-132046134D01*
X148505334Y-131863755D01*
X148496648Y-131742859D01*
X148457533Y-131660166D01*
X148368402Y-131578598D01*
X148345459Y-131561117D01*
X148091372Y-131320097D01*
X147905294Y-131036981D01*
X147790034Y-130723684D01*
X147748402Y-130392123D01*
X147783208Y-130054214D01*
X147897260Y-129721874D01*
X147907064Y-129701600D01*
X147955000Y-129620082D01*
X147955000Y-127304800D01*
X147658667Y-127304800D01*
X147658667Y-127153851D01*
X147670850Y-127026907D01*
X147700385Y-126925123D01*
X147702490Y-126921017D01*
X147768594Y-126859282D01*
X147855546Y-126838999D01*
X147924586Y-126867863D01*
X147930325Y-126875790D01*
X147984151Y-126896449D01*
X148059051Y-126892169D01*
X148144259Y-126894003D01*
X148187044Y-126944985D01*
X148187044Y-126775094D01*
X148080816Y-126729179D01*
X148060222Y-126717382D01*
X147930612Y-126658780D01*
X147804624Y-126628575D01*
X147783247Y-126627467D01*
X147684205Y-126608228D01*
X147658667Y-126563967D01*
X147695585Y-126512968D01*
X147766697Y-126500467D01*
X147870935Y-126479448D01*
X147999746Y-126426952D01*
X148039027Y-126405908D01*
X148088092Y-126383458D01*
X148088092Y-124934134D01*
X147990922Y-124901933D01*
X147923387Y-124799852D01*
X147896531Y-124711884D01*
X147863081Y-124627683D01*
X147825865Y-124595467D01*
X147771369Y-124627894D01*
X147758109Y-124702881D01*
X147790008Y-124786986D01*
X147801700Y-124801461D01*
X147862765Y-124885876D01*
X147852971Y-124927875D01*
X147815300Y-124934134D01*
X147728620Y-124898497D01*
X147674565Y-124809919D01*
X147659345Y-124695898D01*
X147671015Y-124652083D01*
X147671015Y-124451342D01*
X147658667Y-124414026D01*
X147692894Y-124344588D01*
X147722167Y-124326158D01*
X147774577Y-124268101D01*
X147780353Y-124176916D01*
X147740327Y-124089585D01*
X147716342Y-124067276D01*
X147666648Y-124006772D01*
X147663425Y-123971862D01*
X147707663Y-123961167D01*
X147803862Y-123980074D01*
X147928577Y-124019681D01*
X148058362Y-124071086D01*
X148169773Y-124125390D01*
X148239365Y-124173690D01*
X148251334Y-124195065D01*
X148214872Y-124239304D01*
X148120799Y-124295100D01*
X148029084Y-124334779D01*
X147891438Y-124387071D01*
X147777793Y-124430644D01*
X147732750Y-124448184D01*
X147671015Y-124451342D01*
X147671015Y-124652083D01*
X147689167Y-124583931D01*
X147725191Y-124534991D01*
X147784436Y-124480891D01*
X147829964Y-124473916D01*
X147885991Y-124493377D01*
X147941706Y-124547611D01*
X147993335Y-124647975D01*
X147999293Y-124664903D01*
X148042064Y-124746770D01*
X148091921Y-124789925D01*
X148128738Y-124786305D01*
X148132390Y-124727845D01*
X148129756Y-124717175D01*
X148104347Y-124625055D01*
X148093069Y-124584884D01*
X148092661Y-124522327D01*
X148129380Y-124515535D01*
X148181892Y-124559027D01*
X148216703Y-124616634D01*
X148238659Y-124733748D01*
X148210970Y-124843819D01*
X148145195Y-124918311D01*
X148088092Y-124934134D01*
X148088092Y-126383458D01*
X148154153Y-126353231D01*
X148225496Y-126344662D01*
X148242013Y-126374181D01*
X148192659Y-126435769D01*
X148152427Y-126467723D01*
X148032507Y-126555078D01*
X148152504Y-126650978D01*
X148231797Y-126729582D01*
X148240341Y-126773092D01*
X148187044Y-126775094D01*
X148187044Y-126944985D01*
X148195845Y-126955473D01*
X148208228Y-126985269D01*
X148241327Y-127109552D01*
X148251334Y-127201723D01*
X148246634Y-127255591D01*
X148220246Y-127286423D01*
X148153737Y-127300630D01*
X148028673Y-127304625D01*
X147955000Y-127304800D01*
X147955000Y-129620082D01*
X147991351Y-129558264D01*
X148101415Y-129408696D01*
X148221734Y-129269990D01*
X148336785Y-129159241D01*
X148431046Y-129093542D01*
X148468961Y-129082800D01*
X148474522Y-129041504D01*
X148479825Y-128921762D01*
X148484803Y-128729796D01*
X148489394Y-128471826D01*
X148493533Y-128154074D01*
X148497155Y-127782761D01*
X148500195Y-127364107D01*
X148502590Y-126904333D01*
X148504275Y-126409661D01*
X148505186Y-125886312D01*
X148505334Y-125569134D01*
X148505334Y-122055467D01*
X149661034Y-122055467D01*
X150037845Y-122056641D01*
X150336142Y-122060333D01*
X150562050Y-122066803D01*
X150721691Y-122076307D01*
X150821189Y-122089104D01*
X150866667Y-122105451D01*
X150867534Y-122106267D01*
X150875664Y-122155974D01*
X150883148Y-122283876D01*
X150889987Y-122483505D01*
X150896179Y-122748390D01*
X150901726Y-123072063D01*
X150906626Y-123448056D01*
X150910881Y-123869898D01*
X150914490Y-124331121D01*
X150917453Y-124825256D01*
X150919770Y-125345834D01*
X150921442Y-125886386D01*
X150922467Y-126440442D01*
X150922847Y-127001534D01*
X150922580Y-127563193D01*
X150921668Y-128118949D01*
X150920110Y-128662333D01*
X150917906Y-129186878D01*
X150915056Y-129686112D01*
X150911560Y-130153568D01*
X150907418Y-130582777D01*
X150902631Y-130967268D01*
X150897197Y-131300574D01*
X150891118Y-131576225D01*
X150884393Y-131787753D01*
X150877022Y-131928687D01*
X150869005Y-131992560D01*
X150867534Y-131995334D01*
X150824323Y-132011845D01*
X150727365Y-132024795D01*
X150570537Y-132034441D01*
X150347715Y-132041040D01*
X150052777Y-132044851D01*
X149679598Y-132046132D01*
X149661034Y-132046134D01*
X149661034Y-132129971D01*
X150016761Y-132127960D01*
X150324872Y-132124173D01*
X150564906Y-132118597D01*
X150742388Y-132111075D01*
X150862844Y-132101449D01*
X150931802Y-132089560D01*
X150952200Y-132080001D01*
X150960264Y-132030356D01*
X150967692Y-131902461D01*
X150974486Y-131702728D01*
X150980645Y-131437570D01*
X150986169Y-131113400D01*
X150991058Y-130736632D01*
X150995313Y-130313678D01*
X150998933Y-129850951D01*
X151001917Y-129354866D01*
X151004266Y-128831835D01*
X151005981Y-128288271D01*
X151007062Y-127730587D01*
X151007507Y-127165196D01*
X151007318Y-126598512D01*
G37*
X151007318Y-126598512D02*
X151006493Y-126036948D01*
X151005034Y-125486916D01*
X151002942Y-124954831D01*
X151000213Y-124447105D01*
X150996849Y-123970151D01*
X150992851Y-123530382D01*
X150988218Y-123134212D01*
X150982950Y-122788053D01*
X150977047Y-122498320D01*
X150970509Y-122271424D01*
X150963337Y-122113779D01*
X150955529Y-122031799D01*
X150952200Y-122021600D01*
X150915419Y-122008066D01*
X150830935Y-121996903D01*
X150693222Y-121987952D01*
X150496753Y-121981056D01*
X150236004Y-121976057D01*
X149905446Y-121972798D01*
X149499555Y-121971119D01*
X149174200Y-121970800D01*
X147447000Y-121970800D01*
X147447000Y-132130800D01*
X149174200Y-132130800D01*
X149635046Y-132130117D01*
X149661034Y-132129971D01*
X149661034Y-132046134D01*
X148505334Y-132046134D01*
X148505334Y-131863755D01*
X148496648Y-131742859D01*
X148457533Y-131660166D01*
X148368402Y-131578598D01*
X148345459Y-131561117D01*
X148091372Y-131320097D01*
X147905294Y-131036981D01*
X147790034Y-130723684D01*
X147748402Y-130392123D01*
X147783208Y-130054214D01*
X147897260Y-129721874D01*
X147907064Y-129701600D01*
X147955000Y-129620082D01*
X147955000Y-127304800D01*
X147658667Y-127304800D01*
X147658667Y-127153851D01*
X147670850Y-127026907D01*
X147700385Y-126925123D01*
X147702490Y-126921017D01*
X147768594Y-126859282D01*
X147855546Y-126838999D01*
X147924586Y-126867863D01*
X147930325Y-126875790D01*
X147984151Y-126896449D01*
X148059051Y-126892169D01*
X148144259Y-126894003D01*
X148187044Y-126944985D01*
X148187044Y-126775094D01*
X148080816Y-126729179D01*
X148060222Y-126717382D01*
X147930612Y-126658780D01*
X147804624Y-126628575D01*
X147783247Y-126627467D01*
X147684205Y-126608228D01*
X147658667Y-126563967D01*
X147695585Y-126512968D01*
X147766697Y-126500467D01*
X147870935Y-126479448D01*
X147999746Y-126426952D01*
X148039027Y-126405908D01*
X148088092Y-126383458D01*
X148088092Y-124934134D01*
X147990922Y-124901933D01*
X147923387Y-124799852D01*
X147896531Y-124711884D01*
X147863081Y-124627683D01*
X147825865Y-124595467D01*
X147771369Y-124627894D01*
X147758109Y-124702881D01*
X147790008Y-124786986D01*
X147801700Y-124801461D01*
X147862765Y-124885876D01*
X147852971Y-124927875D01*
X147815300Y-124934134D01*
X147728620Y-124898497D01*
X147674565Y-124809919D01*
X147659345Y-124695898D01*
X147671015Y-124652083D01*
X147671015Y-124451342D01*
X147658667Y-124414026D01*
X147692894Y-124344588D01*
X147722167Y-124326158D01*
X147774577Y-124268101D01*
X147780353Y-124176916D01*
X147740327Y-124089585D01*
X147716342Y-124067276D01*
X147666648Y-124006772D01*
X147663425Y-123971862D01*
X147707663Y-123961167D01*
X147803862Y-123980074D01*
X147928577Y-124019681D01*
X148058362Y-124071086D01*
X148169773Y-124125390D01*
X148239365Y-124173690D01*
X148251334Y-124195065D01*
X148214872Y-124239304D01*
X148120799Y-124295100D01*
X148029084Y-124334779D01*
X147891438Y-124387071D01*
X147777793Y-124430644D01*
X147732750Y-124448184D01*
X147671015Y-124451342D01*
X147671015Y-124652083D01*
X147689167Y-124583931D01*
X147725191Y-124534991D01*
X147784436Y-124480891D01*
X147829964Y-124473916D01*
X147885991Y-124493377D01*
X147941706Y-124547611D01*
X147993335Y-124647975D01*
X147999293Y-124664903D01*
X148042064Y-124746770D01*
X148091921Y-124789925D01*
X148128738Y-124786305D01*
X148132390Y-124727845D01*
X148129756Y-124717175D01*
X148104347Y-124625055D01*
X148093069Y-124584884D01*
X148092661Y-124522327D01*
X148129380Y-124515535D01*
X148181892Y-124559027D01*
X148216703Y-124616634D01*
X148238659Y-124733748D01*
X148210970Y-124843819D01*
X148145195Y-124918311D01*
X148088092Y-124934134D01*
X148088092Y-126383458D01*
X148154153Y-126353231D01*
X148225496Y-126344662D01*
X148242013Y-126374181D01*
X148192659Y-126435769D01*
X148152427Y-126467723D01*
X148032507Y-126555078D01*
X148152504Y-126650978D01*
X148231797Y-126729582D01*
X148240341Y-126773092D01*
X148187044Y-126775094D01*
X148187044Y-126944985D01*
X148195845Y-126955473D01*
X148208228Y-126985269D01*
X148241327Y-127109552D01*
X148251334Y-127201723D01*
X148246634Y-127255591D01*
X148220246Y-127286423D01*
X148153737Y-127300630D01*
X148028673Y-127304625D01*
X147955000Y-127304800D01*
X147955000Y-129620082D01*
X147991351Y-129558264D01*
X148101415Y-129408696D01*
X148221734Y-129269990D01*
X148336785Y-129159241D01*
X148431046Y-129093542D01*
X148468961Y-129082800D01*
X148474522Y-129041504D01*
X148479825Y-128921762D01*
X148484803Y-128729796D01*
X148489394Y-128471826D01*
X148493533Y-128154074D01*
X148497155Y-127782761D01*
X148500195Y-127364107D01*
X148502590Y-126904333D01*
X148504275Y-126409661D01*
X148505186Y-125886312D01*
X148505334Y-125569134D01*
X148505334Y-122055467D01*
X149661034Y-122055467D01*
X150037845Y-122056641D01*
X150336142Y-122060333D01*
X150562050Y-122066803D01*
X150721691Y-122076307D01*
X150821189Y-122089104D01*
X150866667Y-122105451D01*
X150867534Y-122106267D01*
X150875664Y-122155974D01*
X150883148Y-122283876D01*
X150889987Y-122483505D01*
X150896179Y-122748390D01*
X150901726Y-123072063D01*
X150906626Y-123448056D01*
X150910881Y-123869898D01*
X150914490Y-124331121D01*
X150917453Y-124825256D01*
X150919770Y-125345834D01*
X150921442Y-125886386D01*
X150922467Y-126440442D01*
X150922847Y-127001534D01*
X150922580Y-127563193D01*
X150921668Y-128118949D01*
X150920110Y-128662333D01*
X150917906Y-129186878D01*
X150915056Y-129686112D01*
X150911560Y-130153568D01*
X150907418Y-130582777D01*
X150902631Y-130967268D01*
X150897197Y-131300574D01*
X150891118Y-131576225D01*
X150884393Y-131787753D01*
X150877022Y-131928687D01*
X150869005Y-131992560D01*
X150867534Y-131995334D01*
X150824323Y-132011845D01*
X150727365Y-132024795D01*
X150570537Y-132034441D01*
X150347715Y-132041040D01*
X150052777Y-132044851D01*
X149679598Y-132046132D01*
X149661034Y-132046134D01*
X149661034Y-132129971D01*
X150016761Y-132127960D01*
X150324872Y-132124173D01*
X150564906Y-132118597D01*
X150742388Y-132111075D01*
X150862844Y-132101449D01*
X150931802Y-132089560D01*
X150952200Y-132080001D01*
X150960264Y-132030356D01*
X150967692Y-131902461D01*
X150974486Y-131702728D01*
X150980645Y-131437570D01*
X150986169Y-131113400D01*
X150991058Y-130736632D01*
X150995313Y-130313678D01*
X150998933Y-129850951D01*
X151001917Y-129354866D01*
X151004266Y-128831835D01*
X151005981Y-128288271D01*
X151007062Y-127730587D01*
X151007507Y-127165196D01*
X151007318Y-126598512D01*
G36*
X147873223Y-127000684D02*
G01*
X147827570Y-126976713D01*
X147792112Y-127017462D01*
X147785667Y-127068439D01*
X147807853Y-127157207D01*
X147852111Y-127177800D01*
X147902596Y-127145743D01*
X147905028Y-127085866D01*
X147873223Y-127000684D01*
G37*
X147873223Y-127000684D02*
X147827570Y-126976713D01*
X147792112Y-127017462D01*
X147785667Y-127068439D01*
X147807853Y-127157207D01*
X147852111Y-127177800D01*
X147902596Y-127145743D01*
X147905028Y-127085866D01*
X147873223Y-127000684D01*
G36*
X148097864Y-127024182D02*
G01*
X148060834Y-127008467D01*
X148009120Y-127043760D01*
X147997334Y-127093134D01*
X148023804Y-127162086D01*
X148060834Y-127177800D01*
X148112548Y-127142507D01*
X148124334Y-127093134D01*
X148097864Y-127024182D01*
G37*
X148097864Y-127024182D02*
X148060834Y-127008467D01*
X148009120Y-127043760D01*
X147997334Y-127093134D01*
X148023804Y-127162086D01*
X148060834Y-127177800D01*
X148112548Y-127142507D01*
X148124334Y-127093134D01*
X148097864Y-127024182D01*
G36*
X148053713Y-124172782D02*
G01*
X147971774Y-124157793D01*
X147937296Y-124146438D01*
X147880697Y-124150368D01*
X147870334Y-124188771D01*
X147897063Y-124247499D01*
X147923250Y-124256152D01*
X147984159Y-124242017D01*
X148042479Y-124212185D01*
X148071764Y-124183555D01*
X148053713Y-124172782D01*
G37*
X148053713Y-124172782D02*
X147971774Y-124157793D01*
X147937296Y-124146438D01*
X147880697Y-124150368D01*
X147870334Y-124188771D01*
X147897063Y-124247499D01*
X147923250Y-124256152D01*
X147984159Y-124242017D01*
X148042479Y-124212185D01*
X148071764Y-124183555D01*
X148053713Y-124172782D01*
G36*
X150656954Y-130321691D02*
G01*
X150655478Y-130294029D01*
X150620600Y-130007934D01*
X150543352Y-129774161D01*
X150411902Y-129566062D01*
X150257634Y-129398092D01*
X150007293Y-129211716D01*
X149714464Y-129090043D01*
X149399708Y-129041268D01*
X149360996Y-129040703D01*
X149095775Y-129058757D01*
X148870496Y-129119615D01*
X148646670Y-129234196D01*
X148619900Y-129250919D01*
X148383465Y-129448899D01*
X148199681Y-129701197D01*
X148075639Y-129990768D01*
X148018429Y-130300568D01*
X148035140Y-130613552D01*
X148040849Y-130642921D01*
X148136724Y-130912758D01*
X148301724Y-131168477D01*
X148520413Y-131391685D01*
X148777359Y-131563990D01*
X148838819Y-131593842D01*
X149092968Y-131668467D01*
X149378225Y-131686460D01*
X149468763Y-131674476D01*
X149468763Y-131437367D01*
X149205576Y-131433035D01*
X148945116Y-131356665D01*
X148705147Y-131219537D01*
X148503437Y-131032932D01*
X148357751Y-130808130D01*
X148318071Y-130706704D01*
X148275573Y-130478506D01*
X148278849Y-130233335D01*
X148325761Y-130007846D01*
X148364240Y-129915238D01*
X148538694Y-129649090D01*
X148750413Y-129458469D01*
X149002450Y-129341454D01*
X149297858Y-129296124D01*
X149349729Y-129295397D01*
X149630639Y-129323749D01*
X149865613Y-129412591D01*
X150075777Y-129570729D01*
X150122517Y-129617504D01*
X150286127Y-129829729D01*
X150378904Y-130059693D01*
X150410203Y-130331296D01*
X150410334Y-130352801D01*
X150371496Y-130654606D01*
X150260542Y-130921549D01*
X150085812Y-131144021D01*
X149855647Y-131312416D01*
X149578388Y-131417126D01*
X149468763Y-131437367D01*
X149468763Y-131674476D01*
X149663553Y-131648692D01*
X149902334Y-131564007D01*
X150187912Y-131383260D01*
X150406770Y-131156134D01*
X150560074Y-130892035D01*
X150618783Y-130750024D01*
X150650881Y-130630312D01*
X150661795Y-130498875D01*
X150656954Y-130321691D01*
G37*
X150656954Y-130321691D02*
X150655478Y-130294029D01*
X150620600Y-130007934D01*
X150543352Y-129774161D01*
X150411902Y-129566062D01*
X150257634Y-129398092D01*
X150007293Y-129211716D01*
X149714464Y-129090043D01*
X149399708Y-129041268D01*
X149360996Y-129040703D01*
X149095775Y-129058757D01*
X148870496Y-129119615D01*
X148646670Y-129234196D01*
X148619900Y-129250919D01*
X148383465Y-129448899D01*
X148199681Y-129701197D01*
X148075639Y-129990768D01*
X148018429Y-130300568D01*
X148035140Y-130613552D01*
X148040849Y-130642921D01*
X148136724Y-130912758D01*
X148301724Y-131168477D01*
X148520413Y-131391685D01*
X148777359Y-131563990D01*
X148838819Y-131593842D01*
X149092968Y-131668467D01*
X149378225Y-131686460D01*
X149468763Y-131674476D01*
X149468763Y-131437367D01*
X149205576Y-131433035D01*
X148945116Y-131356665D01*
X148705147Y-131219537D01*
X148503437Y-131032932D01*
X148357751Y-130808130D01*
X148318071Y-130706704D01*
X148275573Y-130478506D01*
X148278849Y-130233335D01*
X148325761Y-130007846D01*
X148364240Y-129915238D01*
X148538694Y-129649090D01*
X148750413Y-129458469D01*
X149002450Y-129341454D01*
X149297858Y-129296124D01*
X149349729Y-129295397D01*
X149630639Y-129323749D01*
X149865613Y-129412591D01*
X150075777Y-129570729D01*
X150122517Y-129617504D01*
X150286127Y-129829729D01*
X150378904Y-130059693D01*
X150410203Y-130331296D01*
X150410334Y-130352801D01*
X150371496Y-130654606D01*
X150260542Y-130921549D01*
X150085812Y-131144021D01*
X149855647Y-131312416D01*
X149578388Y-131417126D01*
X149468763Y-131437367D01*
X149468763Y-131674476D01*
X149663553Y-131648692D01*
X149902334Y-131564007D01*
X150187912Y-131383260D01*
X150406770Y-131156134D01*
X150560074Y-130892035D01*
X150618783Y-130750024D01*
X150650881Y-130630312D01*
X150661795Y-130498875D01*
X150656954Y-130321691D01*
G36*
X150656633Y-126409074D02*
G01*
X150629998Y-126348435D01*
X150466449Y-126111667D01*
X150259253Y-125935953D01*
X150021928Y-125824112D01*
X149767992Y-125778961D01*
X149510962Y-125803319D01*
X149264356Y-125900005D01*
X149088388Y-126027034D01*
X148902837Y-126246801D01*
X148790575Y-126497623D01*
X148753858Y-126765735D01*
X148794945Y-127037370D01*
X148887556Y-127251829D01*
X149058796Y-127474274D01*
X149271093Y-127631914D01*
X149510545Y-127724348D01*
X149743777Y-127749107D01*
X149743777Y-127558800D01*
X149535021Y-127539608D01*
X149364097Y-127473023D01*
X149200669Y-127345529D01*
X149149025Y-127293862D01*
X149003970Y-127086438D01*
X148937086Y-126854021D01*
X148950316Y-126608467D01*
X149008240Y-126435216D01*
X149137320Y-126240875D01*
X149319772Y-126085081D01*
X149532487Y-125983286D01*
X149733000Y-125950606D01*
X149896223Y-125977323D01*
X150077175Y-126046275D01*
X150232893Y-126140661D01*
X150245710Y-126151093D01*
X150409183Y-126336196D01*
X150502632Y-126545655D01*
X150530919Y-126765829D01*
X150498908Y-126983078D01*
X150411463Y-127183763D01*
X150273447Y-127354244D01*
X150089723Y-127480880D01*
X149865156Y-127550031D01*
X149743777Y-127558800D01*
X149743777Y-127749107D01*
X149763248Y-127751174D01*
X150015299Y-127711992D01*
X150252795Y-127606400D01*
X150461833Y-127433997D01*
X150566505Y-127300299D01*
X150656710Y-127102549D01*
X150703209Y-126866964D01*
X150703889Y-126625240D01*
X150656633Y-126409074D01*
G37*
X150656633Y-126409074D02*
X150629998Y-126348435D01*
X150466449Y-126111667D01*
X150259253Y-125935953D01*
X150021928Y-125824112D01*
X149767992Y-125778961D01*
X149510962Y-125803319D01*
X149264356Y-125900005D01*
X149088388Y-126027034D01*
X148902837Y-126246801D01*
X148790575Y-126497623D01*
X148753858Y-126765735D01*
X148794945Y-127037370D01*
X148887556Y-127251829D01*
X149058796Y-127474274D01*
X149271093Y-127631914D01*
X149510545Y-127724348D01*
X149743777Y-127749107D01*
X149743777Y-127558800D01*
X149535021Y-127539608D01*
X149364097Y-127473023D01*
X149200669Y-127345529D01*
X149149025Y-127293862D01*
X149003970Y-127086438D01*
X148937086Y-126854021D01*
X148950316Y-126608467D01*
X149008240Y-126435216D01*
X149137320Y-126240875D01*
X149319772Y-126085081D01*
X149532487Y-125983286D01*
X149733000Y-125950606D01*
X149896223Y-125977323D01*
X150077175Y-126046275D01*
X150232893Y-126140661D01*
X150245710Y-126151093D01*
X150409183Y-126336196D01*
X150502632Y-126545655D01*
X150530919Y-126765829D01*
X150498908Y-126983078D01*
X150411463Y-127183763D01*
X150273447Y-127354244D01*
X150089723Y-127480880D01*
X149865156Y-127550031D01*
X149743777Y-127558800D01*
X149743777Y-127749107D01*
X149763248Y-127751174D01*
X150015299Y-127711992D01*
X150252795Y-127606400D01*
X150461833Y-127433997D01*
X150566505Y-127300299D01*
X150656710Y-127102549D01*
X150703209Y-126866964D01*
X150703889Y-126625240D01*
X150656633Y-126409074D01*
G36*
X150671474Y-124060097D02*
G01*
X150626821Y-123936938D01*
X150480805Y-123709666D01*
X150283845Y-123538596D01*
X150051077Y-123426996D01*
X149797636Y-123378133D01*
X149538659Y-123395277D01*
X149289281Y-123481696D01*
X149101401Y-123607544D01*
X148921369Y-123813117D01*
X148804661Y-124057261D01*
X148755011Y-124321521D01*
X148776156Y-124587441D01*
X148857808Y-124811059D01*
X149020678Y-125036991D01*
X149229596Y-125202037D01*
X149469903Y-125304165D01*
X149721808Y-125340600D01*
X149721808Y-125145800D01*
X149475557Y-125108093D01*
X149265745Y-125003831D01*
X149100649Y-124846305D01*
X148988544Y-124648806D01*
X148937708Y-124424625D01*
X148956416Y-124187051D01*
X149017667Y-124015015D01*
X149155531Y-123812115D01*
X149332093Y-123672597D01*
X149533943Y-123593473D01*
X149747673Y-123571754D01*
X149959873Y-123604454D01*
X150157134Y-123688585D01*
X150326048Y-123821159D01*
X150453205Y-123999187D01*
X150525197Y-124219683D01*
X150536404Y-124353410D01*
X150499777Y-124607081D01*
X150393211Y-124822524D01*
X150226381Y-124990329D01*
X150008959Y-125101086D01*
X149750618Y-125145387D01*
X149721808Y-125145800D01*
X149721808Y-125340600D01*
X149726936Y-125341342D01*
X149986035Y-125311536D01*
X150232539Y-125212716D01*
X150451786Y-125042849D01*
X150461005Y-125033261D01*
X150599584Y-124829999D01*
X150683324Y-124583734D01*
X150708521Y-124318942D01*
X150671474Y-124060097D01*
G37*
X150671474Y-124060097D02*
X150626821Y-123936938D01*
X150480805Y-123709666D01*
X150283845Y-123538596D01*
X150051077Y-123426996D01*
X149797636Y-123378133D01*
X149538659Y-123395277D01*
X149289281Y-123481696D01*
X149101401Y-123607544D01*
X148921369Y-123813117D01*
X148804661Y-124057261D01*
X148755011Y-124321521D01*
X148776156Y-124587441D01*
X148857808Y-124811059D01*
X149020678Y-125036991D01*
X149229596Y-125202037D01*
X149469903Y-125304165D01*
X149721808Y-125340600D01*
X149721808Y-125145800D01*
X149475557Y-125108093D01*
X149265745Y-125003831D01*
X149100649Y-124846305D01*
X148988544Y-124648806D01*
X148937708Y-124424625D01*
X148956416Y-124187051D01*
X149017667Y-124015015D01*
X149155531Y-123812115D01*
X149332093Y-123672597D01*
X149533943Y-123593473D01*
X149747673Y-123571754D01*
X149959873Y-123604454D01*
X150157134Y-123688585D01*
X150326048Y-123821159D01*
X150453205Y-123999187D01*
X150525197Y-124219683D01*
X150536404Y-124353410D01*
X150499777Y-124607081D01*
X150393211Y-124822524D01*
X150226381Y-124990329D01*
X150008959Y-125101086D01*
X149750618Y-125145387D01*
X149721808Y-125145800D01*
X149721808Y-125340600D01*
X149726936Y-125341342D01*
X149986035Y-125311536D01*
X150232539Y-125212716D01*
X150451786Y-125042849D01*
X150461005Y-125033261D01*
X150599584Y-124829999D01*
X150683324Y-124583734D01*
X150708521Y-124318942D01*
X150671474Y-124060097D01*
G36*
X149713938Y-130555269D02*
G01*
X149654430Y-130466412D01*
X149600326Y-130414158D01*
X149561910Y-130427639D01*
X149534118Y-130462939D01*
X149503598Y-130544149D01*
X149525301Y-130590414D01*
X149555664Y-130673065D01*
X149556334Y-130742054D01*
X149530464Y-130809363D01*
X149461676Y-130842347D01*
X149380796Y-130852949D01*
X149231364Y-130843193D01*
X149134201Y-130793372D01*
X149099160Y-130715209D01*
X149136092Y-130620431D01*
X149161379Y-130591803D01*
X149196167Y-130521623D01*
X149194862Y-130444247D01*
X149160393Y-130397986D01*
X149146388Y-130395782D01*
X149066845Y-130434269D01*
X148991994Y-130526278D01*
X148941571Y-130642011D01*
X148931351Y-130720434D01*
X148949434Y-130823029D01*
X148970644Y-130888021D01*
X149060908Y-131010361D01*
X149200196Y-131092553D01*
X149321189Y-131114800D01*
X149499347Y-131080985D01*
X149636517Y-130990973D01*
X149723882Y-130861915D01*
X149752627Y-130710963D01*
X149713938Y-130555269D01*
G37*
X149713938Y-130555269D02*
X149654430Y-130466412D01*
X149600326Y-130414158D01*
X149561910Y-130427639D01*
X149534118Y-130462939D01*
X149503598Y-130544149D01*
X149525301Y-130590414D01*
X149555664Y-130673065D01*
X149556334Y-130742054D01*
X149530464Y-130809363D01*
X149461676Y-130842347D01*
X149380796Y-130852949D01*
X149231364Y-130843193D01*
X149134201Y-130793372D01*
X149099160Y-130715209D01*
X149136092Y-130620431D01*
X149161379Y-130591803D01*
X149196167Y-130521623D01*
X149194862Y-130444247D01*
X149160393Y-130397986D01*
X149146388Y-130395782D01*
X149066845Y-130434269D01*
X148991994Y-130526278D01*
X148941571Y-130642011D01*
X148931351Y-130720434D01*
X148949434Y-130823029D01*
X148970644Y-130888021D01*
X149060908Y-131010361D01*
X149200196Y-131092553D01*
X149321189Y-131114800D01*
X149499347Y-131080985D01*
X149636517Y-130990973D01*
X149723882Y-130861915D01*
X149752627Y-130710963D01*
X149713938Y-130555269D01*
G36*
X149688997Y-129743973D02*
G01*
X149663111Y-129710740D01*
X149604457Y-129654980D01*
X149565611Y-129662306D01*
X149534118Y-129700939D01*
X149503598Y-129782149D01*
X149525301Y-129828414D01*
X149555664Y-129911065D01*
X149556334Y-129980054D01*
X149510386Y-130057202D01*
X149417748Y-130094066D01*
X149304401Y-130093798D01*
X149196326Y-130059555D01*
X149119508Y-129994492D01*
X149098000Y-129924400D01*
X149124633Y-129872371D01*
X149161379Y-129829803D01*
X149200442Y-129750733D01*
X149186120Y-129673743D01*
X149126526Y-129633786D01*
X149115725Y-129633134D01*
X149057636Y-129669034D01*
X148995626Y-129756460D01*
X148947088Y-129864996D01*
X148929291Y-129959115D01*
X148948514Y-130054136D01*
X148983042Y-130140300D01*
X149091148Y-130268745D01*
X149243085Y-130336786D01*
X149418437Y-130339158D01*
X149562769Y-130289765D01*
X149673998Y-130189109D01*
X149735438Y-130045400D01*
X149742101Y-129887424D01*
X149688997Y-129743973D01*
G37*
X149688997Y-129743973D02*
X149663111Y-129710740D01*
X149604457Y-129654980D01*
X149565611Y-129662306D01*
X149534118Y-129700939D01*
X149503598Y-129782149D01*
X149525301Y-129828414D01*
X149555664Y-129911065D01*
X149556334Y-129980054D01*
X149510386Y-130057202D01*
X149417748Y-130094066D01*
X149304401Y-130093798D01*
X149196326Y-130059555D01*
X149119508Y-129994492D01*
X149098000Y-129924400D01*
X149124633Y-129872371D01*
X149161379Y-129829803D01*
X149200442Y-129750733D01*
X149186120Y-129673743D01*
X149126526Y-129633786D01*
X149115725Y-129633134D01*
X149057636Y-129669034D01*
X148995626Y-129756460D01*
X148947088Y-129864996D01*
X148929291Y-129959115D01*
X148948514Y-130054136D01*
X148983042Y-130140300D01*
X149091148Y-130268745D01*
X149243085Y-130336786D01*
X149418437Y-130339158D01*
X149562769Y-130289765D01*
X149673998Y-130189109D01*
X149735438Y-130045400D01*
X149742101Y-129887424D01*
X149688997Y-129743973D01*
G36*
X149798521Y-126500467D02*
G01*
X149657423Y-126506079D01*
X149584461Y-126525794D01*
X149563667Y-126563926D01*
X149563667Y-126563967D01*
X149542764Y-126602261D01*
X149469416Y-126621977D01*
X149330834Y-126627467D01*
X149098000Y-126627467D01*
X149098000Y-126923800D01*
X149326305Y-126923800D01*
X149474629Y-126931803D01*
X149555407Y-126958555D01*
X149579873Y-126989638D01*
X149620649Y-127031006D01*
X149712476Y-127045412D01*
X149806652Y-127042554D01*
X150008167Y-127029634D01*
X150020771Y-126765050D01*
X150033374Y-126500467D01*
X149798521Y-126500467D01*
G37*
X149798521Y-126500467D02*
X149657423Y-126506079D01*
X149584461Y-126525794D01*
X149563667Y-126563926D01*
X149563667Y-126563967D01*
X149542764Y-126602261D01*
X149469416Y-126621977D01*
X149330834Y-126627467D01*
X149098000Y-126627467D01*
X149098000Y-126923800D01*
X149326305Y-126923800D01*
X149474629Y-126931803D01*
X149555407Y-126958555D01*
X149579873Y-126989638D01*
X149620649Y-127031006D01*
X149712476Y-127045412D01*
X149806652Y-127042554D01*
X150008167Y-127029634D01*
X150020771Y-126765050D01*
X150033374Y-126500467D01*
X149798521Y-126500467D01*
G36*
X150326932Y-126696647D02*
G01*
X150313572Y-126681896D01*
X150226836Y-126637147D01*
X150152466Y-126664853D01*
X150114951Y-126753675D01*
X150114000Y-126774305D01*
X150130902Y-126855451D01*
X150198286Y-126880869D01*
X150221162Y-126881467D01*
X150319362Y-126852769D01*
X150358398Y-126782999D01*
X150326932Y-126696647D01*
G37*
X150326932Y-126696647D02*
X150313572Y-126681896D01*
X150226836Y-126637147D01*
X150152466Y-126664853D01*
X150114951Y-126753675D01*
X150114000Y-126774305D01*
X150130902Y-126855451D01*
X150198286Y-126880869D01*
X150221162Y-126881467D01*
X150319362Y-126852769D01*
X150358398Y-126782999D01*
X150326932Y-126696647D01*
G36*
X150227719Y-124210827D02*
G01*
X150175723Y-124107688D01*
X150097067Y-124019734D01*
X149990531Y-123927305D01*
X149889452Y-123885447D01*
X149754349Y-123875800D01*
X149549846Y-123904136D01*
X149380616Y-123982353D01*
X149277333Y-124087187D01*
X149226678Y-124215318D01*
X149203466Y-124369830D01*
X149213055Y-124506572D01*
X149222779Y-124536704D01*
X149277766Y-124618148D01*
X149365746Y-124707092D01*
X149458492Y-124778448D01*
X149527043Y-124807134D01*
X149560635Y-124774127D01*
X149561586Y-124694933D01*
X149534720Y-124599293D01*
X149484856Y-124516949D01*
X149479000Y-124510800D01*
X149403999Y-124394978D01*
X149405526Y-124287302D01*
X149475525Y-124199605D01*
X149605937Y-124143720D01*
X149738451Y-124129800D01*
X149898363Y-124146227D01*
X149990797Y-124201274D01*
X150027460Y-124303591D01*
X150029334Y-124344750D01*
X150006909Y-124446137D01*
X149953164Y-124520707D01*
X149888397Y-124544396D01*
X149867513Y-124536610D01*
X149814253Y-124546430D01*
X149753264Y-124596465D01*
X149702503Y-124662803D01*
X149711204Y-124713345D01*
X149752627Y-124763099D01*
X149803205Y-124812915D01*
X149850162Y-124823990D01*
X149924153Y-124796308D01*
X149990606Y-124762961D01*
X150133381Y-124669456D01*
X150211342Y-124555641D01*
X150239811Y-124395637D01*
X150241000Y-124340017D01*
X150227719Y-124210827D01*
G37*
X150227719Y-124210827D02*
X150175723Y-124107688D01*
X150097067Y-124019734D01*
X149990531Y-123927305D01*
X149889452Y-123885447D01*
X149754349Y-123875800D01*
X149549846Y-123904136D01*
X149380616Y-123982353D01*
X149277333Y-124087187D01*
X149226678Y-124215318D01*
X149203466Y-124369830D01*
X149213055Y-124506572D01*
X149222779Y-124536704D01*
X149277766Y-124618148D01*
X149365746Y-124707092D01*
X149458492Y-124778448D01*
X149527043Y-124807134D01*
X149560635Y-124774127D01*
X149561586Y-124694933D01*
X149534720Y-124599293D01*
X149484856Y-124516949D01*
X149479000Y-124510800D01*
X149403999Y-124394978D01*
X149405526Y-124287302D01*
X149475525Y-124199605D01*
X149605937Y-124143720D01*
X149738451Y-124129800D01*
X149898363Y-124146227D01*
X149990797Y-124201274D01*
X150027460Y-124303591D01*
X150029334Y-124344750D01*
X150006909Y-124446137D01*
X149953164Y-124520707D01*
X149888397Y-124544396D01*
X149867513Y-124536610D01*
X149814253Y-124546430D01*
X149753264Y-124596465D01*
X149702503Y-124662803D01*
X149711204Y-124713345D01*
X149752627Y-124763099D01*
X149803205Y-124812915D01*
X149850162Y-124823990D01*
X149924153Y-124796308D01*
X149990606Y-124762961D01*
X150133381Y-124669456D01*
X150211342Y-124555641D01*
X150239811Y-124395637D01*
X150241000Y-124340017D01*
X150227719Y-124210827D01*
D12*
G04 #@! TO.C,C13*
X130125800Y-92753548D02*
X130125800Y-93276052D01*
X131595800Y-92753548D02*
X131595800Y-93276052D01*
G04 #@! TO.C,C11*
X125621148Y-92175000D02*
X126143652Y-92175000D01*
X125621148Y-90705000D02*
X126143652Y-90705000D01*
G04 #@! TO.C,C10*
X124102800Y-97771852D02*
X124102800Y-97249348D01*
X122632800Y-97771852D02*
X122632800Y-97249348D01*
G04 #@! TO.C,C9*
X129648852Y-98248800D02*
X129126348Y-98248800D01*
X129648852Y-99718800D02*
X129126348Y-99718800D01*
G04 #@! TO.C,C8*
X126185600Y-97771852D02*
X126185600Y-97249348D01*
X124715600Y-97771852D02*
X124715600Y-97249348D01*
G04 #@! TO.C,C5*
X147169200Y-117645548D02*
X147169200Y-118168052D01*
X148639200Y-117645548D02*
X148639200Y-118168052D01*
G04 #@! TO.C,C13*
D10*
X129537942Y-92371942D02*
X129585561Y-92324323D01*
X129633180Y-92181466D01*
X129633180Y-92086228D01*
X129585561Y-91943371D01*
X129490323Y-91848133D01*
X129395085Y-91800514D01*
X129204609Y-91752895D01*
X129061752Y-91752895D01*
X128871276Y-91800514D01*
X128776038Y-91848133D01*
X128680800Y-91943371D01*
X128633180Y-92086228D01*
X128633180Y-92181466D01*
X128680800Y-92324323D01*
X128728419Y-92371942D01*
X129633180Y-93324323D02*
X129633180Y-92752895D01*
X129633180Y-93038609D02*
X128633180Y-93038609D01*
X128776038Y-92943371D01*
X128871276Y-92848133D01*
X128918895Y-92752895D01*
X128633180Y-93657657D02*
X128633180Y-94276704D01*
X129014133Y-93943371D01*
X129014133Y-94086228D01*
X129061752Y-94181466D01*
X129109371Y-94229085D01*
X129204609Y-94276704D01*
X129442704Y-94276704D01*
X129537942Y-94229085D01*
X129585561Y-94181466D01*
X129633180Y-94086228D01*
X129633180Y-93800514D01*
X129585561Y-93705276D01*
X129537942Y-93657657D01*
G04 #@! TO.C,C11*
X126525257Y-93477142D02*
X126572876Y-93524761D01*
X126715733Y-93572380D01*
X126810971Y-93572380D01*
X126953828Y-93524761D01*
X127049066Y-93429523D01*
X127096685Y-93334285D01*
X127144304Y-93143809D01*
X127144304Y-93000952D01*
X127096685Y-92810476D01*
X127049066Y-92715238D01*
X126953828Y-92620000D01*
X126810971Y-92572380D01*
X126715733Y-92572380D01*
X126572876Y-92620000D01*
X126525257Y-92667619D01*
X125572876Y-93572380D02*
X126144304Y-93572380D01*
X125858590Y-93572380D02*
X125858590Y-92572380D01*
X125953828Y-92715238D01*
X126049066Y-92810476D01*
X126144304Y-92858095D01*
X124620495Y-93572380D02*
X125191923Y-93572380D01*
X124906209Y-93572380D02*
X124906209Y-92572380D01*
X125001447Y-92715238D01*
X125096685Y-92810476D01*
X125191923Y-92858095D01*
G04 #@! TO.C,C10*
X121845342Y-96842342D02*
X121892961Y-96794723D01*
X121940580Y-96651866D01*
X121940580Y-96556628D01*
X121892961Y-96413771D01*
X121797723Y-96318533D01*
X121702485Y-96270914D01*
X121512009Y-96223295D01*
X121369152Y-96223295D01*
X121178676Y-96270914D01*
X121083438Y-96318533D01*
X120988200Y-96413771D01*
X120940580Y-96556628D01*
X120940580Y-96651866D01*
X120988200Y-96794723D01*
X121035819Y-96842342D01*
X121940580Y-97794723D02*
X121940580Y-97223295D01*
X121940580Y-97509009D02*
X120940580Y-97509009D01*
X121083438Y-97413771D01*
X121178676Y-97318533D01*
X121226295Y-97223295D01*
X120940580Y-98413771D02*
X120940580Y-98509009D01*
X120988200Y-98604247D01*
X121035819Y-98651866D01*
X121131057Y-98699485D01*
X121321533Y-98747104D01*
X121559628Y-98747104D01*
X121750104Y-98699485D01*
X121845342Y-98651866D01*
X121892961Y-98604247D01*
X121940580Y-98509009D01*
X121940580Y-98413771D01*
X121892961Y-98318533D01*
X121845342Y-98270914D01*
X121750104Y-98223295D01*
X121559628Y-98175676D01*
X121321533Y-98175676D01*
X121131057Y-98223295D01*
X121035819Y-98270914D01*
X120988200Y-98318533D01*
X120940580Y-98413771D01*
G04 #@! TO.C,C9*
X129554266Y-97660942D02*
X129601885Y-97708561D01*
X129744742Y-97756180D01*
X129839980Y-97756180D01*
X129982838Y-97708561D01*
X130078076Y-97613323D01*
X130125695Y-97518085D01*
X130173314Y-97327609D01*
X130173314Y-97184752D01*
X130125695Y-96994276D01*
X130078076Y-96899038D01*
X129982838Y-96803800D01*
X129839980Y-96756180D01*
X129744742Y-96756180D01*
X129601885Y-96803800D01*
X129554266Y-96851419D01*
X129078076Y-97756180D02*
X128887600Y-97756180D01*
X128792361Y-97708561D01*
X128744742Y-97660942D01*
X128649504Y-97518085D01*
X128601885Y-97327609D01*
X128601885Y-96946657D01*
X128649504Y-96851419D01*
X128697123Y-96803800D01*
X128792361Y-96756180D01*
X128982838Y-96756180D01*
X129078076Y-96803800D01*
X129125695Y-96851419D01*
X129173314Y-96946657D01*
X129173314Y-97184752D01*
X129125695Y-97279990D01*
X129078076Y-97327609D01*
X128982838Y-97375228D01*
X128792361Y-97375228D01*
X128697123Y-97327609D01*
X128649504Y-97279990D01*
X128601885Y-97184752D01*
G04 #@! TO.C,C8*
X127487742Y-97343933D02*
X127535361Y-97296314D01*
X127582980Y-97153457D01*
X127582980Y-97058219D01*
X127535361Y-96915361D01*
X127440123Y-96820123D01*
X127344885Y-96772504D01*
X127154409Y-96724885D01*
X127011552Y-96724885D01*
X126821076Y-96772504D01*
X126725838Y-96820123D01*
X126630600Y-96915361D01*
X126582980Y-97058219D01*
X126582980Y-97153457D01*
X126630600Y-97296314D01*
X126678219Y-97343933D01*
X127011552Y-97915361D02*
X126963933Y-97820123D01*
X126916314Y-97772504D01*
X126821076Y-97724885D01*
X126773457Y-97724885D01*
X126678219Y-97772504D01*
X126630600Y-97820123D01*
X126582980Y-97915361D01*
X126582980Y-98105838D01*
X126630600Y-98201076D01*
X126678219Y-98248695D01*
X126773457Y-98296314D01*
X126821076Y-98296314D01*
X126916314Y-98248695D01*
X126963933Y-98201076D01*
X127011552Y-98105838D01*
X127011552Y-97915361D01*
X127059171Y-97820123D01*
X127106790Y-97772504D01*
X127202028Y-97724885D01*
X127392504Y-97724885D01*
X127487742Y-97772504D01*
X127535361Y-97820123D01*
X127582980Y-97915361D01*
X127582980Y-98105838D01*
X127535361Y-98201076D01*
X127487742Y-98248695D01*
X127392504Y-98296314D01*
X127202028Y-98296314D01*
X127106790Y-98248695D01*
X127059171Y-98201076D01*
X127011552Y-98105838D01*
G04 #@! TO.C,C5*
X146581342Y-117740133D02*
X146628961Y-117692514D01*
X146676580Y-117549657D01*
X146676580Y-117454419D01*
X146628961Y-117311561D01*
X146533723Y-117216323D01*
X146438485Y-117168704D01*
X146248009Y-117121085D01*
X146105152Y-117121085D01*
X145914676Y-117168704D01*
X145819438Y-117216323D01*
X145724200Y-117311561D01*
X145676580Y-117454419D01*
X145676580Y-117549657D01*
X145724200Y-117692514D01*
X145771819Y-117740133D01*
X145676580Y-118644895D02*
X145676580Y-118168704D01*
X146152771Y-118121085D01*
X146105152Y-118168704D01*
X146057533Y-118263942D01*
X146057533Y-118502038D01*
X146105152Y-118597276D01*
X146152771Y-118644895D01*
X146248009Y-118692514D01*
X146486104Y-118692514D01*
X146581342Y-118644895D01*
X146628961Y-118597276D01*
X146676580Y-118502038D01*
X146676580Y-118263942D01*
X146628961Y-118168704D01*
X146581342Y-118121085D01*
G04 #@! TD*
M02*
