M48
INCH,TZ
T1C0.0157
T2C0.0315
T3C0.0354
T4C0.0374
T5C0.0394
T6C0.0472
%
G90
G05
T1
X42048Y-32358
X42048Y-41708
X42048Y-48440
X42048Y-51058
X42048Y-52554
X43544Y-34976
X43544Y-44326
X44666Y-27495
X44666Y-29739
X44666Y-32358
X44666Y-34602
X44666Y-36098
X44666Y-39090
X44666Y-41708
X44666Y-43952
X44666Y-48440
X44666Y-51058
X45788Y-34976
X46162Y-41708
X46162Y-45822
X46162Y-48440
X46162Y-51058
X46536Y-42830
X46536Y-52180
X46910Y-39464
X46910Y-40960
X46910Y-44700
X46910Y-47692
X46910Y-50310
X47284Y-27121
X47284Y-28617
X47284Y-30113
X47284Y-31609
X47284Y-33106
X47284Y-34602
X47284Y-42082
X47284Y-51432
X47284Y-52928
X47658Y-40212
X47658Y-43952
X47658Y-46944
X47658Y-49562
X48032Y-32358
X48032Y-33854
X48032Y-35350
X48032Y-41334
X48032Y-52180
X48406Y-29739
X48406Y-46196
X48406Y-48814
X48570Y-38848
X48780Y-52928
X49152Y-36000
X49154Y-30487
X49154Y-36846
X49154Y-48066
X49390Y-38798
X49528Y-44700
X49528Y-46570
X49902Y-31235
X50050Y-34650
X50276Y-27495
X50276Y-30113
X50276Y-37220
X50276Y-40586
X50276Y-42082
X50276Y-45448
X50276Y-47318
X50276Y-52928
X50532Y-38970
X50650Y-43204
X51024Y-41334
X51024Y-46196
X51024Y-49188
X51040Y-34650
X51348Y-38970
X51398Y-42456
X51398Y-43952
X51520Y-36212
X51520Y-37028
X51772Y-27495
X51772Y-33854
X51772Y-48440
X51772Y-51432
X51772Y-52928
X52060Y-40150
X52146Y-28991
X52146Y-32358
X52146Y-40960
X52146Y-43204
X52146Y-49562
X52470Y-39100
X52520Y-47692
X52520Y-50684
X52700Y-44540
X52700Y-45550
X52894Y-27869
X52894Y-29739
X52894Y-48814
X52910Y-36870
X52910Y-38020
X52920Y-35150
X53080Y-45580
X53230Y-44570
X53268Y-49936
X53460Y-35180
X53460Y-37190
X53642Y-30487
X54016Y-27495
X54016Y-39464
X54016Y-40960
X54016Y-42456
X54016Y-43952
X54390Y-29365
X54740Y-35770
X54764Y-28243
X54764Y-38716
X54764Y-40212
X54764Y-41708
X54764Y-43204
X55138Y-48440
X55138Y-49936
X55138Y-51432
X55138Y-52928
X55505Y-35879
X55512Y-37968
X55512Y-39464
X55512Y-46196
X55760Y-36510
X55886Y-33480
X55886Y-40586
X55886Y-47318
X55886Y-49188
X55886Y-50684
X55890Y-35610
X56260Y-28991
X56260Y-30487
X56260Y-34602
X56260Y-38716
X56260Y-43204
X56634Y-48066
X56634Y-49936
X56634Y-51432
X56634Y-52928
X57008Y-42082
X57008Y-43952
X57382Y-29365
X57382Y-30861
X57382Y-32732
X57382Y-45074
X57690Y-36560
X57690Y-37560
X57740Y-52710
X57756Y-42830
X58131Y-38342
X58131Y-39838
X58131Y-44326
X58230Y-46012
X58230Y-46828
X58540Y-52660
X58879Y-26373
T2
X49099Y-33080
X51020Y-33080
T3
X53810Y-28550
T4
X48477Y-28640
X48480Y-50600
X49461Y-28640
X49464Y-50600
X50446Y-28640
X50449Y-50600
X51430Y-28640
X51433Y-50600
X54250Y-31460
X54250Y-32444
X54250Y-33429
X54250Y-34413
T5
X56740Y-26746
X56740Y-27730
T6
X43350Y-26790
X43350Y-28168
X43350Y-29546
X43350Y-30924
X43350Y-32302
X43350Y-33680
X43350Y-36180
X43350Y-37558
X43350Y-38936
X43350Y-40314
X43350Y-41692
X43350Y-43070
X43350Y-45590
X43350Y-46968
X43350Y-48346
X43350Y-49724
X43350Y-51102
X43350Y-52480
T0
M30
