G04 #@! TF.GenerationSoftware,KiCad,Pcbnew,5.1.9*
G04 #@! TF.CreationDate,2021-03-06T22:13:27+08:00*
G04 #@! TF.ProjectId,LaserSwitch-Master,4c617365-7253-4776-9974-63682d4d6173,rev?*
G04 #@! TF.SameCoordinates,Original*
G04 #@! TF.FileFunction,Paste,Bot*
G04 #@! TF.FilePolarity,Positive*
%FSLAX46Y46*%
G04 Gerber Fmt 4.6, Leading zero omitted, Abs format (unit mm)*
G04 Created by KiCad (PCBNEW 5.1.9) date 2021-03-06 22:13:27*
%MOMM*%
%LPD*%
G01*
G04 APERTURE LIST*
G04 APERTURE END LIST*
G04 #@! TO.C,C13*
G36*
G01*
X130385800Y-93464800D02*
X131335800Y-93464800D01*
G75*
G02*
X131585800Y-93714800I0J-250000D01*
G01*
X131585800Y-94389800D01*
G75*
G02*
X131335800Y-94639800I-250000J0D01*
G01*
X130385800Y-94639800D01*
G75*
G02*
X130135800Y-94389800I0J250000D01*
G01*
X130135800Y-93714800D01*
G75*
G02*
X130385800Y-93464800I250000J0D01*
G01*
G37*
G36*
G01*
X130385800Y-91389800D02*
X131335800Y-91389800D01*
G75*
G02*
X131585800Y-91639800I0J-250000D01*
G01*
X131585800Y-92314800D01*
G75*
G02*
X131335800Y-92564800I-250000J0D01*
G01*
X130385800Y-92564800D01*
G75*
G02*
X130135800Y-92314800I0J250000D01*
G01*
X130135800Y-91639800D01*
G75*
G02*
X130385800Y-91389800I250000J0D01*
G01*
G37*
G04 #@! TD*
G04 #@! TO.C,C11*
G36*
G01*
X126332400Y-91915000D02*
X126332400Y-90965000D01*
G75*
G02*
X126582400Y-90715000I250000J0D01*
G01*
X127257400Y-90715000D01*
G75*
G02*
X127507400Y-90965000I0J-250000D01*
G01*
X127507400Y-91915000D01*
G75*
G02*
X127257400Y-92165000I-250000J0D01*
G01*
X126582400Y-92165000D01*
G75*
G02*
X126332400Y-91915000I0J250000D01*
G01*
G37*
G36*
G01*
X124257400Y-91915000D02*
X124257400Y-90965000D01*
G75*
G02*
X124507400Y-90715000I250000J0D01*
G01*
X125182400Y-90715000D01*
G75*
G02*
X125432400Y-90965000I0J-250000D01*
G01*
X125432400Y-91915000D01*
G75*
G02*
X125182400Y-92165000I-250000J0D01*
G01*
X124507400Y-92165000D01*
G75*
G02*
X124257400Y-91915000I0J250000D01*
G01*
G37*
G04 #@! TD*
G04 #@! TO.C,C10*
G36*
G01*
X123842800Y-97060600D02*
X122892800Y-97060600D01*
G75*
G02*
X122642800Y-96810600I0J250000D01*
G01*
X122642800Y-96135600D01*
G75*
G02*
X122892800Y-95885600I250000J0D01*
G01*
X123842800Y-95885600D01*
G75*
G02*
X124092800Y-96135600I0J-250000D01*
G01*
X124092800Y-96810600D01*
G75*
G02*
X123842800Y-97060600I-250000J0D01*
G01*
G37*
G36*
G01*
X123842800Y-99135600D02*
X122892800Y-99135600D01*
G75*
G02*
X122642800Y-98885600I0J250000D01*
G01*
X122642800Y-98210600D01*
G75*
G02*
X122892800Y-97960600I250000J0D01*
G01*
X123842800Y-97960600D01*
G75*
G02*
X124092800Y-98210600I0J-250000D01*
G01*
X124092800Y-98885600D01*
G75*
G02*
X123842800Y-99135600I-250000J0D01*
G01*
G37*
G04 #@! TD*
G04 #@! TO.C,C9*
G36*
G01*
X128937600Y-98508800D02*
X128937600Y-99458800D01*
G75*
G02*
X128687600Y-99708800I-250000J0D01*
G01*
X128012600Y-99708800D01*
G75*
G02*
X127762600Y-99458800I0J250000D01*
G01*
X127762600Y-98508800D01*
G75*
G02*
X128012600Y-98258800I250000J0D01*
G01*
X128687600Y-98258800D01*
G75*
G02*
X128937600Y-98508800I0J-250000D01*
G01*
G37*
G36*
G01*
X131012600Y-98508800D02*
X131012600Y-99458800D01*
G75*
G02*
X130762600Y-99708800I-250000J0D01*
G01*
X130087600Y-99708800D01*
G75*
G02*
X129837600Y-99458800I0J250000D01*
G01*
X129837600Y-98508800D01*
G75*
G02*
X130087600Y-98258800I250000J0D01*
G01*
X130762600Y-98258800D01*
G75*
G02*
X131012600Y-98508800I0J-250000D01*
G01*
G37*
G04 #@! TD*
G04 #@! TO.C,C8*
G36*
G01*
X125925600Y-97060600D02*
X124975600Y-97060600D01*
G75*
G02*
X124725600Y-96810600I0J250000D01*
G01*
X124725600Y-96135600D01*
G75*
G02*
X124975600Y-95885600I250000J0D01*
G01*
X125925600Y-95885600D01*
G75*
G02*
X126175600Y-96135600I0J-250000D01*
G01*
X126175600Y-96810600D01*
G75*
G02*
X125925600Y-97060600I-250000J0D01*
G01*
G37*
G36*
G01*
X125925600Y-99135600D02*
X124975600Y-99135600D01*
G75*
G02*
X124725600Y-98885600I0J250000D01*
G01*
X124725600Y-98210600D01*
G75*
G02*
X124975600Y-97960600I250000J0D01*
G01*
X125925600Y-97960600D01*
G75*
G02*
X126175600Y-98210600I0J-250000D01*
G01*
X126175600Y-98885600D01*
G75*
G02*
X125925600Y-99135600I-250000J0D01*
G01*
G37*
G04 #@! TD*
G04 #@! TO.C,C5*
G36*
G01*
X147429200Y-118356800D02*
X148379200Y-118356800D01*
G75*
G02*
X148629200Y-118606800I0J-250000D01*
G01*
X148629200Y-119281800D01*
G75*
G02*
X148379200Y-119531800I-250000J0D01*
G01*
X147429200Y-119531800D01*
G75*
G02*
X147179200Y-119281800I0J250000D01*
G01*
X147179200Y-118606800D01*
G75*
G02*
X147429200Y-118356800I250000J0D01*
G01*
G37*
G36*
G01*
X147429200Y-116281800D02*
X148379200Y-116281800D01*
G75*
G02*
X148629200Y-116531800I0J-250000D01*
G01*
X148629200Y-117206800D01*
G75*
G02*
X148379200Y-117456800I-250000J0D01*
G01*
X147429200Y-117456800D01*
G75*
G02*
X147179200Y-117206800I0J250000D01*
G01*
X147179200Y-116531800D01*
G75*
G02*
X147429200Y-116281800I250000J0D01*
G01*
G37*
G04 #@! TD*
M02*
