G04 #@! TF.GenerationSoftware,KiCad,Pcbnew,5.1.9*
G04 #@! TF.CreationDate,2021-03-06T22:13:27+08:00*
G04 #@! TF.ProjectId,LaserSwitch-Master,4c617365-7253-4776-9974-63682d4d6173,rev?*
G04 #@! TF.SameCoordinates,Original*
G04 #@! TF.FileFunction,Paste,Top*
G04 #@! TF.FilePolarity,Positive*
%FSLAX46Y46*%
G04 Gerber Fmt 4.6, Leading zero omitted, Abs format (unit mm)*
G04 Created by KiCad (PCBNEW 5.1.9) date 2021-03-06 22:13:27*
%MOMM*%
%LPD*%
G01*
G04 APERTURE LIST*
%ADD10R,2.200000X1.200000*%
%ADD11R,2.000000X1.500000*%
%ADD12R,2.000000X3.800000*%
%ADD13R,1.550000X1.300000*%
%ADD14R,0.800000X0.900000*%
G04 APERTURE END LIST*
G04 #@! TO.C,R11*
G36*
G01*
X137280600Y-93388601D02*
X137280600Y-92488599D01*
G75*
G02*
X137530599Y-92238600I249999J0D01*
G01*
X138230601Y-92238600D01*
G75*
G02*
X138480600Y-92488599I0J-249999D01*
G01*
X138480600Y-93388601D01*
G75*
G02*
X138230601Y-93638600I-249999J0D01*
G01*
X137530599Y-93638600D01*
G75*
G02*
X137280600Y-93388601I0J249999D01*
G01*
G37*
G36*
G01*
X135280600Y-93388601D02*
X135280600Y-92488599D01*
G75*
G02*
X135530599Y-92238600I249999J0D01*
G01*
X136230601Y-92238600D01*
G75*
G02*
X136480600Y-92488599I0J-249999D01*
G01*
X136480600Y-93388601D01*
G75*
G02*
X136230601Y-93638600I-249999J0D01*
G01*
X135530599Y-93638600D01*
G75*
G02*
X135280600Y-93388601I0J249999D01*
G01*
G37*
G04 #@! TD*
G04 #@! TO.C,R12*
G36*
G01*
X136480600Y-94825399D02*
X136480600Y-95725401D01*
G75*
G02*
X136230601Y-95975400I-249999J0D01*
G01*
X135530599Y-95975400D01*
G75*
G02*
X135280600Y-95725401I0J249999D01*
G01*
X135280600Y-94825399D01*
G75*
G02*
X135530599Y-94575400I249999J0D01*
G01*
X136230601Y-94575400D01*
G75*
G02*
X136480600Y-94825399I0J-249999D01*
G01*
G37*
G36*
G01*
X138480600Y-94825399D02*
X138480600Y-95725401D01*
G75*
G02*
X138230601Y-95975400I-249999J0D01*
G01*
X137530599Y-95975400D01*
G75*
G02*
X137280600Y-95725401I0J249999D01*
G01*
X137280600Y-94825399D01*
G75*
G02*
X137530599Y-94575400I249999J0D01*
G01*
X138230601Y-94575400D01*
G75*
G02*
X138480600Y-94825399I0J-249999D01*
G01*
G37*
G04 #@! TD*
G04 #@! TO.C,U4*
G36*
G01*
X132076600Y-91350000D02*
X133476600Y-91350000D01*
G75*
G02*
X133551600Y-91425000I0J-75000D01*
G01*
X133551600Y-91575000D01*
G75*
G02*
X133476600Y-91650000I-75000J0D01*
G01*
X132076600Y-91650000D01*
G75*
G02*
X132001600Y-91575000I0J75000D01*
G01*
X132001600Y-91425000D01*
G75*
G02*
X132076600Y-91350000I75000J0D01*
G01*
G37*
G36*
G01*
X132076600Y-91850000D02*
X133476600Y-91850000D01*
G75*
G02*
X133551600Y-91925000I0J-75000D01*
G01*
X133551600Y-92075000D01*
G75*
G02*
X133476600Y-92150000I-75000J0D01*
G01*
X132076600Y-92150000D01*
G75*
G02*
X132001600Y-92075000I0J75000D01*
G01*
X132001600Y-91925000D01*
G75*
G02*
X132076600Y-91850000I75000J0D01*
G01*
G37*
G36*
G01*
X132076600Y-92350000D02*
X133476600Y-92350000D01*
G75*
G02*
X133551600Y-92425000I0J-75000D01*
G01*
X133551600Y-92575000D01*
G75*
G02*
X133476600Y-92650000I-75000J0D01*
G01*
X132076600Y-92650000D01*
G75*
G02*
X132001600Y-92575000I0J75000D01*
G01*
X132001600Y-92425000D01*
G75*
G02*
X132076600Y-92350000I75000J0D01*
G01*
G37*
G36*
G01*
X132076600Y-92850000D02*
X133476600Y-92850000D01*
G75*
G02*
X133551600Y-92925000I0J-75000D01*
G01*
X133551600Y-93075000D01*
G75*
G02*
X133476600Y-93150000I-75000J0D01*
G01*
X132076600Y-93150000D01*
G75*
G02*
X132001600Y-93075000I0J75000D01*
G01*
X132001600Y-92925000D01*
G75*
G02*
X132076600Y-92850000I75000J0D01*
G01*
G37*
G36*
G01*
X132076600Y-93350000D02*
X133476600Y-93350000D01*
G75*
G02*
X133551600Y-93425000I0J-75000D01*
G01*
X133551600Y-93575000D01*
G75*
G02*
X133476600Y-93650000I-75000J0D01*
G01*
X132076600Y-93650000D01*
G75*
G02*
X132001600Y-93575000I0J75000D01*
G01*
X132001600Y-93425000D01*
G75*
G02*
X132076600Y-93350000I75000J0D01*
G01*
G37*
G36*
G01*
X132076600Y-93850000D02*
X133476600Y-93850000D01*
G75*
G02*
X133551600Y-93925000I0J-75000D01*
G01*
X133551600Y-94075000D01*
G75*
G02*
X133476600Y-94150000I-75000J0D01*
G01*
X132076600Y-94150000D01*
G75*
G02*
X132001600Y-94075000I0J75000D01*
G01*
X132001600Y-93925000D01*
G75*
G02*
X132076600Y-93850000I75000J0D01*
G01*
G37*
G36*
G01*
X132076600Y-94350000D02*
X133476600Y-94350000D01*
G75*
G02*
X133551600Y-94425000I0J-75000D01*
G01*
X133551600Y-94575000D01*
G75*
G02*
X133476600Y-94650000I-75000J0D01*
G01*
X132076600Y-94650000D01*
G75*
G02*
X132001600Y-94575000I0J75000D01*
G01*
X132001600Y-94425000D01*
G75*
G02*
X132076600Y-94350000I75000J0D01*
G01*
G37*
G36*
G01*
X132076600Y-94850000D02*
X133476600Y-94850000D01*
G75*
G02*
X133551600Y-94925000I0J-75000D01*
G01*
X133551600Y-95075000D01*
G75*
G02*
X133476600Y-95150000I-75000J0D01*
G01*
X132076600Y-95150000D01*
G75*
G02*
X132001600Y-95075000I0J75000D01*
G01*
X132001600Y-94925000D01*
G75*
G02*
X132076600Y-94850000I75000J0D01*
G01*
G37*
G36*
G01*
X132076600Y-95350000D02*
X133476600Y-95350000D01*
G75*
G02*
X133551600Y-95425000I0J-75000D01*
G01*
X133551600Y-95575000D01*
G75*
G02*
X133476600Y-95650000I-75000J0D01*
G01*
X132076600Y-95650000D01*
G75*
G02*
X132001600Y-95575000I0J75000D01*
G01*
X132001600Y-95425000D01*
G75*
G02*
X132076600Y-95350000I75000J0D01*
G01*
G37*
G36*
G01*
X132076600Y-95850000D02*
X133476600Y-95850000D01*
G75*
G02*
X133551600Y-95925000I0J-75000D01*
G01*
X133551600Y-96075000D01*
G75*
G02*
X133476600Y-96150000I-75000J0D01*
G01*
X132076600Y-96150000D01*
G75*
G02*
X132001600Y-96075000I0J75000D01*
G01*
X132001600Y-95925000D01*
G75*
G02*
X132076600Y-95850000I75000J0D01*
G01*
G37*
G36*
G01*
X132076600Y-96350000D02*
X133476600Y-96350000D01*
G75*
G02*
X133551600Y-96425000I0J-75000D01*
G01*
X133551600Y-96575000D01*
G75*
G02*
X133476600Y-96650000I-75000J0D01*
G01*
X132076600Y-96650000D01*
G75*
G02*
X132001600Y-96575000I0J75000D01*
G01*
X132001600Y-96425000D01*
G75*
G02*
X132076600Y-96350000I75000J0D01*
G01*
G37*
G36*
G01*
X132076600Y-96850000D02*
X133476600Y-96850000D01*
G75*
G02*
X133551600Y-96925000I0J-75000D01*
G01*
X133551600Y-97075000D01*
G75*
G02*
X133476600Y-97150000I-75000J0D01*
G01*
X132076600Y-97150000D01*
G75*
G02*
X132001600Y-97075000I0J75000D01*
G01*
X132001600Y-96925000D01*
G75*
G02*
X132076600Y-96850000I75000J0D01*
G01*
G37*
G36*
G01*
X132076600Y-97350000D02*
X133476600Y-97350000D01*
G75*
G02*
X133551600Y-97425000I0J-75000D01*
G01*
X133551600Y-97575000D01*
G75*
G02*
X133476600Y-97650000I-75000J0D01*
G01*
X132076600Y-97650000D01*
G75*
G02*
X132001600Y-97575000I0J75000D01*
G01*
X132001600Y-97425000D01*
G75*
G02*
X132076600Y-97350000I75000J0D01*
G01*
G37*
G36*
G01*
X132076600Y-97850000D02*
X133476600Y-97850000D01*
G75*
G02*
X133551600Y-97925000I0J-75000D01*
G01*
X133551600Y-98075000D01*
G75*
G02*
X133476600Y-98150000I-75000J0D01*
G01*
X132076600Y-98150000D01*
G75*
G02*
X132001600Y-98075000I0J75000D01*
G01*
X132001600Y-97925000D01*
G75*
G02*
X132076600Y-97850000I75000J0D01*
G01*
G37*
G36*
G01*
X132076600Y-98350000D02*
X133476600Y-98350000D01*
G75*
G02*
X133551600Y-98425000I0J-75000D01*
G01*
X133551600Y-98575000D01*
G75*
G02*
X133476600Y-98650000I-75000J0D01*
G01*
X132076600Y-98650000D01*
G75*
G02*
X132001600Y-98575000I0J75000D01*
G01*
X132001600Y-98425000D01*
G75*
G02*
X132076600Y-98350000I75000J0D01*
G01*
G37*
G36*
G01*
X132076600Y-98850000D02*
X133476600Y-98850000D01*
G75*
G02*
X133551600Y-98925000I0J-75000D01*
G01*
X133551600Y-99075000D01*
G75*
G02*
X133476600Y-99150000I-75000J0D01*
G01*
X132076600Y-99150000D01*
G75*
G02*
X132001600Y-99075000I0J75000D01*
G01*
X132001600Y-98925000D01*
G75*
G02*
X132076600Y-98850000I75000J0D01*
G01*
G37*
G36*
G01*
X130776600Y-100150000D02*
X130926600Y-100150000D01*
G75*
G02*
X131001600Y-100225000I0J-75000D01*
G01*
X131001600Y-101625000D01*
G75*
G02*
X130926600Y-101700000I-75000J0D01*
G01*
X130776600Y-101700000D01*
G75*
G02*
X130701600Y-101625000I0J75000D01*
G01*
X130701600Y-100225000D01*
G75*
G02*
X130776600Y-100150000I75000J0D01*
G01*
G37*
G36*
G01*
X130276600Y-100150000D02*
X130426600Y-100150000D01*
G75*
G02*
X130501600Y-100225000I0J-75000D01*
G01*
X130501600Y-101625000D01*
G75*
G02*
X130426600Y-101700000I-75000J0D01*
G01*
X130276600Y-101700000D01*
G75*
G02*
X130201600Y-101625000I0J75000D01*
G01*
X130201600Y-100225000D01*
G75*
G02*
X130276600Y-100150000I75000J0D01*
G01*
G37*
G36*
G01*
X129776600Y-100150000D02*
X129926600Y-100150000D01*
G75*
G02*
X130001600Y-100225000I0J-75000D01*
G01*
X130001600Y-101625000D01*
G75*
G02*
X129926600Y-101700000I-75000J0D01*
G01*
X129776600Y-101700000D01*
G75*
G02*
X129701600Y-101625000I0J75000D01*
G01*
X129701600Y-100225000D01*
G75*
G02*
X129776600Y-100150000I75000J0D01*
G01*
G37*
G36*
G01*
X129276600Y-100150000D02*
X129426600Y-100150000D01*
G75*
G02*
X129501600Y-100225000I0J-75000D01*
G01*
X129501600Y-101625000D01*
G75*
G02*
X129426600Y-101700000I-75000J0D01*
G01*
X129276600Y-101700000D01*
G75*
G02*
X129201600Y-101625000I0J75000D01*
G01*
X129201600Y-100225000D01*
G75*
G02*
X129276600Y-100150000I75000J0D01*
G01*
G37*
G36*
G01*
X128776600Y-100150000D02*
X128926600Y-100150000D01*
G75*
G02*
X129001600Y-100225000I0J-75000D01*
G01*
X129001600Y-101625000D01*
G75*
G02*
X128926600Y-101700000I-75000J0D01*
G01*
X128776600Y-101700000D01*
G75*
G02*
X128701600Y-101625000I0J75000D01*
G01*
X128701600Y-100225000D01*
G75*
G02*
X128776600Y-100150000I75000J0D01*
G01*
G37*
G36*
G01*
X128276600Y-100150000D02*
X128426600Y-100150000D01*
G75*
G02*
X128501600Y-100225000I0J-75000D01*
G01*
X128501600Y-101625000D01*
G75*
G02*
X128426600Y-101700000I-75000J0D01*
G01*
X128276600Y-101700000D01*
G75*
G02*
X128201600Y-101625000I0J75000D01*
G01*
X128201600Y-100225000D01*
G75*
G02*
X128276600Y-100150000I75000J0D01*
G01*
G37*
G36*
G01*
X127776600Y-100150000D02*
X127926600Y-100150000D01*
G75*
G02*
X128001600Y-100225000I0J-75000D01*
G01*
X128001600Y-101625000D01*
G75*
G02*
X127926600Y-101700000I-75000J0D01*
G01*
X127776600Y-101700000D01*
G75*
G02*
X127701600Y-101625000I0J75000D01*
G01*
X127701600Y-100225000D01*
G75*
G02*
X127776600Y-100150000I75000J0D01*
G01*
G37*
G36*
G01*
X127276600Y-100150000D02*
X127426600Y-100150000D01*
G75*
G02*
X127501600Y-100225000I0J-75000D01*
G01*
X127501600Y-101625000D01*
G75*
G02*
X127426600Y-101700000I-75000J0D01*
G01*
X127276600Y-101700000D01*
G75*
G02*
X127201600Y-101625000I0J75000D01*
G01*
X127201600Y-100225000D01*
G75*
G02*
X127276600Y-100150000I75000J0D01*
G01*
G37*
G36*
G01*
X126776600Y-100150000D02*
X126926600Y-100150000D01*
G75*
G02*
X127001600Y-100225000I0J-75000D01*
G01*
X127001600Y-101625000D01*
G75*
G02*
X126926600Y-101700000I-75000J0D01*
G01*
X126776600Y-101700000D01*
G75*
G02*
X126701600Y-101625000I0J75000D01*
G01*
X126701600Y-100225000D01*
G75*
G02*
X126776600Y-100150000I75000J0D01*
G01*
G37*
G36*
G01*
X126276600Y-100150000D02*
X126426600Y-100150000D01*
G75*
G02*
X126501600Y-100225000I0J-75000D01*
G01*
X126501600Y-101625000D01*
G75*
G02*
X126426600Y-101700000I-75000J0D01*
G01*
X126276600Y-101700000D01*
G75*
G02*
X126201600Y-101625000I0J75000D01*
G01*
X126201600Y-100225000D01*
G75*
G02*
X126276600Y-100150000I75000J0D01*
G01*
G37*
G36*
G01*
X125776600Y-100150000D02*
X125926600Y-100150000D01*
G75*
G02*
X126001600Y-100225000I0J-75000D01*
G01*
X126001600Y-101625000D01*
G75*
G02*
X125926600Y-101700000I-75000J0D01*
G01*
X125776600Y-101700000D01*
G75*
G02*
X125701600Y-101625000I0J75000D01*
G01*
X125701600Y-100225000D01*
G75*
G02*
X125776600Y-100150000I75000J0D01*
G01*
G37*
G36*
G01*
X125276600Y-100150000D02*
X125426600Y-100150000D01*
G75*
G02*
X125501600Y-100225000I0J-75000D01*
G01*
X125501600Y-101625000D01*
G75*
G02*
X125426600Y-101700000I-75000J0D01*
G01*
X125276600Y-101700000D01*
G75*
G02*
X125201600Y-101625000I0J75000D01*
G01*
X125201600Y-100225000D01*
G75*
G02*
X125276600Y-100150000I75000J0D01*
G01*
G37*
G36*
G01*
X124776600Y-100150000D02*
X124926600Y-100150000D01*
G75*
G02*
X125001600Y-100225000I0J-75000D01*
G01*
X125001600Y-101625000D01*
G75*
G02*
X124926600Y-101700000I-75000J0D01*
G01*
X124776600Y-101700000D01*
G75*
G02*
X124701600Y-101625000I0J75000D01*
G01*
X124701600Y-100225000D01*
G75*
G02*
X124776600Y-100150000I75000J0D01*
G01*
G37*
G36*
G01*
X124276600Y-100150000D02*
X124426600Y-100150000D01*
G75*
G02*
X124501600Y-100225000I0J-75000D01*
G01*
X124501600Y-101625000D01*
G75*
G02*
X124426600Y-101700000I-75000J0D01*
G01*
X124276600Y-101700000D01*
G75*
G02*
X124201600Y-101625000I0J75000D01*
G01*
X124201600Y-100225000D01*
G75*
G02*
X124276600Y-100150000I75000J0D01*
G01*
G37*
G36*
G01*
X123776600Y-100150000D02*
X123926600Y-100150000D01*
G75*
G02*
X124001600Y-100225000I0J-75000D01*
G01*
X124001600Y-101625000D01*
G75*
G02*
X123926600Y-101700000I-75000J0D01*
G01*
X123776600Y-101700000D01*
G75*
G02*
X123701600Y-101625000I0J75000D01*
G01*
X123701600Y-100225000D01*
G75*
G02*
X123776600Y-100150000I75000J0D01*
G01*
G37*
G36*
G01*
X123276600Y-100150000D02*
X123426600Y-100150000D01*
G75*
G02*
X123501600Y-100225000I0J-75000D01*
G01*
X123501600Y-101625000D01*
G75*
G02*
X123426600Y-101700000I-75000J0D01*
G01*
X123276600Y-101700000D01*
G75*
G02*
X123201600Y-101625000I0J75000D01*
G01*
X123201600Y-100225000D01*
G75*
G02*
X123276600Y-100150000I75000J0D01*
G01*
G37*
G36*
G01*
X120726600Y-98850000D02*
X122126600Y-98850000D01*
G75*
G02*
X122201600Y-98925000I0J-75000D01*
G01*
X122201600Y-99075000D01*
G75*
G02*
X122126600Y-99150000I-75000J0D01*
G01*
X120726600Y-99150000D01*
G75*
G02*
X120651600Y-99075000I0J75000D01*
G01*
X120651600Y-98925000D01*
G75*
G02*
X120726600Y-98850000I75000J0D01*
G01*
G37*
G36*
G01*
X120726600Y-98350000D02*
X122126600Y-98350000D01*
G75*
G02*
X122201600Y-98425000I0J-75000D01*
G01*
X122201600Y-98575000D01*
G75*
G02*
X122126600Y-98650000I-75000J0D01*
G01*
X120726600Y-98650000D01*
G75*
G02*
X120651600Y-98575000I0J75000D01*
G01*
X120651600Y-98425000D01*
G75*
G02*
X120726600Y-98350000I75000J0D01*
G01*
G37*
G36*
G01*
X120726600Y-97850000D02*
X122126600Y-97850000D01*
G75*
G02*
X122201600Y-97925000I0J-75000D01*
G01*
X122201600Y-98075000D01*
G75*
G02*
X122126600Y-98150000I-75000J0D01*
G01*
X120726600Y-98150000D01*
G75*
G02*
X120651600Y-98075000I0J75000D01*
G01*
X120651600Y-97925000D01*
G75*
G02*
X120726600Y-97850000I75000J0D01*
G01*
G37*
G36*
G01*
X120726600Y-97350000D02*
X122126600Y-97350000D01*
G75*
G02*
X122201600Y-97425000I0J-75000D01*
G01*
X122201600Y-97575000D01*
G75*
G02*
X122126600Y-97650000I-75000J0D01*
G01*
X120726600Y-97650000D01*
G75*
G02*
X120651600Y-97575000I0J75000D01*
G01*
X120651600Y-97425000D01*
G75*
G02*
X120726600Y-97350000I75000J0D01*
G01*
G37*
G36*
G01*
X120726600Y-96850000D02*
X122126600Y-96850000D01*
G75*
G02*
X122201600Y-96925000I0J-75000D01*
G01*
X122201600Y-97075000D01*
G75*
G02*
X122126600Y-97150000I-75000J0D01*
G01*
X120726600Y-97150000D01*
G75*
G02*
X120651600Y-97075000I0J75000D01*
G01*
X120651600Y-96925000D01*
G75*
G02*
X120726600Y-96850000I75000J0D01*
G01*
G37*
G36*
G01*
X120726600Y-96350000D02*
X122126600Y-96350000D01*
G75*
G02*
X122201600Y-96425000I0J-75000D01*
G01*
X122201600Y-96575000D01*
G75*
G02*
X122126600Y-96650000I-75000J0D01*
G01*
X120726600Y-96650000D01*
G75*
G02*
X120651600Y-96575000I0J75000D01*
G01*
X120651600Y-96425000D01*
G75*
G02*
X120726600Y-96350000I75000J0D01*
G01*
G37*
G36*
G01*
X120726600Y-95850000D02*
X122126600Y-95850000D01*
G75*
G02*
X122201600Y-95925000I0J-75000D01*
G01*
X122201600Y-96075000D01*
G75*
G02*
X122126600Y-96150000I-75000J0D01*
G01*
X120726600Y-96150000D01*
G75*
G02*
X120651600Y-96075000I0J75000D01*
G01*
X120651600Y-95925000D01*
G75*
G02*
X120726600Y-95850000I75000J0D01*
G01*
G37*
G36*
G01*
X120726600Y-95350000D02*
X122126600Y-95350000D01*
G75*
G02*
X122201600Y-95425000I0J-75000D01*
G01*
X122201600Y-95575000D01*
G75*
G02*
X122126600Y-95650000I-75000J0D01*
G01*
X120726600Y-95650000D01*
G75*
G02*
X120651600Y-95575000I0J75000D01*
G01*
X120651600Y-95425000D01*
G75*
G02*
X120726600Y-95350000I75000J0D01*
G01*
G37*
G36*
G01*
X120726600Y-94850000D02*
X122126600Y-94850000D01*
G75*
G02*
X122201600Y-94925000I0J-75000D01*
G01*
X122201600Y-95075000D01*
G75*
G02*
X122126600Y-95150000I-75000J0D01*
G01*
X120726600Y-95150000D01*
G75*
G02*
X120651600Y-95075000I0J75000D01*
G01*
X120651600Y-94925000D01*
G75*
G02*
X120726600Y-94850000I75000J0D01*
G01*
G37*
G36*
G01*
X120726600Y-94350000D02*
X122126600Y-94350000D01*
G75*
G02*
X122201600Y-94425000I0J-75000D01*
G01*
X122201600Y-94575000D01*
G75*
G02*
X122126600Y-94650000I-75000J0D01*
G01*
X120726600Y-94650000D01*
G75*
G02*
X120651600Y-94575000I0J75000D01*
G01*
X120651600Y-94425000D01*
G75*
G02*
X120726600Y-94350000I75000J0D01*
G01*
G37*
G36*
G01*
X120726600Y-93850000D02*
X122126600Y-93850000D01*
G75*
G02*
X122201600Y-93925000I0J-75000D01*
G01*
X122201600Y-94075000D01*
G75*
G02*
X122126600Y-94150000I-75000J0D01*
G01*
X120726600Y-94150000D01*
G75*
G02*
X120651600Y-94075000I0J75000D01*
G01*
X120651600Y-93925000D01*
G75*
G02*
X120726600Y-93850000I75000J0D01*
G01*
G37*
G36*
G01*
X120726600Y-93350000D02*
X122126600Y-93350000D01*
G75*
G02*
X122201600Y-93425000I0J-75000D01*
G01*
X122201600Y-93575000D01*
G75*
G02*
X122126600Y-93650000I-75000J0D01*
G01*
X120726600Y-93650000D01*
G75*
G02*
X120651600Y-93575000I0J75000D01*
G01*
X120651600Y-93425000D01*
G75*
G02*
X120726600Y-93350000I75000J0D01*
G01*
G37*
G36*
G01*
X120726600Y-92850000D02*
X122126600Y-92850000D01*
G75*
G02*
X122201600Y-92925000I0J-75000D01*
G01*
X122201600Y-93075000D01*
G75*
G02*
X122126600Y-93150000I-75000J0D01*
G01*
X120726600Y-93150000D01*
G75*
G02*
X120651600Y-93075000I0J75000D01*
G01*
X120651600Y-92925000D01*
G75*
G02*
X120726600Y-92850000I75000J0D01*
G01*
G37*
G36*
G01*
X120726600Y-92350000D02*
X122126600Y-92350000D01*
G75*
G02*
X122201600Y-92425000I0J-75000D01*
G01*
X122201600Y-92575000D01*
G75*
G02*
X122126600Y-92650000I-75000J0D01*
G01*
X120726600Y-92650000D01*
G75*
G02*
X120651600Y-92575000I0J75000D01*
G01*
X120651600Y-92425000D01*
G75*
G02*
X120726600Y-92350000I75000J0D01*
G01*
G37*
G36*
G01*
X120726600Y-91850000D02*
X122126600Y-91850000D01*
G75*
G02*
X122201600Y-91925000I0J-75000D01*
G01*
X122201600Y-92075000D01*
G75*
G02*
X122126600Y-92150000I-75000J0D01*
G01*
X120726600Y-92150000D01*
G75*
G02*
X120651600Y-92075000I0J75000D01*
G01*
X120651600Y-91925000D01*
G75*
G02*
X120726600Y-91850000I75000J0D01*
G01*
G37*
G36*
G01*
X120726600Y-91350000D02*
X122126600Y-91350000D01*
G75*
G02*
X122201600Y-91425000I0J-75000D01*
G01*
X122201600Y-91575000D01*
G75*
G02*
X122126600Y-91650000I-75000J0D01*
G01*
X120726600Y-91650000D01*
G75*
G02*
X120651600Y-91575000I0J75000D01*
G01*
X120651600Y-91425000D01*
G75*
G02*
X120726600Y-91350000I75000J0D01*
G01*
G37*
G36*
G01*
X123276600Y-88800000D02*
X123426600Y-88800000D01*
G75*
G02*
X123501600Y-88875000I0J-75000D01*
G01*
X123501600Y-90275000D01*
G75*
G02*
X123426600Y-90350000I-75000J0D01*
G01*
X123276600Y-90350000D01*
G75*
G02*
X123201600Y-90275000I0J75000D01*
G01*
X123201600Y-88875000D01*
G75*
G02*
X123276600Y-88800000I75000J0D01*
G01*
G37*
G36*
G01*
X123776600Y-88800000D02*
X123926600Y-88800000D01*
G75*
G02*
X124001600Y-88875000I0J-75000D01*
G01*
X124001600Y-90275000D01*
G75*
G02*
X123926600Y-90350000I-75000J0D01*
G01*
X123776600Y-90350000D01*
G75*
G02*
X123701600Y-90275000I0J75000D01*
G01*
X123701600Y-88875000D01*
G75*
G02*
X123776600Y-88800000I75000J0D01*
G01*
G37*
G36*
G01*
X124276600Y-88800000D02*
X124426600Y-88800000D01*
G75*
G02*
X124501600Y-88875000I0J-75000D01*
G01*
X124501600Y-90275000D01*
G75*
G02*
X124426600Y-90350000I-75000J0D01*
G01*
X124276600Y-90350000D01*
G75*
G02*
X124201600Y-90275000I0J75000D01*
G01*
X124201600Y-88875000D01*
G75*
G02*
X124276600Y-88800000I75000J0D01*
G01*
G37*
G36*
G01*
X124776600Y-88800000D02*
X124926600Y-88800000D01*
G75*
G02*
X125001600Y-88875000I0J-75000D01*
G01*
X125001600Y-90275000D01*
G75*
G02*
X124926600Y-90350000I-75000J0D01*
G01*
X124776600Y-90350000D01*
G75*
G02*
X124701600Y-90275000I0J75000D01*
G01*
X124701600Y-88875000D01*
G75*
G02*
X124776600Y-88800000I75000J0D01*
G01*
G37*
G36*
G01*
X125276600Y-88800000D02*
X125426600Y-88800000D01*
G75*
G02*
X125501600Y-88875000I0J-75000D01*
G01*
X125501600Y-90275000D01*
G75*
G02*
X125426600Y-90350000I-75000J0D01*
G01*
X125276600Y-90350000D01*
G75*
G02*
X125201600Y-90275000I0J75000D01*
G01*
X125201600Y-88875000D01*
G75*
G02*
X125276600Y-88800000I75000J0D01*
G01*
G37*
G36*
G01*
X125776600Y-88800000D02*
X125926600Y-88800000D01*
G75*
G02*
X126001600Y-88875000I0J-75000D01*
G01*
X126001600Y-90275000D01*
G75*
G02*
X125926600Y-90350000I-75000J0D01*
G01*
X125776600Y-90350000D01*
G75*
G02*
X125701600Y-90275000I0J75000D01*
G01*
X125701600Y-88875000D01*
G75*
G02*
X125776600Y-88800000I75000J0D01*
G01*
G37*
G36*
G01*
X126276600Y-88800000D02*
X126426600Y-88800000D01*
G75*
G02*
X126501600Y-88875000I0J-75000D01*
G01*
X126501600Y-90275000D01*
G75*
G02*
X126426600Y-90350000I-75000J0D01*
G01*
X126276600Y-90350000D01*
G75*
G02*
X126201600Y-90275000I0J75000D01*
G01*
X126201600Y-88875000D01*
G75*
G02*
X126276600Y-88800000I75000J0D01*
G01*
G37*
G36*
G01*
X126776600Y-88800000D02*
X126926600Y-88800000D01*
G75*
G02*
X127001600Y-88875000I0J-75000D01*
G01*
X127001600Y-90275000D01*
G75*
G02*
X126926600Y-90350000I-75000J0D01*
G01*
X126776600Y-90350000D01*
G75*
G02*
X126701600Y-90275000I0J75000D01*
G01*
X126701600Y-88875000D01*
G75*
G02*
X126776600Y-88800000I75000J0D01*
G01*
G37*
G36*
G01*
X127276600Y-88800000D02*
X127426600Y-88800000D01*
G75*
G02*
X127501600Y-88875000I0J-75000D01*
G01*
X127501600Y-90275000D01*
G75*
G02*
X127426600Y-90350000I-75000J0D01*
G01*
X127276600Y-90350000D01*
G75*
G02*
X127201600Y-90275000I0J75000D01*
G01*
X127201600Y-88875000D01*
G75*
G02*
X127276600Y-88800000I75000J0D01*
G01*
G37*
G36*
G01*
X127776600Y-88800000D02*
X127926600Y-88800000D01*
G75*
G02*
X128001600Y-88875000I0J-75000D01*
G01*
X128001600Y-90275000D01*
G75*
G02*
X127926600Y-90350000I-75000J0D01*
G01*
X127776600Y-90350000D01*
G75*
G02*
X127701600Y-90275000I0J75000D01*
G01*
X127701600Y-88875000D01*
G75*
G02*
X127776600Y-88800000I75000J0D01*
G01*
G37*
G36*
G01*
X128276600Y-88800000D02*
X128426600Y-88800000D01*
G75*
G02*
X128501600Y-88875000I0J-75000D01*
G01*
X128501600Y-90275000D01*
G75*
G02*
X128426600Y-90350000I-75000J0D01*
G01*
X128276600Y-90350000D01*
G75*
G02*
X128201600Y-90275000I0J75000D01*
G01*
X128201600Y-88875000D01*
G75*
G02*
X128276600Y-88800000I75000J0D01*
G01*
G37*
G36*
G01*
X128776600Y-88800000D02*
X128926600Y-88800000D01*
G75*
G02*
X129001600Y-88875000I0J-75000D01*
G01*
X129001600Y-90275000D01*
G75*
G02*
X128926600Y-90350000I-75000J0D01*
G01*
X128776600Y-90350000D01*
G75*
G02*
X128701600Y-90275000I0J75000D01*
G01*
X128701600Y-88875000D01*
G75*
G02*
X128776600Y-88800000I75000J0D01*
G01*
G37*
G36*
G01*
X129276600Y-88800000D02*
X129426600Y-88800000D01*
G75*
G02*
X129501600Y-88875000I0J-75000D01*
G01*
X129501600Y-90275000D01*
G75*
G02*
X129426600Y-90350000I-75000J0D01*
G01*
X129276600Y-90350000D01*
G75*
G02*
X129201600Y-90275000I0J75000D01*
G01*
X129201600Y-88875000D01*
G75*
G02*
X129276600Y-88800000I75000J0D01*
G01*
G37*
G36*
G01*
X129776600Y-88800000D02*
X129926600Y-88800000D01*
G75*
G02*
X130001600Y-88875000I0J-75000D01*
G01*
X130001600Y-90275000D01*
G75*
G02*
X129926600Y-90350000I-75000J0D01*
G01*
X129776600Y-90350000D01*
G75*
G02*
X129701600Y-90275000I0J75000D01*
G01*
X129701600Y-88875000D01*
G75*
G02*
X129776600Y-88800000I75000J0D01*
G01*
G37*
G36*
G01*
X130276600Y-88800000D02*
X130426600Y-88800000D01*
G75*
G02*
X130501600Y-88875000I0J-75000D01*
G01*
X130501600Y-90275000D01*
G75*
G02*
X130426600Y-90350000I-75000J0D01*
G01*
X130276600Y-90350000D01*
G75*
G02*
X130201600Y-90275000I0J75000D01*
G01*
X130201600Y-88875000D01*
G75*
G02*
X130276600Y-88800000I75000J0D01*
G01*
G37*
G36*
G01*
X130776600Y-88800000D02*
X130926600Y-88800000D01*
G75*
G02*
X131001600Y-88875000I0J-75000D01*
G01*
X131001600Y-90275000D01*
G75*
G02*
X130926600Y-90350000I-75000J0D01*
G01*
X130776600Y-90350000D01*
G75*
G02*
X130701600Y-90275000I0J75000D01*
G01*
X130701600Y-88875000D01*
G75*
G02*
X130776600Y-88800000I75000J0D01*
G01*
G37*
G04 #@! TD*
D10*
G04 #@! TO.C,U3*
X150365600Y-117111000D03*
X137365600Y-117111000D03*
X150365600Y-118611000D03*
X137365600Y-118611000D03*
X150365600Y-120111000D03*
X137365600Y-120111000D03*
X150365600Y-121611000D03*
X137365600Y-121611000D03*
X150365600Y-123111000D03*
X137365600Y-123111000D03*
X150365600Y-124611000D03*
X137365600Y-124611000D03*
X150365600Y-126111000D03*
X137365600Y-126111000D03*
X150365600Y-127611000D03*
X137365600Y-127611000D03*
X150365600Y-129111000D03*
X137365600Y-129111000D03*
X150365600Y-130611000D03*
X137365600Y-130611000D03*
X150365600Y-132111000D03*
X137365600Y-132111000D03*
X150365600Y-133611000D03*
X137365600Y-133611000D03*
X150365600Y-135111000D03*
X137365600Y-135111000D03*
G04 #@! TD*
D11*
G04 #@! TO.C,U2*
X149733400Y-96340200D03*
X149733400Y-91740200D03*
X149733400Y-94040200D03*
D12*
X143433400Y-94040200D03*
G04 #@! TD*
D11*
G04 #@! TO.C,U1*
X149682600Y-83773800D03*
X149682600Y-79173800D03*
X149682600Y-81473800D03*
D12*
X143382600Y-81473800D03*
G04 #@! TD*
D13*
G04 #@! TO.C,SW1*
X150233600Y-111824600D03*
X150233600Y-107324600D03*
X142273600Y-107324600D03*
X142273600Y-111824600D03*
G04 #@! TD*
G04 #@! TO.C,R10*
G36*
G01*
X115893800Y-133749201D02*
X115893800Y-132849199D01*
G75*
G02*
X116143799Y-132599200I249999J0D01*
G01*
X116843801Y-132599200D01*
G75*
G02*
X117093800Y-132849199I0J-249999D01*
G01*
X117093800Y-133749201D01*
G75*
G02*
X116843801Y-133999200I-249999J0D01*
G01*
X116143799Y-133999200D01*
G75*
G02*
X115893800Y-133749201I0J249999D01*
G01*
G37*
G36*
G01*
X113893800Y-133749201D02*
X113893800Y-132849199D01*
G75*
G02*
X114143799Y-132599200I249999J0D01*
G01*
X114843801Y-132599200D01*
G75*
G02*
X115093800Y-132849199I0J-249999D01*
G01*
X115093800Y-133749201D01*
G75*
G02*
X114843801Y-133999200I-249999J0D01*
G01*
X114143799Y-133999200D01*
G75*
G02*
X113893800Y-133749201I0J249999D01*
G01*
G37*
G04 #@! TD*
G04 #@! TO.C,R9*
G36*
G01*
X115893800Y-126764201D02*
X115893800Y-125864199D01*
G75*
G02*
X116143799Y-125614200I249999J0D01*
G01*
X116843801Y-125614200D01*
G75*
G02*
X117093800Y-125864199I0J-249999D01*
G01*
X117093800Y-126764201D01*
G75*
G02*
X116843801Y-127014200I-249999J0D01*
G01*
X116143799Y-127014200D01*
G75*
G02*
X115893800Y-126764201I0J249999D01*
G01*
G37*
G36*
G01*
X113893800Y-126764201D02*
X113893800Y-125864199D01*
G75*
G02*
X114143799Y-125614200I249999J0D01*
G01*
X114843801Y-125614200D01*
G75*
G02*
X115093800Y-125864199I0J-249999D01*
G01*
X115093800Y-126764201D01*
G75*
G02*
X114843801Y-127014200I-249999J0D01*
G01*
X114143799Y-127014200D01*
G75*
G02*
X113893800Y-126764201I0J249999D01*
G01*
G37*
G04 #@! TD*
G04 #@! TO.C,R8*
G36*
G01*
X115893800Y-119753801D02*
X115893800Y-118853799D01*
G75*
G02*
X116143799Y-118603800I249999J0D01*
G01*
X116843801Y-118603800D01*
G75*
G02*
X117093800Y-118853799I0J-249999D01*
G01*
X117093800Y-119753801D01*
G75*
G02*
X116843801Y-120003800I-249999J0D01*
G01*
X116143799Y-120003800D01*
G75*
G02*
X115893800Y-119753801I0J249999D01*
G01*
G37*
G36*
G01*
X113893800Y-119753801D02*
X113893800Y-118853799D01*
G75*
G02*
X114143799Y-118603800I249999J0D01*
G01*
X114843801Y-118603800D01*
G75*
G02*
X115093800Y-118853799I0J-249999D01*
G01*
X115093800Y-119753801D01*
G75*
G02*
X114843801Y-120003800I-249999J0D01*
G01*
X114143799Y-120003800D01*
G75*
G02*
X113893800Y-119753801I0J249999D01*
G01*
G37*
G04 #@! TD*
G04 #@! TO.C,R7*
G36*
G01*
X115893800Y-109873201D02*
X115893800Y-108973199D01*
G75*
G02*
X116143799Y-108723200I249999J0D01*
G01*
X116843801Y-108723200D01*
G75*
G02*
X117093800Y-108973199I0J-249999D01*
G01*
X117093800Y-109873201D01*
G75*
G02*
X116843801Y-110123200I-249999J0D01*
G01*
X116143799Y-110123200D01*
G75*
G02*
X115893800Y-109873201I0J249999D01*
G01*
G37*
G36*
G01*
X113893800Y-109873201D02*
X113893800Y-108973199D01*
G75*
G02*
X114143799Y-108723200I249999J0D01*
G01*
X114843801Y-108723200D01*
G75*
G02*
X115093800Y-108973199I0J-249999D01*
G01*
X115093800Y-109873201D01*
G75*
G02*
X114843801Y-110123200I-249999J0D01*
G01*
X114143799Y-110123200D01*
G75*
G02*
X113893800Y-109873201I0J249999D01*
G01*
G37*
G04 #@! TD*
G04 #@! TO.C,R6*
G36*
G01*
X115893800Y-102837401D02*
X115893800Y-101937399D01*
G75*
G02*
X116143799Y-101687400I249999J0D01*
G01*
X116843801Y-101687400D01*
G75*
G02*
X117093800Y-101937399I0J-249999D01*
G01*
X117093800Y-102837401D01*
G75*
G02*
X116843801Y-103087400I-249999J0D01*
G01*
X116143799Y-103087400D01*
G75*
G02*
X115893800Y-102837401I0J249999D01*
G01*
G37*
G36*
G01*
X113893800Y-102837401D02*
X113893800Y-101937399D01*
G75*
G02*
X114143799Y-101687400I249999J0D01*
G01*
X114843801Y-101687400D01*
G75*
G02*
X115093800Y-101937399I0J-249999D01*
G01*
X115093800Y-102837401D01*
G75*
G02*
X114843801Y-103087400I-249999J0D01*
G01*
X114143799Y-103087400D01*
G75*
G02*
X113893800Y-102837401I0J249999D01*
G01*
G37*
G04 #@! TD*
G04 #@! TO.C,R5*
G36*
G01*
X115893800Y-95827001D02*
X115893800Y-94926999D01*
G75*
G02*
X116143799Y-94677000I249999J0D01*
G01*
X116843801Y-94677000D01*
G75*
G02*
X117093800Y-94926999I0J-249999D01*
G01*
X117093800Y-95827001D01*
G75*
G02*
X116843801Y-96077000I-249999J0D01*
G01*
X116143799Y-96077000D01*
G75*
G02*
X115893800Y-95827001I0J249999D01*
G01*
G37*
G36*
G01*
X113893800Y-95827001D02*
X113893800Y-94926999D01*
G75*
G02*
X114143799Y-94677000I249999J0D01*
G01*
X114843801Y-94677000D01*
G75*
G02*
X115093800Y-94926999I0J-249999D01*
G01*
X115093800Y-95827001D01*
G75*
G02*
X114843801Y-96077000I-249999J0D01*
G01*
X114143799Y-96077000D01*
G75*
G02*
X113893800Y-95827001I0J249999D01*
G01*
G37*
G04 #@! TD*
G04 #@! TO.C,R4*
G36*
G01*
X115893800Y-85997201D02*
X115893800Y-85097199D01*
G75*
G02*
X116143799Y-84847200I249999J0D01*
G01*
X116843801Y-84847200D01*
G75*
G02*
X117093800Y-85097199I0J-249999D01*
G01*
X117093800Y-85997201D01*
G75*
G02*
X116843801Y-86247200I-249999J0D01*
G01*
X116143799Y-86247200D01*
G75*
G02*
X115893800Y-85997201I0J249999D01*
G01*
G37*
G36*
G01*
X113893800Y-85997201D02*
X113893800Y-85097199D01*
G75*
G02*
X114143799Y-84847200I249999J0D01*
G01*
X114843801Y-84847200D01*
G75*
G02*
X115093800Y-85097199I0J-249999D01*
G01*
X115093800Y-85997201D01*
G75*
G02*
X114843801Y-86247200I-249999J0D01*
G01*
X114143799Y-86247200D01*
G75*
G02*
X113893800Y-85997201I0J249999D01*
G01*
G37*
G04 #@! TD*
G04 #@! TO.C,R3*
G36*
G01*
X115893800Y-78986801D02*
X115893800Y-78086799D01*
G75*
G02*
X116143799Y-77836800I249999J0D01*
G01*
X116843801Y-77836800D01*
G75*
G02*
X117093800Y-78086799I0J-249999D01*
G01*
X117093800Y-78986801D01*
G75*
G02*
X116843801Y-79236800I-249999J0D01*
G01*
X116143799Y-79236800D01*
G75*
G02*
X115893800Y-78986801I0J249999D01*
G01*
G37*
G36*
G01*
X113893800Y-78986801D02*
X113893800Y-78086799D01*
G75*
G02*
X114143799Y-77836800I249999J0D01*
G01*
X114843801Y-77836800D01*
G75*
G02*
X115093800Y-78086799I0J-249999D01*
G01*
X115093800Y-78986801D01*
G75*
G02*
X114843801Y-79236800I-249999J0D01*
G01*
X114143799Y-79236800D01*
G75*
G02*
X113893800Y-78986801I0J249999D01*
G01*
G37*
G04 #@! TD*
G04 #@! TO.C,R2*
G36*
G01*
X115893800Y-72001801D02*
X115893800Y-71101799D01*
G75*
G02*
X116143799Y-70851800I249999J0D01*
G01*
X116843801Y-70851800D01*
G75*
G02*
X117093800Y-71101799I0J-249999D01*
G01*
X117093800Y-72001801D01*
G75*
G02*
X116843801Y-72251800I-249999J0D01*
G01*
X116143799Y-72251800D01*
G75*
G02*
X115893800Y-72001801I0J249999D01*
G01*
G37*
G36*
G01*
X113893800Y-72001801D02*
X113893800Y-71101799D01*
G75*
G02*
X114143799Y-70851800I249999J0D01*
G01*
X114843801Y-70851800D01*
G75*
G02*
X115093800Y-71101799I0J-249999D01*
G01*
X115093800Y-72001801D01*
G75*
G02*
X114843801Y-72251800I-249999J0D01*
G01*
X114143799Y-72251800D01*
G75*
G02*
X113893800Y-72001801I0J249999D01*
G01*
G37*
G04 #@! TD*
G04 #@! TO.C,R1*
G36*
G01*
X144722800Y-105148801D02*
X144722800Y-104248799D01*
G75*
G02*
X144972799Y-103998800I249999J0D01*
G01*
X145672801Y-103998800D01*
G75*
G02*
X145922800Y-104248799I0J-249999D01*
G01*
X145922800Y-105148801D01*
G75*
G02*
X145672801Y-105398800I-249999J0D01*
G01*
X144972799Y-105398800D01*
G75*
G02*
X144722800Y-105148801I0J249999D01*
G01*
G37*
G36*
G01*
X142722800Y-105148801D02*
X142722800Y-104248799D01*
G75*
G02*
X142972799Y-103998800I249999J0D01*
G01*
X143672801Y-103998800D01*
G75*
G02*
X143922800Y-104248799I0J-249999D01*
G01*
X143922800Y-105148801D01*
G75*
G02*
X143672801Y-105398800I-249999J0D01*
G01*
X142972799Y-105398800D01*
G75*
G02*
X142722800Y-105148801I0J249999D01*
G01*
G37*
G04 #@! TD*
D14*
G04 #@! TO.C,Q9*
X115443000Y-130159000D03*
X114493000Y-128159000D03*
X116393000Y-128159000D03*
G04 #@! TD*
G04 #@! TO.C,Q8*
X115417600Y-123174000D03*
X114467600Y-121174000D03*
X116367600Y-121174000D03*
G04 #@! TD*
G04 #@! TO.C,Q7*
X115417600Y-116163600D03*
X114467600Y-114163600D03*
X116367600Y-114163600D03*
G04 #@! TD*
G04 #@! TO.C,Q6*
X115417600Y-106283000D03*
X114467600Y-104283000D03*
X116367600Y-104283000D03*
G04 #@! TD*
G04 #@! TO.C,Q5*
X115417600Y-99247200D03*
X114467600Y-97247200D03*
X116367600Y-97247200D03*
G04 #@! TD*
G04 #@! TO.C,Q4*
X115417600Y-92236800D03*
X114467600Y-90236800D03*
X116367600Y-90236800D03*
G04 #@! TD*
G04 #@! TO.C,Q3*
X115417600Y-82407000D03*
X114467600Y-80407000D03*
X116367600Y-80407000D03*
G04 #@! TD*
G04 #@! TO.C,Q2*
X115417600Y-75396600D03*
X114467600Y-73396600D03*
X116367600Y-73396600D03*
G04 #@! TD*
G04 #@! TO.C,Q1*
X115417600Y-69732400D03*
X114467600Y-67732400D03*
X116367600Y-67732400D03*
G04 #@! TD*
G04 #@! TO.C,C12*
G36*
G01*
X149116200Y-105194600D02*
X149116200Y-104244600D01*
G75*
G02*
X149366200Y-103994600I250000J0D01*
G01*
X150041200Y-103994600D01*
G75*
G02*
X150291200Y-104244600I0J-250000D01*
G01*
X150291200Y-105194600D01*
G75*
G02*
X150041200Y-105444600I-250000J0D01*
G01*
X149366200Y-105444600D01*
G75*
G02*
X149116200Y-105194600I0J250000D01*
G01*
G37*
G36*
G01*
X147041200Y-105194600D02*
X147041200Y-104244600D01*
G75*
G02*
X147291200Y-103994600I250000J0D01*
G01*
X147966200Y-103994600D01*
G75*
G02*
X148216200Y-104244600I0J-250000D01*
G01*
X148216200Y-105194600D01*
G75*
G02*
X147966200Y-105444600I-250000J0D01*
G01*
X147291200Y-105444600D01*
G75*
G02*
X147041200Y-105194600I0J250000D01*
G01*
G37*
G04 #@! TD*
G04 #@! TO.C,C7*
G36*
G01*
X123222600Y-79382600D02*
X123222600Y-80332600D01*
G75*
G02*
X122972600Y-80582600I-250000J0D01*
G01*
X122297600Y-80582600D01*
G75*
G02*
X122047600Y-80332600I0J250000D01*
G01*
X122047600Y-79382600D01*
G75*
G02*
X122297600Y-79132600I250000J0D01*
G01*
X122972600Y-79132600D01*
G75*
G02*
X123222600Y-79382600I0J-250000D01*
G01*
G37*
G36*
G01*
X125297600Y-79382600D02*
X125297600Y-80332600D01*
G75*
G02*
X125047600Y-80582600I-250000J0D01*
G01*
X124372600Y-80582600D01*
G75*
G02*
X124122600Y-80332600I0J250000D01*
G01*
X124122600Y-79382600D01*
G75*
G02*
X124372600Y-79132600I250000J0D01*
G01*
X125047600Y-79132600D01*
G75*
G02*
X125297600Y-79382600I0J-250000D01*
G01*
G37*
G04 #@! TD*
G04 #@! TO.C,C6*
G36*
G01*
X131082200Y-80459600D02*
X131082200Y-79509600D01*
G75*
G02*
X131332200Y-79259600I250000J0D01*
G01*
X132007200Y-79259600D01*
G75*
G02*
X132257200Y-79509600I0J-250000D01*
G01*
X132257200Y-80459600D01*
G75*
G02*
X132007200Y-80709600I-250000J0D01*
G01*
X131332200Y-80709600D01*
G75*
G02*
X131082200Y-80459600I0J250000D01*
G01*
G37*
G36*
G01*
X129007200Y-80459600D02*
X129007200Y-79509600D01*
G75*
G02*
X129257200Y-79259600I250000J0D01*
G01*
X129932200Y-79259600D01*
G75*
G02*
X130182200Y-79509600I0J-250000D01*
G01*
X130182200Y-80459600D01*
G75*
G02*
X129932200Y-80709600I-250000J0D01*
G01*
X129257200Y-80709600D01*
G75*
G02*
X129007200Y-80459600I0J250000D01*
G01*
G37*
G04 #@! TD*
G04 #@! TO.C,C4*
G36*
G01*
X147033400Y-99636600D02*
X147033400Y-98686600D01*
G75*
G02*
X147283400Y-98436600I250000J0D01*
G01*
X147958400Y-98436600D01*
G75*
G02*
X148208400Y-98686600I0J-250000D01*
G01*
X148208400Y-99636600D01*
G75*
G02*
X147958400Y-99886600I-250000J0D01*
G01*
X147283400Y-99886600D01*
G75*
G02*
X147033400Y-99636600I0J250000D01*
G01*
G37*
G36*
G01*
X144958400Y-99636600D02*
X144958400Y-98686600D01*
G75*
G02*
X145208400Y-98436600I250000J0D01*
G01*
X145883400Y-98436600D01*
G75*
G02*
X146133400Y-98686600I0J-250000D01*
G01*
X146133400Y-99636600D01*
G75*
G02*
X145883400Y-99886600I-250000J0D01*
G01*
X145208400Y-99886600D01*
G75*
G02*
X144958400Y-99636600I0J250000D01*
G01*
G37*
G04 #@! TD*
G04 #@! TO.C,C3*
G36*
G01*
X146057200Y-88443800D02*
X146057200Y-89393800D01*
G75*
G02*
X145807200Y-89643800I-250000J0D01*
G01*
X145132200Y-89643800D01*
G75*
G02*
X144882200Y-89393800I0J250000D01*
G01*
X144882200Y-88443800D01*
G75*
G02*
X145132200Y-88193800I250000J0D01*
G01*
X145807200Y-88193800D01*
G75*
G02*
X146057200Y-88443800I0J-250000D01*
G01*
G37*
G36*
G01*
X148132200Y-88443800D02*
X148132200Y-89393800D01*
G75*
G02*
X147882200Y-89643800I-250000J0D01*
G01*
X147207200Y-89643800D01*
G75*
G02*
X146957200Y-89393800I0J250000D01*
G01*
X146957200Y-88443800D01*
G75*
G02*
X147207200Y-88193800I250000J0D01*
G01*
X147882200Y-88193800D01*
G75*
G02*
X148132200Y-88443800I0J-250000D01*
G01*
G37*
G04 #@! TD*
G04 #@! TO.C,C2*
G36*
G01*
X146982600Y-87070200D02*
X146982600Y-86120200D01*
G75*
G02*
X147232600Y-85870200I250000J0D01*
G01*
X147907600Y-85870200D01*
G75*
G02*
X148157600Y-86120200I0J-250000D01*
G01*
X148157600Y-87070200D01*
G75*
G02*
X147907600Y-87320200I-250000J0D01*
G01*
X147232600Y-87320200D01*
G75*
G02*
X146982600Y-87070200I0J250000D01*
G01*
G37*
G36*
G01*
X144907600Y-87070200D02*
X144907600Y-86120200D01*
G75*
G02*
X145157600Y-85870200I250000J0D01*
G01*
X145832600Y-85870200D01*
G75*
G02*
X146082600Y-86120200I0J-250000D01*
G01*
X146082600Y-87070200D01*
G75*
G02*
X145832600Y-87320200I-250000J0D01*
G01*
X145157600Y-87320200D01*
G75*
G02*
X144907600Y-87070200I0J250000D01*
G01*
G37*
G04 #@! TD*
G04 #@! TO.C,C1*
G36*
G01*
X146082600Y-75877400D02*
X146082600Y-76827400D01*
G75*
G02*
X145832600Y-77077400I-250000J0D01*
G01*
X145157600Y-77077400D01*
G75*
G02*
X144907600Y-76827400I0J250000D01*
G01*
X144907600Y-75877400D01*
G75*
G02*
X145157600Y-75627400I250000J0D01*
G01*
X145832600Y-75627400D01*
G75*
G02*
X146082600Y-75877400I0J-250000D01*
G01*
G37*
G36*
G01*
X148157600Y-75877400D02*
X148157600Y-76827400D01*
G75*
G02*
X147907600Y-77077400I-250000J0D01*
G01*
X147232600Y-77077400D01*
G75*
G02*
X146982600Y-76827400I0J250000D01*
G01*
X146982600Y-75877400D01*
G75*
G02*
X147232600Y-75627400I250000J0D01*
G01*
X147907600Y-75627400D01*
G75*
G02*
X148157600Y-75877400I0J-250000D01*
G01*
G37*
G04 #@! TD*
M02*
